<svg width="228" height="58" viewBox="0 0 228 58" fill="none" xmlns="http://www.w3.org/2000/svg">
<path d="M223 57H14.8028C13.719 57 12.6817 56.5602 11.9281 55.7813L2.12526 45.6493C1.4035 44.9034 1 43.906 1 42.868V5C1 2.79086 2.79086 1 5 1H51.096C52.1798 1 53.2171 1.43977 53.9707 2.21866L56.9935 5.34297C57.7471 6.12187 58.7845 6.56164 59.8683 6.56163L223 6.56004C225.209 6.56002 227 8.35089 227 10.56V53C227 55.2091 225.209 57 223 57Z" fill="#030A17" fill-opacity="0.8"/>
<path d="M223 57H14.8028C13.719 57 12.6817 56.5602 11.9281 55.7813L2.12526 45.6493C1.4035 44.9034 1 43.906 1 42.868V5C1 2.79086 2.79086 1 5 1H51.096C52.1798 1 53.2171 1.43977 53.9707 2.21866L56.9935 5.34297C57.7471 6.12187 58.7845 6.56164 59.8683 6.56163L223 6.56004C225.209 6.56002 227 8.35089 227 10.56V53C227 55.2091 225.209 57 223 57Z" fill="#00E0FF" fill-opacity="0.3"/>
<path d="M223 57H14.8028C13.719 57 12.6817 56.5602 11.9281 55.7813L2.12526 45.6493C1.4035 44.9034 1 43.906 1 42.868V5C1 2.79086 2.79086 1 5 1H51.096C52.1798 1 53.2171 1.43977 53.9707 2.21866L56.9935 5.34297C57.7471 6.12187 58.7845 6.56164 59.8683 6.56163L223 6.56004C225.209 6.56002 227 8.35089 227 10.56V53C227 55.2091 225.209 57 223 57Z" stroke="#00E0FF" stroke-width="2"/>
<mask id="mask0_5302_1638" style="mask-type:alpha" maskUnits="userSpaceOnUse" x="61" y="19" width="24" height="25">
<rect x="61" y="19.5" width="24" height="24" fill="#D9D9D9"/>
</mask>
<g mask="url(#mask0_5302_1638)">
<path d="M76.325 35.775C76.1417 35.5583 76.05 35.3125 76.05 35.0375C76.05 34.7625 76.1417 34.5333 76.325 34.35L78.175 32.5H71C70.7167 32.5 70.4792 32.4042 70.2875 32.2125C70.0958 32.0208 70 31.7833 70 31.5C70 31.2167 70.0958 30.9792 70.2875 30.7875C70.4792 30.5958 70.7167 30.5 71 30.5H78.175L76.325 28.65C76.125 28.45 76.025 28.2125 76.025 27.9375C76.025 27.6625 76.125 27.425 76.325 27.225C76.5083 27.025 76.7375 26.925 77.0125 26.925C77.2875 26.925 77.5167 27.0167 77.7 27.2L81.3 30.8C81.4 30.9 81.4708 31.0083 81.5125 31.125C81.5542 31.2417 81.575 31.3667 81.575 31.5C81.575 31.6333 81.5542 31.7583 81.5125 31.875C81.4708 31.9917 81.4 32.1 81.3 32.2L77.7 35.8C77.4833 36.0167 77.2458 36.1125 76.9875 36.0875C76.7292 36.0625 76.5083 35.9583 76.325 35.775ZM66 40.5C65.45 40.5 64.9792 40.3042 64.5875 39.9125C64.1958 39.5208 64 39.05 64 38.5V24.5C64 23.95 64.1958 23.4792 64.5875 23.0875C64.9792 22.6958 65.45 22.5 66 22.5H72C72.2833 22.5 72.5208 22.5958 72.7125 22.7875C72.9042 22.9792 73 23.2167 73 23.5C73 23.7833 72.9042 24.0208 72.7125 24.2125C72.5208 24.4042 72.2833 24.5 72 24.5H66V38.5H72C72.2833 38.5 72.5208 38.5958 72.7125 38.7875C72.9042 38.9792 73 39.2167 73 39.5C73 39.7833 72.9042 40.0208 72.7125 40.2125C72.5208 40.4042 72.2833 40.5 72 40.5H66Z" fill="#FFFBFF"/>
</g>
<path d="M104.936 39H97.232C97.008 39 96.896 38.888 96.896 38.664V23.904C96.896 23.68 97.008 23.568 97.232 23.568H98.312C98.536 23.568 98.648 23.68 98.648 23.904V37.2C98.648 37.344 98.728 37.416 98.888 37.416H104.936C105.16 37.416 105.272 37.536 105.272 37.776V38.664C105.272 38.888 105.16 39 104.936 39ZM113.82 39H111.756C110.652 39 109.78 38.688 109.14 38.064C108.516 37.44 108.204 36.568 108.204 35.448V30.312C108.204 29.192 108.516 28.32 109.14 27.696C109.78 27.072 110.652 26.76 111.756 26.76H113.82C114.924 26.76 115.788 27.072 116.412 27.696C117.052 28.32 117.372 29.192 117.372 30.312V35.448C117.372 36.568 117.052 37.44 116.412 38.064C115.788 38.688 114.924 39 113.82 39ZM111.948 37.464H113.628C114.972 37.464 115.644 36.776 115.644 35.4V30.36C115.644 28.984 114.972 28.296 113.628 28.296H111.948C110.604 28.296 109.932 28.984 109.932 30.36V35.4C109.932 36.776 110.604 37.464 111.948 37.464ZM126.036 38.352H124.692C123.604 38.352 122.756 38.04 122.148 37.416C121.54 36.792 121.236 35.92 121.236 34.8V30.312C121.236 29.192 121.548 28.32 122.172 27.696C122.812 27.072 123.684 26.76 124.788 26.76H129.996C130.22 26.76 130.332 26.872 130.332 27.096V39C130.332 40.104 130.012 40.968 129.372 41.592C128.748 42.232 127.884 42.552 126.78 42.552H122.364C122.124 42.552 122.004 42.44 122.004 42.216V41.328C122.004 41.104 122.124 40.992 122.364 40.992H126.564C127.908 40.992 128.58 40.304 128.58 38.928V37.08H128.484C128.068 37.928 127.252 38.352 126.036 38.352ZM128.58 34.608V28.512C128.58 28.368 128.5 28.296 128.34 28.296H125.004C123.66 28.296 122.988 28.992 122.988 30.384V34.728C122.988 36.12 123.66 36.816 125.004 36.816H126.348C127.068 36.816 127.62 36.624 128.004 36.24C128.388 35.856 128.58 35.312 128.58 34.608ZM139.975 39H137.911C136.807 39 135.935 38.688 135.295 38.064C134.671 37.44 134.359 36.568 134.359 35.448V30.312C134.359 29.192 134.671 28.32 135.295 27.696C135.935 27.072 136.807 26.76 137.911 26.76H139.975C141.079 26.76 141.943 27.072 142.567 27.696C143.207 28.32 143.527 29.192 143.527 30.312V35.448C143.527 36.568 143.207 37.44 142.567 38.064C141.943 38.688 141.079 39 139.975 39ZM138.103 37.464H139.783C141.127 37.464 141.799 36.776 141.799 35.4V30.36C141.799 28.984 141.127 28.296 139.783 28.296H138.103C136.759 28.296 136.087 28.984 136.087 30.36V35.4C136.087 36.776 136.759 37.464 138.103 37.464ZM152.239 39H150.895C149.807 39 148.959 38.688 148.351 38.064C147.743 37.44 147.439 36.568 147.439 35.448V27.096C147.439 26.872 147.551 26.76 147.775 26.76H148.855C149.079 26.76 149.191 26.872 149.191 27.096V35.376C149.191 36.768 149.855 37.464 151.183 37.464H152.551C153.271 37.464 153.823 37.272 154.207 36.888C154.591 36.504 154.783 35.96 154.783 35.256V27.096C154.783 26.872 154.895 26.76 155.119 26.76H156.199C156.423 26.76 156.535 26.872 156.535 27.096V38.664C156.535 38.888 156.423 39 156.199 39H155.119C154.895 39 154.783 38.888 154.783 38.664V37.728H154.687C154.287 38.576 153.471 39 152.239 39ZM161.256 28.296H159.936C159.712 28.296 159.6 28.192 159.6 27.984V27.096C159.6 26.872 159.712 26.76 159.936 26.76H161.256C161.416 26.76 161.496 26.688 161.496 26.544V24.48C161.496 24.256 161.608 24.144 161.832 24.144H162.912C163.12 24.144 163.224 24.256 163.224 24.48V26.544C163.224 26.688 163.312 26.76 163.488 26.76H166.032C166.272 26.76 166.392 26.872 166.392 27.096V27.984C166.392 28.192 166.272 28.296 166.032 28.296H163.488C163.312 28.296 163.224 28.368 163.224 28.512V35.424C163.224 36.784 163.928 37.464 165.336 37.464H166.272C166.512 37.464 166.632 37.576 166.632 37.8V38.688C166.632 38.896 166.512 39 166.272 39H165.12C164.016 39 163.136 38.696 162.48 38.088C161.824 37.464 161.496 36.6 161.496 35.496V28.512C161.496 28.368 161.416 28.296 161.256 28.296Z" fill="#FFFBFF"/>
</svg>
