<svg xmlns="http://www.w3.org/2000/svg" xmlns:xlink="http://www.w3.org/1999/xlink" width="1080" zoomAndPan="magnify" viewBox="0 0 810 1439.999935" height="1920" preserveAspectRatio="xMidYMid meet" version="1.0"><defs><clipPath id="f1a70080cc"><path d="M 622.9375 22.882812 L 724 22.882812 L 724 124 L 622.9375 124 Z M 622.9375 22.882812 " clip-rule="nonzero"/></clipPath><clipPath id="64f1da7f54"><path d="M 710 80 L 787.1875 80 L 787.1875 158 L 710 158 Z M 710 80 " clip-rule="nonzero"/></clipPath><clipPath id="c218c494ad"><path d="M 664 124 L 720 124 L 720 179.632812 L 664 179.632812 Z M 664 124 " clip-rule="nonzero"/></clipPath><clipPath id="bb24783e48"><path d="M 112 1330 L 235 1330 L 235 1408.667969 L 112 1408.667969 Z M 112 1330 " clip-rule="nonzero"/></clipPath><clipPath id="38f3a5ccff"><path d="M 58 1351 L 243.527344 1351 L 243.527344 1401 L 58 1401 Z M 58 1351 " clip-rule="nonzero"/></clipPath><clipPath id="c5c5230c7e"><path d="M 38.777344 1310 L 233 1310 L 233 1404 L 38.777344 1404 Z M 38.777344 1310 " clip-rule="nonzero"/></clipPath></defs><rect x="-81" width="972" fill="#ffffff" y="-143.999994" height="1727.999922" fill-opacity="1"/><rect x="-81" width="972" fill="#0d1116" y="-143.999994" height="1727.999922" fill-opacity="1"/><g clip-path="url(#f1a70080cc)"><path fill="#059eaf" d="M 673.371094 97.160156 C 660.167969 97.160156 649.464844 86.46875 649.464844 73.273438 C 649.464844 60.082031 660.167969 49.386719 673.371094 49.386719 C 686.574219 49.386719 697.277344 60.082031 697.277344 73.273438 C 697.277344 86.46875 686.574219 97.160156 673.371094 97.160156 Z M 719.355469 63.472656 L 712.121094 63.472656 C 711.164062 59.679688 709.660156 56.101562 707.707031 52.828125 L 712.824219 47.714844 C 714.554688 45.980469 714.554688 43.167969 712.824219 41.4375 L 705.234375 33.851562 C 703.496094 32.117188 700.683594 32.117188 698.949219 33.851562 L 693.832031 38.964844 C 690.554688 37.011719 686.976562 35.507812 683.179688 34.550781 L 683.179688 27.324219 C 683.179688 24.875 681.191406 22.886719 678.738281 22.886719 L 668.003906 22.886719 C 665.550781 22.886719 663.5625 24.875 663.5625 27.324219 L 663.5625 34.550781 C 659.765625 35.507812 656.1875 37.011719 652.910156 38.964844 L 647.792969 33.851562 C 646.058594 32.117188 643.246094 32.117188 641.511719 33.851562 L 633.921875 41.4375 C 632.1875 43.167969 632.1875 45.980469 633.921875 47.714844 L 639.039062 52.828125 C 637.082031 56.101562 635.578125 59.679688 634.621094 63.472656 L 627.390625 63.472656 C 624.9375 63.472656 622.945312 65.460938 622.945312 67.914062 L 622.945312 78.636719 C 622.945312 81.089844 624.9375 83.078125 627.390625 83.078125 L 634.621094 83.078125 C 635.578125 86.871094 637.082031 90.445312 639.039062 93.71875 L 633.921875 98.832031 C 632.1875 100.566406 632.1875 103.378906 633.921875 105.113281 L 641.511719 112.695312 C 643.246094 114.429688 646.058594 114.429688 647.792969 112.695312 L 652.910156 107.582031 C 656.1875 109.539062 659.765625 111.039062 663.5625 111.996094 L 663.5625 119.222656 C 663.5625 121.675781 665.550781 123.664062 668.003906 123.664062 L 678.738281 123.664062 C 681.191406 123.664062 683.179688 121.675781 683.179688 119.222656 L 683.179688 111.996094 C 686.976562 111.039062 690.554688 109.539062 693.832031 107.582031 L 698.949219 112.695312 C 700.683594 114.429688 703.496094 114.429688 705.234375 112.695312 L 712.824219 105.113281 C 714.554688 103.378906 714.554688 100.566406 712.824219 98.832031 L 707.707031 93.71875 C 709.660156 90.445312 711.164062 86.871094 712.121094 83.078125 L 719.355469 83.078125 C 721.808594 83.078125 723.796875 81.089844 723.796875 78.636719 L 723.796875 67.914062 C 723.796875 65.460938 721.808594 63.472656 719.355469 63.472656 " fill-opacity="1" fill-rule="nonzero"/></g><g clip-path="url(#64f1da7f54)"><path fill="#4dc4ce" d="M 749.824219 136.972656 C 739.824219 137.660156 731.15625 130.117188 730.46875 120.121094 C 729.78125 110.125 737.332031 101.464844 747.332031 100.777344 C 757.335938 100.089844 766 107.636719 766.6875 117.628906 C 767.375 127.625 759.828125 136.285156 749.824219 136.972656 Z M 782.902344 109.054688 L 777.425781 109.429688 C 776.5 106.605469 775.175781 103.976562 773.523438 101.597656 L 777.132812 97.457031 C 778.355469 96.054688 778.210938 93.921875 776.804688 92.699219 L 770.660156 87.351562 C 769.253906 86.125 767.121094 86.273438 765.898438 87.675781 L 762.289062 91.816406 C 759.703125 90.507812 756.917969 89.554688 753.992188 89.027344 L 753.613281 83.554688 C 753.484375 81.695312 751.875 80.292969 750.015625 80.421875 L 741.882812 80.980469 C 740.023438 81.109375 738.621094 82.71875 738.75 84.578125 L 739.125 90.050781 C 736.300781 90.972656 733.667969 92.296875 731.289062 93.949219 L 727.144531 90.34375 C 725.738281 89.121094 723.609375 89.265625 722.382812 90.671875 L 717.03125 96.8125 C 715.804688 98.214844 715.953125 100.34375 717.359375 101.566406 L 721.5 105.175781 C 720.191406 107.757812 719.238281 110.542969 718.710938 113.46875 L 713.234375 113.84375 C 711.375 113.972656 709.96875 115.582031 710.097656 117.441406 L 710.65625 125.566406 C 710.785156 127.421875 712.398438 128.824219 714.253906 128.699219 L 719.734375 128.320312 C 720.65625 131.144531 721.984375 133.777344 723.636719 136.15625 L 720.027344 140.292969 C 718.800781 141.699219 718.949219 143.828125 720.355469 145.050781 L 726.5 150.402344 C 727.902344 151.625 730.035156 151.476562 731.257812 150.074219 L 734.867188 145.933594 C 737.453125 147.242188 740.242188 148.195312 743.167969 148.722656 L 743.542969 154.195312 C 743.675781 156.054688 745.28125 157.457031 747.144531 157.328125 L 755.273438 156.769531 C 757.132812 156.640625 758.535156 155.03125 758.40625 153.171875 L 758.03125 147.699219 C 760.855469 146.777344 763.488281 145.453125 765.871094 143.800781 L 770.011719 147.40625 C 771.417969 148.632812 773.550781 148.484375 774.773438 147.082031 L 780.128906 140.941406 C 781.351562 139.535156 781.203125 137.40625 779.796875 136.183594 L 775.65625 132.574219 C 776.96875 129.992188 777.917969 127.207031 778.449219 124.28125 L 783.925781 123.90625 C 785.785156 123.777344 787.1875 122.167969 787.058594 120.308594 L 786.5 112.1875 C 786.371094 110.328125 784.761719 108.925781 782.902344 109.054688 " fill-opacity="1" fill-rule="nonzero"/></g><g clip-path="url(#c218c494ad)"><path fill="#80d6f7" d="M 690.792969 165.03125 C 683.667969 164.515625 678.3125 158.328125 678.828125 151.207031 C 679.34375 144.089844 685.539062 138.738281 692.660156 139.25 C 699.785156 139.765625 705.140625 145.957031 704.625 153.074219 C 704.109375 160.195312 697.917969 165.546875 690.792969 165.03125 Z M 716.921875 148.648438 L 713.019531 148.367188 C 712.652344 146.28125 711.980469 144.292969 711.054688 142.449219 L 714.011719 139.890625 C 715.019531 139.023438 715.128906 137.507812 714.257812 136.503906 L 710.460938 132.113281 C 709.59375 131.109375 708.074219 131 707.070312 131.871094 L 704.109375 134.429688 C 702.417969 133.246094 700.546875 132.296875 698.535156 131.628906 L 698.816406 127.730469 C 698.914062 126.40625 697.917969 125.257812 696.59375 125.160156 L 690.800781 124.742188 C 689.476562 124.648438 688.328125 125.640625 688.230469 126.964844 L 687.949219 130.863281 C 685.863281 131.234375 683.871094 131.902344 682.027344 132.828125 L 679.46875 129.871094 C 678.597656 128.867188 677.082031 128.757812 676.078125 129.625 L 671.683594 133.421875 C 670.679688 134.289062 670.570312 135.804688 671.441406 136.808594 L 674 139.769531 C 672.816406 141.457031 671.867188 143.328125 671.199219 145.339844 L 667.300781 145.054688 C 665.976562 144.960938 664.824219 145.957031 664.726562 147.277344 L 664.308594 153.066406 C 664.210938 154.386719 665.207031 155.539062 666.53125 155.636719 L 670.433594 155.917969 C 670.800781 158 671.472656 159.988281 672.402344 161.832031 L 669.441406 164.390625 C 668.4375 165.257812 668.324219 166.777344 669.195312 167.78125 L 672.992188 172.167969 C 673.863281 173.171875 675.378906 173.28125 676.382812 172.414062 L 679.34375 169.855469 C 681.035156 171.039062 682.90625 171.988281 684.917969 172.652344 L 684.636719 176.550781 C 684.539062 177.875 685.535156 179.023438 686.859375 179.121094 L 692.652344 179.539062 C 693.976562 179.636719 695.125 178.640625 695.222656 177.316406 L 695.503906 173.417969 C 697.589844 173.050781 699.582031 172.378906 701.425781 171.453125 L 703.984375 174.410156 C 704.855469 175.414062 706.371094 175.523438 707.375 174.65625 L 711.769531 170.859375 C 712.773438 169.992188 712.882812 168.476562 712.015625 167.472656 L 709.453125 164.515625 C 710.636719 162.824219 711.585938 160.953125 712.253906 158.945312 L 716.152344 159.226562 C 717.480469 159.324219 718.628906 158.328125 718.726562 157.003906 L 719.144531 151.21875 C 719.242188 149.894531 718.246094 148.742188 716.921875 148.648438 " fill-opacity="1" fill-rule="nonzero"/></g><g clip-path="url(#bb24783e48)"><path fill="#485fc1" d="M 234.117188 1380.796875 C 232.933594 1382.1875 227.53125 1385.15625 225.3125 1384.929688 C 219.953125 1384.351562 214.679688 1380.085938 212.484375 1377.398438 C 214.273438 1381.84375 215.554688 1389.714844 215.824219 1393.679688 C 215.054688 1396.699219 216.097656 1394.808594 213.445312 1395.835938 C 210.792969 1396.863281 211.195312 1395.71875 208.558594 1396.804688 C 205.007812 1398.257812 184.777344 1398.5 175.265625 1397.230469 C 174.324219 1395.328125 173.644531 1385.714844 173.589844 1381.527344 C 173.523438 1376.78125 173.109375 1369.203125 176.339844 1360.953125 C 179.871094 1351.894531 189.167969 1351.078125 190.617188 1350.835938 C 193.152344 1350.429688 195.269531 1350.011719 196.417969 1350.925781 L 198.007812 1350.496094 C 200.625 1350.40625 201.308594 1350.660156 203.875 1351.179688 C 206.574219 1351.722656 209.703125 1353.117188 210.304688 1353.601562 C 215.136719 1356.734375 217.785156 1361.472656 220.339844 1365.773438 C 222.890625 1370.074219 223.347656 1372.554688 233.8125 1375.871094 C 235.378906 1376.988281 235.285156 1379.410156 234.117188 1380.796875 Z M 120.539062 1348.375 C 124.007812 1352.992188 127.835938 1355.101562 131.984375 1357.519531 C 134.035156 1358.71875 136.261719 1359.824219 138.238281 1361.492188 C 140.214844 1363.15625 142.464844 1367.386719 142.753906 1370.761719 C 142.953125 1367.535156 143.84375 1363.496094 145.84375 1360.972656 C 145.84375 1360.972656 149.773438 1357.132812 153.703125 1355.40625 C 156.421875 1354.308594 158.824219 1352.730469 160.917969 1350.675781 C 164.785156 1346.800781 164.363281 1341.828125 164.105469 1340.832031 C 163.496094 1338.496094 162.8125 1335.992188 160.898438 1333.15625 C 155.761719 1328.796875 144.164062 1331.269531 136.855469 1332.1875 C 129.546875 1333.109375 122.191406 1337.515625 122.191406 1337.515625 C 120.195312 1340.644531 120.007812 1342.972656 119.703125 1344.957031 C 119.585938 1345.53125 119.578125 1346.109375 119.671875 1346.6875 C 119.839844 1347.3125 120.125 1347.875 120.539062 1348.375 Z M 168.050781 1375.121094 L 113.769531 1374.566406 C 113.589844 1374.566406 113.414062 1374.597656 113.242188 1374.667969 C 113.074219 1374.734375 112.925781 1374.835938 112.796875 1374.964844 C 112.671875 1375.097656 112.574219 1375.246094 112.507812 1375.417969 C 112.441406 1375.589844 112.410156 1375.765625 112.417969 1375.949219 L 115.261719 1403.472656 L 115.488281 1407.441406 C 115.5 1407.609375 115.542969 1407.773438 115.617188 1407.925781 C 115.691406 1408.078125 115.792969 1408.210938 115.917969 1408.328125 C 116.042969 1408.441406 116.1875 1408.53125 116.347656 1408.589844 C 116.503906 1408.648438 116.671875 1408.679688 116.839844 1408.675781 L 165.511719 1408.617188 C 165.683594 1408.621094 165.847656 1408.589844 166.007812 1408.53125 C 166.167969 1408.46875 166.3125 1408.378906 166.4375 1408.261719 C 166.5625 1408.144531 166.660156 1408.007812 166.734375 1407.855469 C 166.808594 1407.699219 166.847656 1407.535156 166.859375 1407.363281 L 167.042969 1402.84375 L 169.425781 1376.453125 C 169.425781 1376.273438 169.390625 1376.097656 169.320312 1375.933594 C 169.253906 1375.765625 169.152344 1375.621094 169.023438 1375.496094 C 168.894531 1375.371094 168.746094 1375.273438 168.578125 1375.210938 C 168.410156 1375.144531 168.238281 1375.113281 168.058594 1375.121094 Z M 168.050781 1375.121094 " fill-opacity="1" fill-rule="nonzero"/></g><g clip-path="url(#38f3a5ccff)"><path fill="#40c5db" d="M 100.414062 1355.355469 C 104.574219 1360.066406 106.789062 1367.285156 108.144531 1372.660156 C 109.59375 1378.269531 109.9375 1383.832031 110.101562 1388.484375 C 110.101562 1388.484375 109.785156 1393.328125 101.335938 1395.65625 C 94.539062 1397.53125 80 1399.34375 70.515625 1395.171875 L 58.394531 1393.800781 C 58.195312 1391.652344 58.359375 1389.53125 58.875 1387.4375 C 60.460938 1379.820312 62.742188 1372.90625 66.671875 1367.09375 C 69.28125 1363.21875 71.878906 1358.527344 76.207031 1355.726562 C 76.207031 1355.742188 91.902344 1345.722656 100.414062 1355.355469 Z M 243.328125 1374.679688 C 243.121094 1374.222656 242.488281 1374.230469 241.996094 1374.300781 C 236.261719 1375.183594 225.71875 1376.574219 219.984375 1377.425781 C 218.761719 1377.609375 218.234375 1377.78125 217.988281 1378.800781 C 216.84375 1382.78125 215.746094 1387.140625 214.8125 1391.25 C 214.425781 1392.941406 213.847656 1393.421875 213.53125 1394.992188 C 213.375 1394.992188 212.96875 1395.667969 212.871094 1395.65625 C 212.328125 1395.609375 212.035156 1396.011719 211.164062 1395.953125 C 209.554688 1395.816406 207.945312 1395.78125 206.332031 1395.851562 C 202.199219 1396.265625 198.132812 1397.023438 194.128906 1398.121094 C 193.375 1398.316406 193.257812 1398.757812 194.101562 1398.886719 C 199.34375 1399.515625 208.601562 1400.460938 213.695312 1400.484375 C 213.847656 1400.484375 213.996094 1400.46875 214.140625 1400.4375 C 221.847656 1398.9375 229.5 1397.199219 237.105469 1395.222656 C 237.375 1395.175781 237.617188 1395.066406 237.828125 1394.894531 C 238.046875 1394.660156 238.183594 1394.382812 238.238281 1394.0625 L 243.300781 1375.46875 C 243.40625 1375.210938 243.414062 1374.945312 243.328125 1374.679688 Z M 243.328125 1374.679688 " fill-opacity="1" fill-rule="nonzero"/></g><g clip-path="url(#c5c5230c7e)"><path fill="#ffe471" d="M 84.945312 1400.238281 C 85.089844 1400.398438 85.117188 1400.574219 85.023438 1400.769531 C 84.933594 1400.964844 84.777344 1401.058594 84.5625 1401.046875 L 55.039062 1398.484375 C 54.921875 1398.472656 54.820312 1398.425781 54.738281 1398.339844 L 38.992188 1382.003906 C 38.851562 1381.84375 38.828125 1381.667969 38.917969 1381.476562 C 39.011719 1381.28125 39.160156 1381.191406 39.375 1381.199219 L 68.898438 1383.769531 C 69.019531 1383.78125 69.121094 1383.828125 69.203125 1383.917969 L 75.589844 1390.550781 L 78.898438 1393.558594 L 81.070312 1396.234375 Z M 182.402344 1356.042969 C 182.953125 1355.851562 183.507812 1355.832031 184.070312 1355.988281 C 184.582031 1356.183594 184.84375 1356.628906 185.195312 1357.011719 C 185.300781 1357.152344 185.433594 1357.269531 185.589844 1357.359375 C 185.742188 1357.445312 185.910156 1357.5 186.085938 1357.515625 C 186.265625 1357.535156 186.4375 1357.515625 186.609375 1357.460938 C 186.777344 1357.40625 186.929688 1357.320312 187.0625 1357.199219 C 187.628906 1356.71875 188.273438 1356.382812 188.996094 1356.195312 C 188.886719 1356.074219 188.785156 1355.949219 188.691406 1355.824219 C 188.316406 1355.921875 187.964844 1356.066406 187.632812 1356.265625 C 187.269531 1356.484375 186.960938 1356.792969 186.585938 1356.992188 C 185.941406 1357.339844 185.574219 1356.765625 185.199219 1356.324219 C 184.929688 1355.984375 184.59375 1355.742188 184.191406 1355.589844 C 183.785156 1355.4375 183.371094 1355.402344 182.949219 1355.480469 C 181.839844 1355.628906 180.878906 1356.304688 179.773438 1356.449219 C 179.542969 1356.480469 179.3125 1356.46875 179.082031 1356.417969 C 178.976562 1356.539062 178.871094 1356.660156 178.769531 1356.789062 C 179.050781 1356.882812 179.339844 1356.921875 179.636719 1356.902344 C 180.625 1356.820312 181.472656 1356.304688 182.402344 1356.042969 Z M 179.328125 1365.15625 C 180.296875 1365.09375 181.164062 1364.578125 182.101562 1364.316406 C 182.652344 1364.125 183.207031 1364.105469 183.769531 1364.261719 C 184.28125 1364.449219 184.542969 1364.902344 184.894531 1365.285156 C 185.003906 1365.425781 185.132812 1365.542969 185.289062 1365.628906 C 185.445312 1365.71875 185.609375 1365.769531 185.789062 1365.789062 C 185.964844 1365.808594 186.136719 1365.789062 186.308594 1365.734375 C 186.476562 1365.679688 186.628906 1365.589844 186.761719 1365.472656 C 187.53125 1364.914062 188.429688 1364.242188 189.445312 1364.503906 C 190.328125 1364.722656 190.746094 1365.671875 191.546875 1366.042969 C 192.917969 1366.6875 193.863281 1365.1875 195.089844 1364.933594 C 195.980469 1364.75 196.320312 1365.761719 197.023438 1366.074219 C 197.722656 1366.382812 198.648438 1366.074219 199.3125 1365.675781 C 200.066406 1365.21875 200.8125 1364.460938 201.730469 1364.460938 C 202.648438 1364.460938 203.457031 1365.328125 204.414062 1365.460938 C 205.203125 1365.503906 205.878906 1365.238281 206.433594 1364.671875 C 207.195312 1364.039062 208.085938 1363.144531 209.121094 1363.765625 C 209.46875 1363.976562 209.816406 1364.222656 210.238281 1364.042969 C 210.582031 1363.832031 210.855469 1363.550781 211.054688 1363.195312 C 211.296875 1362.820312 211.585938 1362.484375 211.917969 1362.183594 C 212.136719 1362.011719 212.386719 1361.917969 212.667969 1361.902344 C 212.945312 1361.886719 213.203125 1361.949219 213.441406 1362.097656 C 214.300781 1362.507812 215.171875 1362.539062 216.0625 1362.199219 C 216.601562 1361.984375 217.109375 1361.707031 217.578125 1361.363281 L 217.417969 1361.128906 C 217.390625 1361.085938 217.367188 1361.039062 217.335938 1361 C 216.902344 1361.316406 216.433594 1361.578125 215.933594 1361.777344 C 215.503906 1361.953125 215.058594 1362.023438 214.597656 1361.996094 C 214.097656 1361.878906 213.613281 1361.71875 213.144531 1361.511719 C 212.816406 1361.425781 212.488281 1361.441406 212.164062 1361.550781 C 211.84375 1361.660156 211.574219 1361.847656 211.363281 1362.117188 C 211.128906 1362.378906 210.90625 1362.652344 210.699219 1362.9375 C 210.585938 1363.09375 210.472656 1363.253906 210.347656 1363.421875 C 209.976562 1363.851562 209.65625 1363.589844 209.253906 1363.351562 C 208.914062 1363.179688 208.554688 1363.109375 208.175781 1363.148438 C 207.796875 1363.1875 207.457031 1363.324219 207.15625 1363.558594 C 206.429688 1364.042969 205.828125 1364.882812 204.933594 1365.042969 C 203.933594 1365.226562 203.121094 1364.300781 202.183594 1364.074219 C 201.347656 1363.960938 200.605469 1364.171875 199.953125 1364.707031 C 199.191406 1365.191406 198.195312 1366.066406 197.214844 1365.675781 C 196.460938 1365.386719 196.199219 1364.464844 195.28125 1364.460938 C 194.039062 1364.460938 193.046875 1366.148438 191.777344 1365.675781 C 190.9375 1365.359375 190.535156 1364.398438 189.65625 1364.105469 C 188.804688 1363.894531 188.011719 1364.039062 187.285156 1364.53125 C 186.921875 1364.75 186.613281 1365.0625 186.238281 1365.257812 C 185.59375 1365.601562 185.226562 1365.027344 184.851562 1364.585938 C 184.582031 1364.25 184.246094 1364.007812 183.839844 1363.855469 C 183.4375 1363.707031 183.023438 1363.671875 182.601562 1363.746094 C 181.492188 1363.898438 180.53125 1364.566406 179.425781 1364.714844 C 178.765625 1364.800781 178.195312 1364.613281 177.714844 1364.160156 C 177.363281 1363.800781 176.980469 1363.476562 176.5625 1363.191406 C 176.269531 1363.019531 175.953125 1362.894531 175.621094 1362.8125 C 175.574219 1362.953125 175.53125 1363.09375 175.484375 1363.238281 C 176.09375 1363.40625 176.621094 1363.707031 177.070312 1364.144531 C 177.773438 1364.753906 178.402344 1365.214844 179.339844 1365.15625 Z M 212.972656 1378.785156 C 212.492188 1379.0625 212.132812 1379.453125 211.898438 1379.953125 C 211.675781 1380.457031 211.308594 1380.800781 210.792969 1380.992188 C 210.257812 1381.066406 209.746094 1380.992188 209.261719 1380.757812 C 208.632812 1380.546875 208.050781 1380.351562 207.421875 1380.667969 C 206.957031 1380.9375 206.546875 1381.277344 206.191406 1381.683594 C 205.414062 1382.449219 204.476562 1382.800781 203.429688 1382.316406 C 202.816406 1382.035156 202.28125 1381.558594 201.613281 1381.402344 C 200.945312 1381.246094 200.421875 1381.679688 199.925781 1382.125 C 199.128906 1382.835938 197.859375 1383.675781 196.753906 1383.183594 C 196.175781 1382.929688 195.902344 1382.214844 195.300781 1382.042969 C 194.84375 1381.953125 194.429688 1382.046875 194.058594 1382.328125 C 193.347656 1382.734375 192.632812 1383.378906 191.757812 1383.339844 C 190.445312 1383.28125 189.996094 1381.621094 188.683594 1381.558594 C 187.957031 1381.59375 187.3125 1381.847656 186.753906 1382.316406 C 186.316406 1382.632812 185.882812 1383.09375 185.300781 1383.015625 C 184.722656 1382.9375 184.40625 1382.4375 184.078125 1382.046875 C 183.828125 1381.738281 183.515625 1381.523438 183.136719 1381.402344 C 182.757812 1381.28125 182.378906 1381.273438 181.996094 1381.382812 C 180.71875 1381.636719 179.535156 1382.554688 178.179688 1382.351562 C 177.558594 1382.21875 177.042969 1381.914062 176.621094 1381.441406 C 176.191406 1380.980469 175.675781 1380.644531 175.082031 1380.433594 C 174.789062 1380.347656 174.492188 1380.304688 174.1875 1380.304688 C 175.171875 1383.417969 175.742188 1386.605469 175.890625 1389.867188 C 175.890625 1389.867188 175.890625 1390.078125 175.828125 1390.445312 C 176.570312 1390.144531 177.324219 1389.839844 178.082031 1390 C 179.238281 1390.238281 180.054688 1391.757812 181.378906 1391.476562 C 181.941406 1391.355469 182.4375 1390.882812 182.929688 1390.601562 C 183.351562 1390.328125 183.8125 1390.199219 184.316406 1390.207031 C 184.878906 1390.261719 185.359375 1390.484375 185.765625 1390.875 C 186.21875 1391.277344 186.660156 1391.867188 187.316406 1391.941406 C 188.25 1392.046875 189.058594 1391.175781 189.859375 1390.84375 C 190.207031 1390.679688 190.570312 1390.636719 190.949219 1390.707031 C 191.554688 1390.847656 191.828125 1391.371094 192.300781 1391.710938 C 193.558594 1392.613281 194.925781 1391.109375 195.863281 1390.460938 C 196.949219 1389.707031 197.949219 1390.351562 198.957031 1390.894531 C 199.257812 1391.097656 199.589844 1391.210938 199.949219 1391.234375 C 200.3125 1391.257812 200.65625 1391.1875 200.980469 1391.027344 C 201.378906 1390.75 201.746094 1390.4375 202.082031 1390.085938 C 202.464844 1389.71875 202.914062 1389.464844 203.425781 1389.332031 C 203.632812 1389.289062 203.839844 1389.28125 204.050781 1389.300781 C 204.011719 1389.457031 203.976562 1389.605469 203.949219 1389.753906 C 203.585938 1389.726562 203.253906 1389.808594 202.945312 1390 C 202.507812 1390.289062 202.105469 1390.617188 201.734375 1390.988281 C 201.542969 1391.171875 201.328125 1391.324219 201.085938 1391.4375 C 200.84375 1391.550781 200.589844 1391.625 200.324219 1391.652344 C 200.058594 1391.683594 199.796875 1391.667969 199.535156 1391.613281 C 199.273438 1391.554688 199.03125 1391.457031 198.800781 1391.316406 C 198.167969 1390.984375 197.46875 1390.40625 196.695312 1390.542969 C 196.117188 1390.640625 195.699219 1391.15625 195.269531 1391.511719 C 194.425781 1392.167969 193.078125 1392.800781 192.070312 1392.117188 C 191.585938 1391.792969 191.289062 1391.148438 190.652344 1391.117188 C 190.164062 1391.148438 189.722656 1391.3125 189.328125 1391.601562 C 188.601562 1392.039062 187.796875 1392.570312 186.910156 1392.300781 C 185.742188 1391.925781 185.15625 1390.261719 183.722656 1390.710938 C 182.710938 1391.03125 181.96875 1392.097656 180.820312 1391.898438 C 180.234375 1391.765625 179.699219 1391.519531 179.21875 1391.15625 C 178.648438 1390.773438 178.210938 1390.308594 177.457031 1390.40625 C 176.871094 1390.511719 176.304688 1390.6875 175.761719 1390.929688 C 175.332031 1393.550781 173.605469 1400.304688 167.0625 1402.859375 L 168.089844 1377.34375 C 168.09375 1377.164062 168.0625 1376.988281 167.996094 1376.820312 C 167.929688 1376.652344 167.832031 1376.503906 167.703125 1376.375 C 167.574219 1376.246094 167.429688 1376.148438 167.261719 1376.082031 C 167.09375 1376.015625 166.917969 1375.984375 166.738281 1375.988281 L 115.140625 1376.046875 C 114.957031 1376.042969 114.78125 1376.074219 114.613281 1376.144531 C 114.445312 1376.210938 114.296875 1376.3125 114.167969 1376.441406 C 114.042969 1376.574219 113.945312 1376.722656 113.878906 1376.894531 C 113.8125 1377.0625 113.785156 1377.238281 113.789062 1377.421875 L 115.277344 1403.492188 C 109.386719 1401.808594 107.511719 1396.101562 107.632812 1392.277344 C 108.21875 1374.03125 114.835938 1362.191406 128.203125 1356.46875 C 127.238281 1355.785156 126.308594 1355.097656 125.492188 1354.640625 C 121.867188 1352.597656 119.464844 1348.113281 118.929688 1345.167969 C 118.242188 1341.429688 119.054688 1336.289062 119.808594 1332.574219 C 120.871094 1327.101562 122.535156 1321.734375 125.289062 1316.929688 C 125.917969 1315.71875 126.734375 1314.648438 127.734375 1313.714844 C 128.917969 1312.773438 130.234375 1312.09375 131.683594 1311.675781 C 134.472656 1310.757812 137.335938 1310.257812 140.273438 1310.179688 C 143.207031 1310.101562 146.09375 1310.449219 148.929688 1311.222656 C 150.363281 1311.558594 151.695312 1312.136719 152.921875 1312.960938 C 154.0625 1313.878906 155.03125 1314.960938 155.820312 1316.199219 C 158.792969 1320.453125 163.941406 1330.105469 165.632812 1338.703125 C 166.210938 1341.636719 165.742188 1347.816406 162.652344 1351.621094 C 161.242188 1353.355469 158.304688 1355.359375 155.542969 1356.410156 C 156.996094 1357.132812 158.347656 1358.007812 159.597656 1359.035156 C 162.941406 1361.742188 165.835938 1364.871094 168.285156 1368.414062 C 170.730469 1371.957031 172.628906 1375.773438 173.976562 1379.863281 C 174.519531 1379.847656 175.039062 1379.949219 175.539062 1380.164062 C 176.007812 1380.386719 176.421875 1380.683594 176.78125 1381.058594 C 177.414062 1381.664062 178.015625 1382.027344 178.917969 1381.90625 C 180.246094 1381.699219 181.40625 1380.773438 182.785156 1380.890625 C 183.367188 1380.929688 183.851562 1381.171875 184.234375 1381.617188 C 184.445312 1381.910156 184.6875 1382.183594 184.953125 1382.429688 C 185.347656 1382.707031 185.703125 1382.539062 186.050781 1382.273438 C 186.921875 1381.609375 187.984375 1380.910156 189.15625 1381.21875 C 190.324219 1381.527344 190.898438 1383.214844 192.179688 1382.882812 C 193.046875 1382.660156 193.671875 1381.914062 194.523438 1381.660156 C 194.878906 1381.539062 195.230469 1381.554688 195.574219 1381.707031 C 196.167969 1381.980469 196.433594 1382.675781 197.074219 1382.871094 C 197.796875 1383.070312 198.632812 1382.609375 199.1875 1382.1875 C 199.582031 1381.824219 199.996094 1381.488281 200.433594 1381.179688 C 201.644531 1380.496094 202.632812 1381.5625 203.699219 1381.992188 C 204.996094 1382.519531 205.664062 1381.484375 206.539062 1380.757812 C 206.914062 1380.410156 207.347656 1380.191406 207.847656 1380.09375 C 208.386719 1380.0625 208.902344 1380.15625 209.394531 1380.375 C 210.054688 1380.597656 210.773438 1380.859375 211.25 1380.167969 C 211.535156 1379.683594 211.855469 1379.226562 212.21875 1378.796875 C 212.390625 1378.621094 212.59375 1378.496094 212.828125 1378.417969 Z M 153.074219 1355.132812 C 155.644531 1354.089844 157.921875 1352.597656 159.902344 1350.652344 C 160.503906 1350.046875 161.023438 1349.382812 161.46875 1348.65625 C 161.910156 1347.929688 162.261719 1347.164062 162.523438 1346.351562 C 162.785156 1345.542969 162.949219 1344.714844 163.015625 1343.867188 C 163.085938 1343.019531 163.050781 1342.171875 162.917969 1341.332031 C 162.34375 1339.125 161.695312 1336.742188 159.890625 1334.066406 C 155.023438 1329.945312 144.050781 1332.273438 137.136719 1333.148438 C 130.21875 1334.019531 123.253906 1338.167969 123.253906 1338.167969 C 121.363281 1341.128906 121.183594 1343.335938 120.898438 1345.210938 C 120.792969 1345.753906 120.78125 1346.300781 120.867188 1346.847656 C 121.023438 1347.449219 121.296875 1347.988281 121.6875 1348.46875 C 124.292969 1351.929688 127.109375 1353.90625 130.121094 1355.730469 C 130.910156 1356.214844 131.707031 1356.667969 132.539062 1357.136719 L 133.585938 1357.726562 C 134.03125 1357.980469 134.480469 1358.210938 134.929688 1358.492188 C 136.175781 1359.1875 137.351562 1359.984375 138.460938 1360.886719 C 140.328125 1362.464844 142.421875 1365.148438 142.691406 1368.339844 C 142.746094 1366.890625 143.027344 1365.484375 143.535156 1364.128906 C 144.042969 1362.769531 144.75 1361.523438 145.660156 1360.394531 C 146.828125 1359.292969 148.0625 1358.269531 149.367188 1357.332031 L 149.480469 1357.253906 L 150.070312 1356.847656 L 150.523438 1356.550781 L 150.953125 1356.28125 L 151.394531 1356.011719 L 151.753906 1355.808594 C 152 1355.675781 152.238281 1355.542969 152.5 1355.421875 L 152.855469 1355.242188 Z M 221.222656 1367.367188 C 220.796875 1367.332031 220.371094 1367.332031 219.945312 1367.367188 C 219.234375 1367.371094 218.628906 1367.628906 218.128906 1368.136719 C 217.644531 1368.710938 217.351562 1369.386719 216.726562 1369.867188 C 216.265625 1370.21875 215.746094 1370.417969 215.167969 1370.472656 C 214.589844 1370.523438 214.039062 1370.417969 213.523438 1370.15625 C 213.332031 1370.050781 213.128906 1369.984375 212.914062 1369.957031 C 212.695312 1369.925781 212.484375 1369.933594 212.269531 1369.980469 C 212.058594 1370.027344 211.859375 1370.113281 211.679688 1370.230469 C 211.496094 1370.347656 211.339844 1370.496094 211.207031 1370.667969 C 210.917969 1370.988281 210.675781 1371.351562 210.410156 1371.691406 C 210.144531 1372.03125 209.894531 1372.25 209.445312 1371.960938 C 209.21875 1371.796875 208.972656 1371.675781 208.703125 1371.597656 C 207.695312 1371.382812 206.851562 1372.164062 206.144531 1372.757812 C 205.757812 1373.152344 205.292969 1373.402344 204.75 1373.507812 C 204.101562 1373.566406 203.53125 1373.164062 202.988281 1372.882812 C 202.542969 1372.628906 202.066406 1372.511719 201.554688 1372.53125 C 201.046875 1372.554688 200.582031 1372.710938 200.160156 1373 C 199.292969 1373.527344 198.058594 1374.726562 196.964844 1374.066406 C 196.519531 1373.792969 196.277344 1373.285156 195.796875 1373.0625 C 195.480469 1372.925781 195.160156 1372.902344 194.828125 1372.988281 C 194.078125 1373.179688 193.496094 1373.757812 192.796875 1374.066406 C 192.40625 1374.273438 192.003906 1374.285156 191.601562 1374.101562 C 191.058594 1373.832031 190.710938 1373.289062 190.238281 1372.929688 C 189.402344 1372.296875 188.367188 1372.445312 187.476562 1372.878906 C 187.039062 1373.101562 186.683594 1373.425781 186.273438 1373.6875 C 185.519531 1374.171875 185.109375 1373.40625 184.660156 1372.910156 C 183.792969 1371.941406 182.53125 1372.121094 181.425781 1372.515625 C 180.765625 1372.8125 180.078125 1373.035156 179.367188 1373.179688 C 178.519531 1373.28125 177.941406 1372.898438 177.351562 1372.335938 C 176.617188 1371.578125 175.722656 1371.195312 174.667969 1371.179688 C 174.390625 1371.175781 174.117188 1371.210938 173.847656 1371.289062 C 173.847656 1371.449219 173.820312 1371.605469 173.800781 1371.773438 C 174.253906 1371.617188 174.714844 1371.585938 175.1875 1371.671875 C 175.675781 1371.75 176.121094 1371.9375 176.519531 1372.230469 C 176.957031 1372.636719 177.410156 1373.019531 177.886719 1373.375 C 178.855469 1373.929688 179.945312 1373.589844 180.898438 1373.222656 C 181.445312 1372.976562 182.015625 1372.800781 182.605469 1372.695312 C 182.976562 1372.625 183.335938 1372.660156 183.6875 1372.804688 C 184.039062 1372.949219 184.320312 1373.171875 184.539062 1373.484375 C 184.78125 1373.847656 185.101562 1374.117188 185.503906 1374.289062 C 185.953125 1374.390625 186.347656 1374.289062 186.6875 1373.980469 C 187.65625 1373.292969 188.878906 1372.472656 190.003906 1373.320312 C 190.738281 1373.875 191.269531 1374.800781 192.320312 1374.695312 C 193.101562 1374.617188 193.726562 1374.054688 194.386719 1373.695312 C 194.691406 1373.492188 195.023438 1373.402344 195.382812 1373.421875 C 195.953125 1373.503906 196.234375 1374.109375 196.679688 1374.414062 C 197.496094 1374.984375 198.53125 1374.625 199.304688 1374.152344 C 200.300781 1373.535156 201.238281 1372.625 202.460938 1373.140625 C 203.425781 1373.542969 204.273438 1374.28125 205.382812 1373.832031 C 206.394531 1373.425781 207.011719 1372.300781 208.109375 1372.070312 C 208.757812 1371.933594 209.078125 1372.40625 209.648438 1372.578125 C 209.84375 1372.621094 210.035156 1372.605469 210.21875 1372.527344 C 210.40625 1372.453125 210.550781 1372.328125 210.660156 1372.160156 C 211.25 1371.476562 211.847656 1370.144531 212.953125 1370.421875 C 213.484375 1370.640625 214.027344 1370.820312 214.585938 1370.960938 C 215.046875 1371.011719 215.5 1370.96875 215.941406 1370.824219 C 216.878906 1370.484375 217.605469 1369.886719 218.109375 1369.023438 C 218.253906 1368.746094 218.433594 1368.496094 218.652344 1368.273438 C 218.988281 1368.023438 219.363281 1367.886719 219.777344 1367.855469 C 220.34375 1367.777344 220.914062 1367.765625 221.484375 1367.820312 Z M 211.117188 1354.566406 C 210.992188 1354.726562 210.863281 1354.882812 210.726562 1355.050781 C 210.3125 1355.476562 209.9375 1355.191406 209.464844 1354.921875 C 209.078125 1354.726562 208.671875 1354.640625 208.238281 1354.660156 C 207.804688 1354.683594 207.410156 1354.8125 207.046875 1355.050781 C 206.226562 1355.503906 205.597656 1356.386719 204.558594 1356.503906 C 203.835938 1356.59375 203.191406 1356.242188 202.539062 1355.898438 C 202.488281 1356.027344 202.441406 1356.164062 202.386719 1356.292969 C 202.882812 1356.597656 203.410156 1356.816406 203.976562 1356.949219 C 204.851562 1357.039062 205.613281 1356.789062 206.269531 1356.207031 C 207.121094 1355.574219 208.105469 1354.671875 209.324219 1355.367188 C 209.734375 1355.605469 210.148438 1355.882812 210.625 1355.707031 C 211.003906 1355.507812 211.304688 1355.226562 211.527344 1354.855469 C 211.585938 1354.789062 211.636719 1354.714844 211.695312 1354.640625 C 211.566406 1354.539062 211.433594 1354.433594 211.296875 1354.332031 Z M 231.859375 1385.785156 C 231.5 1385.230469 230.996094 1384.910156 230.34375 1384.816406 C 230.085938 1384.796875 229.835938 1384.820312 229.585938 1384.882812 C 229.339844 1384.945312 229.109375 1385.046875 228.894531 1385.1875 C 228.679688 1385.328125 228.492188 1385.5 228.335938 1385.703125 C 228.179688 1385.90625 228.058594 1386.128906 227.972656 1386.371094 C 227.789062 1386.902344 227.8125 1387.421875 228.046875 1387.929688 C 228.371094 1388.539062 228.863281 1388.941406 229.527344 1389.132812 C 229.820312 1389.234375 229.945312 1388.773438 229.65625 1388.671875 C 229.199219 1388.535156 228.835938 1388.269531 228.5625 1387.878906 C 228.371094 1387.566406 228.296875 1387.226562 228.347656 1386.859375 C 228.402344 1386.488281 228.558594 1386.164062 228.8125 1385.882812 C 229.066406 1385.605469 229.378906 1385.421875 229.742188 1385.332031 C 230.160156 1385.222656 230.546875 1385.28125 230.914062 1385.507812 C 231.285156 1385.734375 231.527344 1386.054688 231.632812 1386.476562 C 231.75 1387.0625 231.402344 1387.855469 230.699219 1387.882812 C 230.433594 1387.898438 230.1875 1387.832031 229.964844 1387.679688 C 229.710938 1387.503906 229.59375 1387.265625 229.617188 1386.957031 C 229.691406 1386.535156 230.207031 1386.246094 230.511719 1386.617188 C 230.625 1386.730469 230.738281 1386.730469 230.851562 1386.617188 C 230.964844 1386.503906 230.964844 1386.394531 230.851562 1386.28125 C 230.757812 1386.175781 230.644531 1386.097656 230.515625 1386.046875 C 230.390625 1385.992188 230.257812 1385.964844 230.117188 1385.96875 C 229.980469 1385.972656 229.847656 1386.003906 229.722656 1386.0625 C 229.597656 1386.125 229.488281 1386.207031 229.398438 1386.3125 C 229.289062 1386.449219 229.214844 1386.601562 229.171875 1386.773438 C 229.125 1386.941406 229.121094 1387.113281 229.152344 1387.285156 C 229.183594 1387.457031 229.25 1387.613281 229.347656 1387.757812 C 229.449219 1387.902344 229.574219 1388.015625 229.722656 1388.105469 C 229.964844 1388.261719 230.230469 1388.347656 230.515625 1388.363281 C 230.804688 1388.375 231.074219 1388.316406 231.328125 1388.183594 C 231.746094 1387.925781 231.992188 1387.558594 232.074219 1387.074219 C 232.183594 1386.613281 232.113281 1386.183594 231.859375 1385.785156 Z M 143.625 1392.644531 C 143.496094 1394.308594 141.808594 1395.066406 140.316406 1394.808594 C 139.617188 1394.726562 139.058594 1394.402344 138.636719 1393.839844 C 138.335938 1393.390625 138.199219 1392.894531 138.222656 1392.351562 C 138.257812 1391.015625 139.515625 1389.554688 140.941406 1389.84375 C 141.324219 1389.914062 141.664062 1390.074219 141.957031 1390.332031 C 142.25 1390.585938 142.460938 1390.894531 142.585938 1391.261719 C 142.765625 1391.851562 142.65625 1392.382812 142.257812 1392.851562 C 141.773438 1393.375 140.703125 1393.582031 140.207031 1392.957031 C 139.714844 1392.335938 140.304688 1391.070312 141.132812 1391.5625 C 141.277344 1391.613281 141.390625 1391.574219 141.472656 1391.441406 C 141.554688 1391.308594 141.539062 1391.1875 141.425781 1391.078125 C 141.328125 1391.027344 141.226562 1390.988281 141.117188 1390.960938 C 141.011719 1390.933594 140.902344 1390.917969 140.792969 1390.917969 C 140.679688 1390.917969 140.570312 1390.929688 140.464844 1390.957031 C 140.355469 1390.984375 140.253906 1391.023438 140.15625 1391.074219 C 140.058594 1391.128906 139.96875 1391.191406 139.886719 1391.265625 C 139.804688 1391.339844 139.730469 1391.425781 139.667969 1391.515625 C 139.609375 1391.609375 139.558594 1391.707031 139.523438 1391.8125 C 139.484375 1391.917969 139.460938 1392.023438 139.449219 1392.136719 C 139.429688 1392.261719 139.425781 1392.386719 139.4375 1392.515625 C 139.449219 1392.640625 139.476562 1392.765625 139.515625 1392.886719 C 139.558594 1393.007812 139.613281 1393.121094 139.679688 1393.226562 C 139.75 1393.335938 139.828125 1393.433594 139.921875 1393.523438 C 140.011719 1393.609375 140.113281 1393.6875 140.222656 1393.75 C 140.332031 1393.816406 140.449219 1393.867188 140.570312 1393.902344 C 140.691406 1393.9375 140.816406 1393.960938 140.941406 1393.96875 C 141.070312 1393.972656 141.195312 1393.964844 141.320312 1393.941406 C 141.746094 1393.910156 142.125 1393.761719 142.457031 1393.496094 C 142.792969 1393.230469 143.027344 1392.894531 143.15625 1392.488281 C 143.273438 1392.117188 143.296875 1391.734375 143.226562 1391.351562 C 143.15625 1390.964844 143 1390.617188 142.761719 1390.308594 C 142.421875 1389.867188 141.984375 1389.558594 141.457031 1389.382812 C 140.929688 1389.207031 140.398438 1389.191406 139.859375 1389.339844 C 139.382812 1389.515625 138.964844 1389.78125 138.609375 1390.140625 C 138.253906 1390.503906 137.988281 1390.925781 137.820312 1391.402344 C 137.695312 1391.746094 137.636719 1392.097656 137.640625 1392.460938 C 137.648438 1392.828125 137.714844 1393.175781 137.851562 1393.515625 C 137.984375 1393.855469 138.171875 1394.15625 138.417969 1394.425781 C 138.664062 1394.695312 138.945312 1394.910156 139.269531 1395.074219 C 140.308594 1395.546875 141.359375 1395.566406 142.417969 1395.144531 C 142.9375 1394.9375 143.363281 1394.605469 143.695312 1394.152344 C 144.023438 1393.699219 144.207031 1393.191406 144.246094 1392.628906 C 144.21875 1392.265625 143.65625 1392.269531 143.625 1392.644531 Z M 101.6875 1365.671875 C 102.125 1365.613281 102.777344 1365.316406 102.863281 1364.886719 C 103.015625 1364.242188 102.875 1363.671875 102.441406 1363.171875 C 102.320312 1363.035156 102.179688 1362.921875 102.019531 1362.835938 C 101.855469 1362.75 101.683594 1362.695312 101.503906 1362.675781 C 101.320312 1362.652344 101.140625 1362.660156 100.964844 1362.703125 C 100.785156 1362.746094 100.621094 1362.816406 100.46875 1362.917969 C 100.144531 1363.199219 99.945312 1363.546875 99.867188 1363.96875 C 99.789062 1364.386719 99.851562 1364.785156 100.054688 1365.164062 C 100.359375 1365.851562 101.371094 1365.703125 101.6875 1365.671875 Z M 75.003906 1362.007812 C 75.4375 1361.957031 76.089844 1361.660156 76.179688 1361.230469 C 76.332031 1360.585938 76.191406 1360.015625 75.757812 1359.515625 C 75.554688 1359.292969 75.304688 1359.140625 75.011719 1359.058594 C 74.71875 1358.976562 74.429688 1358.980469 74.140625 1359.070312 C 73.886719 1359.261719 73.65625 1359.464844 73.398438 1359.664062 C 73.234375 1359.949219 73.148438 1360.253906 73.140625 1360.582031 C 73.128906 1360.910156 73.199219 1361.21875 73.347656 1361.511719 C 73.65625 1362.191406 74.683594 1362.046875 74.984375 1362.007812 Z M 83.453125 1372.960938 C 83.890625 1372.902344 84.539062 1372.613281 84.632812 1372.179688 C 84.78125 1371.535156 84.640625 1370.964844 84.207031 1370.464844 C 84.085938 1370.328125 83.945312 1370.214844 83.785156 1370.128906 C 83.625 1370.042969 83.453125 1369.988281 83.269531 1369.964844 C 83.089844 1369.941406 82.910156 1369.953125 82.730469 1369.996094 C 82.554688 1370.039062 82.390625 1370.109375 82.238281 1370.214844 C 81.914062 1370.488281 81.710938 1370.839844 81.632812 1371.257812 C 81.554688 1371.679688 81.617188 1372.078125 81.824219 1372.453125 C 82.125 1373.140625 83.136719 1372.996094 83.433594 1372.960938 Z M 65.710938 1376.988281 C 66.144531 1376.9375 66.792969 1376.640625 66.882812 1376.210938 C 67.03125 1375.566406 66.890625 1374.996094 66.464844 1374.496094 C 66.34375 1374.359375 66.203125 1374.246094 66.039062 1374.160156 C 65.878906 1374.074219 65.707031 1374.019531 65.527344 1373.996094 C 65.34375 1373.972656 65.164062 1373.984375 64.984375 1374.027344 C 64.808594 1374.066406 64.644531 1374.140625 64.492188 1374.242188 C 64.167969 1374.519531 63.964844 1374.871094 63.886719 1375.292969 C 63.808594 1375.710938 63.871094 1376.109375 64.078125 1376.484375 C 64.398438 1377.164062 65.410156 1377.019531 65.710938 1376.988281 Z M 101.035156 1378.441406 C 100.710938 1378.71875 100.507812 1379.070312 100.429688 1379.492188 C 100.355469 1379.910156 100.417969 1380.308594 100.621094 1380.6875 C 100.945312 1381.375 101.953125 1381.226562 102.253906 1381.167969 C 102.6875 1381.117188 103.339844 1380.820312 103.429688 1380.390625 C 103.578125 1379.746094 103.441406 1379.175781 103.007812 1378.675781 C 102.886719 1378.535156 102.746094 1378.421875 102.585938 1378.335938 C 102.425781 1378.25 102.253906 1378.191406 102.070312 1378.167969 C 101.890625 1378.144531 101.710938 1378.152344 101.53125 1378.195312 C 101.351562 1378.234375 101.1875 1378.308594 101.035156 1378.410156 Z M 190.667969 1345.652344 C 191.632812 1344.199219 192.949219 1342.035156 192.875 1341.617188 C 193.644531 1340.910156 191.203125 1340.222656 191.785156 1339.355469 C 192.445312 1338.386719 191.820312 1337.855469 192.105469 1336.8125 L 191.980469 1336.8125 C 191.46875 1336.8125 191.46875 1335.996094 191.980469 1336.015625 C 192.136719 1336.015625 192.292969 1336.015625 192.441406 1336.015625 C 192.617188 1335.738281 192.851562 1335.515625 193.136719 1335.355469 C 195.777344 1333.859375 196.035156 1331.441406 198.734375 1330.027344 C 199.554688 1329.601562 199.921875 1330.171875 199.46875 1330.945312 C 204.386719 1331.046875 208.085938 1330.535156 208.652344 1328.820312 C 210.226562 1331.203125 211.144531 1330.757812 211.066406 1333.398438 C 212.246094 1332.574219 213.097656 1331.488281 213.625 1330.148438 C 214.171875 1328.511719 213.726562 1326.5 211.867188 1323.269531 C 210.832031 1321.484375 208.4375 1319.332031 206.15625 1319.589844 C 204.007812 1316.574219 201.449219 1316.03125 198.003906 1315.851562 C 190.59375 1315.46875 187.121094 1318.058594 184.996094 1321.445312 C 179.144531 1330.792969 181.101562 1336.835938 181.613281 1338.207031 C 183.25 1342.84375 189.476562 1347.621094 190.667969 1345.652344 Z M 84.480469 1382.800781 C 84.15625 1383.078125 83.957031 1383.429688 83.878906 1383.851562 C 83.800781 1384.269531 83.863281 1384.667969 84.066406 1385.042969 C 84.386719 1385.734375 85.402344 1385.585938 85.699219 1385.527344 C 86.136719 1385.476562 86.78125 1385.179688 86.875 1384.75 C 87.023438 1384.105469 86.882812 1383.535156 86.449219 1383.035156 C 86.328125 1382.898438 86.1875 1382.789062 86.023438 1382.703125 C 85.863281 1382.621094 85.691406 1382.566406 85.507812 1382.546875 C 85.328125 1382.523438 85.148438 1382.535156 84.972656 1382.582031 C 84.796875 1382.625 84.632812 1382.699219 84.480469 1382.800781 Z M 84.480469 1382.800781 " fill-opacity="1" fill-rule="nonzero"/></g><path fill="#f28383" d="M 85.820312 1394.679688 C 85.847656 1394.746094 85.855469 1394.816406 85.84375 1394.890625 C 85.835938 1394.964844 85.808594 1395.03125 85.769531 1395.089844 C 85.726562 1395.152344 85.671875 1395.199219 85.609375 1395.230469 C 85.542969 1395.265625 85.472656 1395.285156 85.402344 1395.285156 L 82.738281 1395.878906 C 82.199219 1396 81.640625 1396.121094 81.085938 1396.203125 L 75.589844 1390.550781 C 77.449219 1390.34375 79.242188 1390.601562 80.96875 1391.332031 C 82 1391.054688 82.929688 1390.578125 83.757812 1389.902344 C 85.285156 1390.855469 85.621094 1392.886719 85.820312 1394.679688 Z M 203.039062 1334.648438 C 202.472656 1334.496094 201.894531 1334.40625 201.308594 1334.382812 C 200.226562 1334.3125 198.859375 1334.261719 197.878906 1334.804688 C 197.289062 1335.128906 197.128906 1335.886719 197.121094 1336.511719 C 197.074219 1337.261719 197.253906 1337.949219 197.660156 1338.578125 C 198.40625 1339.511719 199.996094 1339.46875 201.042969 1339.410156 C 201.851562 1339.367188 202.914062 1339.3125 203.460938 1338.644531 C 203.890625 1338.007812 204.089844 1337.300781 204.058594 1336.53125 C 204.109375 1335.730469 203.886719 1334.90625 203.039062 1334.648438 Z M 197.796875 1334.339844 C 199.0625 1333.753906 200.382812 1333.855469 201.734375 1334.007812 C 202.417969 1334.09375 203.042969 1334.328125 203.613281 1334.710938 C 204.191406 1335.074219 204.523438 1335.59375 204.605469 1336.269531 C 205.152344 1336.269531 205.910156 1336.269531 206.457031 1336.269531 L 206.519531 1336.269531 C 206.597656 1335.648438 206.882812 1335.148438 207.375 1334.761719 C 207.925781 1334.453125 208.511719 1334.339844 209.132812 1334.417969 C 209.84375 1334.417969 210.660156 1334.585938 211.066406 1334.570312 C 211.160156 1333.921875 211.238281 1333.269531 211.296875 1332.605469 C 211.214844 1330.226562 210.136719 1328.246094 208.675781 1326.011719 C 208.125 1327.726562 205.941406 1329.976562 201.019531 1329.886719 C 201.441406 1329.277344 201.734375 1328.609375 201.898438 1327.886719 C 200.875 1328.1875 199.875 1328.5625 198.902344 1329.007812 C 196.210938 1330.40625 193.558594 1333.167969 190.917969 1334.667969 C 190.632812 1334.832031 190.40625 1335.054688 190.238281 1335.335938 C 191.125 1335.820312 194.617188 1335.691406 196.761719 1335.71875 C 196.902344 1335.105469 197.246094 1334.644531 197.796875 1334.339844 Z M 208.652344 1334.78125 C 208.15625 1334.832031 207.738281 1335.035156 207.394531 1335.394531 C 207.097656 1335.792969 206.949219 1336.238281 206.945312 1336.734375 C 206.878906 1337.398438 206.984375 1338.035156 207.265625 1338.640625 C 207.398438 1338.898438 207.59375 1339.097656 207.855469 1339.234375 L 207.945312 1339.234375 C 208.191406 1339.3125 208.441406 1339.371094 208.699219 1339.398438 C 209.199219 1339.417969 209.671875 1339.3125 210.117188 1339.085938 C 210.292969 1338.402344 210.453125 1337.703125 210.597656 1336.964844 C 210.714844 1336.449219 210.808594 1335.925781 210.898438 1335.398438 C 210.621094 1335.140625 210.296875 1334.957031 209.933594 1334.851562 C 209.507812 1334.777344 209.082031 1334.75 208.652344 1334.78125 Z M 213.566406 1389.785156 C 212.890625 1389.152344 211.0625 1388.609375 210.183594 1388.386719 C 208.222656 1387.933594 206.257812 1387.898438 204.28125 1388.285156 C 203.949219 1389.460938 203.710938 1390.65625 203.566406 1391.867188 C 205.5 1392.160156 207.011719 1393.167969 209.285156 1394.648438 C 209.921875 1395.070312 210.535156 1395.546875 211.183594 1395.953125 C 212.054688 1396.011719 212.835938 1396.074219 213.382812 1396.121094 L 213.769531 1396.15625 C 214.089844 1394.597656 214.445312 1392.945312 214.832031 1391.257812 C 214.457031 1390.726562 214.035156 1390.238281 213.566406 1389.785156 Z M 202.5 1352.105469 C 200.699219 1351.539062 200.453125 1351.363281 200.363281 1350.472656 C 200.285156 1349.910156 200.285156 1349.382812 200.246094 1348.898438 C 200.828125 1349.027344 201.417969 1349.09375 202.015625 1349.105469 C 203.078125 1349.171875 204.074219 1348.949219 205.011719 1348.449219 C 206.132812 1347.785156 207.339844 1345.878906 207.765625 1345.089844 C 208.648438 1343.492188 209.351562 1341.816406 209.878906 1340.0625 C 209.75 1339.578125 208.96875 1339.941406 208.429688 1339.839844 C 208.082031 1339.804688 207.757812 1339.695312 207.460938 1339.507812 C 206.6875 1338.921875 206.328125 1338.1875 206.4375 1336.785156 C 205.90625 1336.785156 205.078125 1336.785156 204.546875 1336.785156 C 204.53125 1337.683594 204.210938 1338.457031 203.582031 1339.101562 C 202.746094 1339.863281 201.609375 1339.8125 200.53125 1339.820312 C 199.292969 1339.820312 197.804688 1339.753906 197.113281 1338.566406 C 196.703125 1337.796875 196.53125 1336.972656 196.601562 1336.101562 C 194.402344 1336.074219 192.320312 1335.933594 189.894531 1336.101562 C 189.835938 1336.308594 189.789062 1336.515625 189.757812 1336.726562 C 189.472656 1336.246094 189.078125 1335.882812 188.578125 1335.636719 C 188.285156 1335.492188 187.972656 1335.441406 187.648438 1335.484375 C 187.320312 1335.523438 187.035156 1335.652344 186.785156 1335.871094 C 186.296875 1336.335938 186.03125 1336.910156 185.988281 1337.589844 C 185.953125 1338.378906 186.472656 1339.085938 186.957031 1339.71875 L 187.882812 1340.902344 C 188.238281 1341.382812 188.714844 1341.679688 189.304688 1341.78125 C 189.570312 1341.8125 189.828125 1341.773438 190.078125 1341.667969 C 190.078125 1341.714844 190.15625 1342.0625 190.15625 1342.0625 C 190.636719 1344.867188 191.285156 1348.429688 190.242188 1350.253906 C 189.457031 1351.625 188.984375 1351.390625 187.4375 1352.460938 C 186.738281 1353.429688 188.714844 1356.335938 190.628906 1357.75 C 192.460938 1359.089844 196.644531 1360.261719 198.84375 1359.6875 C 199.46875 1359.550781 200.035156 1359.289062 200.542969 1358.90625 C 201.054688 1358.527344 201.46875 1358.058594 201.777344 1357.5 C 203.09375 1355.34375 203.414062 1352.445312 202.5 1352.105469 Z M 154.089844 1329.433594 C 153.628906 1329.179688 152.78125 1329.625 152.355469 1329.433594 C 150.421875 1328.464844 148.488281 1328.289062 146.417969 1327.699219 C 143.238281 1326.789062 139.832031 1324.851562 136.582031 1325.46875 C 135.351562 1325.707031 134.167969 1325.871094 133.035156 1326.4375 C 132.839844 1326.546875 132.644531 1326.652344 132.457031 1326.761719 C 131.382812 1327.382812 130.796875 1328.363281 129.953125 1329.265625 C 129.199219 1330.078125 128.589844 1332.257812 127.980469 1333.175781 C 127.46875 1333.945312 126.375 1333.410156 125.679688 1334.421875 C 125.554688 1338.539062 126.519531 1342.882812 128.652344 1346.269531 C 129.671875 1347.804688 130.945312 1349.089844 132.46875 1350.125 C 133.992188 1351.164062 135.652344 1351.871094 137.453125 1352.253906 C 137.53125 1353.261719 137.472656 1354.257812 137.28125 1355.246094 C 137.050781 1356.085938 136.613281 1356.796875 135.96875 1357.378906 C 136.398438 1358.683594 140.019531 1359.375 142.128906 1362.199219 C 143.210938 1359.25 146.824219 1357.765625 146.875 1356.523438 C 146.105469 1356.144531 145.511719 1355.605469 145.277344 1354.101562 C 145.175781 1353.449219 145.085938 1352.648438 145.007812 1351.832031 C 146.628906 1351.359375 148.140625 1350.65625 149.542969 1349.714844 C 152.039062 1347.992188 154.441406 1344.285156 155.125 1341.386719 C 156.089844 1339.273438 156.167969 1337.214844 155.539062 1333.882812 C 155.242188 1332.339844 154.761719 1330.855469 154.089844 1329.433594 Z M 86.425781 1323.359375 C 85.402344 1323.226562 79.96875 1324.730469 78.972656 1324.964844 C 74.445312 1326.011719 73.863281 1326.902344 71.949219 1331.046875 C 70.035156 1335.1875 69.835938 1339.863281 70.800781 1344.191406 C 71.527344 1347.484375 73.074219 1350.835938 76.074219 1352.507812 C 78.003906 1353.597656 81.433594 1353.125 83.722656 1352.800781 C 83.800781 1353.175781 83.851562 1353.550781 83.878906 1353.929688 C 83.878906 1354.335938 83.835938 1354.734375 83.753906 1355.132812 C 83.558594 1355.707031 83.449219 1356.292969 83.421875 1356.898438 C 83.5 1358.167969 84.875 1359.074219 86.121094 1359.019531 C 87.367188 1358.96875 88.539062 1358.1875 89.386719 1357.265625 C 90.03125 1356.609375 90.535156 1355.859375 90.894531 1355.011719 C 91 1354.757812 91.050781 1354.496094 91.054688 1354.226562 C 91.042969 1353.976562 90.996094 1353.730469 90.910156 1353.496094 L 90.710938 1352.832031 C 90.46875 1352.015625 90.433594 1351.34375 90.183594 1350.53125 C 91.929688 1349.398438 94.878906 1349.042969 95.714844 1347.546875 C 97.09375 1345.894531 96.246094 1342.800781 96.65625 1339.652344 C 96.828125 1338.332031 96.855469 1337.007812 96.746094 1335.683594 C 96.636719 1334.355469 96.386719 1333.054688 96 1331.78125 C 95.613281 1330.507812 95.097656 1329.289062 94.453125 1328.125 C 93.808594 1326.964844 93.046875 1325.882812 92.171875 1324.878906 C 90.691406 1323.199219 88.746094 1323.644531 86.429688 1323.359375 Z M 86.425781 1323.359375 " fill-opacity="1" fill-rule="nonzero"/><path fill="#000000" d="M 212.101562 1335.65625 C 211.535156 1334.46875 210.246094 1334.117188 209.027344 1334.097656 C 208.398438 1334.066406 207.816406 1334.226562 207.292969 1334.582031 C 206.792969 1334.96875 206.488281 1335.472656 206.382812 1336.097656 L 206.320312 1336.097656 C 205.777344 1336.097656 205.230469 1336.0625 204.683594 1336.074219 C 204.652344 1335.367188 204.359375 1334.792969 203.808594 1334.351562 C 203.246094 1334.015625 202.632812 1333.835938 201.976562 1333.8125 C 200.628906 1333.640625 199.023438 1333.59375 197.761719 1334.179688 C 197.203125 1334.453125 196.835938 1334.886719 196.660156 1335.488281 C 194.363281 1335.453125 192.070312 1335.410156 189.773438 1335.320312 C 189.253906 1335.320312 189.261719 1336.101562 189.773438 1336.121094 C 192.011719 1336.203125 194.253906 1336.25 196.496094 1336.28125 C 196.425781 1337.148438 196.597656 1337.960938 197.007812 1338.726562 C 197.699219 1339.914062 199.285156 1340.113281 200.523438 1340.097656 C 201.59375 1340.097656 202.9375 1340.03125 203.765625 1339.257812 C 204.421875 1338.664062 204.617188 1337.730469 204.683594 1336.867188 C 205.214844 1336.867188 205.746094 1336.867188 206.273438 1336.867188 C 206.191406 1337.941406 206.402344 1339.117188 207.347656 1339.730469 C 207.648438 1339.902344 207.96875 1340.015625 208.3125 1340.070312 C 209.027344 1340.21875 209.722656 1340.15625 210.394531 1339.878906 C 210.785156 1339.707031 211.128906 1339.472656 211.425781 1339.164062 C 211.71875 1338.859375 211.949219 1338.511719 212.109375 1338.117188 C 212.265625 1337.722656 212.347656 1337.3125 212.34375 1336.886719 C 212.34375 1336.460938 212.261719 1336.050781 212.101562 1335.65625 Z M 203.335938 1338.5625 C 202.796875 1339.191406 201.789062 1339.246094 201.03125 1339.285156 C 200.027344 1339.34375 198.515625 1339.378906 197.808594 1338.5 C 197.425781 1337.910156 197.257812 1337.265625 197.304688 1336.5625 C 197.304688 1335.972656 197.460938 1335.253906 198.019531 1334.949219 C 198.949219 1334.433594 200.246094 1334.464844 201.277344 1334.550781 C 201.832031 1334.574219 202.378906 1334.65625 202.914062 1334.804688 C 203.714844 1335.039062 203.925781 1335.816406 203.90625 1336.578125 C 203.929688 1337.292969 203.738281 1337.949219 203.335938 1338.542969 Z M 208.765625 1339.359375 C 208.511719 1339.332031 208.257812 1339.277344 208.011719 1339.195312 L 207.921875 1339.195312 C 207.914062 1339.195312 207.90625 1339.195312 207.898438 1339.195312 C 207.636719 1339.0625 207.4375 1338.863281 207.304688 1338.601562 C 207.054688 1338.035156 206.976562 1337.449219 207.074219 1336.835938 C 207.082031 1336.339844 207.234375 1335.894531 207.523438 1335.492188 C 207.855469 1335.160156 208.253906 1334.984375 208.722656 1334.96875 C 209.171875 1334.945312 209.613281 1334.984375 210.046875 1335.085938 C 210.664062 1335.175781 211.117188 1335.5 211.402344 1336.058594 C 211.5 1336.339844 211.550781 1336.625 211.546875 1336.925781 C 211.542969 1337.222656 211.488281 1337.507812 211.382812 1337.785156 C 211.273438 1338.0625 211.121094 1338.3125 210.925781 1338.535156 C 210.726562 1338.757812 210.5 1338.941406 210.238281 1339.082031 C 209.773438 1339.316406 209.285156 1339.402344 208.765625 1339.34375 Z M 83.847656 1340.359375 C 84.089844 1340.027344 84.390625 1339.769531 84.753906 1339.585938 C 85.117188 1339.398438 85.503906 1339.308594 85.914062 1339.308594 C 86.792969 1339.289062 87.597656 1339.527344 88.328125 1340.015625 C 88.582031 1340.171875 88.328125 1340.570312 88.097656 1340.417969 C 87.675781 1340.148438 87.222656 1339.957031 86.734375 1339.839844 C 86.945312 1340.015625 87.109375 1340.230469 87.21875 1340.484375 C 87.375 1340.742188 87.441406 1341.023438 87.410156 1341.328125 C 87.382812 1341.628906 87.265625 1341.894531 87.058594 1342.117188 C 86.777344 1342.394531 86.441406 1342.558594 86.046875 1342.601562 C 85.847656 1342.628906 85.652344 1342.613281 85.457031 1342.5625 C 85.210938 1342.460938 85.003906 1342.300781 84.84375 1342.085938 C 84.679688 1341.871094 84.585938 1341.628906 84.554688 1341.363281 C 84.519531 1340.886719 84.644531 1340.457031 84.9375 1340.078125 C 84.96875 1340.039062 85.003906 1340.007812 85.042969 1339.976562 C 84.707031 1340.097656 84.441406 1340.308594 84.25 1340.609375 C 84.167969 1340.746094 84.058594 1340.769531 83.925781 1340.683594 C 83.789062 1340.601562 83.765625 1340.492188 83.847656 1340.359375 Z M 83.367188 1346.773438 C 83.230469 1347.550781 82.398438 1347.777344 81.726562 1347.910156 C 81.054688 1348.039062 80.210938 1348.125 79.644531 1347.574219 C 79.425781 1347.367188 79.753906 1347.039062 79.96875 1347.246094 C 80.402344 1347.667969 81.066406 1347.570312 81.601562 1347.464844 C 82.136719 1347.359375 82.816406 1347.25 82.917969 1346.644531 C 82.96875 1346.355469 83.414062 1346.476562 83.367188 1346.773438 Z M 81.601562 1338.054688 C 81.601562 1337.636719 81.703125 1337.242188 81.902344 1336.875 C 82.121094 1336.601562 82.398438 1336.410156 82.734375 1336.304688 C 83.90625 1335.855469 85.121094 1335.695312 86.371094 1335.820312 C 87.269531 1335.984375 88.085938 1336.339844 88.816406 1336.886719 C 88.859375 1336.914062 88.878906 1336.949219 88.886719 1336.996094 C 88.886719 1337.117188 88.714844 1337.152344 88.59375 1337.144531 C 86.1875 1336.886719 83.859375 1337.195312 81.601562 1338.074219 Z M 109.585938 1356.855469 C 111.96875 1360.246094 112.789062 1364.851562 111.035156 1368.589844 C 110.269531 1370.078125 109.3125 1371.425781 108.164062 1372.640625 C 106.789062 1367.265625 104.410156 1361.84375 100.246094 1357.140625 C 99.046875 1355.769531 97.617188 1354.707031 95.957031 1353.957031 C 94.296875 1353.207031 92.558594 1352.835938 90.734375 1352.839844 C 90.488281 1352.027344 90.242188 1351.21875 90 1350.417969 C 91.746094 1349.28125 93.414062 1347.792969 94.25 1346.296875 C 95.058594 1345.332031 95.640625 1344.246094 95.996094 1343.039062 C 96.089844 1341.625 96.089844 1340.210938 95.996094 1338.800781 C 95.992188 1338.183594 95.851562 1337.601562 95.570312 1337.050781 C 94.863281 1335.875 93.269531 1335.71875 91.910156 1335.53125 C 88.613281 1335.078125 85.660156 1333.808594 83.054688 1331.726562 C 83.265625 1332.546875 83.476562 1333.359375 83.683594 1334.179688 C 83.199219 1334.226562 82.714844 1334.234375 82.226562 1334.199219 C 81.738281 1334.160156 81.261719 1334.082031 80.789062 1333.964844 C 80.316406 1333.84375 79.855469 1333.683594 79.410156 1333.480469 C 78.964844 1333.28125 78.542969 1333.042969 78.136719 1332.769531 C 77.734375 1332.496094 77.355469 1332.1875 77.007812 1331.847656 C 76.65625 1331.507812 76.339844 1331.140625 76.050781 1330.742188 C 75.765625 1330.347656 75.515625 1329.929688 75.304688 1329.488281 C 75.089844 1329.050781 74.917969 1328.59375 74.78125 1328.125 C 74.78125 1328.125 73.152344 1333.382812 71.503906 1336.527344 C 71.3125 1338.867188 71.472656 1341.183594 71.988281 1343.472656 C 72.71875 1346.765625 74.261719 1350.105469 77.25 1351.785156 C 79.324219 1352.847656 81.511719 1353.175781 83.804688 1352.773438 C 83.855469 1353.148438 83.878906 1353.527344 83.878906 1353.90625 C 81.4375 1354.675781 79.125 1355.730469 76.941406 1357.0625 C 72.828125 1359.699219 69.40625 1363.050781 66.675781 1367.109375 C 66.1875 1365.808594 65.933594 1364.464844 65.90625 1363.078125 C 65.882812 1361.6875 66.089844 1360.335938 66.53125 1359.019531 C 67.015625 1357.664062 67.707031 1356.402344 68.179688 1355.050781 C 68.652344 1353.589844 68.886719 1352.089844 68.886719 1350.558594 C 68.886719 1349.023438 68.652344 1347.523438 68.179688 1346.066406 C 67.753906 1344.679688 67.160156 1343.347656 66.863281 1341.929688 C 66.597656 1340.449219 66.558594 1338.96875 66.75 1337.476562 C 67.003906 1335.15625 67.558594 1332.910156 68.414062 1330.738281 C 69.273438 1328.566406 70.402344 1326.546875 71.804688 1324.679688 C 73.601562 1322.257812 77.523438 1319.433594 81.992188 1319.746094 C 83.757812 1318.675781 85.671875 1318.164062 87.734375 1318.214844 C 89.195312 1318.28125 90.609375 1318.566406 91.976562 1319.074219 C 93.347656 1319.582031 94.609375 1320.285156 95.757812 1321.1875 C 97.554688 1322.5625 99.035156 1324.226562 100.1875 1326.171875 C 101.34375 1328.121094 102.097656 1330.214844 102.441406 1332.453125 C 103.003906 1336.175781 102.339844 1339.992188 102.78125 1343.730469 C 103.199219 1347.253906 104.488281 1350.421875 106.648438 1353.234375 C 107.585938 1354.472656 108.683594 1355.597656 109.585938 1356.875 Z M 91.292969 1372.152344 C 90.753906 1376.066406 90.277344 1379.996094 89.679688 1383.902344 C 89.457031 1385.355469 87.890625 1385.839844 86.730469 1386.425781 C 86.003906 1386.769531 85.296875 1387.152344 84.613281 1387.574219 C 84.253906 1387.769531 83.933594 1388.015625 83.644531 1388.308594 C 83.457031 1388.566406 83.445312 1388.828125 83.613281 1389.097656 C 83.738281 1389.363281 83.339844 1389.582031 83.214844 1389.332031 C 82.996094 1388.964844 82.964844 1388.582031 83.128906 1388.1875 C 83.421875 1387.65625 84.285156 1387.21875 84.78125 1386.929688 C 85.507812 1386.503906 86.265625 1386.144531 87.011719 1385.765625 C 87.753906 1385.386719 88.890625 1384.992188 89.144531 1384.207031 C 89.371094 1383.25 89.511719 1382.28125 89.570312 1381.300781 C 89.710938 1380.269531 89.851562 1379.238281 89.996094 1378.207031 C 90.277344 1376.140625 90.5625 1374.078125 90.847656 1372.011719 C 90.886719 1371.753906 91.332031 1371.878906 91.292969 1372.171875 Z M 103.816406 1378.933594 C 103.476562 1382.378906 102.363281 1385.789062 100.152344 1388.503906 C 99.140625 1389.773438 97.925781 1390.808594 96.515625 1391.605469 C 95.101562 1392.402344 93.589844 1392.90625 91.984375 1393.117188 C 91.6875 1393.152344 91.691406 1392.6875 91.984375 1392.632812 C 93.53125 1392.421875 94.980469 1391.929688 96.339844 1391.15625 C 97.695312 1390.382812 98.859375 1389.378906 99.828125 1388.152344 C 101.945312 1385.542969 103.027344 1382.230469 103.355469 1378.914062 C 103.382812 1378.640625 103.84375 1378.636719 103.816406 1378.925781 Z M 77.039062 1341.957031 C 76.765625 1341.71875 76.457031 1341.539062 76.117188 1341.417969 C 76.261719 1341.558594 76.371094 1341.71875 76.449219 1341.902344 C 76.589844 1342.160156 76.652344 1342.4375 76.636719 1342.730469 C 76.617188 1343.023438 76.519531 1343.289062 76.347656 1343.527344 C 76.105469 1343.789062 75.800781 1343.933594 75.445312 1343.953125 C 75.257812 1343.964844 75.078125 1343.941406 74.902344 1343.886719 C 74.402344 1343.632812 74.109375 1343.226562 74.019531 1342.675781 C 73.957031 1342.277344 74.054688 1341.921875 74.304688 1341.609375 C 74.109375 1341.726562 73.957031 1341.890625 73.855469 1342.09375 C 73.777344 1342.226562 73.671875 1342.253906 73.539062 1342.175781 C 73.410156 1342.097656 73.382812 1341.992188 73.457031 1341.859375 C 73.582031 1341.609375 73.761719 1341.410156 73.992188 1341.253906 C 74.308594 1341.019531 74.664062 1340.882812 75.058594 1340.84375 C 75.945312 1340.765625 76.714844 1341.03125 77.371094 1341.632812 C 77.601562 1341.828125 77.269531 1342.152344 77.039062 1341.957031 Z M 189.167969 1368.710938 C 189.078125 1368.46875 189.457031 1368.367188 189.550781 1368.605469 C 191.074219 1372.625 191.710938 1376.933594 193.6875 1380.78125 C 193.804688 1381.011719 193.464844 1381.207031 193.34375 1380.980469 C 191.382812 1377.097656 190.734375 1372.761719 189.199219 1368.710938 Z M 197.195312 1333.511719 C 197.195312 1333.464844 197.210938 1333.429688 197.246094 1333.398438 C 197.839844 1332.832031 198.53125 1332.429688 199.3125 1332.183594 C 200.414062 1331.921875 201.515625 1331.921875 202.621094 1332.183594 C 202.929688 1332.253906 203.199219 1332.398438 203.425781 1332.625 C 203.644531 1332.933594 203.777344 1333.273438 203.824219 1333.652344 C 201.710938 1333.113281 199.59375 1333.089844 197.472656 1333.589844 C 197.386719 1333.632812 197.234375 1333.617188 197.226562 1333.511719 Z M 207.085938 1333.902344 C 207.132812 1333.542969 207.269531 1333.21875 207.492188 1332.933594 C 207.730469 1332.75 207.996094 1332.632812 208.292969 1332.589844 C 209.171875 1332.453125 210.007812 1332.585938 210.796875 1332.992188 C 211.363281 1333.238281 211.441406 1333.523438 211.429688 1333.777344 C 211.421875 1334.027344 211.125 1333.96875 211.023438 1333.9375 C 209.496094 1333.441406 208.390625 1333.816406 207.113281 1333.882812 Z M 82.578125 1360.746094 C 81.457031 1359.625 81.269531 1357.925781 81.523438 1356.429688 C 81.574219 1356.140625 82.007812 1356.265625 81.96875 1356.554688 C 81.71875 1358.046875 81.96875 1359.808594 83.292969 1360.746094 C 84.617188 1361.679688 86.421875 1361.671875 87.894531 1361.230469 C 91.015625 1360.261719 92.890625 1357.355469 93.660156 1354.34375 C 93.710938 1354.214844 93.804688 1354.167969 93.9375 1354.203125 C 94.070312 1354.242188 94.125 1354.328125 94.105469 1354.464844 C 93.238281 1357.890625 90.929688 1361.175781 87.265625 1361.859375 C 85.6875 1362.144531 83.773438 1361.933594 82.578125 1360.746094 Z M 74.253906 1368.359375 C 72.941406 1373.523438 72.699219 1378.734375 73.519531 1384 C 73.570312 1384.289062 73.125 1384.410156 73.074219 1384.121094 C 72.234375 1378.773438 72.480469 1373.480469 73.808594 1368.238281 C 73.863281 1368.109375 73.953125 1368.0625 74.085938 1368.101562 C 74.21875 1368.136719 74.273438 1368.222656 74.253906 1368.359375 Z M 210.515625 1336.457031 C 210.617188 1336.664062 210.308594 1336.84375 210.207031 1336.632812 C 210.121094 1336.480469 210.003906 1336.359375 209.851562 1336.277344 C 210.050781 1336.507812 210.136719 1336.773438 210.109375 1337.078125 C 210.066406 1337.511719 209.855469 1337.835938 209.476562 1338.046875 C 209.347656 1338.101562 209.207031 1338.125 209.066406 1338.125 C 208.792969 1338.121094 208.554688 1338.023438 208.355469 1337.835938 C 208.214844 1337.660156 208.128906 1337.460938 208.101562 1337.234375 C 208.078125 1337.007812 208.113281 1336.792969 208.210938 1336.589844 C 208.269531 1336.457031 208.34375 1336.339844 208.445312 1336.234375 C 208.183594 1336.335938 207.957031 1336.488281 207.757812 1336.683594 C 207.59375 1336.847656 207.335938 1336.589844 207.507812 1336.429688 C 207.984375 1335.945312 208.5625 1335.710938 209.246094 1335.734375 C 209.550781 1335.75 209.828125 1335.84375 210.082031 1336.015625 C 210.261719 1336.125 210.410156 1336.273438 210.515625 1336.457031 Z M 193.382812 1345.925781 C 195.488281 1347.335938 197.777344 1348.328125 200.246094 1348.898438 C 200.269531 1349.382812 200.304688 1349.914062 200.363281 1350.476562 C 200.375 1350.65625 200.414062 1350.832031 200.472656 1351 C 200.265625 1351.015625 200.058594 1351 199.855469 1350.953125 C 198.675781 1350.761719 197.617188 1350.292969 196.683594 1349.546875 C 195.378906 1348.527344 194.277344 1347.320312 193.382812 1345.925781 Z M 191.5 1383.675781 C 191.496094 1383.695312 191.496094 1383.71875 191.5 1383.742188 L 191.644531 1383.742188 L 191.890625 1383.6875 C 192.5625 1383.503906 193.105469 1383.125 193.519531 1382.558594 C 193.542969 1382.503906 193.582031 1382.464844 193.636719 1382.445312 C 193.695312 1382.425781 193.75 1382.433594 193.800781 1382.464844 C 193.855469 1382.492188 193.886719 1382.539062 193.898438 1382.597656 C 193.910156 1382.65625 193.894531 1382.710938 193.855469 1382.757812 C 193.300781 1383.523438 192.558594 1383.976562 191.625 1384.121094 C 191.410156 1384.148438 191.175781 1384.121094 191.101562 1383.898438 C 191.058594 1383.703125 191.097656 1383.523438 191.214844 1383.363281 C 191.65625 1382.609375 192.269531 1382.03125 193.050781 1381.628906 C 193.277344 1381.515625 193.476562 1381.859375 193.246094 1381.96875 C 192.894531 1382.15625 192.574219 1382.382812 192.28125 1382.65625 C 192.027344 1382.902344 191.808594 1383.171875 191.621094 1383.46875 C 191.570312 1383.535156 191.53125 1383.601562 191.5 1383.675781 Z M 211.488281 1369.902344 C 211.742188 1371.347656 211.871094 1372.800781 211.875 1374.261719 C 211.875 1374.492188 211.507812 1374.492188 211.511719 1374.261719 C 211.507812 1372.773438 211.375 1371.292969 211.117188 1369.828125 C 210.835938 1368 210.488281 1366.183594 210.148438 1364.367188 C 210.109375 1364.140625 210.453125 1364.042969 210.496094 1364.269531 C 210.839844 1366.148438 211.203125 1368.019531 211.488281 1369.902344 Z M 159.890625 1334.0625 C 159.980469 1334.203125 160.078125 1334.339844 160.167969 1334.472656 C 160.203125 1337.679688 159.542969 1341.195312 157.582031 1343.972656 C 157.035156 1344.796875 156.304688 1345.40625 155.394531 1345.796875 C 155.433594 1345.851562 155.46875 1345.910156 155.5 1345.96875 C 156.019531 1346.894531 156.5 1347.972656 156.171875 1348.976562 C 156.019531 1349.394531 155.785156 1349.765625 155.46875 1350.078125 C 155.839844 1350.800781 156.132812 1351.605469 155.886719 1352.367188 C 155.730469 1352.777344 155.488281 1353.128906 155.167969 1353.425781 C 155.226562 1353.484375 155.273438 1353.550781 155.3125 1353.625 C 155.753906 1354.414062 156.167969 1355.335938 155.886719 1356.191406 C 155.726562 1356.613281 155.480469 1356.972656 155.148438 1357.273438 C 155.214844 1357.335938 155.269531 1357.40625 155.3125 1357.492188 C 155.753906 1358.28125 156.167969 1359.195312 155.886719 1360.058594 C 155.710938 1360.507812 155.4375 1360.890625 155.074219 1361.207031 C 157.007812 1364.042969 156.621094 1366.046875 154.953125 1368.183594 C 154.582031 1368.636719 154.117188 1368.945312 153.558594 1369.109375 C 152.925781 1369.148438 153.289062 1368.503906 153.015625 1367.597656 C 152.746094 1366.691406 151.867188 1366.042969 151.8125 1365.007812 C 151.742188 1363.699219 152.445312 1362.339844 153.261719 1361.132812 C 153.164062 1361.078125 153.074219 1361.015625 152.992188 1360.9375 C 152.734375 1360.675781 152.558594 1360.371094 152.464844 1360.015625 C 152.367188 1359.664062 152.367188 1359.308594 152.457031 1358.953125 C 152.597656 1358.414062 152.828125 1357.914062 153.152344 1357.457031 C 153.191406 1357.394531 153.234375 1357.335938 153.28125 1357.28125 C 153.179688 1357.222656 153.082031 1357.15625 152.992188 1357.078125 C 152.738281 1356.816406 152.5625 1356.507812 152.464844 1356.15625 C 152.371094 1355.800781 152.367188 1355.449219 152.457031 1355.09375 C 152.597656 1354.550781 152.828125 1354.050781 153.152344 1353.589844 C 153.183594 1353.539062 153.222656 1353.488281 153.261719 1353.441406 C 153.164062 1353.386719 153.074219 1353.320312 152.992188 1353.246094 C 152.734375 1352.984375 152.558594 1352.679688 152.464844 1352.324219 C 152.367188 1351.972656 152.367188 1351.617188 152.457031 1351.261719 C 152.589844 1350.738281 152.8125 1350.253906 153.121094 1349.808594 C 152.945312 1349.726562 152.785156 1349.621094 152.640625 1349.488281 C 152.410156 1349.25 152.253906 1348.96875 152.167969 1348.648438 C 152.082031 1348.332031 152.078125 1348.007812 152.15625 1347.6875 C 152.324219 1347.050781 152.597656 1346.464844 152.972656 1345.929688 C 154.859375 1339.632812 153.902344 1336.671875 153.574219 1336.128906 C 152.820312 1334.875 150.8125 1334.589844 149.367188 1334.398438 C 145.9375 1333.914062 144.109375 1332.433594 141.40625 1330.269531 L 142.074219 1332.878906 C 138.023438 1333.398438 133.789062 1330.589844 132.667969 1326.617188 C 133.878906 1325.921875 135.167969 1325.429688 136.535156 1325.140625 C 139.792969 1324.566406 142.996094 1324.773438 146.152344 1325.761719 C 148.210938 1326.351562 150.847656 1327.777344 152.753906 1328.734375 C 155.214844 1329.96875 158.347656 1331.785156 159.890625 1334.070312 Z M 202.90625 1393.636719 C 202.757812 1393.984375 202.625 1394.550781 202.265625 1394.71875 C 201.835938 1394.8125 201.402344 1394.835938 200.960938 1394.789062 C 200.574219 1394.789062 200.1875 1394.789062 199.800781 1394.789062 C 198.1875 1394.710938 196.585938 1394.5 195.007812 1394.148438 C 190.433594 1393.179688 185.941406 1391.148438 183.027344 1387.371094 C 179.667969 1383.011719 177.710938 1377.855469 176.023438 1372.683594 C 175.941406 1372.441406 176.320312 1372.339844 176.398438 1372.582031 C 177.234375 1375.339844 178.253906 1378.027344 179.453125 1380.648438 C 180.582031 1383.078125 181.964844 1385.355469 183.605469 1387.472656 C 185 1389.171875 186.675781 1390.515625 188.640625 1391.496094 C 190.703125 1392.53125 192.859375 1393.289062 195.113281 1393.769531 C 196.464844 1394.0625 197.832031 1394.261719 199.210938 1394.363281 C 199.921875 1394.414062 200.628906 1394.425781 201.339844 1394.398438 C 201.601562 1394.414062 201.863281 1394.414062 202.125 1394.398438 C 202.289062 1394.285156 202.457031 1393.730469 202.523438 1393.5625 C 202.589844 1393.398438 203.011719 1393.398438 202.914062 1393.636719 Z M 204.839844 1385.6875 C 204.878906 1386.074219 204.894531 1386.460938 204.875 1386.851562 C 204.875 1386.984375 204.8125 1387.050781 204.679688 1387.050781 C 204.546875 1387.050781 204.480469 1386.984375 204.480469 1386.851562 C 204.503906 1386.515625 204.503906 1386.183594 204.480469 1385.847656 C 201.003906 1385.0625 197.652344 1383.902344 194.433594 1382.371094 C 194.203125 1382.265625 194.402344 1381.921875 194.628906 1382.03125 C 197.863281 1383.566406 201.226562 1384.722656 204.71875 1385.5 C 204.816406 1385.535156 204.859375 1385.605469 204.851562 1385.707031 Z M 72.734375 1338.945312 C 72.621094 1338.988281 72.300781 1339.09375 72.25 1338.804688 C 72.195312 1338.515625 72.273438 1338.199219 72.882812 1337.875 C 73.71875 1337.351562 74.628906 1337.125 75.613281 1337.195312 C 75.945312 1337.21875 76.25 1337.320312 76.53125 1337.5 C 76.804688 1337.800781 76.984375 1338.148438 77.074219 1338.546875 C 75.671875 1338.570312 74.414062 1338.242188 72.734375 1338.945312 Z M 202.484375 1335.722656 C 202.613281 1335.917969 202.300781 1336.097656 202.175781 1335.90625 C 202.058594 1335.746094 201.910156 1335.621094 201.730469 1335.535156 C 201.9375 1335.808594 202.035156 1336.121094 202.023438 1336.464844 C 202 1336.9375 201.769531 1337.277344 201.34375 1337.480469 C 201.1875 1337.53125 201.023438 1337.550781 200.859375 1337.539062 C 200.535156 1337.519531 200.253906 1337.398438 200.015625 1337.183594 C 199.84375 1337.011719 199.738281 1336.804688 199.703125 1336.5625 C 199.664062 1336.324219 199.703125 1336.09375 199.816406 1335.878906 C 199.867188 1335.746094 199.933594 1335.621094 200.015625 1335.507812 C 199.648438 1335.617188 199.308594 1335.777344 198.988281 1335.992188 C 198.796875 1336.121094 198.617188 1335.8125 198.804688 1335.679688 C 199.414062 1335.25 200.089844 1335.019531 200.835938 1334.992188 C 201.511719 1334.945312 202.0625 1335.191406 202.484375 1335.722656 Z M 206.085938 1342.667969 L 206.03125 1342.667969 C 205.472656 1342.773438 204.910156 1342.820312 204.34375 1342.808594 C 204.019531 1342.820312 203.699219 1342.796875 203.378906 1342.738281 C 203.3125 1342.722656 203.253906 1342.738281 203.207031 1342.785156 C 203.160156 1342.832031 203.140625 1342.890625 203.15625 1342.957031 C 203.304688 1343.679688 203.695312 1344.234375 204.332031 1344.617188 C 204.691406 1344.800781 205.042969 1344.777344 205.378906 1344.554688 C 205.621094 1344.359375 205.804688 1344.117188 205.921875 1343.828125 C 206.054688 1343.542969 206.15625 1343.246094 206.230469 1342.941406 C 206.230469 1342.941406 206.230469 1342.941406 206.230469 1342.910156 C 206.230469 1342.882812 206.230469 1342.910156 206.230469 1342.910156 L 206.230469 1342.867188 C 206.230469 1342.804688 206.207031 1342.757812 206.152344 1342.722656 C 206.132812 1342.699219 206.113281 1342.683594 206.085938 1342.667969 Z M 205.601562 1343.675781 C 205.457031 1343.980469 205.261719 1344.324219 204.890625 1344.371094 C 204.550781 1344.378906 204.28125 1344.242188 204.085938 1343.96875 C 203.867188 1343.722656 203.707031 1343.445312 203.601562 1343.132812 C 203.847656 1343.160156 204.097656 1343.171875 204.34375 1343.167969 C 204.84375 1343.171875 205.339844 1343.136719 205.832031 1343.058594 C 205.773438 1343.269531 205.695312 1343.476562 205.601562 1343.675781 Z M 136.140625 1339.257812 C 136.332031 1339.507812 135.988281 1339.855469 135.796875 1339.609375 C 135.546875 1339.308594 135.230469 1339.117188 134.855469 1339.027344 C 134.898438 1339.050781 134.9375 1339.078125 134.972656 1339.113281 C 135.332031 1339.476562 135.527344 1339.910156 135.550781 1340.421875 C 135.550781 1340.707031 135.484375 1340.976562 135.339844 1341.222656 C 135.199219 1341.472656 135.003906 1341.667969 134.757812 1341.8125 C 134.558594 1341.890625 134.351562 1341.929688 134.136719 1341.933594 C 133.714844 1341.933594 133.335938 1341.804688 133.003906 1341.546875 C 132.765625 1341.339844 132.609375 1341.082031 132.539062 1340.773438 C 132.46875 1340.464844 132.496094 1340.164062 132.621094 1339.875 C 132.695312 1339.589844 132.828125 1339.339844 133.023438 1339.117188 C 132.53125 1339.304688 132.085938 1339.566406 131.683594 1339.898438 C 131.4375 1340.09375 131.089844 1339.75 131.335938 1339.550781 C 132.058594 1338.917969 132.898438 1338.554688 133.851562 1338.457031 C 134.277344 1338.398438 134.6875 1338.441406 135.09375 1338.582031 C 135.496094 1338.722656 135.84375 1338.949219 136.140625 1339.257812 Z M 128.269531 1361.136719 C 129.105469 1362.347656 129.8125 1363.710938 129.71875 1365.011719 C 129.667969 1366.046875 128.78125 1366.699219 128.515625 1367.601562 C 128.25 1368.507812 128.609375 1369.152344 127.976562 1369.113281 C 127.414062 1368.949219 126.949219 1368.640625 126.578125 1368.191406 C 124.910156 1366.066406 124.503906 1364.046875 126.457031 1361.210938 C 126.09375 1360.894531 125.824219 1360.511719 125.644531 1360.0625 C 125.367188 1359.199219 125.78125 1358.285156 126.222656 1357.496094 C 126.261719 1357.414062 126.316406 1357.339844 126.386719 1357.277344 C 126.050781 1356.976562 125.804688 1356.617188 125.644531 1356.195312 C 125.367188 1355.339844 125.78125 1354.417969 126.222656 1353.628906 C 126.261719 1353.558594 126.308594 1353.492188 126.367188 1353.429688 C 126.042969 1353.132812 125.804688 1352.78125 125.644531 1352.371094 C 125.398438 1351.609375 125.695312 1350.804688 126.066406 1350.085938 C 125.753906 1349.769531 125.523438 1349.402344 125.371094 1348.984375 C 125.042969 1347.984375 125.527344 1346.902344 126.042969 1345.976562 L 126.082031 1345.914062 C 124.726562 1344.984375 123.339844 1343.183594 122.960938 1340.101562 C 122.902344 1339.65625 122.871094 1339.226562 122.851562 1338.792969 C 124.136719 1336.519531 126.289062 1333.5625 127.535156 1331.679688 C 128.128906 1330.746094 128.789062 1329.863281 129.527344 1329.039062 C 130.390625 1328.140625 131.367188 1327.382812 132.457031 1326.773438 L 132.507812 1326.742188 C 131.925781 1328.421875 128.863281 1336.992188 126.964844 1337.882812 C 126.964844 1337.882812 126.675781 1341.113281 128.675781 1346.117188 C 129.007812 1346.601562 129.246094 1347.132812 129.386719 1347.703125 C 129.464844 1348.023438 129.460938 1348.34375 129.375 1348.664062 C 129.289062 1348.984375 129.132812 1349.265625 128.902344 1349.503906 C 128.757812 1349.632812 128.597656 1349.742188 128.421875 1349.824219 C 128.730469 1350.265625 128.953125 1350.75 129.085938 1351.277344 C 129.175781 1351.632812 129.175781 1351.984375 129.078125 1352.339844 C 128.984375 1352.691406 128.808594 1353 128.550781 1353.261719 C 128.46875 1353.335938 128.378906 1353.402344 128.28125 1353.457031 C 128.320312 1353.503906 128.359375 1353.550781 128.390625 1353.605469 C 128.714844 1354.0625 128.945312 1354.566406 129.085938 1355.105469 C 129.175781 1355.460938 129.171875 1355.816406 129.078125 1356.171875 C 128.984375 1356.523438 128.808594 1356.832031 128.550781 1357.09375 C 128.460938 1357.171875 128.363281 1357.238281 128.261719 1357.296875 C 128.308594 1357.351562 128.351562 1357.410156 128.390625 1357.472656 C 128.714844 1357.929688 128.945312 1358.425781 129.085938 1358.96875 C 129.175781 1359.324219 129.175781 1359.675781 129.078125 1360.03125 C 128.984375 1360.382812 128.808594 1360.691406 128.550781 1360.953125 C 128.464844 1361.027344 128.371094 1361.089844 128.269531 1361.136719 Z M 136.65625 1335.46875 C 136.921875 1335.828125 137.082031 1336.230469 137.140625 1336.671875 C 134.636719 1336.054688 132.136719 1336.042969 129.628906 1336.644531 C 129.503906 1336.671875 129.316406 1336.644531 129.300781 1336.53125 C 129.300781 1336.480469 129.320312 1336.4375 129.359375 1336.402344 C 130.054688 1335.734375 130.859375 1335.25 131.773438 1334.949219 C 133.078125 1334.640625 134.382812 1334.640625 135.683594 1334.949219 C 136.066406 1335.023438 136.390625 1335.199219 136.660156 1335.476562 Z M 142.507812 1345.84375 C 141.296875 1346.339844 140.070312 1346.378906 138.828125 1345.96875 C 138.722656 1345.941406 138.636719 1345.972656 138.570312 1346.058594 C 138.507812 1346.140625 138.5 1346.230469 138.550781 1346.324219 C 139.035156 1347.183594 139.914062 1348.070312 140.996094 1347.949219 C 141.449219 1347.867188 141.839844 1347.667969 142.175781 1347.351562 C 142.507812 1347.035156 142.730469 1346.652344 142.839844 1346.203125 C 142.882812 1346.152344 142.894531 1346.097656 142.875 1346.03125 C 142.863281 1345.949219 142.816406 1345.886719 142.742188 1345.847656 C 142.664062 1345.8125 142.589844 1345.8125 142.515625 1345.851562 Z M 140.953125 1347.464844 C 140.621094 1347.472656 140.3125 1347.398438 140.019531 1347.242188 C 139.730469 1347.085938 139.492188 1346.871094 139.316406 1346.59375 C 139.554688 1346.636719 139.792969 1346.667969 140.035156 1346.683594 C 140.769531 1346.753906 141.492188 1346.679688 142.199219 1346.460938 C 141.972656 1347.027344 141.558594 1347.367188 140.957031 1347.472656 Z M 150.726562 1336.378906 C 150.765625 1336.410156 150.785156 1336.457031 150.785156 1336.507812 C 150.785156 1336.628906 150.582031 1336.648438 150.453125 1336.625 C 147.949219 1336.023438 145.445312 1336.039062 142.945312 1336.667969 C 143 1336.222656 143.164062 1335.824219 143.425781 1335.460938 C 143.695312 1335.1875 144.019531 1335.015625 144.394531 1334.945312 C 145.695312 1334.632812 146.996094 1334.632812 148.300781 1334.945312 C 149.21875 1335.238281 150.03125 1335.71875 150.730469 1336.386719 Z M 149.277344 1339.519531 C 149.523438 1339.714844 149.175781 1340.058594 148.929688 1339.863281 C 148.527344 1339.539062 148.085938 1339.285156 147.601562 1339.105469 C 147.800781 1339.320312 147.9375 1339.570312 148.007812 1339.855469 C 148.136719 1340.144531 148.164062 1340.445312 148.09375 1340.753906 C 148.023438 1341.0625 147.871094 1341.324219 147.632812 1341.53125 C 147.296875 1341.792969 146.917969 1341.921875 146.496094 1341.917969 C 146.28125 1341.914062 146.078125 1341.875 145.878906 1341.796875 C 145.628906 1341.65625 145.433594 1341.460938 145.292969 1341.214844 C 145.148438 1340.964844 145.078125 1340.699219 145.082031 1340.414062 C 145.105469 1339.902344 145.296875 1339.464844 145.65625 1339.105469 C 145.6875 1339.070312 145.726562 1339.039062 145.773438 1339.015625 C 145.394531 1339.105469 145.082031 1339.300781 144.835938 1339.597656 C 144.640625 1339.84375 144.296875 1339.496094 144.492188 1339.25 C 144.785156 1338.941406 145.132812 1338.714844 145.539062 1338.570312 C 145.941406 1338.429688 146.351562 1338.386719 146.777344 1338.441406 C 147.722656 1338.539062 148.558594 1338.902344 149.277344 1339.53125 Z M 149.277344 1339.519531 " fill-opacity="1" fill-rule="nonzero"/></svg>