<svg xmlns="http://www.w3.org/2000/svg" xmlns:xlink="http://www.w3.org/1999/xlink" width="1366" zoomAndPan="magnify" viewBox="0 0 1024.5 576" height="768" preserveAspectRatio="xMidYMid meet" version="1.0"><defs><clipPath id="51205637e2"><path d="M 0 0.140625 L 1024 0.140625 L 1024 575.859375 L 0 575.859375 Z M 0 0.140625 " clip-rule="nonzero"/></clipPath><clipPath id="04b13cf9a4"><path d="M 712.949219 0.140625 L 814 0.140625 L 814 101 L 712.949219 101 Z M 712.949219 0.140625 " clip-rule="nonzero"/></clipPath><clipPath id="5fa50e87f9"><path d="M 754 101 L 810 101 L 810 156.8125 L 754 156.8125 Z M 754 101 " clip-rule="nonzero"/></clipPath><clipPath id="e6b3b118d6"><path d="M 206 498 L 329 498 L 329 575.859375 L 206 575.859375 Z M 206 498 " clip-rule="nonzero"/></clipPath><clipPath id="69b8eee40b"><path d="M 152 518 L 337.4375 518 L 337.4375 569 L 152 569 Z M 152 518 " clip-rule="nonzero"/></clipPath><clipPath id="fb9ad17270"><path d="M 132.789062 477.242188 L 327 477.242188 L 327 572 L 132.789062 572 Z M 132.789062 477.242188 " clip-rule="nonzero"/></clipPath></defs><g clip-path="url(#51205637e2)"><path fill="#ffffff" d="M 0 0.140625 L 1024 0.140625 L 1024 575.859375 L 0 575.859375 Z M 0 0.140625 " fill-opacity="1" fill-rule="nonzero"/><path fill="#0d1116" d="M 0 0.140625 L 1024 0.140625 L 1024 575.859375 L 0 575.859375 Z M 0 0.140625 " fill-opacity="1" fill-rule="nonzero"/></g><g clip-path="url(#04b13cf9a4)"><path fill="#059eaf" d="M 763.355469 74.382812 C 750.160156 74.382812 739.460938 63.695312 739.460938 50.507812 C 739.460938 37.320312 750.160156 26.628906 763.355469 26.628906 C 776.550781 26.628906 787.25 37.320312 787.25 50.507812 C 787.25 63.695312 776.550781 74.382812 763.355469 74.382812 Z M 809.316406 40.710938 L 802.089844 40.710938 C 801.132812 36.917969 799.628906 33.34375 797.671875 30.070312 L 802.789062 24.960938 C 804.519531 23.226562 804.519531 20.417969 802.789062 18.683594 L 795.203125 11.105469 C 793.46875 9.371094 790.65625 9.371094 788.921875 11.105469 L 783.808594 16.214844 C 780.53125 14.261719 776.957031 12.757812 773.160156 11.804688 L 773.160156 4.582031 C 773.160156 2.128906 771.171875 0.144531 768.71875 0.144531 L 757.992188 0.144531 C 755.539062 0.144531 753.550781 2.128906 753.550781 4.582031 L 753.550781 11.804688 C 749.757812 12.757812 746.179688 14.261719 742.90625 16.214844 L 737.792969 11.105469 C 736.054688 9.371094 733.246094 9.371094 731.511719 11.105469 L 723.925781 18.683594 C 722.191406 20.417969 722.191406 23.226562 723.925781 24.960938 L 729.039062 30.070312 C 727.085938 33.34375 725.582031 36.917969 724.625 40.710938 L 717.398438 40.710938 C 714.945312 40.710938 712.957031 42.695312 712.957031 45.148438 L 712.957031 55.867188 C 712.957031 58.316406 714.945312 60.304688 717.398438 60.304688 L 724.625 60.304688 C 725.582031 64.097656 727.085938 67.671875 729.039062 70.941406 L 723.925781 76.054688 C 722.191406 77.785156 722.191406 80.597656 723.925781 82.332031 L 731.511719 89.910156 C 733.246094 91.644531 736.054688 91.644531 737.792969 89.910156 L 742.90625 84.800781 C 746.179688 86.753906 749.757812 88.253906 753.550781 89.210938 L 753.550781 96.433594 C 753.550781 98.882812 755.539062 100.871094 757.992188 100.871094 L 768.71875 100.871094 C 771.171875 100.871094 773.160156 98.882812 773.160156 96.433594 L 773.160156 89.210938 C 776.957031 88.253906 780.53125 86.753906 783.808594 84.800781 L 788.921875 89.910156 C 790.65625 91.644531 793.46875 91.644531 795.203125 89.910156 L 802.789062 82.332031 C 804.519531 80.597656 804.519531 77.785156 802.789062 76.054688 L 797.671875 70.941406 C 799.628906 67.671875 801.132812 64.097656 802.089844 60.304688 L 809.316406 60.304688 C 811.769531 60.304688 813.757812 58.316406 813.757812 55.867188 L 813.757812 45.148438 C 813.757812 42.695312 811.769531 40.710938 809.316406 40.710938 " fill-opacity="1" fill-rule="nonzero"/></g><path fill="#4dc4ce" d="M 839.773438 114.175781 C 829.777344 114.859375 821.113281 107.320312 820.425781 97.332031 C 819.738281 87.339844 827.285156 78.683594 837.28125 77.996094 C 847.277344 77.308594 855.941406 84.851562 856.628906 94.839844 C 857.316406 104.832031 849.769531 113.488281 839.773438 114.175781 Z M 872.832031 86.269531 L 867.359375 86.644531 C 866.433594 83.824219 865.109375 81.195312 863.457031 78.816406 L 867.066406 74.675781 C 868.289062 73.273438 868.144531 71.144531 866.738281 69.921875 L 860.597656 64.578125 C 859.191406 63.351562 857.0625 63.5 855.835938 64.902344 L 852.230469 69.042969 C 849.648438 67.730469 846.859375 66.78125 843.9375 66.253906 L 843.558594 60.78125 C 843.429688 58.925781 841.820312 57.523438 839.960938 57.652344 L 831.835938 58.210938 C 829.976562 58.339844 828.574219 59.949219 828.703125 61.804688 L 829.078125 67.277344 C 826.253906 68.199219 823.621094 69.519531 821.246094 71.171875 L 817.105469 67.566406 C 815.699219 66.34375 813.566406 66.492188 812.34375 67.894531 L 806.996094 74.03125 C 805.769531 75.4375 805.917969 77.566406 807.324219 78.785156 L 811.464844 82.390625 C 810.152344 84.972656 809.203125 87.757812 808.671875 90.679688 L 803.199219 91.058594 C 801.339844 91.1875 799.9375 92.792969 800.066406 94.652344 L 800.625 102.773438 C 800.75 104.628906 802.363281 106.03125 804.21875 105.902344 L 809.695312 105.527344 C 810.617188 108.347656 811.945312 110.980469 813.59375 113.355469 L 809.988281 117.492188 C 808.765625 118.898438 808.910156 121.027344 810.316406 122.25 L 816.457031 127.597656 C 817.859375 128.820312 819.992188 128.671875 821.214844 127.269531 L 824.824219 123.128906 C 827.40625 124.441406 830.195312 125.390625 833.117188 125.917969 L 833.496094 131.390625 C 833.625 133.246094 835.234375 134.648438 837.09375 134.519531 L 845.21875 133.960938 C 847.078125 133.832031 848.480469 132.222656 848.351562 130.367188 L 847.976562 124.894531 C 850.800781 123.972656 853.429688 122.648438 855.808594 121 L 859.949219 124.605469 C 861.355469 125.828125 863.484375 125.679688 864.707031 124.277344 L 870.058594 118.140625 C 871.285156 116.734375 871.136719 114.605469 869.730469 113.386719 L 865.589844 109.777344 C 866.902344 107.199219 867.851562 104.414062 868.382812 101.492188 L 873.855469 101.113281 C 875.714844 100.984375 877.117188 99.378906 876.988281 97.519531 L 876.429688 89.398438 C 876.300781 87.542969 874.691406 86.140625 872.832031 86.269531 " fill-opacity="1" fill-rule="nonzero"/><g clip-path="url(#5fa50e87f9)"><path fill="#80d6f7" d="M 780.769531 142.21875 C 773.648438 141.703125 768.292969 135.515625 768.808594 128.402344 C 769.324219 121.289062 775.515625 115.9375 782.636719 116.453125 C 789.757812 116.96875 795.109375 123.152344 794.59375 130.269531 C 794.078125 137.382812 787.890625 142.734375 780.769531 142.21875 Z M 806.882812 125.84375 L 802.984375 125.5625 C 802.617188 123.476562 801.945312 121.492188 801.019531 119.648438 L 803.976562 117.089844 C 804.980469 116.222656 805.089844 114.707031 804.222656 113.703125 L 800.425781 109.320312 C 799.558594 108.316406 798.042969 108.207031 797.039062 109.074219 L 794.078125 111.628906 C 792.386719 110.449219 790.515625 109.5 788.507812 108.835938 L 788.789062 104.9375 C 788.886719 103.613281 787.890625 102.464844 786.566406 102.367188 L 780.777344 101.949219 C 779.457031 101.855469 778.304688 102.847656 778.207031 104.171875 L 777.925781 108.070312 C 775.839844 108.4375 773.851562 109.105469 772.007812 110.03125 L 769.449219 107.074219 C 768.582031 106.074219 767.0625 105.960938 766.058594 106.828125 L 761.671875 110.625 C 760.667969 111.492188 760.558594 113.007812 761.425781 114.011719 L 763.984375 116.96875 C 762.800781 118.65625 761.851562 120.527344 761.1875 122.535156 L 757.285156 122.253906 C 755.964844 122.15625 754.8125 123.152344 754.714844 124.476562 L 754.296875 130.257812 C 754.203125 131.582031 755.195312 132.730469 756.519531 132.828125 L 760.421875 133.109375 C 760.789062 135.191406 761.457031 137.179688 762.386719 139.019531 L 759.425781 141.578125 C 758.421875 142.445312 758.3125 143.964844 759.179688 144.96875 L 762.976562 149.351562 C 763.847656 150.355469 765.363281 150.464844 766.367188 149.597656 L 769.328125 147.039062 C 771.015625 148.222656 772.886719 149.171875 774.898438 149.835938 L 774.617188 153.734375 C 774.519531 155.054688 775.515625 156.207031 776.839844 156.300781 L 782.625 156.71875 C 783.949219 156.816406 785.101562 155.820312 785.195312 154.5 L 785.480469 150.601562 C 787.5625 150.234375 789.554688 149.566406 791.394531 148.636719 L 793.957031 151.59375 C 794.824219 152.597656 796.339844 152.707031 797.34375 151.839844 L 801.734375 148.046875 C 802.738281 147.179688 802.847656 145.664062 801.980469 144.660156 L 799.421875 141.703125 C 800.601562 140.011719 801.554688 138.144531 802.21875 136.132812 L 806.117188 136.417969 C 807.441406 136.511719 808.59375 135.519531 808.6875 134.195312 L 809.109375 128.410156 C 809.203125 127.089844 808.207031 125.9375 806.882812 125.84375 " fill-opacity="1" fill-rule="nonzero"/></g><g clip-path="url(#e6b3b118d6)"><path fill="#485fc1" d="M 328.035156 548.335938 C 326.851562 549.726562 321.449219 552.691406 319.230469 552.464844 C 313.875 551.890625 308.605469 547.625 306.410156 544.9375 C 308.199219 549.382812 309.480469 557.25 309.75 561.214844 C 308.980469 564.230469 310.023438 562.339844 307.371094 563.367188 C 304.71875 564.394531 305.121094 563.25 302.488281 564.335938 C 298.9375 565.789062 278.714844 566.03125 269.207031 564.761719 C 268.273438 562.859375 267.589844 553.25 267.539062 549.066406 C 267.46875 544.324219 267.054688 536.746094 270.285156 528.503906 C 273.8125 519.449219 283.105469 518.632812 284.554688 518.390625 C 287.085938 517.984375 289.203125 517.566406 290.351562 518.480469 L 291.941406 518.050781 C 294.554688 517.957031 295.242188 518.214844 297.808594 518.734375 C 300.503906 519.273438 303.632812 520.667969 304.230469 521.152344 C 309.0625 524.285156 311.710938 529.019531 314.261719 533.320312 C 316.8125 537.617188 317.269531 540.097656 327.730469 543.414062 C 329.292969 544.53125 329.203125 546.953125 328.035156 548.335938 Z M 214.507812 515.929688 C 217.976562 520.542969 221.804688 522.65625 225.949219 525.070312 C 228.003906 526.269531 230.222656 527.375 232.199219 529.039062 C 234.175781 530.707031 236.425781 534.929688 236.71875 538.304688 C 236.914062 535.082031 237.804688 531.042969 239.804688 528.523438 C 239.804688 528.523438 243.730469 524.683594 247.660156 522.960938 C 250.375 521.859375 252.777344 520.285156 254.871094 518.230469 C 258.734375 514.355469 258.316406 509.386719 258.054688 508.394531 C 257.445312 506.054688 256.765625 503.550781 254.851562 500.71875 C 249.714844 496.363281 238.121094 498.832031 230.816406 499.75 C 223.515625 500.671875 216.160156 505.078125 216.160156 505.078125 C 214.167969 508.203125 213.976562 510.53125 213.671875 512.511719 C 213.558594 513.089844 213.550781 513.664062 213.644531 514.246094 C 213.808594 514.871094 214.097656 515.433594 214.507812 515.929688 Z M 262 542.664062 L 207.746094 542.109375 C 207.5625 542.105469 207.386719 542.140625 207.21875 542.210938 C 207.050781 542.277344 206.902344 542.378906 206.773438 542.507812 C 206.644531 542.640625 206.546875 542.789062 206.484375 542.960938 C 206.417969 543.132812 206.386719 543.308594 206.394531 543.492188 L 209.234375 571.003906 L 209.460938 574.96875 C 209.472656 575.136719 209.519531 575.296875 209.59375 575.453125 C 209.667969 575.605469 209.765625 575.738281 209.894531 575.855469 C 210.019531 575.96875 210.160156 576.054688 210.320312 576.117188 C 210.480469 576.175781 210.644531 576.203125 210.8125 576.203125 L 259.460938 576.144531 C 259.632812 576.144531 259.796875 576.117188 259.957031 576.054688 C 260.117188 575.992188 260.261719 575.90625 260.386719 575.789062 C 260.511719 575.671875 260.609375 575.535156 260.683594 575.378906 C 260.757812 575.222656 260.796875 575.0625 260.808594 574.890625 L 260.992188 570.371094 L 263.375 543.992188 C 263.375 543.8125 263.339844 543.640625 263.269531 543.472656 C 263.199219 543.308594 263.101562 543.164062 262.972656 543.035156 C 262.84375 542.910156 262.695312 542.816406 262.527344 542.75 C 262.359375 542.6875 262.1875 542.65625 262.007812 542.664062 Z M 262 542.664062 " fill-opacity="1" fill-rule="nonzero"/></g><g clip-path="url(#69b8eee40b)"><path fill="#40c5db" d="M 194.394531 522.90625 C 198.554688 527.617188 200.765625 534.828125 202.125 540.203125 C 203.574219 545.808594 203.914062 551.371094 204.078125 556.019531 C 204.078125 556.019531 203.761719 560.859375 195.316406 563.1875 C 188.523438 565.0625 173.992188 566.871094 164.511719 562.703125 L 152.394531 561.335938 C 152.199219 559.1875 152.359375 557.066406 152.878906 554.972656 C 154.460938 547.359375 156.742188 540.449219 160.671875 534.640625 C 163.277344 530.769531 165.871094 526.078125 170.203125 523.277344 C 170.203125 523.292969 185.886719 513.277344 194.394531 522.90625 Z M 337.242188 542.222656 C 337.035156 541.765625 336.402344 541.773438 335.90625 541.84375 C 330.179688 542.726562 319.636719 544.113281 313.910156 544.96875 C 312.6875 545.152344 312.160156 545.320312 311.914062 546.34375 C 310.769531 550.320312 309.671875 554.679688 308.738281 558.785156 C 308.351562 560.472656 307.773438 560.957031 307.460938 562.527344 C 307.300781 562.527344 306.894531 563.199219 306.796875 563.1875 C 306.257812 563.140625 305.960938 563.542969 305.09375 563.484375 C 303.484375 563.347656 301.875 563.316406 300.261719 563.382812 C 296.132812 563.796875 292.066406 564.554688 288.0625 565.652344 C 287.308594 565.847656 287.195312 566.285156 288.039062 566.417969 C 293.277344 567.046875 302.53125 567.992188 307.625 568.015625 C 307.773438 568.015625 307.921875 568 308.066406 567.96875 C 315.769531 566.46875 323.417969 564.730469 331.019531 562.753906 C 331.289062 562.707031 331.53125 562.597656 331.742188 562.429688 C 331.960938 562.191406 332.097656 561.914062 332.15625 561.597656 L 337.210938 543.011719 C 337.316406 542.75 337.324219 542.488281 337.242188 542.222656 Z M 337.242188 542.222656 " fill-opacity="1" fill-rule="nonzero"/></g><g clip-path="url(#fb9ad17270)"><path fill="#ffe471" d="M 178.933594 567.769531 C 179.078125 567.929688 179.105469 568.105469 179.015625 568.300781 C 178.921875 568.496094 178.769531 568.585938 178.554688 568.578125 L 149.042969 566.015625 C 148.925781 566.003906 148.824219 565.957031 148.742188 565.871094 L 133.003906 549.542969 C 132.863281 549.382812 132.839844 549.207031 132.929688 549.015625 C 133.023438 548.820312 133.171875 548.730469 133.386719 548.738281 L 162.898438 551.308594 C 163.015625 551.320312 163.117188 551.367188 163.203125 551.453125 L 169.582031 558.085938 L 172.890625 561.09375 L 175.0625 563.765625 Z M 276.34375 523.59375 C 276.894531 523.402344 277.449219 523.386719 278.011719 523.539062 C 278.523438 523.734375 278.785156 524.179688 279.136719 524.5625 C 279.242188 524.703125 279.375 524.820312 279.527344 524.910156 C 279.683594 524.996094 279.851562 525.050781 280.027344 525.066406 C 280.203125 525.085938 280.378906 525.066406 280.546875 525.011719 C 280.714844 524.957031 280.867188 524.871094 281 524.75 C 281.570312 524.269531 282.210938 523.933594 282.933594 523.75 C 282.828125 523.628906 282.726562 523.5 282.628906 523.375 C 282.253906 523.472656 281.902344 523.621094 281.570312 523.816406 C 281.207031 524.035156 280.898438 524.34375 280.527344 524.542969 C 279.878906 524.890625 279.511719 524.316406 279.140625 523.875 C 278.871094 523.539062 278.535156 523.292969 278.132812 523.140625 C 277.726562 522.992188 277.3125 522.953125 276.890625 523.03125 C 275.785156 523.183594 274.824219 523.855469 273.714844 524 C 273.484375 524.03125 273.253906 524.019531 273.023438 523.972656 C 272.917969 524.09375 272.8125 524.214844 272.710938 524.339844 C 272.992188 524.433594 273.285156 524.472656 273.582031 524.457031 C 274.566406 524.371094 275.417969 523.855469 276.34375 523.59375 Z M 273.273438 532.703125 C 274.238281 532.640625 275.105469 532.125 276.042969 531.863281 C 276.59375 531.671875 277.148438 531.652344 277.710938 531.808594 C 278.222656 531.996094 278.484375 532.449219 278.835938 532.832031 C 278.941406 532.972656 279.074219 533.089844 279.230469 533.175781 C 279.382812 533.265625 279.550781 533.316406 279.726562 533.335938 C 279.90625 533.355469 280.078125 533.335938 280.246094 533.28125 C 280.417969 533.226562 280.570312 533.136719 280.703125 533.019531 C 281.46875 532.460938 282.367188 531.789062 283.382812 532.050781 C 284.265625 532.269531 284.683594 533.21875 285.484375 533.589844 C 286.855469 534.234375 287.796875 532.734375 289.023438 532.480469 C 289.914062 532.296875 290.257812 533.308594 290.957031 533.621094 C 291.65625 533.929688 292.582031 533.621094 293.246094 533.222656 C 294 532.765625 294.746094 532.007812 295.664062 532.007812 C 296.582031 532.007812 297.386719 532.875 298.34375 533.007812 C 299.132812 533.050781 299.808594 532.785156 300.363281 532.21875 C 301.125 531.585938 302.015625 530.691406 303.046875 531.316406 C 303.398438 531.523438 303.746094 531.769531 304.164062 531.589844 C 304.511719 531.378906 304.78125 531.097656 304.980469 530.742188 C 305.226562 530.371094 305.515625 530.03125 305.847656 529.730469 C 306.066406 529.558594 306.316406 529.464844 306.59375 529.449219 C 306.871094 529.433594 307.128906 529.5 307.367188 529.644531 C 308.226562 530.054688 309.097656 530.089844 309.984375 529.746094 C 310.527344 529.535156 311.03125 529.257812 311.503906 528.914062 L 311.34375 528.675781 C 311.3125 528.632812 311.289062 528.589844 311.261719 528.550781 C 310.828125 528.867188 310.359375 529.125 309.859375 529.324219 C 309.429688 529.5 308.984375 529.574219 308.523438 529.542969 C 308.023438 529.425781 307.539062 529.265625 307.074219 529.058594 C 306.742188 528.976562 306.414062 528.988281 306.09375 529.097656 C 305.769531 529.207031 305.503906 529.398438 305.289062 529.664062 C 305.054688 529.925781 304.835938 530.199219 304.628906 530.488281 C 304.511719 530.640625 304.402344 530.800781 304.277344 530.972656 C 303.902344 531.398438 303.585938 531.136719 303.183594 530.898438 C 302.84375 530.726562 302.484375 530.660156 302.105469 530.695312 C 301.726562 530.734375 301.386719 530.871094 301.085938 531.105469 C 300.359375 531.589844 299.757812 532.429688 298.867188 532.589844 C 297.867188 532.773438 297.054688 531.847656 296.117188 531.621094 C 295.28125 531.511719 294.539062 531.722656 293.882812 532.253906 C 293.125 532.738281 292.132812 533.613281 291.152344 533.222656 C 290.398438 532.933594 290.136719 532.011719 289.21875 532.007812 C 287.976562 532.007812 286.980469 533.695312 285.714844 533.222656 C 284.875 532.90625 284.472656 531.945312 283.59375 531.652344 C 282.742188 531.441406 281.949219 531.585938 281.222656 532.078125 C 280.859375 532.296875 280.550781 532.609375 280.179688 532.804688 C 279.53125 533.148438 279.164062 532.574219 278.792969 532.132812 C 278.523438 531.796875 278.1875 531.554688 277.78125 531.40625 C 277.378906 531.253906 276.964844 531.21875 276.542969 531.296875 C 275.4375 531.445312 274.472656 532.113281 273.367188 532.265625 C 272.710938 532.347656 272.140625 532.164062 271.65625 531.707031 C 271.304688 531.347656 270.921875 531.023438 270.507812 530.738281 C 270.210938 530.566406 269.898438 530.441406 269.566406 530.363281 C 269.519531 530.5 269.472656 530.640625 269.429688 530.789062 C 270.035156 530.953125 270.566406 531.253906 271.015625 531.691406 C 271.714844 532.300781 272.34375 532.761719 273.28125 532.703125 Z M 306.898438 546.328125 C 306.417969 546.601562 306.0625 546.992188 305.828125 547.492188 C 305.605469 547.996094 305.234375 548.34375 304.71875 548.53125 C 304.1875 548.609375 303.675781 548.53125 303.1875 548.296875 C 302.5625 548.085938 301.980469 547.890625 301.351562 548.207031 C 300.886719 548.476562 300.476562 548.816406 300.121094 549.222656 C 299.34375 549.988281 298.40625 550.339844 297.363281 549.855469 C 296.75 549.574219 296.214844 549.097656 295.546875 548.941406 C 294.878906 548.785156 294.351562 549.21875 293.859375 549.664062 C 293.0625 550.375 291.792969 551.210938 290.6875 550.722656 C 290.113281 550.464844 289.835938 549.753906 289.238281 549.582031 C 288.78125 549.492188 288.367188 549.585938 287.996094 549.867188 C 287.285156 550.273438 286.570312 550.917969 285.695312 550.878906 C 284.382812 550.820312 283.933594 549.160156 282.625 549.097656 C 281.894531 549.132812 281.25 549.386719 280.691406 549.855469 C 280.257812 550.171875 279.820312 550.632812 279.242188 550.554688 C 278.664062 550.476562 278.347656 549.976562 278.019531 549.585938 C 277.769531 549.277344 277.457031 549.0625 277.078125 548.941406 C 276.699219 548.820312 276.320312 548.8125 275.9375 548.921875 C 274.664062 549.175781 273.480469 550.09375 272.121094 549.890625 C 271.503906 549.757812 270.984375 549.453125 270.566406 548.980469 C 270.136719 548.519531 269.621094 548.183594 269.023438 547.972656 C 268.734375 547.886719 268.4375 547.84375 268.132812 547.84375 C 269.117188 550.953125 269.6875 554.140625 269.835938 557.402344 C 269.835938 557.402344 269.835938 557.613281 269.773438 557.980469 C 270.511719 557.679688 271.265625 557.375 272.023438 557.535156 C 273.179688 557.773438 273.996094 559.292969 275.320312 559.011719 C 275.886719 558.890625 276.378906 558.414062 276.871094 558.132812 C 277.292969 557.863281 277.753906 557.730469 278.257812 557.742188 C 278.816406 557.796875 279.300781 558.019531 279.707031 558.410156 C 280.160156 558.8125 280.601562 559.402344 281.257812 559.476562 C 282.1875 559.582031 282.996094 558.710938 283.796875 558.375 C 284.144531 558.214844 284.507812 558.167969 284.886719 558.242188 C 285.492188 558.382812 285.765625 558.90625 286.238281 559.242188 C 287.492188 560.148438 288.859375 558.644531 289.796875 557.996094 C 290.886719 557.242188 291.886719 557.886719 292.890625 558.429688 C 293.191406 558.632812 293.523438 558.746094 293.882812 558.769531 C 294.246094 558.792969 294.589844 558.722656 294.914062 558.5625 C 295.3125 558.285156 295.679688 557.972656 296.015625 557.621094 C 296.398438 557.253906 296.84375 557 297.359375 556.867188 C 297.5625 556.824219 297.773438 556.816406 297.980469 556.835938 C 297.941406 556.992188 297.910156 557.140625 297.878906 557.289062 C 297.519531 557.261719 297.183594 557.34375 296.875 557.535156 C 296.441406 557.824219 296.039062 558.152344 295.667969 558.523438 C 295.476562 558.707031 295.257812 558.859375 295.015625 558.972656 C 294.777344 559.085938 294.523438 559.15625 294.257812 559.1875 C 293.992188 559.21875 293.730469 559.203125 293.46875 559.144531 C 293.207031 559.089844 292.964844 558.988281 292.734375 558.851562 C 292.101562 558.515625 291.402344 557.941406 290.628906 558.078125 C 290.054688 558.171875 289.632812 558.691406 289.203125 559.042969 C 288.363281 559.703125 287.015625 560.332031 286.003906 559.648438 C 285.523438 559.324219 285.226562 558.683594 284.589844 558.652344 C 284.101562 558.683594 283.660156 558.847656 283.265625 559.136719 C 282.542969 559.574219 281.734375 560.105469 280.851562 559.832031 C 279.683594 559.460938 279.097656 557.796875 277.664062 558.246094 C 276.652344 558.566406 275.910156 559.628906 274.765625 559.433594 C 274.175781 559.300781 273.640625 559.054688 273.160156 558.691406 C 272.589844 558.308594 272.15625 557.84375 271.402344 557.941406 C 270.816406 558.046875 270.25 558.21875 269.707031 558.464844 C 269.277344 561.082031 267.550781 567.835938 261.011719 570.386719 L 262.039062 544.882812 C 262.042969 544.703125 262.011719 544.527344 261.945312 544.359375 C 261.878906 544.191406 261.78125 544.046875 261.652344 543.917969 C 261.523438 543.789062 261.378906 543.691406 261.210938 543.625 C 261.042969 543.558594 260.867188 543.523438 260.6875 543.527344 L 209.113281 543.585938 C 208.929688 543.582031 208.757812 543.617188 208.589844 543.683594 C 208.417969 543.753906 208.273438 543.855469 208.144531 543.984375 C 208.015625 544.113281 207.921875 544.265625 207.855469 544.433594 C 207.789062 544.605469 207.757812 544.78125 207.765625 544.960938 L 209.253906 571.023438 C 203.363281 569.335938 201.492188 563.632812 201.609375 559.808594 C 202.195312 541.574219 208.808594 529.742188 222.171875 524.019531 C 221.203125 523.335938 220.277344 522.648438 219.460938 522.195312 C 215.839844 520.152344 213.4375 515.667969 212.902344 512.726562 C 212.214844 508.988281 213.027344 503.851562 213.78125 500.136719 C 214.84375 494.667969 216.503906 489.304688 219.257812 484.5 C 219.890625 483.289062 220.703125 482.21875 221.703125 481.289062 C 222.882812 480.347656 224.199219 479.667969 225.648438 479.25 C 228.4375 478.332031 231.300781 477.832031 234.234375 477.753906 C 237.167969 477.675781 240.050781 478.023438 242.886719 478.792969 C 244.320312 479.128906 245.652344 479.710938 246.875 480.53125 C 248.019531 481.453125 248.984375 482.53125 249.773438 483.769531 C 252.746094 488.019531 257.890625 497.667969 259.582031 506.261719 C 260.160156 509.195312 259.691406 515.375 256.605469 519.171875 C 255.195312 520.90625 252.257812 522.910156 249.5 523.960938 C 250.949219 524.683594 252.300781 525.558594 253.550781 526.585938 C 256.894531 529.292969 259.785156 532.417969 262.230469 535.957031 C 264.675781 539.5 266.574219 543.3125 267.925781 547.402344 C 268.464844 547.386719 268.984375 547.488281 269.484375 547.703125 C 269.953125 547.925781 270.367188 548.222656 270.726562 548.597656 C 271.359375 549.203125 271.957031 549.566406 272.859375 549.445312 C 274.191406 549.238281 275.347656 548.3125 276.726562 548.429688 C 277.308594 548.46875 277.792969 548.710938 278.175781 549.15625 C 278.386719 549.449219 278.625 549.722656 278.894531 549.96875 C 279.285156 550.242188 279.644531 550.078125 279.992188 549.8125 C 280.859375 549.148438 281.921875 548.449219 283.09375 548.757812 C 284.261719 549.066406 284.835938 550.753906 286.117188 550.421875 C 286.980469 550.199219 287.609375 549.453125 288.460938 549.199219 C 288.816406 549.078125 289.164062 549.09375 289.507812 549.246094 C 290.101562 549.515625 290.367188 550.214844 291.011719 550.410156 C 291.730469 550.605469 292.566406 550.148438 293.121094 549.726562 C 293.515625 549.363281 293.929688 549.027344 294.367188 548.71875 C 295.574219 548.035156 296.566406 549.101562 297.628906 549.53125 C 298.929688 550.058594 299.59375 549.023438 300.46875 548.296875 C 300.84375 547.953125 301.277344 547.730469 301.777344 547.632812 C 302.316406 547.601562 302.832031 547.695312 303.324219 547.914062 C 303.980469 548.136719 304.699219 548.398438 305.179688 547.707031 C 305.460938 547.222656 305.785156 546.765625 306.144531 546.335938 C 306.320312 546.164062 306.519531 546.035156 306.753906 545.960938 Z M 247.03125 522.683594 C 249.601562 521.640625 251.875 520.148438 253.855469 518.207031 C 254.457031 517.601562 254.976562 516.9375 255.417969 516.210938 C 255.859375 515.488281 256.214844 514.71875 256.476562 513.910156 C 256.738281 513.101562 256.902344 512.273438 256.96875 511.421875 C 257.035156 510.574219 257.003906 509.730469 256.871094 508.890625 C 256.296875 506.683594 255.648438 504.300781 253.84375 501.628906 C 248.976562 497.511719 238.011719 499.839844 231.097656 500.710938 C 224.1875 501.582031 217.222656 505.730469 217.222656 505.730469 C 215.335938 508.6875 215.15625 510.894531 214.871094 512.769531 C 214.761719 513.3125 214.753906 513.859375 214.839844 514.40625 C 214.996094 515.003906 215.269531 515.542969 215.660156 516.023438 C 218.261719 519.484375 221.078125 521.457031 224.089844 523.285156 C 224.875 523.769531 225.671875 524.21875 226.503906 524.6875 L 227.550781 525.277344 C 227.996094 525.53125 228.445312 525.761719 228.894531 526.042969 C 230.140625 526.738281 231.316406 527.535156 232.421875 528.433594 C 234.292969 530.011719 236.382812 532.695312 236.652344 535.886719 C 236.707031 534.4375 236.988281 533.03125 237.496094 531.675781 C 238.003906 530.316406 238.710938 529.074219 239.621094 527.945312 C 240.785156 526.839844 242.023438 525.820312 243.324219 524.882812 L 243.4375 524.804688 L 244.027344 524.398438 L 244.480469 524.101562 L 244.910156 523.832031 L 245.347656 523.566406 L 245.710938 523.359375 C 245.957031 523.226562 246.195312 523.09375 246.457031 522.972656 L 246.8125 522.792969 Z M 315.144531 534.910156 C 314.71875 534.878906 314.296875 534.878906 313.871094 534.910156 C 313.160156 534.917969 312.554688 535.175781 312.054688 535.683594 C 311.570312 536.257812 311.277344 536.929688 310.652344 537.410156 C 310.191406 537.761719 309.671875 537.964844 309.09375 538.015625 C 308.515625 538.070312 307.96875 537.964844 307.449219 537.699219 C 307.257812 537.597656 307.054688 537.53125 306.839844 537.5 C 306.625 537.472656 306.410156 537.480469 306.199219 537.527344 C 305.984375 537.574219 305.789062 537.65625 305.605469 537.773438 C 305.421875 537.894531 305.265625 538.039062 305.136719 538.214844 C 304.847656 538.53125 304.605469 538.894531 304.339844 539.234375 C 304.074219 539.574219 303.820312 539.792969 303.371094 539.507812 C 303.148438 539.339844 302.902344 539.21875 302.632812 539.144531 C 301.625 538.925781 300.78125 539.710938 300.074219 540.300781 C 299.6875 540.695312 299.222656 540.945312 298.683594 541.050781 C 298.035156 541.109375 297.464844 540.707031 296.917969 540.425781 C 296.476562 540.171875 296 540.054688 295.488281 540.074219 C 294.980469 540.097656 294.511719 540.253906 294.09375 540.542969 C 293.226562 541.070312 291.992188 542.269531 290.898438 541.605469 C 290.453125 541.335938 290.214844 540.828125 289.730469 540.605469 C 289.417969 540.46875 289.09375 540.445312 288.765625 540.53125 C 288.015625 540.722656 287.429688 541.300781 286.734375 541.605469 C 286.34375 541.816406 285.941406 541.828125 285.535156 541.644531 C 284.996094 541.375 284.648438 540.832031 284.175781 540.472656 C 283.339844 539.839844 282.304688 539.992188 281.417969 540.421875 C 280.976562 540.644531 280.625 540.96875 280.214844 541.230469 C 279.460938 541.714844 279.050781 540.949219 278.601562 540.453125 C 277.734375 539.488281 276.472656 539.664062 275.367188 540.058594 C 274.707031 540.355469 274.019531 540.578125 273.308594 540.722656 C 272.464844 540.824219 271.886719 540.441406 271.296875 539.878906 C 270.5625 539.125 269.667969 538.738281 268.613281 538.722656 C 268.335938 538.71875 268.0625 538.757812 267.792969 538.832031 C 267.792969 538.992188 267.765625 539.148438 267.746094 539.316406 C 268.199219 539.160156 268.660156 539.128906 269.132812 539.214844 C 269.621094 539.292969 270.066406 539.480469 270.464844 539.773438 C 270.898438 540.179688 271.355469 540.5625 271.832031 540.917969 C 272.796875 541.472656 273.890625 541.132812 274.839844 540.765625 C 275.390625 540.519531 275.957031 540.34375 276.546875 540.238281 C 276.917969 540.167969 277.277344 540.207031 277.628906 540.347656 C 277.976562 540.492188 278.261719 540.71875 278.480469 541.027344 C 278.722656 541.390625 279.042969 541.660156 279.445312 541.828125 C 279.890625 541.933594 280.285156 541.832031 280.628906 541.523438 C 281.59375 540.835938 282.816406 540.015625 283.941406 540.863281 C 284.675781 541.417969 285.207031 542.34375 286.257812 542.238281 C 287.039062 542.160156 287.664062 541.597656 288.324219 541.238281 C 288.625 541.035156 288.957031 540.945312 289.320312 540.964844 C 289.890625 541.046875 290.167969 541.652344 290.613281 541.957031 C 291.429688 542.527344 292.464844 542.167969 293.238281 541.695312 C 294.234375 541.078125 295.167969 540.167969 296.390625 540.683594 C 297.359375 541.085938 298.203125 541.824219 299.316406 541.375 C 300.324219 540.96875 300.941406 539.84375 302.039062 539.613281 C 302.6875 539.476562 303.003906 539.953125 303.574219 540.121094 C 303.769531 540.164062 303.960938 540.148438 304.148438 540.070312 C 304.332031 539.996094 304.480469 539.871094 304.589844 539.703125 C 305.179688 539.023438 305.773438 537.691406 306.878906 537.964844 C 307.410156 538.183594 307.957031 538.363281 308.511719 538.503906 C 308.972656 538.554688 309.425781 538.511719 309.863281 538.367188 C 310.804688 538.03125 311.527344 537.429688 312.035156 536.566406 C 312.179688 536.289062 312.359375 536.039062 312.574219 535.816406 C 312.910156 535.570312 313.285156 535.433594 313.699219 535.402344 C 314.269531 535.324219 314.835938 535.3125 315.40625 535.367188 Z M 305.042969 522.117188 C 304.917969 522.277344 304.792969 522.4375 304.652344 522.601562 C 304.242188 523.027344 303.863281 522.742188 303.390625 522.476562 C 303.007812 522.277344 302.597656 522.191406 302.167969 522.214844 C 301.734375 522.234375 301.339844 522.363281 300.976562 522.601562 C 300.15625 523.054688 299.527344 523.9375 298.488281 524.054688 C 297.769531 524.144531 297.121094 523.792969 296.46875 523.449219 C 296.421875 523.578125 296.371094 523.714844 296.320312 523.84375 C 296.8125 524.148438 297.34375 524.367188 297.910156 524.5 C 298.78125 524.589844 299.542969 524.339844 300.199219 523.757812 C 301.050781 523.125 302.035156 522.222656 303.25 522.921875 C 303.664062 523.15625 304.078125 523.433594 304.550781 523.257812 C 304.933594 523.0625 305.234375 522.777344 305.453125 522.40625 C 305.511719 522.339844 305.566406 522.265625 305.625 522.195312 C 305.492188 522.09375 305.363281 521.988281 305.222656 521.882812 Z M 325.777344 553.324219 C 325.417969 552.769531 324.914062 552.445312 324.261719 552.355469 C 324.003906 552.335938 323.753906 552.355469 323.507812 552.421875 C 323.257812 552.484375 323.027344 552.585938 322.8125 552.726562 C 322.597656 552.867188 322.414062 553.039062 322.253906 553.242188 C 322.097656 553.445312 321.976562 553.664062 321.894531 553.910156 C 321.707031 554.4375 321.730469 554.957031 321.964844 555.46875 C 322.289062 556.078125 322.78125 556.476562 323.445312 556.667969 C 323.738281 556.769531 323.863281 556.308594 323.574219 556.207031 C 323.117188 556.070312 322.753906 555.804688 322.484375 555.414062 C 322.289062 555.101562 322.21875 554.761719 322.265625 554.398438 C 322.324219 554.023438 322.480469 553.699219 322.734375 553.421875 C 322.988281 553.140625 323.296875 552.957031 323.660156 552.867188 C 324.078125 552.761719 324.46875 552.820312 324.832031 553.046875 C 325.203125 553.269531 325.445312 553.59375 325.550781 554.015625 C 325.667969 554.601562 325.320312 555.390625 324.617188 555.417969 C 324.351562 555.4375 324.105469 555.367188 323.882812 555.214844 C 323.628906 555.042969 323.515625 554.800781 323.535156 554.496094 C 323.609375 554.074219 324.125 553.78125 324.429688 554.15625 C 324.542969 554.269531 324.65625 554.269531 324.769531 554.15625 C 324.882812 554.042969 324.882812 553.929688 324.769531 553.816406 C 324.675781 553.714844 324.5625 553.636719 324.433594 553.582031 C 324.308594 553.527344 324.175781 553.503906 324.035156 553.503906 C 323.898438 553.507812 323.765625 553.539062 323.640625 553.601562 C 323.515625 553.660156 323.410156 553.742188 323.320312 553.851562 C 323.210938 553.984375 323.132812 554.140625 323.089844 554.308594 C 323.046875 554.476562 323.039062 554.648438 323.070312 554.820312 C 323.101562 554.992188 323.167969 555.148438 323.265625 555.292969 C 323.367188 555.4375 323.492188 555.554688 323.644531 555.640625 C 323.882812 555.796875 324.148438 555.882812 324.433594 555.898438 C 324.722656 555.910156 324.992188 555.851562 325.246094 555.71875 C 325.664062 555.460938 325.910156 555.09375 325.992188 554.609375 C 326.101562 554.152344 326.03125 553.722656 325.777344 553.324219 Z M 237.585938 560.175781 C 237.457031 561.84375 235.769531 562.597656 234.277344 562.339844 C 233.582031 562.257812 233.023438 561.9375 232.601562 561.375 C 232.300781 560.921875 232.164062 560.429688 232.183594 559.886719 C 232.21875 558.550781 233.480469 557.089844 234.90625 557.378906 C 235.285156 557.449219 235.625 557.609375 235.917969 557.863281 C 236.214844 558.117188 236.421875 558.429688 236.546875 558.796875 C 236.726562 559.386719 236.617188 559.917969 236.21875 560.386719 C 235.734375 560.910156 234.664062 561.117188 234.171875 560.492188 C 233.679688 559.867188 234.265625 558.605469 235.09375 559.097656 C 235.242188 559.148438 235.355469 559.105469 235.433594 558.972656 C 235.515625 558.84375 235.5 558.722656 235.386719 558.613281 C 235.289062 558.5625 235.1875 558.519531 235.082031 558.492188 C 234.972656 558.464844 234.863281 558.453125 234.753906 558.453125 C 234.644531 558.453125 234.535156 558.464844 234.425781 558.492188 C 234.316406 558.519531 234.214844 558.558594 234.117188 558.609375 C 234.019531 558.664062 233.929688 558.726562 233.847656 558.800781 C 233.765625 558.875 233.695312 558.957031 233.632812 559.050781 C 233.570312 559.144531 233.519531 559.242188 233.484375 559.347656 C 233.445312 559.449219 233.421875 559.558594 233.414062 559.667969 C 233.394531 559.796875 233.390625 559.921875 233.402344 560.046875 C 233.414062 560.175781 233.4375 560.296875 233.480469 560.417969 C 233.519531 560.539062 233.574219 560.652344 233.644531 560.761719 C 233.710938 560.867188 233.792969 560.964844 233.882812 561.054688 C 233.972656 561.144531 234.074219 561.21875 234.183594 561.285156 C 234.292969 561.347656 234.410156 561.398438 234.53125 561.433594 C 234.652344 561.472656 234.777344 561.492188 234.90625 561.5 C 235.03125 561.507812 235.15625 561.5 235.28125 561.476562 C 235.707031 561.441406 236.085938 561.292969 236.421875 561.027344 C 236.753906 560.765625 236.988281 560.429688 237.117188 560.023438 C 237.234375 559.648438 237.257812 559.269531 237.1875 558.882812 C 237.117188 558.5 236.960938 558.152344 236.722656 557.84375 C 236.382812 557.402344 235.949219 557.09375 235.417969 556.917969 C 234.890625 556.742188 234.359375 556.726562 233.824219 556.875 C 233.347656 557.050781 232.929688 557.316406 232.574219 557.675781 C 232.214844 558.039062 231.953125 558.457031 231.785156 558.9375 C 231.660156 559.28125 231.601562 559.632812 231.605469 559.996094 C 231.609375 560.359375 231.679688 560.710938 231.8125 561.050781 C 231.949219 561.386719 232.136719 561.691406 232.382812 561.957031 C 232.625 562.226562 232.910156 562.445312 233.234375 562.609375 C 234.273438 563.078125 235.320312 563.101562 236.378906 562.675781 C 236.898438 562.46875 237.324219 562.140625 237.65625 561.683594 C 237.984375 561.230469 238.167969 560.722656 238.203125 560.164062 C 238.179688 559.800781 237.617188 559.804688 237.585938 560.175781 Z M 195.667969 533.21875 C 196.105469 533.160156 196.757812 532.863281 196.84375 532.433594 C 196.996094 531.789062 196.855469 531.21875 196.421875 530.71875 C 196.300781 530.582031 196.160156 530.472656 196 530.386719 C 195.835938 530.300781 195.664062 530.246094 195.484375 530.222656 C 195.304688 530.199219 195.125 530.207031 194.945312 530.25 C 194.769531 530.292969 194.601562 530.367188 194.453125 530.46875 C 194.128906 530.746094 193.925781 531.09375 193.847656 531.515625 C 193.769531 531.933594 193.832031 532.332031 194.035156 532.710938 C 194.339844 533.398438 195.351562 533.25 195.667969 533.21875 Z M 169 529.558594 C 169.433594 529.503906 170.085938 529.210938 170.171875 528.777344 C 170.324219 528.136719 170.183594 527.5625 169.75 527.066406 C 169.546875 526.839844 169.296875 526.6875 169.007812 526.609375 C 168.714844 526.527344 168.421875 526.53125 168.132812 526.621094 C 167.882812 526.8125 167.652344 527.015625 167.394531 527.214844 C 167.230469 527.496094 167.144531 527.804688 167.132812 528.128906 C 167.125 528.457031 167.195312 528.765625 167.339844 529.058594 C 167.652344 529.742188 168.679688 529.597656 168.980469 529.558594 Z M 177.441406 540.503906 C 177.882812 540.445312 178.53125 540.15625 178.621094 539.722656 C 178.773438 539.078125 178.628906 538.507812 178.195312 538.011719 C 178.074219 537.871094 177.933594 537.761719 177.773438 537.675781 C 177.613281 537.589844 177.441406 537.535156 177.261719 537.511719 C 177.078125 537.488281 176.898438 537.496094 176.722656 537.539062 C 176.546875 537.582031 176.382812 537.65625 176.230469 537.757812 C 175.902344 538.035156 175.703125 538.382812 175.625 538.800781 C 175.546875 539.222656 175.609375 539.621094 175.816406 539.996094 C 176.113281 540.683594 177.128906 540.539062 177.421875 540.503906 Z M 159.707031 544.53125 C 160.144531 544.476562 160.789062 544.183594 160.882812 543.75 C 161.027344 543.109375 160.890625 542.539062 160.460938 542.039062 C 160.339844 541.902344 160.199219 541.789062 160.039062 541.703125 C 159.878906 541.617188 159.707031 541.5625 159.523438 541.539062 C 159.34375 541.515625 159.164062 541.527344 158.984375 541.566406 C 158.808594 541.609375 158.644531 541.683594 158.492188 541.785156 C 158.167969 542.0625 157.964844 542.414062 157.886719 542.832031 C 157.808594 543.253906 157.871094 543.652344 158.074219 544.027344 C 158.398438 544.707031 159.410156 544.558594 159.707031 544.53125 Z M 195.015625 545.984375 C 194.691406 546.261719 194.492188 546.609375 194.414062 547.03125 C 194.335938 547.449219 194.398438 547.847656 194.601562 548.226562 C 194.925781 548.914062 195.933594 548.765625 196.234375 548.710938 C 196.667969 548.65625 197.320312 548.359375 197.410156 547.929688 C 197.558594 547.285156 197.421875 546.714844 196.988281 546.214844 C 196.867188 546.078125 196.726562 545.964844 196.566406 545.875 C 196.40625 545.789062 196.234375 545.734375 196.054688 545.710938 C 195.871094 545.683594 195.691406 545.691406 195.511719 545.734375 C 195.335938 545.777344 195.167969 545.847656 195.015625 545.949219 Z M 284.605469 513.210938 C 285.570312 511.757812 286.886719 509.59375 286.8125 509.175781 C 287.582031 508.46875 285.140625 507.78125 285.71875 506.917969 C 286.382812 505.949219 285.757812 505.414062 286.042969 504.375 L 285.917969 504.375 C 285.40625 504.375 285.40625 503.554688 285.917969 503.574219 C 286.074219 503.574219 286.226562 503.574219 286.378906 503.574219 C 286.554688 503.296875 286.785156 503.078125 287.074219 502.917969 C 289.710938 501.421875 289.972656 499.003906 292.667969 497.59375 C 293.488281 497.167969 293.855469 497.738281 293.402344 498.507812 C 298.320312 498.609375 302.015625 498.101562 302.582031 496.386719 C 304.15625 498.769531 305.074219 498.324219 304.996094 500.960938 C 306.171875 500.136719 307.023438 499.054688 307.550781 497.714844 C 308.097656 496.078125 307.652344 494.066406 305.792969 490.839844 C 304.757812 489.050781 302.367188 486.902344 300.085938 487.160156 C 297.9375 484.144531 295.382812 483.601562 291.9375 483.421875 C 284.53125 483.039062 281.058594 485.628906 278.9375 489.015625 C 273.089844 498.355469 275.042969 504.398438 275.554688 505.769531 C 277.1875 510.402344 283.417969 515.175781 284.605469 513.210938 Z M 178.472656 550.339844 C 178.148438 550.617188 177.945312 550.96875 177.867188 551.386719 C 177.789062 551.808594 177.851562 552.207031 178.054688 552.582031 C 178.375 553.269531 179.390625 553.125 179.6875 553.066406 C 180.125 553.011719 180.769531 552.71875 180.863281 552.285156 C 181.011719 551.644531 180.871094 551.070312 180.4375 550.574219 C 180.316406 550.4375 180.175781 550.328125 180.011719 550.242188 C 179.851562 550.160156 179.679688 550.105469 179.5 550.085938 C 179.316406 550.0625 179.136719 550.074219 178.960938 550.117188 C 178.785156 550.164062 178.621094 550.238281 178.472656 550.339844 Z M 178.472656 550.339844 " fill-opacity="1" fill-rule="nonzero"/></g><path fill="#f28383" d="M 179.808594 562.210938 C 179.835938 562.28125 179.84375 562.351562 179.832031 562.421875 C 179.824219 562.496094 179.796875 562.5625 179.757812 562.621094 C 179.714844 562.683594 179.660156 562.730469 179.597656 562.765625 C 179.53125 562.796875 179.460938 562.816406 179.390625 562.816406 L 176.726562 563.410156 C 176.191406 563.53125 175.632812 563.652344 175.074219 563.734375 L 169.582031 558.085938 C 171.441406 557.878906 173.234375 558.136719 174.960938 558.867188 C 175.992188 558.589844 176.921875 558.113281 177.746094 557.4375 C 179.273438 558.390625 179.613281 560.417969 179.808594 562.210938 Z M 296.972656 502.210938 C 296.40625 502.058594 295.828125 501.96875 295.242188 501.945312 C 294.160156 501.875 292.792969 501.824219 291.8125 502.367188 C 291.222656 502.691406 291.0625 503.449219 291.054688 504.074219 C 291.007812 504.820312 291.1875 505.507812 291.59375 506.136719 C 292.339844 507.070312 293.929688 507.027344 294.976562 506.96875 C 295.785156 506.925781 296.847656 506.871094 297.390625 506.203125 C 297.824219 505.566406 298.023438 504.863281 297.992188 504.09375 C 298.039062 503.289062 297.816406 502.46875 296.972656 502.210938 Z M 291.730469 501.902344 C 292.996094 501.316406 294.316406 501.417969 295.667969 501.570312 C 296.351562 501.65625 296.976562 501.890625 297.546875 502.273438 C 298.125 502.636719 298.453125 503.15625 298.535156 503.832031 C 299.082031 503.832031 299.839844 503.832031 300.386719 503.832031 L 300.449219 503.832031 C 300.527344 503.210938 300.8125 502.707031 301.304688 502.320312 C 301.855469 502.015625 302.441406 501.902344 303.0625 501.976562 C 303.773438 501.976562 304.589844 502.148438 304.996094 502.132812 C 305.085938 501.484375 305.164062 500.832031 305.222656 500.167969 C 305.140625 497.789062 304.0625 495.8125 302.605469 493.578125 C 302.054688 495.292969 299.871094 497.539062 294.953125 497.453125 C 295.371094 496.839844 295.664062 496.175781 295.832031 495.453125 C 294.804688 495.753906 293.808594 496.125 292.835938 496.570312 C 290.144531 497.96875 287.492188 500.730469 284.855469 502.230469 C 284.570312 502.394531 284.34375 502.617188 284.175781 502.898438 C 285.0625 503.382812 288.550781 503.25 290.695312 503.28125 C 290.835938 502.667969 291.183594 502.207031 291.730469 501.902344 Z M 302.582031 502.339844 C 302.085938 502.394531 301.667969 502.597656 301.324219 502.957031 C 301.027344 503.355469 300.878906 503.800781 300.875 504.296875 C 300.808594 504.960938 300.914062 505.59375 301.195312 506.199219 C 301.328125 506.460938 301.523438 506.660156 301.78125 506.796875 L 301.875 506.796875 C 302.121094 506.875 302.371094 506.929688 302.628906 506.960938 C 303.128906 506.976562 303.597656 506.871094 304.042969 506.644531 C 304.222656 505.960938 304.382812 505.265625 304.527344 504.523438 C 304.644531 504.011719 304.734375 503.488281 304.828125 502.960938 C 304.546875 502.703125 304.226562 502.519531 303.859375 502.414062 C 303.4375 502.335938 303.011719 502.3125 302.582031 502.339844 Z M 307.492188 557.320312 C 306.816406 556.6875 304.992188 556.144531 304.113281 555.921875 C 302.152344 555.46875 300.1875 555.4375 298.214844 555.820312 C 297.882812 556.996094 297.644531 558.191406 297.5 559.402344 C 299.429688 559.695312 300.941406 560.699219 303.214844 562.183594 C 303.851562 562.601562 304.464844 563.078125 305.113281 563.484375 C 305.980469 563.542969 306.765625 563.605469 307.308594 563.652344 L 307.695312 563.6875 C 308.015625 562.128906 308.371094 560.476562 308.757812 558.792969 C 308.382812 558.261719 307.960938 557.773438 307.492188 557.320312 Z M 296.429688 519.65625 C 294.632812 519.089844 294.386719 518.917969 294.296875 518.027344 C 294.21875 517.464844 294.21875 516.9375 294.179688 516.453125 C 294.761719 516.582031 295.351562 516.648438 295.949219 516.660156 C 297.007812 516.726562 298.007812 516.503906 298.941406 516.003906 C 300.0625 515.339844 301.269531 513.4375 301.695312 512.648438 C 302.578125 511.046875 303.28125 509.375 303.808594 507.621094 C 303.675781 507.140625 302.898438 507.5 302.359375 507.398438 C 302.011719 507.363281 301.6875 507.253906 301.390625 507.066406 C 300.617188 506.480469 300.257812 505.75 300.367188 504.34375 C 299.835938 504.34375 299.011719 504.34375 298.480469 504.34375 C 298.464844 505.246094 298.140625 506.015625 297.511719 506.660156 C 296.675781 507.425781 295.542969 507.371094 294.464844 507.378906 C 293.226562 507.378906 291.738281 507.3125 291.050781 506.128906 C 290.636719 505.355469 290.46875 504.535156 290.535156 503.664062 C 288.339844 503.632812 286.257812 503.492188 283.832031 503.664062 C 283.773438 503.867188 283.730469 504.078125 283.695312 504.289062 C 283.410156 503.808594 283.015625 503.445312 282.519531 503.199219 C 282.222656 503.054688 281.914062 503 281.585938 503.042969 C 281.261719 503.085938 280.972656 503.214844 280.726562 503.429688 C 280.234375 503.898438 279.96875 504.472656 279.929688 505.148438 C 279.894531 505.9375 280.410156 506.644531 280.894531 507.277344 L 281.820312 508.460938 C 282.179688 508.941406 282.652344 509.238281 283.242188 509.339844 C 283.511719 509.371094 283.769531 509.332031 284.015625 509.226562 C 284.015625 509.273438 284.09375 509.621094 284.09375 509.621094 C 284.574219 512.425781 285.222656 515.984375 284.179688 517.808594 C 283.398438 519.179688 282.921875 518.945312 281.378906 520.015625 C 280.675781 520.984375 282.652344 523.890625 284.566406 525.300781 C 286.398438 526.636719 290.582031 527.808594 292.777344 527.238281 C 293.398438 527.097656 293.964844 526.839844 294.476562 526.457031 C 294.988281 526.078125 295.398438 525.609375 295.710938 525.050781 C 297.023438 522.894531 297.34375 519.996094 296.429688 519.65625 Z M 248.046875 496.996094 C 247.585938 496.746094 246.734375 497.191406 246.3125 496.996094 C 244.378906 496.027344 242.445312 495.855469 240.378906 495.261719 C 237.199219 494.351562 233.792969 492.417969 230.546875 493.035156 C 229.316406 493.273438 228.132812 493.4375 227.003906 494.003906 C 226.804688 494.113281 226.609375 494.21875 226.421875 494.328125 C 225.351562 494.949219 224.765625 495.925781 223.921875 496.832031 C 223.167969 497.640625 222.558594 499.820312 221.949219 500.738281 C 221.4375 501.507812 220.34375 500.972656 219.648438 501.984375 C 219.523438 506.097656 220.488281 510.441406 222.621094 513.824219 C 223.640625 515.359375 224.910156 516.644531 226.433594 517.679688 C 227.957031 518.714844 229.617188 519.425781 231.417969 519.808594 C 231.496094 520.8125 231.4375 521.808594 231.242188 522.800781 C 231.011719 523.636719 230.578125 524.347656 229.933594 524.929688 C 230.363281 526.230469 233.984375 526.925781 236.089844 529.746094 C 237.171875 526.796875 240.785156 525.316406 240.832031 524.074219 C 240.066406 523.695312 239.46875 523.15625 239.238281 521.652344 C 239.136719 521.003906 239.046875 520.199219 238.96875 519.386719 C 240.585938 518.914062 242.097656 518.210938 243.5 517.269531 C 245.996094 515.546875 248.398438 511.84375 249.078125 508.945312 C 250.046875 506.832031 250.121094 504.777344 249.496094 501.445312 C 249.199219 499.902344 248.714844 498.417969 248.046875 496.996094 Z M 180.414062 490.925781 C 179.390625 490.796875 173.960938 492.296875 172.964844 492.535156 C 168.4375 493.578125 167.859375 494.46875 165.945312 498.609375 C 164.03125 502.746094 163.835938 507.425781 164.796875 511.746094 C 165.523438 515.039062 167.070312 518.390625 170.066406 520.058594 C 172 521.148438 175.421875 520.679688 177.714844 520.355469 C 177.789062 520.726562 177.84375 521.101562 177.867188 521.484375 C 177.867188 521.886719 177.824219 522.289062 177.742188 522.683594 C 177.550781 523.257812 177.441406 523.847656 177.414062 524.449219 C 177.492188 525.71875 178.863281 526.625 180.109375 526.570312 C 181.355469 526.519531 182.523438 525.738281 183.375 524.820312 C 184.019531 524.160156 184.519531 523.410156 184.882812 522.5625 C 184.984375 522.3125 185.039062 522.050781 185.042969 521.777344 C 185.027344 521.527344 184.980469 521.285156 184.898438 521.046875 L 184.699219 520.382812 C 184.457031 519.570312 184.417969 518.898438 184.171875 518.085938 C 185.914062 516.953125 188.863281 516.597656 189.699219 515.101562 C 191.074219 513.453125 190.230469 510.359375 190.640625 507.210938 C 190.808594 505.890625 190.839844 504.570312 190.730469 503.242188 C 190.617188 501.917969 190.371094 500.617188 189.984375 499.34375 C 189.597656 498.074219 189.082031 496.855469 188.4375 495.691406 C 187.792969 494.527344 187.03125 493.445312 186.15625 492.445312 C 184.679688 490.765625 182.730469 491.210938 180.417969 490.925781 Z M 180.414062 490.925781 " fill-opacity="1" fill-rule="nonzero"/><path fill="#000000" d="M 306.03125 503.21875 C 305.464844 502.03125 304.175781 501.679688 302.957031 501.660156 C 302.324219 501.628906 301.746094 501.789062 301.222656 502.144531 C 300.722656 502.527344 300.417969 503.035156 300.316406 503.65625 L 300.25 503.65625 C 299.707031 503.65625 299.160156 503.625 298.613281 503.632812 C 298.582031 502.929688 298.289062 502.355469 297.738281 501.914062 C 297.175781 501.578125 296.566406 501.398438 295.910156 501.371094 C 294.5625 501.203125 292.957031 501.15625 291.695312 501.742188 C 291.136719 502.015625 290.769531 502.449219 290.59375 503.046875 C 288.300781 503.015625 286.003906 502.96875 283.710938 502.882812 C 283.195312 502.882812 283.199219 503.664062 283.710938 503.683594 C 285.949219 503.765625 288.1875 503.8125 290.429688 503.84375 C 290.359375 504.707031 290.53125 505.523438 290.941406 506.285156 C 291.632812 507.472656 293.21875 507.671875 294.453125 507.65625 C 295.527344 507.65625 296.871094 507.589844 297.695312 506.820312 C 298.351562 506.222656 298.546875 505.289062 298.613281 504.429688 C 299.144531 504.429688 299.675781 504.429688 300.203125 504.429688 C 300.121094 505.503906 300.332031 506.679688 301.277344 507.289062 C 301.578125 507.460938 301.898438 507.574219 302.242188 507.628906 C 302.957031 507.777344 303.648438 507.714844 304.324219 507.4375 C 304.714844 507.269531 305.054688 507.03125 305.351562 506.726562 C 305.648438 506.421875 305.875 506.070312 306.035156 505.675781 C 306.195312 505.28125 306.273438 504.871094 306.273438 504.445312 C 306.273438 504.019531 306.191406 503.609375 306.03125 503.21875 Z M 297.265625 506.121094 C 296.730469 506.75 295.71875 506.804688 294.960938 506.84375 C 293.960938 506.902344 292.449219 506.941406 291.746094 506.058594 C 291.359375 505.46875 291.191406 504.824219 291.238281 504.121094 C 291.238281 503.53125 291.398438 502.816406 291.953125 502.511719 C 292.886719 501.996094 294.179688 502.027344 295.207031 502.113281 C 295.765625 502.132812 296.308594 502.21875 296.847656 502.367188 C 297.648438 502.601562 297.855469 503.378906 297.835938 504.136719 C 297.859375 504.855469 297.667969 505.507812 297.265625 506.101562 Z M 302.695312 506.921875 C 302.441406 506.890625 302.1875 506.835938 301.941406 506.757812 L 301.851562 506.757812 C 301.84375 506.753906 301.835938 506.753906 301.828125 506.757812 C 301.566406 506.621094 301.367188 506.421875 301.234375 506.160156 C 300.984375 505.597656 300.90625 505.007812 301.003906 504.398438 C 301.011719 503.902344 301.164062 503.453125 301.453125 503.054688 C 301.785156 502.71875 302.183594 502.546875 302.652344 502.53125 C 303.097656 502.507812 303.539062 502.546875 303.976562 502.644531 C 304.59375 502.738281 305.042969 503.0625 305.328125 503.621094 C 305.429688 503.898438 305.476562 504.1875 305.472656 504.484375 C 305.472656 504.78125 305.414062 505.070312 305.308594 505.347656 C 305.203125 505.625 305.050781 505.875 304.851562 506.097656 C 304.65625 506.320312 304.425781 506.5 304.164062 506.640625 C 303.703125 506.875 303.210938 506.960938 302.695312 506.902344 Z M 177.839844 507.917969 C 178.078125 507.585938 178.378906 507.328125 178.742188 507.144531 C 179.109375 506.960938 179.492188 506.867188 179.902344 506.867188 C 180.78125 506.847656 181.585938 507.085938 182.316406 507.574219 C 182.566406 507.730469 182.316406 508.132812 182.085938 507.976562 C 181.664062 507.707031 181.210938 507.515625 180.722656 507.398438 C 180.933594 507.574219 181.097656 507.789062 181.207031 508.042969 C 181.363281 508.304688 181.429688 508.582031 181.398438 508.886719 C 181.371094 509.1875 181.253906 509.453125 181.046875 509.675781 C 180.765625 509.953125 180.429688 510.117188 180.035156 510.160156 C 179.835938 510.1875 179.640625 510.171875 179.449219 510.121094 C 179.199219 510.019531 178.996094 509.859375 178.832031 509.644531 C 178.671875 509.429688 178.574219 509.1875 178.542969 508.921875 C 178.507812 508.445312 178.636719 508.015625 178.925781 507.636719 C 178.957031 507.601562 178.992188 507.566406 179.03125 507.535156 C 178.695312 507.65625 178.433594 507.867188 178.238281 508.167969 C 178.15625 508.304688 178.046875 508.328125 177.914062 508.246094 C 177.78125 508.160156 177.753906 508.050781 177.839844 507.917969 Z M 177.355469 514.328125 C 177.21875 515.105469 176.390625 515.335938 175.71875 515.464844 C 175.046875 515.597656 174.199219 515.679688 173.636719 515.132812 C 173.417969 514.921875 173.746094 514.59375 173.960938 514.800781 C 174.394531 515.222656 175.054688 515.125 175.59375 515.019531 C 176.128906 514.914062 176.804688 514.808594 176.90625 514.203125 C 176.960938 513.910156 177.402344 514.03125 177.355469 514.328125 Z M 175.59375 505.613281 C 175.59375 505.195312 175.691406 504.804688 175.890625 504.4375 C 176.109375 504.164062 176.386719 503.972656 176.722656 503.867188 C 177.898438 503.417969 179.109375 503.257812 180.359375 503.382812 C 181.257812 503.546875 182.074219 503.902344 182.804688 504.445312 C 182.84375 504.472656 182.867188 504.511719 182.871094 504.558594 C 182.871094 504.679688 182.703125 504.714844 182.582031 504.703125 C 180.175781 504.445312 177.847656 504.757812 175.59375 505.632812 Z M 203.5625 524.40625 C 205.945312 527.796875 206.765625 532.398438 205.011719 536.136719 C 204.246094 537.621094 203.289062 538.972656 202.144531 540.183594 C 200.765625 534.808594 198.390625 529.394531 194.230469 524.691406 C 193.03125 523.320312 191.601562 522.261719 189.941406 521.511719 C 188.28125 520.761719 186.542969 520.386719 184.722656 520.394531 C 184.476562 519.582031 184.230469 518.773438 183.988281 517.972656 C 185.730469 516.835938 187.398438 515.347656 188.234375 513.851562 C 189.042969 512.890625 189.625 511.804688 189.980469 510.59375 C 190.074219 509.183594 190.074219 507.769531 189.980469 506.359375 C 189.976562 505.742188 189.832031 505.160156 189.554688 504.613281 C 188.847656 503.433594 187.253906 503.28125 185.898438 503.089844 C 182.597656 502.636719 179.648438 501.371094 177.046875 499.292969 C 177.253906 500.109375 177.464844 500.921875 177.675781 501.742188 C 177.1875 501.789062 176.703125 501.796875 176.21875 501.757812 C 175.730469 501.722656 175.25 501.644531 174.777344 501.523438 C 174.304688 501.40625 173.847656 501.246094 173.402344 501.042969 C 172.957031 500.84375 172.535156 500.605469 172.128906 500.332031 C 171.726562 500.058594 171.351562 499.75 171 499.410156 C 170.648438 499.070312 170.332031 498.703125 170.046875 498.304688 C 169.761719 497.910156 169.511719 497.492188 169.296875 497.054688 C 169.082031 496.613281 168.910156 496.160156 168.777344 495.691406 C 168.777344 495.691406 167.148438 500.945312 165.5 504.089844 C 165.308594 506.425781 165.46875 508.742188 165.984375 511.03125 C 166.714844 514.324219 168.253906 517.660156 171.246094 519.339844 C 173.316406 520.402344 175.5 520.730469 177.796875 520.324219 C 177.84375 520.703125 177.867188 521.078125 177.867188 521.457031 C 175.429688 522.230469 173.117188 523.28125 170.933594 524.613281 C 166.820312 527.25 163.402344 530.597656 160.675781 534.65625 C 160.1875 533.355469 159.929688 532.011719 159.90625 530.625 C 159.882812 529.238281 160.089844 527.886719 160.53125 526.570312 C 161.011719 525.214844 161.703125 523.953125 162.175781 522.601562 C 162.648438 521.140625 162.886719 519.644531 162.886719 518.109375 C 162.886719 516.578125 162.648438 515.082031 162.175781 513.621094 C 161.753906 512.238281 161.15625 510.90625 160.863281 509.488281 C 160.597656 508.007812 160.558594 506.527344 160.746094 505.039062 C 161 502.71875 161.554688 500.472656 162.414062 498.300781 C 163.269531 496.128906 164.398438 494.113281 165.800781 492.246094 C 167.597656 489.828125 171.515625 487.003906 175.984375 487.316406 C 177.746094 486.242188 179.660156 485.734375 181.722656 485.785156 C 183.179688 485.847656 184.59375 486.136719 185.964844 486.644531 C 187.332031 487.152344 188.59375 487.855469 189.742188 488.757812 C 191.539062 490.132812 193.015625 491.792969 194.171875 493.738281 C 195.328125 495.6875 196.078125 497.777344 196.421875 500.015625 C 196.984375 503.734375 196.320312 507.550781 196.761719 511.289062 C 197.179688 514.808594 198.46875 517.976562 200.625 520.785156 C 201.5625 522.023438 202.660156 523.148438 203.5625 524.425781 Z M 185.277344 539.695312 C 184.742188 543.605469 184.265625 547.539062 183.664062 551.441406 C 183.441406 552.890625 181.878906 553.375 180.71875 553.960938 C 179.992188 554.304688 179.285156 554.6875 178.601562 555.109375 C 178.242188 555.304688 177.921875 555.550781 177.636719 555.84375 C 177.445312 556.101562 177.433594 556.363281 177.601562 556.632812 C 177.726562 556.898438 177.332031 557.117188 177.207031 556.867188 C 176.984375 556.5 176.957031 556.121094 177.117188 555.722656 C 177.414062 555.191406 178.273438 554.753906 178.769531 554.464844 C 179.496094 554.039062 180.253906 553.679688 181 553.304688 C 181.742188 552.925781 182.878906 552.527344 183.132812 551.746094 C 183.355469 550.789062 183.5 549.820312 183.558594 548.839844 C 183.695312 547.808594 183.839844 546.777344 183.984375 545.746094 C 184.265625 543.683594 184.546875 541.621094 184.832031 539.554688 C 184.871094 539.296875 185.316406 539.425781 185.277344 539.714844 Z M 197.792969 546.472656 C 197.457031 549.917969 196.34375 553.328125 194.132812 556.039062 C 193.121094 557.308594 191.910156 558.339844 190.496094 559.140625 C 189.085938 559.9375 187.578125 560.441406 185.96875 560.652344 C 185.675781 560.6875 185.679688 560.222656 185.96875 560.167969 C 187.515625 559.957031 188.964844 559.464844 190.324219 558.691406 C 191.679688 557.917969 192.839844 556.914062 193.808594 555.691406 C 195.925781 553.082031 197.007812 549.769531 197.335938 546.453125 C 197.363281 546.183594 197.824219 546.175781 197.792969 546.46875 Z M 171.03125 509.515625 C 170.757812 509.277344 170.453125 509.097656 170.109375 508.976562 C 170.253906 509.117188 170.363281 509.277344 170.441406 509.460938 C 170.585938 509.71875 170.648438 509.996094 170.628906 510.289062 C 170.609375 510.582031 170.515625 510.847656 170.339844 511.085938 C 170.097656 511.347656 169.796875 511.488281 169.4375 511.511719 C 169.253906 511.519531 169.074219 511.5 168.898438 511.441406 C 168.398438 511.191406 168.101562 510.785156 168.011719 510.230469 C 167.953125 509.835938 168.046875 509.480469 168.296875 509.167969 C 168.101562 509.285156 167.953125 509.449219 167.847656 509.652344 C 167.773438 509.785156 167.667969 509.8125 167.535156 509.734375 C 167.40625 509.65625 167.378906 509.550781 167.453125 509.417969 C 167.578125 509.167969 167.757812 508.96875 167.988281 508.8125 C 168.304688 508.578125 168.660156 508.441406 169.050781 508.402344 C 169.9375 508.328125 170.710938 508.589844 171.367188 509.191406 C 171.59375 509.386719 171.265625 509.710938 171.03125 509.515625 Z M 283.105469 536.257812 C 283.015625 536.015625 283.398438 535.914062 283.488281 536.152344 C 285.011719 540.167969 285.648438 544.472656 287.625 548.320312 C 287.738281 548.550781 287.402344 548.746094 287.28125 548.519531 C 285.320312 544.636719 284.671875 540.304688 283.136719 536.257812 Z M 291.132812 501.074219 C 291.128906 501.027344 291.144531 500.992188 291.179688 500.960938 C 291.773438 500.398438 292.464844 499.992188 293.246094 499.746094 C 294.347656 499.488281 295.449219 499.488281 296.550781 499.746094 C 296.863281 499.816406 297.132812 499.960938 297.359375 500.1875 C 297.578125 500.496094 297.707031 500.835938 297.753906 501.214844 C 295.644531 500.675781 293.527344 500.652344 291.40625 501.148438 C 291.320312 501.195312 291.167969 501.179688 291.160156 501.074219 Z M 301.015625 501.464844 C 301.0625 501.105469 301.199219 500.78125 301.421875 500.496094 C 301.65625 500.3125 301.925781 500.195312 302.222656 500.152344 C 303.101562 500.015625 303.933594 500.148438 304.726562 500.554688 C 305.289062 500.800781 305.367188 501.085938 305.359375 501.339844 C 305.347656 501.589844 305.054688 501.53125 304.953125 501.5 C 303.425781 501.003906 302.320312 501.378906 301.042969 501.445312 Z M 176.566406 528.292969 C 175.449219 527.175781 175.257812 525.476562 175.515625 523.980469 C 175.5625 523.691406 176 523.816406 175.960938 524.105469 C 175.707031 525.597656 175.960938 527.359375 177.28125 528.292969 C 178.605469 529.230469 180.410156 529.21875 181.882812 528.777344 C 185.003906 527.808594 186.878906 524.90625 187.644531 521.894531 C 187.695312 521.765625 187.789062 521.722656 187.921875 521.757812 C 188.054688 521.792969 188.109375 521.878906 188.089844 522.015625 C 187.226562 525.441406 184.914062 528.726562 181.253906 529.40625 C 179.675781 529.691406 177.761719 529.480469 176.566406 528.292969 Z M 168.25 535.90625 C 166.9375 541.066406 166.695312 546.273438 167.515625 551.535156 C 167.5625 551.828125 167.117188 551.949219 167.070312 551.65625 C 166.230469 546.316406 166.472656 541.023438 167.804688 535.785156 C 167.855469 535.65625 167.949219 535.609375 168.082031 535.644531 C 168.214844 535.683594 168.269531 535.769531 168.25 535.90625 Z M 304.445312 504.015625 C 304.546875 504.222656 304.238281 504.402344 304.136719 504.195312 C 304.050781 504.042969 303.933594 503.921875 303.777344 503.835938 C 303.980469 504.066406 304.066406 504.335938 304.039062 504.640625 C 303.992188 505.070312 303.78125 505.394531 303.40625 505.609375 C 303.273438 505.660156 303.136719 505.6875 302.996094 505.6875 C 302.722656 505.679688 302.484375 505.585938 302.285156 505.394531 C 302.144531 505.21875 302.058594 505.019531 302.03125 504.796875 C 302.007812 504.570312 302.042969 504.355469 302.140625 504.152344 C 302.195312 504.019531 302.273438 503.898438 302.371094 503.792969 C 302.113281 503.898438 301.886719 504.050781 301.6875 504.242188 C 301.523438 504.410156 301.265625 504.152344 301.433594 503.992188 C 301.914062 503.503906 302.492188 503.273438 303.175781 503.296875 C 303.476562 503.3125 303.757812 503.40625 304.011719 503.574219 C 304.191406 503.6875 304.335938 503.832031 304.445312 504.015625 Z M 287.320312 513.480469 C 289.425781 514.890625 291.710938 515.882812 294.179688 516.453125 C 294.203125 516.9375 294.238281 517.46875 294.296875 518.03125 C 294.308594 518.210938 294.347656 518.382812 294.40625 518.554688 C 294.199219 518.570312 293.992188 518.554688 293.789062 518.503906 C 292.609375 518.3125 291.554688 517.847656 290.617188 517.101562 C 289.3125 516.082031 288.214844 514.875 287.320312 513.480469 Z M 285.4375 551.210938 C 285.433594 551.234375 285.433594 551.257812 285.4375 551.28125 L 285.582031 551.28125 L 285.828125 551.226562 C 286.5 551.039062 287.042969 550.664062 287.453125 550.097656 C 287.476562 550.042969 287.515625 550.003906 287.574219 549.984375 C 287.632812 549.964844 287.6875 549.972656 287.738281 550 C 287.789062 550.03125 287.824219 550.078125 287.832031 550.136719 C 287.84375 550.195312 287.832031 550.25 287.792969 550.296875 C 287.238281 551.0625 286.496094 551.515625 285.5625 551.65625 C 285.347656 551.6875 285.113281 551.65625 285.039062 551.433594 C 284.996094 551.242188 285.035156 551.0625 285.152344 550.902344 C 285.59375 550.144531 286.207031 549.570312 286.988281 549.167969 C 287.214844 549.054688 287.410156 549.398438 287.183594 549.507812 C 286.832031 549.691406 286.507812 549.921875 286.21875 550.195312 C 285.964844 550.4375 285.742188 550.710938 285.554688 551.007812 C 285.507812 551.070312 285.46875 551.140625 285.4375 551.210938 Z M 305.414062 537.449219 C 305.667969 538.890625 305.796875 540.34375 305.800781 541.804688 C 305.800781 542.035156 305.433594 542.035156 305.441406 541.804688 C 305.4375 540.316406 305.304688 538.839844 305.042969 537.371094 C 304.765625 535.546875 304.414062 533.730469 304.078125 531.914062 C 304.039062 531.6875 304.382812 531.589844 304.425781 531.820312 C 304.769531 533.695312 305.132812 535.566406 305.414062 537.449219 Z M 253.84375 501.625 C 253.933594 501.765625 254.03125 501.902344 254.121094 502.035156 C 254.15625 505.242188 253.496094 508.753906 251.539062 511.53125 C 250.988281 512.351562 250.257812 512.960938 249.347656 513.355469 C 249.386719 513.40625 249.421875 513.464844 249.457031 513.523438 C 249.972656 514.449219 250.457031 515.527344 250.128906 516.53125 C 249.972656 516.949219 249.738281 517.320312 249.421875 517.632812 C 249.792969 518.355469 250.089844 519.160156 249.84375 519.917969 C 249.683594 520.328125 249.445312 520.683594 249.121094 520.980469 C 249.179688 521.039062 249.230469 521.105469 249.265625 521.179688 C 249.707031 521.96875 250.121094 522.886719 249.84375 523.742188 C 249.683594 524.164062 249.4375 524.523438 249.101562 524.824219 C 249.171875 524.886719 249.226562 524.957031 249.265625 525.042969 C 249.707031 525.832031 250.121094 526.746094 249.84375 527.605469 C 249.664062 528.054688 249.394531 528.4375 249.03125 528.753906 C 250.960938 531.589844 250.578125 533.59375 248.910156 535.730469 C 248.539062 536.179688 248.074219 536.488281 247.515625 536.65625 C 246.878906 536.695312 247.242188 536.050781 246.972656 535.144531 C 246.703125 534.238281 245.824219 533.589844 245.769531 532.554688 C 245.699219 531.246094 246.402344 529.886719 247.21875 528.679688 C 247.121094 528.628906 247.03125 528.5625 246.949219 528.488281 C 246.691406 528.226562 246.515625 527.917969 246.421875 527.566406 C 246.324219 527.210938 246.324219 526.859375 246.414062 526.503906 C 246.554688 525.960938 246.785156 525.464844 247.109375 525.007812 C 247.144531 524.945312 247.1875 524.886719 247.238281 524.832031 C 247.136719 524.773438 247.039062 524.707031 246.949219 524.628906 C 246.691406 524.367188 246.515625 524.0625 246.421875 523.707031 C 246.324219 523.355469 246.324219 523 246.414062 522.644531 C 246.554688 522.101562 246.785156 521.601562 247.109375 521.144531 C 247.140625 521.089844 247.175781 521.039062 247.21875 520.992188 C 247.121094 520.9375 247.03125 520.875 246.949219 520.800781 C 246.691406 520.539062 246.515625 520.230469 246.421875 519.878906 C 246.324219 519.523438 246.324219 519.171875 246.414062 518.816406 C 246.546875 518.292969 246.769531 517.808594 247.078125 517.363281 C 246.902344 517.28125 246.742188 517.175781 246.597656 517.042969 C 246.367188 516.804688 246.210938 516.523438 246.125 516.207031 C 246.039062 515.886719 246.035156 515.566406 246.113281 515.242188 C 246.28125 514.609375 246.550781 514.023438 246.929688 513.484375 C 248.8125 507.191406 247.855469 504.234375 247.527344 503.691406 C 246.773438 502.4375 244.769531 502.152344 243.324219 501.957031 C 239.894531 501.476562 238.070312 500 235.367188 497.835938 L 236.035156 500.445312 C 231.988281 500.960938 227.753906 498.152344 226.636719 494.183594 C 227.84375 493.488281 229.132812 492.996094 230.5 492.707031 C 233.753906 492.132812 236.957031 492.339844 240.113281 493.328125 C 242.171875 493.917969 244.804688 495.339844 246.710938 496.300781 C 249.171875 497.535156 252.300781 499.347656 253.84375 501.632812 Z M 296.835938 561.171875 C 296.691406 561.519531 296.554688 562.085938 296.199219 562.25 C 295.769531 562.34375 295.332031 562.371094 294.894531 562.320312 C 294.507812 562.320312 294.121094 562.320312 293.734375 562.320312 C 292.121094 562.246094 290.523438 562.03125 288.941406 561.683594 C 284.371094 560.714844 279.878906 558.683594 276.96875 554.90625 C 273.609375 550.546875 271.652344 545.398438 269.96875 540.226562 C 269.886719 539.984375 270.265625 539.882812 270.34375 540.125 C 271.179688 542.882812 272.199219 545.570312 273.398438 548.1875 C 274.523438 550.617188 275.90625 552.890625 277.546875 555.007812 C 278.9375 556.707031 280.617188 558.046875 282.582031 559.03125 C 284.640625 560.066406 286.796875 560.824219 289.050781 561.300781 C 290.402344 561.597656 291.765625 561.792969 293.144531 561.894531 C 293.855469 561.945312 294.5625 561.957031 295.269531 561.929688 C 295.535156 561.945312 295.796875 561.945312 296.058594 561.929688 C 296.222656 561.820312 296.386719 561.261719 296.453125 561.097656 C 296.523438 560.933594 296.941406 560.933594 296.847656 561.171875 Z M 298.769531 553.226562 C 298.8125 553.613281 298.824219 554 298.808594 554.386719 C 298.808594 554.519531 298.742188 554.585938 298.609375 554.585938 C 298.476562 554.585938 298.410156 554.519531 298.410156 554.386719 C 298.433594 554.054688 298.433594 553.71875 298.410156 553.386719 C 294.933594 552.597656 291.585938 551.441406 288.367188 549.910156 C 288.140625 549.804688 288.339844 549.460938 288.566406 549.570312 C 291.796875 551.101562 295.160156 552.257812 298.648438 553.035156 C 298.746094 553.070312 298.792969 553.140625 298.785156 553.246094 Z M 166.726562 506.503906 C 166.617188 506.546875 166.296875 506.65625 166.246094 506.363281 C 166.191406 506.074219 166.269531 505.757812 166.878906 505.433594 C 167.714844 504.914062 168.625 504.6875 169.605469 504.757812 C 169.9375 504.78125 170.246094 504.882812 170.523438 505.0625 C 170.796875 505.363281 170.980469 505.710938 171.066406 506.109375 C 169.664062 506.132812 168.410156 505.800781 166.726562 506.503906 Z M 296.417969 503.285156 C 296.546875 503.480469 296.234375 503.65625 296.105469 503.46875 C 295.992188 503.304688 295.84375 503.179688 295.664062 503.097656 C 295.867188 503.371094 295.96875 503.683594 295.957031 504.027344 C 295.929688 504.5 295.703125 504.839844 295.277344 505.042969 C 295.117188 505.09375 294.957031 505.113281 294.792969 505.101562 C 294.46875 505.082031 294.1875 504.960938 293.949219 504.742188 C 293.777344 504.570312 293.671875 504.363281 293.632812 504.125 C 293.597656 503.882812 293.636719 503.65625 293.75 503.441406 C 293.800781 503.308594 293.867188 503.183594 293.949219 503.066406 C 293.582031 503.179688 293.242188 503.339844 292.921875 503.550781 C 292.730469 503.683594 292.550781 503.371094 292.738281 503.242188 C 293.347656 502.8125 294.023438 502.582031 294.769531 502.554688 C 295.445312 502.507812 295.996094 502.75 296.417969 503.285156 Z M 300.015625 510.226562 L 299.960938 510.226562 C 299.40625 510.332031 298.84375 510.378906 298.277344 510.367188 C 297.953125 510.378906 297.628906 510.355469 297.308594 510.296875 C 297.242188 510.28125 297.1875 510.296875 297.136719 510.34375 C 297.089844 510.390625 297.074219 510.445312 297.085938 510.511719 C 297.238281 511.238281 297.628906 511.792969 298.261719 512.171875 C 298.625 512.355469 298.972656 512.335938 299.308594 512.109375 C 299.554688 511.914062 299.734375 511.671875 299.851562 511.382812 C 299.984375 511.097656 300.085938 510.804688 300.160156 510.5 C 300.160156 510.5 300.160156 510.5 300.160156 510.46875 C 300.160156 510.441406 300.160156 510.46875 300.160156 510.46875 L 300.160156 510.425781 C 300.164062 510.363281 300.136719 510.3125 300.082031 510.28125 C 300.0625 510.257812 300.042969 510.238281 300.015625 510.226562 Z M 299.53125 511.234375 C 299.386719 511.539062 299.195312 511.882812 298.820312 511.925781 C 298.484375 511.933594 298.214844 511.800781 298.015625 511.523438 C 297.800781 511.277344 297.640625 511 297.53125 510.691406 C 297.78125 510.71875 298.027344 510.730469 298.277344 510.726562 C 298.773438 510.730469 299.269531 510.691406 299.765625 510.613281 C 299.703125 510.828125 299.628906 511.035156 299.53125 511.234375 Z M 230.101562 506.820312 C 230.296875 507.066406 229.953125 507.414062 229.761719 507.167969 C 229.511719 506.867188 229.195312 506.675781 228.820312 506.585938 C 228.863281 506.609375 228.902344 506.640625 228.9375 506.675781 C 229.296875 507.035156 229.488281 507.472656 229.515625 507.980469 C 229.515625 508.265625 229.445312 508.535156 229.304688 508.78125 C 229.164062 509.03125 228.96875 509.226562 228.722656 509.371094 C 228.523438 509.449219 228.316406 509.488281 228.101562 509.492188 C 227.679688 509.492188 227.300781 509.363281 226.96875 509.105469 C 226.730469 508.898438 226.574219 508.640625 226.503906 508.332031 C 226.433594 508.023438 226.460938 507.722656 226.585938 507.433594 C 226.660156 507.152344 226.792969 506.898438 226.988281 506.679688 C 226.5 506.867188 226.054688 507.125 225.648438 507.457031 C 225.402344 507.652344 225.054688 507.308594 225.300781 507.109375 C 226.023438 506.480469 226.863281 506.113281 227.820312 506.015625 C 228.242188 505.957031 228.65625 506 229.058594 506.140625 C 229.460938 506.285156 229.808594 506.507812 230.101562 506.820312 Z M 222.238281 528.6875 C 223.074219 529.898438 223.78125 531.257812 223.6875 532.558594 C 223.636719 533.59375 222.75 534.242188 222.484375 535.148438 C 222.21875 536.054688 222.578125 536.699219 221.945312 536.660156 C 221.382812 536.496094 220.917969 536.1875 220.546875 535.734375 C 218.882812 533.613281 218.476562 531.597656 220.425781 528.757812 C 220.0625 528.441406 219.792969 528.058594 219.617188 527.613281 C 219.335938 526.75 219.75 525.835938 220.191406 525.046875 C 220.230469 524.964844 220.285156 524.890625 220.355469 524.828125 C 220.023438 524.527344 219.773438 524.167969 219.617188 523.75 C 219.335938 522.890625 219.75 521.972656 220.191406 521.183594 C 220.230469 521.109375 220.277344 521.042969 220.335938 520.984375 C 220.011719 520.6875 219.773438 520.332031 219.617188 519.925781 C 219.371094 519.164062 219.664062 518.359375 220.035156 517.640625 C 219.722656 517.324219 219.492188 516.957031 219.339844 516.539062 C 219.011719 515.539062 219.496094 514.457031 220.011719 513.535156 L 220.050781 513.472656 C 218.699219 512.542969 217.3125 510.742188 216.929688 507.660156 C 216.871094 507.214844 216.84375 506.785156 216.824219 506.355469 C 218.109375 504.078125 220.257812 501.125 221.503906 499.242188 C 222.09375 498.308594 222.757812 497.429688 223.496094 496.605469 C 224.359375 495.703125 225.335938 494.949219 226.421875 494.339844 L 226.476562 494.308594 C 225.890625 495.984375 222.832031 504.554688 220.933594 505.445312 C 220.933594 505.445312 220.644531 508.671875 222.644531 513.675781 C 222.976562 514.160156 223.210938 514.6875 223.355469 515.257812 C 223.433594 515.578125 223.429688 515.898438 223.34375 516.21875 C 223.257812 516.539062 223.101562 516.820312 222.871094 517.058594 C 222.726562 517.1875 222.566406 517.292969 222.386719 517.378906 C 222.699219 517.820312 222.921875 518.304688 223.054688 518.828125 C 223.144531 519.183594 223.140625 519.539062 223.046875 519.894531 C 222.949219 520.246094 222.773438 520.554688 222.519531 520.816406 C 222.4375 520.890625 222.34375 520.953125 222.25 521.007812 C 222.289062 521.054688 222.328125 521.105469 222.359375 521.160156 C 222.679688 521.617188 222.914062 522.117188 223.054688 522.660156 C 223.144531 523.015625 223.140625 523.367188 223.046875 523.722656 C 222.949219 524.074219 222.773438 524.382812 222.519531 524.644531 C 222.429688 524.722656 222.332031 524.789062 222.230469 524.847656 C 222.277344 524.902344 222.320312 524.960938 222.359375 525.023438 C 222.679688 525.476562 222.914062 525.976562 223.054688 526.519531 C 223.144531 526.871094 223.140625 527.226562 223.046875 527.582031 C 222.949219 527.933594 222.773438 528.242188 222.519531 528.503906 C 222.433594 528.574219 222.339844 528.636719 222.238281 528.6875 Z M 230.621094 503.027344 C 230.886719 503.386719 231.046875 503.789062 231.101562 504.234375 C 228.601562 503.617188 226.101562 503.605469 223.597656 504.203125 C 223.46875 504.234375 223.28125 504.203125 223.269531 504.09375 C 223.269531 504.042969 223.289062 504 223.324219 503.964844 C 224.019531 503.296875 224.824219 502.8125 225.742188 502.511719 C 227.042969 502.203125 228.347656 502.203125 229.648438 502.511719 C 230.027344 502.585938 230.355469 502.761719 230.625 503.039062 Z M 236.46875 513.398438 C 235.257812 513.894531 234.03125 513.9375 232.789062 513.523438 C 232.683594 513.5 232.601562 513.527344 232.535156 513.613281 C 232.46875 513.699219 232.460938 513.789062 232.515625 513.882812 C 232.996094 514.738281 233.875 515.625 234.957031 515.503906 C 235.410156 515.421875 235.804688 515.222656 236.136719 514.90625 C 236.472656 514.589844 236.691406 514.207031 236.800781 513.761719 C 236.84375 513.710938 236.855469 513.652344 236.835938 513.585938 C 236.824219 513.503906 236.777344 513.445312 236.703125 513.40625 C 236.625 513.367188 236.550781 513.371094 236.476562 513.40625 Z M 234.914062 515.019531 C 234.585938 515.027344 234.273438 514.953125 233.984375 514.796875 C 233.691406 514.644531 233.457031 514.425781 233.277344 514.148438 C 233.515625 514.191406 233.753906 514.222656 233.996094 514.242188 C 234.734375 514.308594 235.453125 514.234375 236.160156 514.019531 C 235.933594 514.582031 235.519531 514.921875 234.917969 515.03125 Z M 244.683594 503.9375 C 244.722656 503.972656 244.742188 504.015625 244.742188 504.070312 C 244.742188 504.191406 244.539062 504.210938 244.414062 504.1875 C 241.90625 503.585938 239.402344 503.601562 236.90625 504.230469 C 236.960938 503.785156 237.121094 503.382812 237.386719 503.023438 C 237.65625 502.75 237.980469 502.578125 238.355469 502.503906 C 239.65625 502.195312 240.957031 502.195312 242.257812 502.503906 C 243.179688 502.800781 243.988281 503.28125 244.6875 503.949219 Z M 243.234375 507.082031 C 243.480469 507.273438 243.132812 507.617188 242.886719 507.425781 C 242.484375 507.097656 242.042969 506.84375 241.5625 506.664062 C 241.757812 506.882812 241.894531 507.132812 241.96875 507.414062 C 242.09375 507.707031 242.121094 508.003906 242.054688 508.3125 C 241.984375 508.621094 241.828125 508.882812 241.589844 509.089844 C 241.257812 509.351562 240.878906 509.480469 240.457031 509.476562 C 240.242188 509.472656 240.035156 509.433594 239.835938 509.355469 C 239.589844 509.214844 239.394531 509.019531 239.25 508.773438 C 239.109375 508.523438 239.039062 508.257812 239.039062 507.972656 C 239.0625 507.460938 239.257812 507.027344 239.617188 506.664062 C 239.648438 506.628906 239.6875 506.601562 239.730469 506.578125 C 239.355469 506.664062 239.042969 506.859375 238.792969 507.15625 C 238.601562 507.40625 238.257812 507.054688 238.449219 506.808594 C 238.746094 506.5 239.09375 506.273438 239.496094 506.132812 C 239.898438 505.988281 240.3125 505.945312 240.734375 506 C 241.683594 506.101562 242.515625 506.464844 243.234375 507.089844 Z M 243.234375 507.082031 " fill-opacity="1" fill-rule="nonzero"/></svg>