<svg xmlns="http://www.w3.org/2000/svg" xmlns:xlink="http://www.w3.org/1999/xlink" width="1366" zoomAndPan="magnify" viewBox="0 0 1024.5 576" height="768" preserveAspectRatio="xMidYMid meet" version="1.0"><defs><clipPath id="e026f3cf2f"><path d="M 0 0.140625 L 1024 0.140625 L 1024 575.859375 L 0 575.859375 Z M 0 0.140625 " clip-rule="nonzero"/></clipPath><clipPath id="7cd2aef521"><path d="M 693.164062 0.140625 L 769 0.140625 L 769 75 L 693.164062 75 Z M 693.164062 0.140625 " clip-rule="nonzero"/></clipPath><clipPath id="cdc3ba2fb1"><path d="M 758 42 L 816.105469 42 L 816.105469 100 L 758 100 Z M 758 42 " clip-rule="nonzero"/></clipPath><clipPath id="66708644ce"><path d="M 724 75 L 766 75 L 766 116.558594 L 724 116.558594 Z M 724 75 " clip-rule="nonzero"/></clipPath><clipPath id="513623f40f"><path d="M 217 494 L 321 494 L 321 560.023438 L 217 560.023438 Z M 217 494 " clip-rule="nonzero"/></clipPath><clipPath id="6ca0834788"><path d="M 172 511 L 327.28125 511 L 327.28125 554 L 172 554 Z M 172 511 " clip-rule="nonzero"/></clipPath><clipPath id="1815a169c8"><path d="M 155.613281 477 L 318 477 L 318 556 L 155.613281 556 Z M 155.613281 477 " clip-rule="nonzero"/></clipPath></defs><g clip-path="url(#e026f3cf2f)"><path fill="#ffffff" d="M 0 0.140625 L 1024 0.140625 L 1024 575.859375 L 0 575.859375 Z M 0 0.140625 " fill-opacity="1" fill-rule="nonzero"/><path fill="#0d1116" d="M 0 0.140625 L 1024 0.140625 L 1024 575.859375 L 0 575.859375 Z M 0 0.140625 " fill-opacity="1" fill-rule="nonzero"/></g><g clip-path="url(#7cd2aef521)"><path fill="#059eaf" d="M 730.914062 54.632812 C 721.03125 54.632812 713.019531 46.605469 713.019531 36.699219 C 713.019531 26.792969 721.03125 18.761719 730.914062 18.761719 C 740.796875 18.761719 748.804688 26.792969 748.804688 36.699219 C 748.804688 46.605469 740.796875 54.632812 730.914062 54.632812 Z M 765.332031 29.339844 L 759.917969 29.339844 C 759.203125 26.492188 758.078125 23.804688 756.613281 21.347656 L 760.441406 17.507812 C 761.742188 16.207031 761.742188 14.09375 760.441406 12.792969 L 754.761719 7.101562 C 753.460938 5.796875 751.355469 5.796875 750.058594 7.101562 L 746.226562 10.9375 C 743.777344 9.472656 741.097656 8.34375 738.253906 7.625 L 738.253906 2.199219 C 738.253906 0.359375 736.765625 -1.132812 734.929688 -1.132812 L 726.894531 -1.132812 C 725.058594 -1.132812 723.570312 0.359375 723.570312 2.199219 L 723.570312 7.625 C 720.730469 8.34375 718.050781 9.472656 715.597656 10.9375 L 711.769531 7.101562 C 710.46875 5.796875 708.363281 5.796875 707.066406 7.101562 L 701.382812 12.792969 C 700.085938 14.09375 700.085938 16.207031 701.382812 17.507812 L 705.214844 21.347656 C 703.75 23.804688 702.625 26.492188 701.90625 29.339844 L 696.496094 29.339844 C 694.660156 29.339844 693.167969 30.832031 693.167969 32.671875 L 693.167969 40.726562 C 693.167969 42.566406 694.660156 44.058594 696.496094 44.058594 L 701.90625 44.058594 C 702.625 46.90625 703.75 49.59375 705.214844 52.050781 L 701.382812 55.890625 C 700.085938 57.191406 700.085938 59.300781 701.382812 60.605469 L 707.066406 66.296875 C 708.363281 67.601562 710.46875 67.601562 711.769531 66.296875 L 715.597656 62.460938 C 718.050781 63.925781 720.730469 65.054688 723.570312 65.773438 L 723.570312 71.199219 C 723.570312 73.039062 725.058594 74.53125 726.894531 74.53125 L 734.929688 74.53125 C 736.765625 74.53125 738.253906 73.039062 738.253906 71.199219 L 738.253906 65.773438 C 741.097656 65.054688 743.777344 63.925781 746.226562 62.460938 L 750.058594 66.296875 C 751.355469 67.601562 753.460938 67.601562 754.761719 66.296875 L 760.441406 60.605469 C 761.742188 59.300781 761.742188 57.191406 760.441406 55.890625 L 756.613281 52.050781 C 758.078125 49.59375 759.203125 46.90625 759.917969 44.058594 L 765.332031 44.058594 C 767.167969 44.058594 768.65625 42.566406 768.65625 40.726562 L 768.65625 32.671875 C 768.65625 30.832031 767.167969 29.339844 765.332031 29.339844 " fill-opacity="1" fill-rule="nonzero"/></g><g clip-path="url(#cdc3ba2fb1)"><path fill="#4dc4ce" d="M 788.140625 84.527344 C 780.652344 85.042969 774.167969 79.378906 773.652344 71.871094 C 773.136719 64.367188 778.785156 57.867188 786.273438 57.351562 C 793.757812 56.832031 800.246094 62.5 800.761719 70.003906 C 801.277344 77.507812 795.625 84.007812 788.140625 84.527344 Z M 812.898438 63.5625 L 808.796875 63.847656 C 808.105469 61.726562 807.113281 59.75 805.875 57.964844 L 808.578125 54.855469 C 809.496094 53.800781 809.386719 52.203125 808.332031 51.285156 L 803.734375 47.269531 C 802.679688 46.347656 801.085938 46.460938 800.167969 47.511719 L 797.46875 50.621094 C 795.535156 49.636719 793.445312 48.925781 791.257812 48.527344 L 790.972656 44.417969 C 790.878906 43.023438 789.671875 41.96875 788.28125 42.066406 L 782.195312 42.484375 C 780.804688 42.582031 779.753906 43.789062 779.847656 45.1875 L 780.128906 49.296875 C 778.015625 49.988281 776.042969 50.984375 774.265625 52.222656 L 771.164062 49.515625 C 770.109375 48.597656 768.515625 48.707031 767.597656 49.761719 L 763.59375 54.371094 C 762.675781 55.425781 762.785156 57.023438 763.835938 57.941406 L 766.9375 60.652344 C 765.957031 62.589844 765.246094 64.683594 764.851562 66.878906 L 760.75 67.160156 C 759.359375 67.257812 758.308594 68.464844 758.402344 69.859375 L 758.820312 75.960938 C 758.917969 77.355469 760.125 78.410156 761.515625 78.3125 L 765.617188 78.03125 C 766.308594 80.148438 767.296875 82.125 768.535156 83.910156 L 765.835938 87.019531 C 764.917969 88.074219 765.027344 89.671875 766.078125 90.589844 L 770.679688 94.609375 C 771.730469 95.527344 773.324219 95.417969 774.242188 94.363281 L 776.945312 91.253906 C 778.878906 92.238281 780.964844 92.953125 783.15625 93.347656 L 783.4375 97.457031 C 783.535156 98.851562 784.738281 99.90625 786.132812 99.808594 L 792.21875 99.390625 C 793.609375 99.292969 794.660156 98.085938 794.5625 96.691406 L 794.28125 92.578125 C 796.394531 91.886719 798.367188 90.894531 800.148438 89.652344 L 803.25 92.359375 C 804.300781 93.28125 805.898438 93.167969 806.8125 92.113281 L 810.820312 87.503906 C 811.738281 86.449219 811.625 84.851562 810.574219 83.933594 L 807.472656 81.222656 C 808.453125 79.285156 809.167969 77.191406 809.5625 74.996094 L 813.664062 74.714844 C 815.054688 74.617188 816.105469 73.410156 816.007812 72.015625 L 815.589844 65.914062 C 815.496094 64.519531 814.289062 63.46875 812.898438 63.5625 " fill-opacity="1" fill-rule="nonzero"/></g><g clip-path="url(#66708644ce)"><path fill="#80d6f7" d="M 743.953125 105.59375 C 738.621094 105.207031 734.609375 100.558594 734.996094 95.214844 C 735.382812 89.871094 740.019531 85.851562 745.351562 86.238281 C 750.683594 86.625 754.691406 91.269531 754.308594 96.617188 C 753.921875 101.960938 749.285156 105.980469 743.953125 105.59375 Z M 763.511719 93.292969 L 760.589844 93.078125 C 760.3125 91.515625 759.8125 90.023438 759.117188 88.636719 L 761.332031 86.71875 C 762.085938 86.066406 762.167969 84.925781 761.519531 84.171875 L 758.675781 80.878906 C 758.023438 80.125 756.886719 80.042969 756.136719 80.695312 L 753.921875 82.613281 C 752.652344 81.726562 751.253906 81.015625 749.746094 80.515625 L 749.960938 77.585938 C 750.03125 76.59375 749.285156 75.730469 748.292969 75.65625 L 743.960938 75.34375 C 742.96875 75.273438 742.105469 76.019531 742.035156 77.011719 L 741.824219 79.9375 C 740.261719 80.214844 738.773438 80.71875 737.394531 81.414062 L 735.476562 79.195312 C 734.824219 78.441406 733.691406 78.355469 732.9375 79.007812 L 729.652344 81.859375 C 728.898438 82.511719 728.816406 83.648438 729.46875 84.402344 L 731.382812 86.625 C 730.496094 87.894531 729.785156 89.296875 729.289062 90.808594 L 726.367188 90.59375 C 725.375 90.523438 724.515625 91.269531 724.441406 92.261719 L 724.128906 96.609375 C 724.058594 97.601562 724.804688 98.464844 725.792969 98.539062 L 728.714844 98.75 C 728.988281 100.316406 729.492188 101.808594 730.1875 103.191406 L 727.96875 105.113281 C 727.21875 105.765625 727.136719 106.902344 727.785156 107.65625 L 730.628906 110.953125 C 731.28125 111.707031 732.414062 111.789062 733.167969 111.136719 L 735.382812 109.214844 C 736.648438 110.101562 738.050781 110.816406 739.554688 111.316406 L 739.34375 114.242188 C 739.273438 115.234375 740.019531 116.101562 741.007812 116.171875 L 745.34375 116.484375 C 746.335938 116.558594 747.195312 115.8125 747.269531 114.816406 L 747.480469 111.890625 C 749.042969 111.613281 750.53125 111.109375 751.910156 110.414062 L 753.828125 112.636719 C 754.476562 113.390625 755.613281 113.472656 756.367188 112.820312 L 759.652344 109.96875 C 760.40625 109.320312 760.488281 108.179688 759.835938 107.425781 L 757.921875 105.203125 C 758.804688 103.9375 759.519531 102.53125 760.015625 101.023438 L 762.9375 101.234375 C 763.929688 101.308594 764.789062 100.558594 764.859375 99.566406 L 765.175781 95.222656 C 765.246094 94.226562 764.5 93.363281 763.511719 93.292969 " fill-opacity="1" fill-rule="nonzero"/></g><g clip-path="url(#513623f40f)"><path fill="#485fc1" d="M 319.386719 536.597656 C 318.394531 537.765625 313.863281 540.261719 312.003906 540.070312 C 307.511719 539.585938 303.089844 536 301.25 533.738281 C 302.75 537.476562 303.824219 544.09375 304.050781 547.425781 C 303.40625 549.960938 304.28125 548.375 302.058594 549.238281 C 299.832031 550.101562 300.167969 549.140625 297.960938 550.050781 C 294.980469 551.273438 278.019531 551.476562 270.046875 550.410156 C 269.261719 548.8125 268.6875 540.730469 268.644531 537.210938 C 268.589844 533.222656 268.238281 526.851562 270.949219 519.917969 C 273.90625 512.308594 281.703125 511.617188 282.917969 511.414062 C 285.042969 511.074219 286.816406 510.722656 287.78125 511.492188 L 289.113281 511.128906 C 291.308594 511.054688 291.882812 511.269531 294.035156 511.703125 C 296.296875 512.160156 298.921875 513.332031 299.421875 513.738281 C 303.476562 516.375 305.695312 520.355469 307.835938 523.96875 C 309.972656 527.585938 310.359375 529.667969 319.132812 532.457031 C 320.445312 533.398438 320.367188 535.433594 319.386719 536.597656 Z M 224.167969 509.347656 C 227.074219 513.226562 230.285156 515 233.761719 517.03125 C 235.484375 518.042969 237.347656 518.972656 239.003906 520.371094 C 240.660156 521.773438 242.550781 525.324219 242.792969 528.164062 C 242.960938 525.453125 243.703125 522.054688 245.382812 519.9375 C 245.382812 519.9375 248.675781 516.707031 251.972656 515.257812 C 254.25 514.335938 256.265625 513.007812 258.019531 511.28125 C 261.261719 508.023438 260.910156 503.84375 260.691406 503.007812 C 260.179688 501.042969 259.609375 498.9375 258.003906 496.554688 C 253.695312 492.894531 243.972656 494.96875 237.847656 495.742188 C 231.71875 496.515625 225.550781 500.21875 225.550781 500.21875 C 223.878906 502.851562 223.722656 504.808594 223.464844 506.472656 C 223.371094 506.957031 223.363281 507.441406 223.441406 507.929688 C 223.582031 508.457031 223.820312 508.929688 224.167969 509.347656 Z M 264 531.828125 L 218.492188 531.363281 C 218.339844 531.359375 218.195312 531.386719 218.050781 531.445312 C 217.910156 531.503906 217.785156 531.585938 217.679688 531.699219 C 217.570312 531.808594 217.488281 531.933594 217.433594 532.078125 C 217.378906 532.21875 217.355469 532.371094 217.359375 532.523438 L 219.742188 555.65625 L 219.933594 558.992188 C 219.953125 559.289062 220.074219 559.535156 220.292969 559.738281 C 220.511719 559.9375 220.769531 560.035156 221.066406 560.03125 L 261.871094 559.980469 C 262.167969 559.984375 262.425781 559.886719 262.644531 559.683594 C 262.863281 559.476562 262.984375 559.226562 263 558.925781 L 263.15625 555.128906 L 265.152344 532.945312 C 265.152344 532.792969 265.125 532.648438 265.066406 532.507812 C 265.007812 532.371094 264.921875 532.246094 264.816406 532.140625 C 264.707031 532.035156 264.582031 531.957031 264.441406 531.902344 C 264.300781 531.847656 264.15625 531.820312 264.003906 531.828125 Z M 264 531.828125 " fill-opacity="1" fill-rule="nonzero"/></g><g clip-path="url(#6ca0834788)"><path fill="#40c5db" d="M 207.292969 515.214844 C 210.78125 519.175781 212.640625 525.238281 213.777344 529.757812 C 214.992188 534.472656 215.28125 539.148438 215.417969 543.058594 C 215.417969 543.058594 215.152344 547.128906 208.070312 549.085938 C 202.371094 550.664062 190.183594 552.183594 182.230469 548.679688 L 172.066406 547.527344 C 171.902344 545.722656 172.039062 543.9375 172.472656 542.179688 C 173.800781 535.777344 175.714844 529.964844 179.007812 525.082031 C 181.195312 521.824219 183.371094 517.878906 187.003906 515.527344 C 187.003906 515.539062 200.160156 507.117188 207.292969 515.214844 Z M 327.109375 531.457031 C 326.9375 531.074219 326.40625 531.078125 325.992188 531.140625 C 321.1875 531.878906 312.34375 533.046875 307.539062 533.765625 C 306.515625 533.917969 306.070312 534.0625 305.867188 534.921875 C 304.90625 538.265625 303.984375 541.929688 303.203125 545.382812 C 302.878906 546.804688 302.394531 547.210938 302.128906 548.53125 C 301.996094 548.53125 301.65625 549.09375 301.574219 549.085938 C 301.121094 549.046875 300.875 549.382812 300.144531 549.335938 C 298.796875 549.222656 297.445312 549.191406 296.09375 549.25 C 292.628906 549.597656 289.21875 550.234375 285.859375 551.160156 C 285.230469 551.324219 285.132812 551.691406 285.839844 551.800781 C 290.234375 552.332031 297.996094 553.125 302.265625 553.144531 C 302.394531 553.148438 302.515625 553.132812 302.640625 553.105469 C 309.097656 551.847656 315.515625 550.382812 321.890625 548.722656 C 322.117188 548.683594 322.320312 548.589844 322.5 548.449219 C 322.679688 548.25 322.796875 548.015625 322.84375 547.75 L 327.085938 532.121094 C 327.171875 531.902344 327.179688 531.679688 327.109375 531.457031 Z M 327.109375 531.457031 " fill-opacity="1" fill-rule="nonzero"/></g><g clip-path="url(#1815a169c8)"><path fill="#ffe471" d="M 194.328125 552.9375 C 194.449219 553.074219 194.472656 553.222656 194.394531 553.386719 C 194.316406 553.550781 194.1875 553.628906 194.007812 553.617188 L 169.253906 551.464844 C 169.15625 551.453125 169.074219 551.414062 169.003906 551.34375 L 155.800781 537.613281 C 155.683594 537.476562 155.664062 537.328125 155.742188 537.167969 C 155.816406 537.007812 155.945312 536.929688 156.121094 536.9375 L 180.875 539.097656 C 180.976562 539.105469 181.0625 539.148438 181.132812 539.21875 L 186.484375 544.796875 L 189.257812 547.324219 L 191.078125 549.570312 Z M 276.03125 515.792969 C 276.492188 515.632812 276.957031 515.617188 277.429688 515.746094 C 277.859375 515.910156 278.078125 516.285156 278.375 516.605469 C 278.460938 516.726562 278.574219 516.824219 278.703125 516.898438 C 278.832031 516.972656 278.972656 517.015625 279.121094 517.03125 C 279.269531 517.046875 279.414062 517.03125 279.558594 516.984375 C 279.699219 516.9375 279.824219 516.863281 279.9375 516.765625 C 280.414062 516.359375 280.953125 516.078125 281.558594 515.921875 C 281.46875 515.820312 281.382812 515.714844 281.304688 515.609375 C 280.988281 515.691406 280.695312 515.8125 280.414062 515.980469 C 280.113281 516.160156 279.851562 516.421875 279.539062 516.589844 C 278.996094 516.882812 278.6875 516.398438 278.378906 516.027344 C 278.152344 515.742188 277.871094 515.539062 277.53125 515.410156 C 277.191406 515.285156 276.84375 515.253906 276.488281 515.320312 C 275.5625 515.445312 274.753906 516.011719 273.828125 516.132812 C 273.632812 516.160156 273.4375 516.152344 273.246094 516.109375 C 273.160156 516.210938 273.070312 516.3125 272.984375 516.417969 C 273.222656 516.5 273.464844 516.53125 273.714844 516.515625 C 274.539062 516.445312 275.253906 516.011719 276.03125 515.792969 Z M 273.453125 523.453125 C 274.265625 523.398438 274.992188 522.964844 275.78125 522.746094 C 276.242188 522.585938 276.707031 522.570312 277.179688 522.699219 C 277.609375 522.859375 277.828125 523.238281 278.121094 523.558594 C 278.210938 523.679688 278.320312 523.777344 278.453125 523.851562 C 278.582031 523.925781 278.71875 523.96875 278.871094 523.984375 C 279.019531 524 279.164062 523.984375 279.304688 523.9375 C 279.449219 523.890625 279.574219 523.816406 279.6875 523.71875 C 280.332031 523.25 281.085938 522.683594 281.933594 522.902344 C 282.675781 523.085938 283.023438 523.882812 283.699219 524.199219 C 284.847656 524.738281 285.636719 523.476562 286.667969 523.265625 C 287.414062 523.109375 287.699219 523.960938 288.289062 524.222656 C 288.875 524.484375 289.648438 524.222656 290.207031 523.886719 C 290.839844 523.503906 291.464844 522.867188 292.234375 522.867188 C 293.003906 522.867188 293.679688 523.59375 294.484375 523.710938 C 295.148438 523.742188 295.710938 523.523438 296.175781 523.046875 C 296.816406 522.511719 297.5625 521.757812 298.429688 522.285156 C 298.722656 522.460938 299.015625 522.667969 299.367188 522.515625 C 299.65625 522.339844 299.882812 522.101562 300.050781 521.804688 C 300.257812 521.488281 300.5 521.207031 300.777344 520.953125 C 300.960938 520.808594 301.167969 520.730469 301.402344 520.714844 C 301.636719 520.703125 301.851562 520.757812 302.054688 520.878906 C 302.773438 521.226562 303.503906 521.253906 304.25 520.964844 C 304.703125 520.789062 305.128906 520.554688 305.519531 520.265625 L 305.386719 520.066406 C 305.363281 520.027344 305.34375 519.992188 305.320312 519.960938 C 304.953125 520.226562 304.5625 520.441406 304.144531 520.613281 C 303.785156 520.757812 303.410156 520.820312 303.019531 520.792969 C 302.601562 520.695312 302.199219 520.5625 301.804688 520.386719 C 301.527344 520.316406 301.253906 520.328125 300.984375 520.421875 C 300.710938 520.511719 300.488281 520.671875 300.308594 520.894531 C 300.113281 521.117188 299.929688 521.347656 299.753906 521.589844 C 299.65625 521.71875 299.566406 521.851562 299.460938 521.996094 C 299.148438 522.355469 298.878906 522.132812 298.542969 521.933594 C 298.257812 521.789062 297.957031 521.734375 297.640625 521.765625 C 297.320312 521.796875 297.035156 521.910156 296.785156 522.109375 C 296.171875 522.515625 295.671875 523.222656 294.921875 523.355469 C 294.082031 523.511719 293.402344 522.730469 292.617188 522.539062 C 291.914062 522.449219 291.292969 522.625 290.742188 523.074219 C 290.109375 523.480469 289.273438 524.21875 288.449219 523.886719 C 287.816406 523.644531 287.597656 522.871094 286.828125 522.867188 C 285.789062 522.867188 284.953125 524.289062 283.890625 523.886719 C 283.1875 523.625 282.851562 522.8125 282.113281 522.570312 C 281.398438 522.390625 280.734375 522.511719 280.125 522.929688 C 279.820312 523.109375 279.558594 523.371094 279.25 523.539062 C 278.707031 523.828125 278.398438 523.34375 278.085938 522.972656 C 277.859375 522.691406 277.574219 522.488281 277.238281 522.359375 C 276.898438 522.234375 276.550781 522.203125 276.199219 522.269531 C 275.269531 522.394531 274.464844 522.957031 273.535156 523.082031 C 272.984375 523.152344 272.503906 522.996094 272.101562 522.613281 C 271.804688 522.3125 271.484375 522.039062 271.136719 521.800781 C 270.886719 521.65625 270.625 521.550781 270.347656 521.484375 C 270.304688 521.601562 270.269531 521.71875 270.234375 521.839844 C 270.742188 521.980469 271.183594 522.234375 271.5625 522.601562 C 272.148438 523.113281 272.675781 523.5 273.460938 523.453125 Z M 301.660156 534.910156 C 301.257812 535.140625 300.957031 535.464844 300.761719 535.890625 C 300.574219 536.3125 300.265625 536.601562 299.832031 536.761719 C 299.382812 536.824219 298.957031 536.761719 298.546875 536.566406 C 298.019531 536.386719 297.535156 536.222656 297.007812 536.488281 C 296.617188 536.714844 296.273438 537 295.976562 537.34375 C 295.324219 537.984375 294.535156 538.285156 293.660156 537.875 C 293.148438 537.640625 292.695312 537.238281 292.136719 537.105469 C 291.578125 536.976562 291.136719 537.339844 290.722656 537.714844 C 290.054688 538.3125 288.988281 539.015625 288.0625 538.605469 C 287.578125 538.390625 287.347656 537.789062 286.847656 537.644531 C 286.464844 537.566406 286.117188 537.648438 285.804688 537.882812 C 285.207031 538.226562 284.609375 538.769531 283.875 538.734375 C 282.773438 538.6875 282.398438 537.289062 281.296875 537.238281 C 280.6875 537.269531 280.148438 537.480469 279.679688 537.875 C 279.3125 538.140625 278.949219 538.527344 278.460938 538.460938 C 277.976562 538.398438 277.710938 537.976562 277.4375 537.648438 C 277.226562 537.386719 276.964844 537.207031 276.648438 537.105469 C 276.332031 537.003906 276.011719 537 275.691406 537.089844 C 274.621094 537.300781 273.628906 538.074219 272.488281 537.90625 C 271.972656 537.792969 271.539062 537.539062 271.183594 537.140625 C 270.824219 536.75 270.390625 536.46875 269.894531 536.292969 C 269.648438 536.21875 269.398438 536.183594 269.144531 536.183594 C 269.96875 538.800781 270.449219 541.480469 270.574219 544.222656 C 270.574219 544.222656 270.574219 544.398438 270.519531 544.707031 C 271.140625 544.453125 271.773438 544.199219 272.410156 544.332031 C 273.378906 544.53125 274.0625 545.808594 275.171875 545.574219 C 275.644531 545.472656 276.058594 545.074219 276.472656 544.835938 C 276.828125 544.609375 277.214844 544.5 277.636719 544.507812 C 278.105469 544.550781 278.511719 544.738281 278.851562 545.070312 C 279.230469 545.40625 279.601562 545.902344 280.152344 545.964844 C 280.933594 546.054688 281.609375 545.320312 282.285156 545.039062 C 282.574219 544.90625 282.878906 544.867188 283.195312 544.925781 C 283.707031 545.046875 283.933594 545.484375 284.328125 545.769531 C 285.382812 546.53125 286.53125 545.265625 287.316406 544.71875 C 288.226562 544.089844 289.066406 544.628906 289.910156 545.085938 C 290.160156 545.257812 290.441406 545.351562 290.742188 545.371094 C 291.046875 545.390625 291.335938 545.332031 291.605469 545.195312 C 291.941406 544.964844 292.25 544.699219 292.53125 544.40625 C 292.851562 544.097656 293.226562 543.882812 293.65625 543.769531 C 293.832031 543.734375 294.003906 543.726562 294.179688 543.746094 C 294.148438 543.875 294.117188 544.003906 294.09375 544.125 C 293.792969 544.105469 293.511719 544.171875 293.253906 544.332031 C 292.886719 544.578125 292.550781 544.851562 292.238281 545.164062 C 291.90625 545.484375 291.515625 545.671875 291.054688 545.722656 C 290.597656 545.773438 290.171875 545.679688 289.78125 545.441406 C 289.25 545.160156 288.660156 544.675781 288.011719 544.789062 C 287.53125 544.871094 287.179688 545.304688 286.816406 545.601562 C 286.113281 546.15625 284.980469 546.6875 284.136719 546.113281 C 283.730469 545.839844 283.484375 545.296875 282.949219 545.273438 C 282.539062 545.300781 282.167969 545.433594 281.835938 545.679688 C 281.230469 546.046875 280.554688 546.496094 279.8125 546.265625 C 278.832031 545.953125 278.339844 544.550781 277.136719 544.929688 C 276.289062 545.199219 275.667969 546.09375 274.707031 545.929688 C 274.214844 545.816406 273.765625 545.609375 273.359375 545.304688 C 272.882812 544.984375 272.519531 544.59375 271.886719 544.675781 C 271.394531 544.761719 270.921875 544.910156 270.464844 545.113281 C 270.101562 547.316406 268.65625 552.996094 263.171875 555.140625 L 264.035156 533.695312 C 264.035156 533.542969 264.011719 533.394531 263.953125 533.253906 C 263.898438 533.113281 263.816406 532.988281 263.707031 532.882812 C 263.601562 532.773438 263.476562 532.691406 263.335938 532.636719 C 263.195312 532.578125 263.050781 532.550781 262.898438 532.554688 L 219.640625 532.605469 C 219.488281 532.601562 219.339844 532.628906 219.199219 532.6875 C 219.058594 532.746094 218.933594 532.828125 218.828125 532.9375 C 218.722656 533.046875 218.640625 533.171875 218.585938 533.316406 C 218.53125 533.460938 218.503906 533.605469 218.511719 533.761719 L 219.757812 555.675781 C 214.820312 554.257812 213.246094 549.460938 213.347656 546.246094 C 213.839844 530.910156 219.386719 520.960938 230.59375 516.148438 C 229.78125 515.574219 229.003906 514.996094 228.320312 514.613281 C 225.28125 512.898438 223.265625 509.128906 222.816406 506.652344 C 222.242188 503.507812 222.921875 499.191406 223.554688 496.066406 C 224.445312 491.46875 225.839844 486.957031 228.148438 482.917969 C 228.679688 481.898438 229.363281 481 230.199219 480.214844 C 231.191406 479.425781 232.292969 478.855469 233.511719 478.5 C 235.847656 477.730469 238.25 477.308594 240.710938 477.246094 C 243.171875 477.179688 245.589844 477.472656 247.96875 478.121094 C 249.171875 478.402344 250.289062 478.890625 251.316406 479.582031 C 252.273438 480.355469 253.082031 481.261719 253.746094 482.304688 C 256.238281 485.878906 260.554688 493.992188 261.972656 501.21875 C 262.457031 503.683594 262.0625 508.878906 259.476562 512.074219 C 258.292969 513.53125 255.828125 515.21875 253.515625 516.101562 C 254.730469 516.707031 255.863281 517.445312 256.914062 518.308594 C 259.71875 520.582031 262.144531 523.210938 264.195312 526.1875 C 266.246094 529.167969 267.835938 532.375 268.96875 535.8125 C 269.421875 535.800781 269.859375 535.882812 270.277344 536.066406 C 270.671875 536.253906 271.015625 536.503906 271.320312 536.816406 C 271.851562 537.328125 272.351562 537.632812 273.109375 537.53125 C 274.222656 537.355469 275.195312 536.578125 276.351562 536.675781 C 276.839844 536.710938 277.246094 536.914062 277.566406 537.285156 C 277.746094 537.535156 277.945312 537.761719 278.171875 537.96875 C 278.5 538.203125 278.796875 538.0625 279.089844 537.839844 C 279.820312 537.28125 280.710938 536.691406 281.691406 536.953125 C 282.671875 537.210938 283.15625 538.628906 284.226562 538.351562 C 284.953125 538.164062 285.480469 537.539062 286.195312 537.324219 C 286.492188 537.222656 286.785156 537.234375 287.074219 537.363281 C 287.570312 537.589844 287.792969 538.175781 288.332031 538.339844 C 288.9375 538.507812 289.636719 538.121094 290.105469 537.765625 C 290.433594 537.460938 290.78125 537.179688 291.148438 536.917969 C 292.160156 536.34375 292.992188 537.242188 293.882812 537.601562 C 294.972656 538.046875 295.535156 537.175781 296.265625 536.566406 C 296.578125 536.273438 296.945312 536.089844 297.363281 536.007812 C 297.816406 535.980469 298.246094 536.058594 298.660156 536.242188 C 299.210938 536.429688 299.816406 536.652344 300.21875 536.070312 C 300.453125 535.660156 300.722656 535.277344 301.027344 534.917969 C 301.171875 534.769531 301.34375 534.664062 301.539062 534.597656 Z M 251.445312 515.027344 C 253.601562 514.152344 255.507812 512.894531 257.167969 511.261719 C 258.1875 510.230469 258.921875 509.027344 259.367188 507.648438 C 259.8125 506.269531 259.921875 504.863281 259.699219 503.429688 C 259.214844 501.570312 258.671875 499.570312 257.15625 497.320312 C 253.078125 493.855469 243.878906 495.816406 238.082031 496.546875 C 232.28125 497.28125 226.445312 500.769531 226.445312 500.769531 C 224.859375 503.257812 224.710938 505.113281 224.46875 506.6875 C 224.378906 507.144531 224.371094 507.605469 224.441406 508.066406 C 224.574219 508.566406 224.804688 509.019531 225.132812 509.425781 C 227.316406 512.335938 229.675781 513.996094 232.203125 515.53125 C 232.863281 515.9375 233.53125 516.316406 234.226562 516.710938 L 235.105469 517.207031 C 235.480469 517.417969 235.855469 517.613281 236.234375 517.851562 C 237.277344 518.4375 238.261719 519.105469 239.191406 519.863281 C 240.757812 521.191406 242.515625 523.445312 242.742188 526.128906 C 242.785156 524.910156 243.019531 523.730469 243.445312 522.585938 C 243.871094 521.445312 244.464844 520.398438 245.230469 519.453125 C 246.207031 518.523438 247.242188 517.664062 248.335938 516.875 L 248.429688 516.808594 L 248.925781 516.46875 L 249.304688 516.21875 L 249.664062 515.992188 L 250.035156 515.765625 L 250.339844 515.597656 C 250.542969 515.480469 250.742188 515.371094 250.960938 515.269531 L 251.261719 515.121094 Z M 308.578125 525.308594 C 308.21875 525.28125 307.863281 525.28125 307.507812 525.308594 C 306.910156 525.316406 306.402344 525.53125 305.984375 525.957031 C 305.578125 526.441406 305.332031 527.007812 304.808594 527.410156 C 304.421875 527.707031 303.984375 527.875 303.5 527.917969 C 303.015625 527.964844 302.554688 527.875 302.121094 527.652344 C 301.789062 527.476562 301.441406 527.425781 301.070312 527.507812 C 300.703125 527.589844 300.40625 527.78125 300.179688 528.085938 C 299.9375 528.355469 299.734375 528.660156 299.511719 528.945312 C 299.289062 529.230469 299.078125 529.414062 298.703125 529.171875 C 298.515625 529.03125 298.308594 528.929688 298.082031 528.867188 C 297.234375 528.683594 296.53125 529.34375 295.933594 529.839844 C 295.609375 530.171875 295.222656 530.382812 294.765625 530.472656 C 294.222656 530.519531 293.746094 530.183594 293.289062 529.945312 C 292.917969 529.730469 292.515625 529.632812 292.089844 529.652344 C 291.660156 529.667969 291.269531 529.800781 290.917969 530.042969 C 290.191406 530.488281 289.15625 531.496094 288.238281 530.9375 C 287.867188 530.710938 287.664062 530.285156 287.257812 530.097656 C 286.996094 529.980469 286.726562 529.960938 286.449219 530.035156 C 285.820312 530.195312 285.332031 530.683594 284.746094 530.9375 C 284.417969 531.113281 284.082031 531.125 283.742188 530.972656 C 283.289062 530.742188 282.996094 530.289062 282.597656 529.988281 C 281.898438 529.453125 281.03125 529.578125 280.285156 529.941406 C 279.917969 530.128906 279.621094 530.402344 279.277344 530.621094 C 278.644531 531.027344 278.300781 530.386719 277.921875 529.96875 C 277.199219 529.15625 276.140625 529.308594 275.210938 529.636719 C 274.660156 529.886719 274.082031 530.074219 273.488281 530.195312 C 272.777344 530.28125 272.292969 529.957031 271.796875 529.484375 C 271.179688 528.851562 270.429688 528.527344 269.546875 528.511719 C 269.3125 528.511719 269.085938 528.542969 268.859375 528.605469 C 268.859375 528.742188 268.835938 528.871094 268.820312 529.015625 C 269.199219 528.882812 269.585938 528.855469 269.980469 528.929688 C 270.390625 528.996094 270.765625 529.152344 271.101562 529.394531 C 271.464844 529.738281 271.847656 530.0625 272.246094 530.359375 C 273.058594 530.824219 273.972656 530.539062 274.769531 530.230469 C 275.230469 530.027344 275.707031 529.878906 276.203125 529.789062 C 276.511719 529.730469 276.816406 529.761719 277.109375 529.878906 C 277.402344 530 277.640625 530.191406 277.820312 530.449219 C 278.027344 530.757812 278.296875 530.980469 278.632812 531.125 C 279.007812 531.214844 279.339844 531.128906 279.625 530.871094 C 280.4375 530.292969 281.460938 529.601562 282.40625 530.3125 C 283.019531 530.78125 283.464844 531.558594 284.347656 531.46875 C 285.003906 531.402344 285.523438 530.929688 286.078125 530.628906 C 286.332031 530.460938 286.609375 530.382812 286.914062 530.398438 C 287.394531 530.46875 287.628906 530.976562 288 531.230469 C 288.683594 531.710938 289.550781 531.410156 290.199219 531.011719 C 291.035156 530.496094 291.820312 529.730469 292.847656 530.160156 C 293.65625 530.5 294.367188 531.121094 295.296875 530.742188 C 296.144531 530.402344 296.664062 529.457031 297.582031 529.261719 C 298.125 529.148438 298.394531 529.546875 298.871094 529.691406 C 299.035156 529.726562 299.195312 529.710938 299.351562 529.648438 C 299.507812 529.582031 299.632812 529.480469 299.722656 529.339844 C 300.21875 528.765625 300.714844 527.644531 301.644531 527.878906 C 302.089844 528.0625 302.546875 528.210938 303.011719 528.328125 C 303.398438 528.375 303.777344 528.335938 304.148438 528.214844 C 304.9375 527.933594 305.542969 527.425781 305.96875 526.703125 C 306.085938 526.46875 306.238281 526.257812 306.421875 526.070312 C 306.703125 525.863281 307.015625 525.746094 307.363281 525.71875 C 307.839844 525.65625 308.316406 525.644531 308.796875 525.691406 Z M 300.105469 514.550781 C 300 514.683594 299.894531 514.820312 299.777344 514.957031 C 299.429688 515.316406 299.113281 515.074219 298.71875 514.851562 C 298.394531 514.683594 298.054688 514.613281 297.691406 514.632812 C 297.328125 514.648438 296.996094 514.757812 296.691406 514.957031 C 296.003906 515.339844 295.476562 516.082031 294.605469 516.179688 C 294 516.253906 293.457031 515.957031 292.910156 515.667969 C 292.871094 515.777344 292.832031 515.894531 292.785156 516.003906 C 293.199219 516.257812 293.644531 516.441406 294.117188 516.550781 C 294.851562 516.628906 295.492188 516.421875 296.039062 515.929688 C 296.753906 515.398438 297.578125 514.640625 298.601562 515.226562 C 298.945312 515.425781 299.292969 515.65625 299.691406 515.511719 C 300.011719 515.34375 300.261719 515.105469 300.449219 514.792969 C 300.496094 514.738281 300.542969 514.675781 300.589844 514.613281 C 300.480469 514.53125 300.371094 514.441406 300.253906 514.355469 Z M 317.496094 540.789062 C 317.195312 540.324219 316.769531 540.054688 316.222656 539.976562 C 315.78125 539.941406 315.378906 540.046875 315.007812 540.289062 C 314.636719 540.53125 314.382812 540.863281 314.238281 541.285156 C 314.082031 541.730469 314.101562 542.164062 314.296875 542.59375 C 314.570312 543.105469 314.980469 543.441406 315.539062 543.605469 C 315.785156 543.6875 315.890625 543.300781 315.648438 543.21875 C 315.265625 543.101562 314.957031 542.878906 314.730469 542.550781 C 314.570312 542.285156 314.507812 542 314.550781 541.695312 C 314.597656 541.382812 314.726562 541.105469 314.941406 540.875 C 315.152344 540.640625 315.414062 540.484375 315.71875 540.410156 C 316.066406 540.316406 316.394531 540.367188 316.699219 540.558594 C 317.011719 540.746094 317.214844 541.019531 317.304688 541.371094 C 317.402344 541.867188 317.109375 542.527344 316.523438 542.554688 C 316.296875 542.566406 316.09375 542.511719 315.90625 542.382812 C 315.691406 542.238281 315.597656 542.035156 315.613281 541.777344 C 315.675781 541.421875 316.109375 541.175781 316.363281 541.492188 C 316.457031 541.585938 316.554688 541.585938 316.648438 541.492188 C 316.742188 541.394531 316.742188 541.300781 316.648438 541.207031 C 316.570312 541.121094 316.476562 541.054688 316.367188 541.007812 C 316.261719 540.964844 316.148438 540.941406 316.035156 540.945312 C 315.917969 540.949219 315.808594 540.972656 315.703125 541.023438 C 315.597656 541.074219 315.507812 541.144531 315.433594 541.234375 C 315.339844 541.347656 315.277344 541.476562 315.238281 541.621094 C 315.203125 541.761719 315.199219 541.90625 315.222656 542.050781 C 315.25 542.195312 315.304688 542.328125 315.390625 542.449219 C 315.472656 542.570312 315.578125 542.667969 315.703125 542.742188 C 316.140625 543.027344 316.585938 543.046875 317.050781 542.804688 C 317.398438 542.589844 317.605469 542.28125 317.671875 541.875 C 317.765625 541.488281 317.707031 541.125 317.496094 540.789062 Z M 243.523438 546.554688 C 243.414062 547.957031 242 548.589844 240.746094 548.375 C 240.164062 548.304688 239.695312 548.035156 239.339844 547.5625 C 239.089844 547.183594 238.972656 546.765625 238.992188 546.3125 C 239.019531 545.1875 240.078125 543.957031 241.273438 544.203125 C 241.59375 544.261719 241.878906 544.398438 242.125 544.609375 C 242.371094 544.824219 242.546875 545.085938 242.652344 545.394531 C 242.800781 545.890625 242.707031 546.335938 242.375 546.730469 C 241.972656 547.171875 241.070312 547.34375 240.65625 546.820312 C 240.246094 546.292969 240.738281 545.230469 241.433594 545.648438 C 241.554688 545.691406 241.648438 545.65625 241.71875 545.542969 C 241.785156 545.433594 241.773438 545.332031 241.679688 545.242188 C 241.511719 545.148438 241.335938 545.105469 241.148438 545.105469 C 240.957031 545.105469 240.78125 545.148438 240.613281 545.238281 C 240.445312 545.328125 240.3125 545.449219 240.207031 545.609375 C 240.101562 545.765625 240.039062 545.9375 240.023438 546.128906 C 239.988281 546.34375 240.007812 546.554688 240.078125 546.757812 C 240.148438 546.964844 240.261719 547.140625 240.417969 547.292969 C 240.570312 547.445312 240.753906 547.550781 240.960938 547.613281 C 241.167969 547.675781 241.378906 547.6875 241.589844 547.644531 C 241.945312 547.617188 242.265625 547.492188 242.542969 547.269531 C 242.824219 547.046875 243.019531 546.765625 243.128906 546.425781 C 243.339844 545.753906 243.226562 545.144531 242.796875 544.59375 C 242.511719 544.222656 242.148438 543.960938 241.707031 543.8125 C 241.261719 543.664062 240.816406 543.652344 240.367188 543.777344 C 239.523438 544.085938 238.953125 544.664062 238.65625 545.511719 C 238.550781 545.800781 238.503906 546.097656 238.507812 546.402344 C 238.511719 546.707031 238.570312 547.003906 238.679688 547.289062 C 238.792969 547.574219 238.953125 547.828125 239.15625 548.054688 C 239.363281 548.277344 239.601562 548.460938 239.871094 548.597656 C 240.742188 548.992188 241.621094 549.011719 242.507812 548.65625 C 242.945312 548.480469 243.304688 548.203125 243.582031 547.824219 C 243.855469 547.441406 244.011719 547.015625 244.042969 546.542969 C 244.019531 546.238281 243.546875 546.242188 243.523438 546.554688 Z M 208.363281 523.882812 C 208.730469 523.835938 209.277344 523.585938 209.347656 523.226562 C 209.476562 522.683594 209.359375 522.203125 208.996094 521.785156 C 208.785156 521.546875 208.523438 521.40625 208.210938 521.367188 C 207.894531 521.324219 207.605469 521.394531 207.34375 521.570312 C 207.070312 521.804688 206.902344 522.097656 206.835938 522.453125 C 206.769531 522.804688 206.824219 523.140625 206.996094 523.457031 C 207.25 524.035156 208.097656 523.914062 208.363281 523.882812 Z M 185.992188 520.808594 C 186.359375 520.761719 186.90625 520.515625 186.976562 520.152344 C 187.105469 519.609375 186.988281 519.128906 186.625 518.710938 C 186.453125 518.523438 186.246094 518.394531 186 518.328125 C 185.753906 518.257812 185.511719 518.261719 185.269531 518.335938 C 185.058594 518.5 184.863281 518.667969 184.648438 518.835938 C 184.355469 519.34375 184.339844 519.863281 184.605469 520.386719 C 184.863281 520.960938 185.726562 520.839844 185.976562 520.808594 Z M 193.078125 530.011719 C 193.445312 529.960938 193.988281 529.71875 194.066406 529.355469 C 194.191406 528.8125 194.070312 528.332031 193.707031 527.914062 C 193.5 527.675781 193.238281 527.535156 192.925781 527.492188 C 192.609375 527.453125 192.320312 527.523438 192.058594 527.703125 C 191.785156 527.933594 191.617188 528.226562 191.550781 528.582031 C 191.484375 528.933594 191.539062 529.269531 191.710938 529.582031 C 191.960938 530.160156 192.8125 530.039062 193.058594 530.011719 Z M 178.203125 533.398438 C 178.566406 533.351562 179.109375 533.105469 179.1875 532.742188 C 179.308594 532.203125 179.191406 531.722656 178.832031 531.300781 C 178.625 531.0625 178.363281 530.921875 178.046875 530.882812 C 177.730469 530.839844 177.441406 530.910156 177.179688 531.089844 C 176.910156 531.324219 176.738281 531.617188 176.675781 531.96875 C 176.609375 532.324219 176.660156 532.660156 176.832031 532.976562 C 177.105469 533.542969 177.949219 533.421875 178.203125 533.398438 Z M 207.816406 534.621094 C 207.542969 534.851562 207.375 535.144531 207.3125 535.5 C 207.246094 535.851562 207.296875 536.1875 207.46875 536.503906 C 207.738281 537.082031 208.585938 536.960938 208.839844 536.910156 C 209.203125 536.867188 209.75 536.617188 209.824219 536.257812 C 209.949219 535.714844 209.832031 535.234375 209.46875 534.816406 C 209.261719 534.574219 209 534.429688 208.6875 534.390625 C 208.371094 534.347656 208.082031 534.414062 207.816406 534.589844 Z M 282.960938 507.058594 C 283.769531 505.839844 284.871094 504.019531 284.8125 503.667969 C 285.457031 503.074219 283.410156 502.496094 283.894531 501.765625 C 284.453125 500.953125 283.929688 500.503906 284.167969 499.628906 L 284.0625 499.628906 C 283.632812 499.628906 283.632812 498.941406 284.0625 498.957031 C 284.191406 498.957031 284.320312 498.957031 284.445312 498.957031 C 284.597656 498.726562 284.789062 498.539062 285.03125 498.40625 C 287.242188 497.148438 287.460938 495.117188 289.722656 493.925781 C 290.410156 493.566406 290.71875 494.046875 290.339844 494.695312 C 294.464844 494.78125 297.5625 494.355469 298.039062 492.914062 C 299.359375 494.914062 300.128906 494.542969 300.0625 496.761719 C 301.050781 496.066406 301.765625 495.15625 302.207031 494.027344 C 302.664062 492.652344 302.292969 490.964844 300.730469 488.246094 C 299.863281 486.746094 297.859375 484.9375 295.945312 485.152344 C 294.144531 482.617188 292 482.160156 289.109375 482.011719 C 282.898438 481.6875 279.984375 483.867188 278.207031 486.714844 C 273.300781 494.570312 274.941406 499.648438 275.371094 500.800781 C 276.742188 504.699219 281.964844 508.710938 282.960938 507.058594 Z M 193.9375 538.285156 C 193.667969 538.515625 193.5 538.808594 193.433594 539.164062 C 193.367188 539.515625 193.421875 539.851562 193.589844 540.167969 C 193.859375 540.746094 194.710938 540.625 194.960938 540.574219 C 195.324219 540.53125 195.867188 540.28125 195.945312 539.917969 C 196.070312 539.378906 195.953125 538.898438 195.589844 538.480469 C 195.378906 538.242188 195.113281 538.105469 194.800781 538.066406 C 194.488281 538.03125 194.199219 538.101562 193.9375 538.285156 Z M 193.9375 538.285156 " fill-opacity="1" fill-rule="nonzero"/></g><path fill="#f28383" d="M 195.0625 548.265625 C 195.105469 548.386719 195.09375 548.503906 195.015625 548.613281 C 194.941406 548.71875 194.839844 548.773438 194.710938 548.773438 L 192.476562 549.273438 C 192.027344 549.375 191.558594 549.476562 191.089844 549.546875 L 186.484375 544.796875 C 188.042969 544.621094 189.546875 544.839844 190.992188 545.453125 C 191.859375 545.21875 192.636719 544.820312 193.332031 544.25 C 194.613281 545.054688 194.894531 546.757812 195.0625 548.265625 Z M 293.332031 497.808594 C 292.859375 497.683594 292.375 497.609375 291.882812 497.585938 C 290.976562 497.53125 289.828125 497.484375 289.003906 497.941406 C 288.511719 498.214844 288.378906 498.851562 288.371094 499.378906 C 288.328125 500.007812 288.480469 500.585938 288.824219 501.113281 C 289.445312 501.898438 290.78125 501.859375 291.660156 501.8125 C 292.335938 501.773438 293.226562 501.730469 293.683594 501.167969 C 294.046875 500.632812 294.214844 500.039062 294.1875 499.394531 C 294.226562 498.71875 294.042969 498.027344 293.332031 497.808594 Z M 288.9375 497.550781 C 290 497.058594 291.105469 497.144531 292.238281 497.273438 C 292.8125 497.34375 293.335938 497.539062 293.816406 497.863281 C 294.300781 498.167969 294.578125 498.605469 294.644531 499.175781 C 295.105469 499.175781 295.738281 499.175781 296.199219 499.175781 L 296.25 499.175781 C 296.316406 498.652344 296.554688 498.230469 296.96875 497.902344 C 297.429688 497.648438 297.917969 497.550781 298.441406 497.613281 C 299.039062 497.613281 299.722656 497.757812 300.0625 497.746094 C 300.140625 497.199219 300.207031 496.648438 300.253906 496.09375 C 300.183594 494.09375 299.28125 492.429688 298.058594 490.550781 C 297.59375 491.992188 295.765625 493.882812 291.640625 493.808594 C 291.992188 493.296875 292.238281 492.734375 292.375 492.128906 C 291.515625 492.378906 290.679688 492.695312 289.863281 493.066406 C 287.609375 494.242188 285.382812 496.566406 283.171875 497.828125 C 282.929688 497.964844 282.742188 498.152344 282.597656 498.386719 C 283.34375 498.796875 286.269531 498.683594 288.070312 498.710938 C 288.1875 498.195312 288.476562 497.808594 288.9375 497.550781 Z M 298.039062 497.921875 C 297.625 497.964844 297.273438 498.136719 296.984375 498.4375 C 296.734375 498.773438 296.609375 499.148438 296.605469 499.566406 C 296.550781 500.121094 296.640625 500.65625 296.875 501.164062 C 296.988281 501.382812 297.152344 501.550781 297.367188 501.664062 L 297.445312 501.664062 C 297.652344 501.730469 297.863281 501.777344 298.078125 501.804688 C 298.496094 501.816406 298.890625 501.730469 299.265625 501.539062 C 299.414062 500.964844 299.546875 500.378906 299.671875 499.757812 C 299.765625 499.324219 299.84375 498.886719 299.921875 498.441406 C 299.6875 498.222656 299.417969 498.070312 299.109375 497.980469 C 298.753906 497.917969 298.398438 497.898438 298.039062 497.921875 Z M 302.15625 544.152344 C 301.589844 543.621094 300.058594 543.164062 299.320312 542.976562 C 297.679688 542.597656 296.03125 542.566406 294.375 542.890625 C 294.097656 543.878906 293.898438 544.882812 293.773438 545.902344 C 295.394531 546.148438 296.664062 546.996094 298.566406 548.242188 C 299.101562 548.59375 299.617188 548.992188 300.160156 549.335938 C 300.890625 549.382812 301.546875 549.4375 302.003906 549.476562 L 302.328125 549.507812 C 302.597656 548.195312 302.894531 546.808594 303.21875 545.390625 C 302.90625 544.945312 302.550781 544.53125 302.15625 544.152344 Z M 292.878906 512.480469 C 291.371094 512.003906 291.164062 511.859375 291.089844 511.109375 C 291.023438 510.636719 291.023438 510.195312 290.992188 509.785156 C 291.480469 509.894531 291.972656 509.953125 292.472656 509.960938 C 293.363281 510.015625 294.199219 509.832031 294.984375 509.410156 C 295.925781 508.851562 296.9375 507.25 297.296875 506.585938 C 298.035156 505.242188 298.625 503.832031 299.066406 502.363281 C 298.957031 501.953125 298.304688 502.257812 297.851562 502.175781 C 297.558594 502.144531 297.289062 502.050781 297.039062 501.894531 C 296.390625 501.402344 296.089844 500.785156 296.179688 499.605469 C 295.734375 499.605469 295.042969 499.605469 294.597656 499.605469 C 294.585938 500.363281 294.3125 501.011719 293.785156 501.550781 C 293.085938 502.195312 292.132812 502.148438 291.230469 502.15625 C 290.191406 502.15625 288.945312 502.101562 288.367188 501.105469 C 288.019531 500.457031 287.878906 499.765625 287.9375 499.03125 C 286.09375 499.007812 284.347656 498.890625 282.3125 499.03125 C 282.261719 499.203125 282.226562 499.378906 282.199219 499.558594 C 281.957031 499.152344 281.628906 498.847656 281.210938 498.640625 C 280.960938 498.519531 280.703125 498.476562 280.429688 498.511719 C 280.15625 498.546875 279.914062 498.65625 279.707031 498.835938 C 279.296875 499.230469 279.070312 499.710938 279.039062 500.28125 C 279.007812 500.945312 279.441406 501.539062 279.847656 502.074219 L 280.625 503.066406 C 280.925781 503.472656 281.324219 503.71875 281.816406 503.808594 C 282.042969 503.832031 282.257812 503.796875 282.464844 503.710938 C 282.464844 503.75 282.53125 504.042969 282.53125 504.042969 C 282.9375 506.398438 283.480469 509.390625 282.605469 510.925781 C 281.945312 512.078125 281.550781 511.882812 280.253906 512.78125 C 279.664062 513.597656 281.324219 516.039062 282.925781 517.226562 C 284.464844 518.351562 287.972656 519.335938 289.816406 518.855469 C 290.335938 518.738281 290.8125 518.519531 291.242188 518.199219 C 291.667969 517.878906 292.015625 517.484375 292.277344 517.015625 C 293.378906 515.207031 293.644531 512.765625 292.878906 512.480469 Z M 252.296875 493.425781 C 251.910156 493.214844 251.195312 493.589844 250.839844 493.425781 C 249.21875 492.613281 247.597656 492.464844 245.863281 491.96875 C 243.199219 491.203125 240.34375 489.574219 237.617188 490.097656 C 236.585938 490.296875 235.59375 490.433594 234.644531 490.910156 C 234.480469 491 234.316406 491.089844 234.160156 491.183594 C 233.257812 491.703125 232.769531 492.527344 232.058594 493.289062 C 231.429688 493.96875 230.917969 495.800781 230.40625 496.574219 C 229.976562 497.21875 229.0625 496.769531 228.476562 497.617188 C 228.371094 501.078125 229.183594 504.730469 230.96875 507.578125 C 231.824219 508.867188 232.890625 509.949219 234.167969 510.820312 C 235.445312 511.691406 236.839844 512.285156 238.347656 512.609375 C 238.414062 513.453125 238.363281 514.292969 238.203125 515.125 C 238.007812 515.828125 237.644531 516.425781 237.105469 516.914062 C 237.464844 518.011719 240.5 518.59375 242.265625 520.964844 C 243.175781 518.488281 246.207031 517.242188 246.246094 516.195312 C 245.601562 515.875 245.101562 515.425781 244.910156 514.160156 C 244.824219 513.613281 244.746094 512.9375 244.679688 512.253906 C 246.039062 511.855469 247.304688 511.265625 248.480469 510.476562 C 250.578125 509.027344 252.589844 505.910156 253.164062 503.472656 C 253.972656 501.699219 254.039062 499.96875 253.511719 497.167969 C 253.261719 495.867188 252.855469 494.621094 252.296875 493.425781 Z M 195.566406 488.320312 C 194.710938 488.210938 190.15625 489.472656 189.320312 489.671875 C 185.523438 490.550781 185.039062 491.300781 183.433594 494.78125 C 181.828125 498.261719 181.660156 502.195312 182.46875 505.828125 C 183.082031 508.597656 184.375 511.414062 186.890625 512.820312 C 188.507812 513.734375 191.382812 513.339844 193.304688 513.066406 C 193.367188 513.382812 193.410156 513.699219 193.433594 514.015625 C 193.433594 514.355469 193.398438 514.691406 193.328125 515.027344 C 193.164062 515.507812 193.074219 516.003906 193.050781 516.511719 C 193.117188 517.578125 194.265625 518.339844 195.3125 518.296875 C 196.359375 518.25 197.339844 517.59375 198.050781 516.820312 C 198.59375 516.269531 199.011719 515.636719 199.316406 514.925781 C 199.402344 514.714844 199.445312 514.492188 199.449219 514.265625 C 199.441406 514.054688 199.398438 513.847656 199.328125 513.648438 L 199.164062 513.09375 C 198.960938 512.410156 198.925781 511.84375 198.71875 511.160156 C 200.183594 510.207031 202.65625 509.910156 203.355469 508.652344 C 204.511719 507.261719 203.800781 504.660156 204.144531 502.015625 C 204.289062 500.90625 204.3125 499.792969 204.21875 498.679688 C 204.128906 497.5625 203.917969 496.472656 203.59375 495.402344 C 203.269531 494.332031 202.839844 493.308594 202.296875 492.328125 C 201.757812 491.351562 201.121094 490.441406 200.386719 489.597656 C 199.144531 488.1875 197.511719 488.5625 195.574219 488.320312 Z M 195.566406 488.320312 " fill-opacity="1" fill-rule="nonzero"/><path fill="#000000" d="M 300.929688 498.65625 C 300.457031 497.660156 299.375 497.363281 298.351562 497.347656 C 297.824219 497.320312 297.339844 497.457031 296.898438 497.753906 C 296.480469 498.078125 296.226562 498.503906 296.136719 499.027344 L 296.085938 499.027344 C 295.625 499.027344 295.167969 499 294.710938 499.007812 C 294.683594 498.414062 294.4375 497.933594 293.976562 497.5625 C 293.503906 497.277344 292.992188 497.125 292.441406 497.105469 C 291.3125 496.964844 289.964844 496.921875 288.910156 497.414062 C 288.4375 497.644531 288.132812 498.011719 287.984375 498.515625 C 286.058594 498.484375 284.136719 498.449219 282.210938 498.375 C 281.777344 498.375 281.78125 499.03125 282.210938 499.046875 C 284.085938 499.117188 285.964844 499.15625 287.847656 499.183594 C 287.789062 499.910156 287.929688 500.59375 288.277344 501.238281 C 288.855469 502.234375 290.183594 502.402344 291.222656 502.390625 C 292.121094 502.390625 293.246094 502.332031 293.941406 501.6875 C 294.492188 501.183594 294.652344 500.398438 294.710938 499.675781 C 295.15625 499.675781 295.601562 499.675781 296.042969 499.675781 C 295.976562 500.578125 296.152344 501.566406 296.941406 502.082031 C 297.195312 502.226562 297.464844 502.320312 297.753906 502.367188 C 298.351562 502.492188 298.933594 502.4375 299.5 502.207031 C 299.828125 502.0625 300.113281 501.863281 300.363281 501.605469 C 300.609375 501.351562 300.800781 501.054688 300.933594 500.726562 C 301.070312 500.394531 301.136719 500.046875 301.132812 499.691406 C 301.132812 499.332031 301.066406 498.988281 300.929688 498.65625 Z M 293.582031 501.097656 C 293.128906 501.628906 292.285156 501.671875 291.648438 501.707031 C 290.808594 501.753906 289.539062 501.789062 288.949219 501.046875 C 288.625 500.550781 288.484375 500.007812 288.523438 499.417969 C 288.523438 498.921875 288.65625 498.320312 289.125 498.0625 C 289.90625 497.632812 290.992188 497.65625 291.855469 497.730469 C 292.320312 497.746094 292.777344 497.816406 293.226562 497.941406 C 293.898438 498.140625 294.074219 498.792969 294.058594 499.429688 C 294.078125 500.035156 293.917969 500.585938 293.582031 501.082031 Z M 298.132812 501.769531 C 297.917969 501.746094 297.707031 501.699219 297.503906 501.632812 L 297.425781 501.632812 C 297.417969 501.632812 297.410156 501.632812 297.40625 501.632812 C 297.1875 501.519531 297.019531 501.351562 296.90625 501.132812 C 296.699219 500.65625 296.632812 500.164062 296.714844 499.648438 C 296.722656 499.234375 296.847656 498.855469 297.09375 498.519531 C 297.371094 498.238281 297.707031 498.09375 298.097656 498.078125 C 298.472656 498.058594 298.84375 498.09375 299.207031 498.175781 C 299.726562 498.253906 300.105469 498.527344 300.34375 498.996094 C 300.425781 499.230469 300.46875 499.472656 300.464844 499.722656 C 300.460938 499.972656 300.414062 500.214844 300.324219 500.449219 C 300.234375 500.679688 300.109375 500.890625 299.945312 501.078125 C 299.777344 501.265625 299.585938 501.417969 299.367188 501.535156 C 298.976562 501.734375 298.566406 501.804688 298.132812 501.753906 Z M 193.410156 502.609375 C 193.835938 502.019531 194.414062 501.726562 195.140625 501.726562 C 195.875 501.710938 196.550781 501.910156 197.164062 502.320312 C 197.375 502.449219 197.164062 502.789062 196.96875 502.660156 C 196.617188 502.433594 196.234375 502.269531 195.828125 502.175781 C 196.007812 502.320312 196.140625 502.503906 196.234375 502.714844 C 196.367188 502.933594 196.421875 503.167969 196.394531 503.425781 C 196.371094 503.679688 196.273438 503.898438 196.097656 504.085938 C 195.863281 504.320312 195.582031 504.457031 195.253906 504.496094 C 195.085938 504.515625 194.921875 504.507812 194.757812 504.460938 C 194.308594 504.273438 194.054688 503.9375 194 503.453125 C 193.96875 503.050781 194.078125 502.691406 194.320312 502.375 C 194.347656 502.34375 194.375 502.3125 194.410156 502.289062 C 194.128906 502.390625 193.90625 502.566406 193.746094 502.820312 C 193.675781 502.933594 193.582031 502.953125 193.472656 502.882812 C 193.359375 502.8125 193.339844 502.722656 193.410156 502.609375 Z M 193.003906 508 C 192.890625 508.65625 192.191406 508.847656 191.628906 508.957031 C 191.066406 509.066406 190.359375 509.136719 189.882812 508.675781 C 189.699219 508.5 189.976562 508.222656 190.15625 508.398438 C 190.519531 508.753906 191.074219 508.671875 191.523438 508.582031 C 191.972656 508.492188 192.542969 508.402344 192.625 507.894531 C 192.671875 507.648438 193.042969 507.75 193.003906 508 Z M 191.523438 500.671875 C 191.523438 500.320312 191.609375 499.992188 191.777344 499.683594 C 191.960938 499.453125 192.191406 499.292969 192.472656 499.203125 C 193.457031 498.824219 194.476562 498.691406 195.523438 498.796875 C 196.277344 498.933594 196.960938 499.230469 197.574219 499.691406 C 197.609375 499.714844 197.625 499.746094 197.628906 499.785156 C 197.628906 499.886719 197.488281 499.914062 197.386719 499.90625 C 195.371094 499.691406 193.414062 499.949219 191.523438 500.6875 Z M 214.984375 516.476562 C 216.984375 519.324219 217.671875 523.195312 216.199219 526.339844 C 215.558594 527.585938 214.757812 528.722656 213.792969 529.742188 C 212.640625 525.222656 210.644531 520.667969 207.15625 516.714844 C 206.148438 515.5625 204.949219 514.671875 203.558594 514.039062 C 202.167969 513.410156 200.710938 513.097656 199.183594 513.101562 C 198.972656 512.417969 198.769531 511.738281 198.566406 511.066406 C 200.03125 510.109375 201.425781 508.859375 202.128906 507.601562 C 202.804688 506.789062 203.292969 505.875 203.589844 504.859375 C 203.671875 503.671875 203.671875 502.488281 203.589844 501.300781 C 203.589844 500.78125 203.46875 500.289062 203.234375 499.828125 C 202.644531 498.839844 201.304688 498.710938 200.167969 498.550781 C 197.402344 498.167969 194.925781 497.105469 192.742188 495.355469 C 192.917969 496.042969 193.097656 496.726562 193.269531 497.414062 C 192.863281 497.457031 192.457031 497.460938 192.046875 497.429688 C 191.640625 497.402344 191.238281 497.335938 190.84375 497.234375 C 190.445312 497.132812 190.0625 497 189.6875 496.828125 C 189.316406 496.660156 188.957031 496.460938 188.621094 496.230469 C 188.28125 496 187.964844 495.742188 187.671875 495.457031 C 187.378906 495.167969 187.113281 494.859375 186.871094 494.527344 C 186.632812 494.195312 186.421875 493.84375 186.242188 493.472656 C 186.066406 493.105469 185.917969 492.722656 185.808594 492.328125 C 185.808594 492.328125 184.441406 496.746094 183.058594 499.390625 C 182.898438 501.355469 183.03125 503.300781 183.464844 505.226562 C 184.078125 507.996094 185.371094 510.800781 187.878906 512.214844 C 189.617188 513.105469 191.449219 513.382812 193.371094 513.042969 C 193.414062 513.359375 193.433594 513.675781 193.433594 513.996094 C 191.386719 514.644531 189.449219 515.527344 187.617188 516.652344 C 184.167969 518.867188 181.300781 521.679688 179.011719 525.09375 C 178.601562 524 178.386719 522.871094 178.367188 521.703125 C 178.347656 520.539062 178.519531 519.402344 178.890625 518.296875 C 179.296875 517.15625 179.875 516.09375 180.273438 514.957031 C 180.667969 513.730469 180.867188 512.472656 180.867188 511.179688 C 180.867188 509.890625 180.667969 508.632812 180.273438 507.40625 C 179.914062 506.242188 179.417969 505.121094 179.171875 503.929688 C 178.945312 502.6875 178.914062 501.441406 179.074219 500.1875 C 179.503906 496.210938 180.917969 492.628906 183.3125 489.433594 C 184.820312 487.398438 188.105469 485.023438 191.851562 485.285156 C 193.332031 484.382812 194.9375 483.953125 196.667969 483.996094 C 199.175781 484.109375 201.417969 484.941406 203.390625 486.496094 C 204.898438 487.652344 206.136719 489.050781 207.105469 490.6875 C 208.078125 492.324219 208.707031 494.082031 208.996094 495.964844 C 209.464844 499.09375 208.910156 502.300781 209.28125 505.441406 C 209.632812 508.40625 210.710938 511.066406 212.519531 513.429688 C 213.308594 514.472656 214.226562 515.417969 214.984375 516.492188 Z M 199.648438 529.332031 C 199.199219 532.621094 198.796875 535.925781 198.296875 539.207031 C 198.109375 540.429688 196.796875 540.835938 195.824219 541.328125 C 195.214844 541.617188 194.621094 541.9375 194.046875 542.292969 C 193.75 542.460938 193.476562 542.664062 193.238281 542.910156 C 193.078125 543.125 193.070312 543.347656 193.210938 543.574219 C 193.316406 543.800781 192.984375 543.984375 192.878906 543.769531 C 192.691406 543.460938 192.667969 543.144531 192.804688 542.808594 C 193.050781 542.363281 193.773438 541.996094 194.191406 541.75 C 194.796875 541.394531 195.433594 541.09375 196.058594 540.773438 C 196.683594 540.457031 197.632812 540.125 197.847656 539.464844 C 198.035156 538.660156 198.15625 537.84375 198.207031 537.019531 C 198.320312 536.15625 198.441406 535.289062 198.5625 534.421875 C 198.796875 532.6875 199.035156 530.949219 199.277344 529.214844 C 199.308594 528.996094 199.679688 529.101562 199.648438 529.347656 Z M 210.148438 535.03125 C 209.863281 537.929688 208.929688 540.796875 207.074219 543.074219 C 206.226562 544.140625 205.210938 545.011719 204.027344 545.683594 C 202.84375 546.351562 201.574219 546.777344 200.226562 546.953125 C 199.980469 546.984375 199.984375 546.59375 200.226562 546.546875 C 201.523438 546.371094 202.742188 545.957031 203.878906 545.304688 C 205.015625 544.652344 205.992188 543.8125 206.804688 542.78125 C 208.578125 540.585938 209.488281 537.804688 209.761719 535.015625 C 209.785156 534.785156 210.171875 534.78125 210.148438 535.027344 Z M 187.699219 503.953125 C 187.472656 503.75 187.210938 503.601562 186.925781 503.5 C 187.046875 503.617188 187.140625 503.753906 187.203125 503.910156 C 187.324219 504.125 187.375 504.355469 187.359375 504.601562 C 187.34375 504.847656 187.265625 505.074219 187.121094 505.273438 C 186.914062 505.492188 186.664062 505.613281 186.363281 505.628906 C 186.207031 505.640625 186.054688 505.621094 185.910156 505.574219 C 185.488281 505.359375 185.242188 505.023438 185.167969 504.554688 C 185.117188 504.222656 185.195312 503.921875 185.40625 503.660156 C 185.242188 503.761719 185.117188 503.894531 185.027344 504.066406 C 184.964844 504.179688 184.878906 504.203125 184.765625 504.136719 C 184.65625 504.070312 184.632812 503.984375 184.695312 503.871094 C 184.800781 503.664062 184.953125 503.492188 185.148438 503.363281 C 185.410156 503.164062 185.707031 503.046875 186.039062 503.015625 C 186.78125 502.953125 187.429688 503.175781 187.980469 503.679688 C 188.167969 503.84375 187.894531 504.117188 187.699219 503.953125 Z M 281.703125 526.441406 C 281.628906 526.238281 281.945312 526.152344 282.023438 526.351562 C 283.300781 529.730469 283.835938 533.347656 285.492188 536.585938 C 285.589844 536.777344 285.304688 536.945312 285.203125 536.753906 C 283.558594 533.488281 283.015625 529.84375 281.726562 526.441406 Z M 288.433594 496.855469 C 288.433594 496.816406 288.445312 496.785156 288.476562 496.761719 C 288.972656 496.285156 289.550781 495.945312 290.210938 495.738281 C 291.132812 495.519531 292.058594 495.519531 292.980469 495.738281 C 293.242188 495.796875 293.46875 495.917969 293.65625 496.109375 C 293.839844 496.367188 293.949219 496.65625 293.988281 496.972656 C 292.21875 496.519531 290.445312 496.5 288.664062 496.917969 C 288.59375 496.957031 288.464844 496.941406 288.457031 496.855469 Z M 296.722656 497.183594 C 296.765625 496.882812 296.878906 496.609375 297.066406 496.371094 C 297.265625 496.214844 297.488281 496.117188 297.738281 496.082031 C 298.472656 495.964844 299.171875 496.078125 299.835938 496.417969 C 300.308594 496.625 300.375 496.867188 300.367188 497.078125 C 300.359375 497.289062 300.113281 497.242188 300.027344 497.210938 C 298.746094 496.796875 297.820312 497.109375 296.75 497.167969 Z M 192.34375 519.746094 C 191.402344 518.804688 191.246094 517.375 191.460938 516.117188 C 191.5 515.871094 191.863281 515.980469 191.832031 516.222656 C 191.621094 517.476562 191.832031 518.957031 192.941406 519.746094 C 194.054688 520.53125 195.5625 520.523438 196.800781 520.152344 C 199.417969 519.335938 200.988281 516.894531 201.632812 514.363281 C 201.675781 514.253906 201.753906 514.214844 201.867188 514.246094 C 201.976562 514.277344 202.023438 514.351562 202.007812 514.464844 C 201.28125 517.347656 199.34375 520.105469 196.273438 520.679688 C 194.949219 520.921875 193.34375 520.742188 192.34375 519.746094 Z M 185.367188 526.144531 C 184.265625 530.484375 184.058594 534.863281 184.75 539.289062 C 184.789062 539.53125 184.417969 539.636719 184.375 539.390625 C 183.671875 534.898438 183.875 530.449219 184.992188 526.042969 C 185.035156 525.933594 185.113281 525.894531 185.222656 525.925781 C 185.335938 525.957031 185.382812 526.027344 185.367188 526.144531 Z M 299.601562 499.328125 C 299.6875 499.503906 299.425781 499.65625 299.34375 499.480469 C 299.269531 499.351562 299.171875 499.25 299.042969 499.179688 C 299.210938 499.371094 299.285156 499.597656 299.261719 499.855469 C 299.222656 500.214844 299.046875 500.488281 298.730469 500.667969 C 298.621094 500.710938 298.503906 500.734375 298.386719 500.734375 C 298.15625 500.726562 297.957031 500.648438 297.789062 500.488281 C 297.527344 500.167969 297.488281 499.816406 297.667969 499.441406 C 297.714844 499.332031 297.78125 499.230469 297.863281 499.140625 C 297.648438 499.230469 297.453125 499.355469 297.289062 499.519531 C 297.148438 499.660156 296.933594 499.441406 297.078125 499.308594 C 297.476562 498.898438 297.964844 498.703125 298.535156 498.722656 C 298.789062 498.738281 299.023438 498.816406 299.238281 498.957031 C 299.390625 499.050781 299.511719 499.175781 299.601562 499.328125 Z M 285.238281 507.289062 C 287.003906 508.472656 288.921875 509.308594 290.992188 509.785156 C 291.011719 510.195312 291.039062 510.640625 291.089844 511.113281 C 291.101562 511.265625 291.132812 511.410156 291.179688 511.554688 C 291.007812 511.566406 290.832031 511.554688 290.664062 511.511719 C 289.675781 511.351562 288.789062 510.957031 288.003906 510.332031 C 286.910156 509.476562 285.988281 508.460938 285.238281 507.289062 Z M 283.65625 539.015625 C 283.65625 539.035156 283.65625 539.054688 283.65625 539.074219 L 283.777344 539.074219 L 283.984375 539.027344 C 284.550781 538.871094 285.003906 538.554688 285.351562 538.078125 C 285.371094 538.03125 285.402344 538 285.449219 537.984375 C 285.5 537.96875 285.546875 537.972656 285.589844 538 C 285.632812 538.023438 285.660156 538.0625 285.667969 538.113281 C 285.675781 538.160156 285.667969 538.207031 285.632812 538.246094 C 285.167969 538.890625 284.546875 539.273438 283.761719 539.390625 C 283.585938 539.414062 283.386719 539.390625 283.324219 539.203125 C 283.289062 539.039062 283.320312 538.890625 283.417969 538.753906 C 283.789062 538.121094 284.304688 537.632812 284.957031 537.296875 C 285.148438 537.199219 285.3125 537.488281 285.125 537.582031 C 284.828125 537.738281 284.558594 537.929688 284.3125 538.160156 C 284.101562 538.367188 283.914062 538.59375 283.757812 538.84375 C 283.71875 538.898438 283.683594 538.953125 283.65625 539.015625 Z M 300.414062 527.441406 C 300.628906 528.65625 300.734375 529.875 300.738281 531.105469 C 300.738281 531.296875 300.433594 531.296875 300.4375 531.105469 C 300.433594 529.855469 300.320312 528.609375 300.105469 527.378906 C 299.867188 525.84375 299.578125 524.316406 299.292969 522.789062 C 299.261719 522.597656 299.546875 522.515625 299.585938 522.707031 C 299.871094 524.289062 300.175781 525.859375 300.414062 527.441406 Z M 257.15625 497.316406 C 257.234375 497.4375 257.316406 497.550781 257.390625 497.664062 C 257.421875 500.359375 256.867188 503.3125 255.226562 505.648438 C 254.761719 506.339844 254.152344 506.851562 253.390625 507.179688 C 253.421875 507.226562 253.449219 507.273438 253.476562 507.324219 C 253.910156 508.101562 254.316406 509.007812 254.042969 509.851562 C 253.914062 510.207031 253.714844 510.515625 253.449219 510.78125 C 253.761719 511.386719 254.007812 512.0625 253.800781 512.703125 C 253.671875 513.046875 253.46875 513.34375 253.199219 513.59375 C 253.246094 513.644531 253.289062 513.699219 253.320312 513.761719 C 253.6875 514.421875 254.039062 515.195312 253.800781 515.917969 C 253.667969 516.269531 253.460938 516.574219 253.183594 516.824219 C 253.238281 516.878906 253.285156 516.9375 253.320312 517.007812 C 253.6875 517.671875 254.039062 518.441406 253.800781 519.167969 C 253.652344 519.542969 253.425781 519.863281 253.121094 520.132812 C 254.742188 522.515625 254.417969 524.203125 253.019531 525.996094 C 252.710938 526.375 252.320312 526.636719 251.847656 526.773438 C 251.320312 526.808594 251.621094 526.265625 251.394531 525.503906 C 251.167969 524.742188 250.429688 524.199219 250.386719 523.328125 C 250.324219 522.226562 250.917969 521.082031 251.601562 520.070312 C 251.519531 520.023438 251.445312 519.972656 251.375 519.90625 C 251.160156 519.6875 251.011719 519.429688 250.933594 519.132812 C 250.851562 518.835938 250.851562 518.535156 250.925781 518.238281 C 251.042969 517.785156 251.238281 517.363281 251.507812 516.980469 C 251.539062 516.929688 251.578125 516.878906 251.617188 516.832031 C 251.53125 516.785156 251.449219 516.726562 251.375 516.664062 C 251.160156 516.441406 251.011719 516.183594 250.933594 515.886719 C 250.851562 515.589844 250.851562 515.292969 250.925781 514.992188 C 251.042969 514.539062 251.238281 514.117188 251.507812 513.730469 C 251.535156 513.6875 251.566406 513.644531 251.601562 513.605469 C 251.519531 513.558594 251.445312 513.503906 251.375 513.441406 C 251.160156 513.222656 251.011719 512.964844 250.933594 512.667969 C 250.851562 512.371094 250.851562 512.070312 250.925781 511.773438 C 251.039062 511.332031 251.226562 510.925781 251.484375 510.550781 C 251.335938 510.484375 251.203125 510.394531 251.078125 510.285156 C 250.667969 509.851562 250.535156 509.347656 250.675781 508.769531 C 250.816406 508.234375 251.042969 507.742188 251.359375 507.292969 C 252.9375 502 252.136719 499.511719 251.863281 499.054688 C 251.230469 498 249.546875 497.761719 248.335938 497.597656 C 245.460938 497.191406 243.929688 495.949219 241.664062 494.128906 L 242.222656 496.324219 C 238.828125 496.761719 235.277344 494.398438 234.335938 491.0625 C 235.351562 490.472656 236.433594 490.058594 237.578125 489.820312 C 240.308594 489.335938 242.996094 489.507812 245.640625 490.339844 C 247.367188 490.835938 249.578125 492.035156 251.175781 492.839844 C 253.238281 493.878906 255.863281 495.40625 257.15625 497.324219 Z M 293.21875 547.390625 C 293.097656 547.683594 292.984375 548.160156 292.683594 548.296875 C 292.324219 548.378906 291.957031 548.398438 291.589844 548.359375 C 291.265625 548.359375 290.941406 548.359375 290.617188 548.359375 C 289.261719 548.292969 287.921875 548.113281 286.597656 547.820312 C 282.765625 547.007812 278.996094 545.296875 276.554688 542.121094 C 273.738281 538.457031 272.097656 534.125 270.683594 529.777344 C 270.613281 529.574219 270.933594 529.488281 271 529.695312 C 271.699219 532.011719 272.554688 534.269531 273.558594 536.472656 C 274.503906 538.515625 275.664062 540.429688 277.039062 542.207031 C 278.207031 543.636719 279.613281 544.765625 281.261719 545.589844 C 282.988281 546.460938 284.796875 547.097656 286.6875 547.5 C 287.820312 547.75 288.964844 547.914062 290.125 548 C 290.71875 548.042969 291.3125 548.050781 291.90625 548.027344 C 292.125 548.042969 292.347656 548.042969 292.566406 548.027344 C 292.703125 547.933594 292.84375 547.46875 292.898438 547.328125 C 292.957031 547.191406 293.308594 547.191406 293.226562 547.390625 Z M 294.839844 540.710938 C 294.875 541.035156 294.886719 541.359375 294.871094 541.6875 C 294.871094 541.796875 294.816406 541.851562 294.707031 541.851562 C 294.597656 541.851562 294.539062 541.796875 294.539062 541.6875 C 294.558594 541.40625 294.558594 541.125 294.539062 540.84375 C 291.625 540.183594 288.816406 539.207031 286.117188 537.921875 C 285.925781 537.832031 286.09375 537.542969 286.28125 537.636719 C 288.992188 538.925781 291.8125 539.894531 294.738281 540.550781 C 294.820312 540.578125 294.859375 540.636719 294.851562 540.726562 Z M 184.089844 501.421875 C 183.996094 501.457031 183.726562 501.546875 183.683594 501.304688 C 183.640625 501.058594 183.703125 500.792969 184.214844 500.519531 C 184.917969 500.082031 185.679688 499.890625 186.503906 499.953125 C 186.78125 499.96875 187.039062 500.054688 187.273438 500.207031 C 187.503906 500.460938 187.65625 500.753906 187.726562 501.085938 C 186.550781 501.109375 185.5 500.832031 184.089844 501.421875 Z M 292.867188 498.714844 C 292.976562 498.875 292.714844 499.027344 292.609375 498.867188 C 292.511719 498.730469 292.386719 498.625 292.234375 498.554688 C 292.40625 498.785156 292.492188 499.046875 292.480469 499.335938 C 292.460938 499.734375 292.269531 500.019531 291.910156 500.191406 C 291.777344 500.234375 291.644531 500.25 291.503906 500.242188 C 291.234375 500.222656 290.996094 500.121094 290.796875 499.9375 C 290.652344 499.792969 290.566406 499.621094 290.535156 499.417969 C 290.503906 499.21875 290.535156 499.023438 290.628906 498.84375 C 290.671875 498.734375 290.730469 498.628906 290.796875 498.53125 C 290.488281 498.625 290.203125 498.757812 289.9375 498.9375 C 289.777344 499.046875 289.625 498.789062 289.785156 498.675781 C 290.292969 498.316406 290.859375 498.125 291.484375 498.097656 C 292.054688 498.058594 292.515625 498.265625 292.867188 498.714844 Z M 295.886719 504.550781 L 295.839844 504.550781 C 295.375 504.640625 294.902344 504.679688 294.425781 504.667969 C 294.15625 504.679688 293.882812 504.660156 293.617188 504.609375 C 293.5625 504.59375 293.511719 504.609375 293.472656 504.648438 C 293.433594 504.6875 293.417969 504.734375 293.429688 504.792969 C 293.554688 505.402344 293.882812 505.867188 294.414062 506.1875 C 294.71875 506.34375 295.011719 506.324219 295.292969 506.136719 C 295.5 505.972656 295.648438 505.769531 295.746094 505.523438 C 295.859375 505.285156 295.945312 505.035156 296.007812 504.78125 C 296.007812 504.78125 296.007812 504.78125 296.007812 504.753906 C 296.007812 504.730469 296.007812 504.753906 296.007812 504.753906 L 296.007812 504.71875 C 296.007812 504.664062 295.988281 504.625 295.941406 504.597656 C 295.925781 504.578125 295.90625 504.5625 295.886719 504.550781 Z M 295.480469 505.398438 C 295.359375 505.65625 295.195312 505.945312 294.886719 505.980469 C 294.601562 505.988281 294.375 505.875 294.207031 505.644531 C 294.027344 505.4375 293.894531 505.203125 293.804688 504.941406 C 294.011719 504.964844 294.21875 504.972656 294.425781 504.972656 C 294.84375 504.972656 295.261719 504.941406 295.675781 504.878906 C 295.625 505.058594 295.558594 505.230469 295.480469 505.398438 Z M 237.246094 501.6875 C 237.410156 501.894531 237.121094 502.1875 236.957031 501.980469 C 236.75 501.726562 236.484375 501.566406 236.167969 501.492188 C 236.207031 501.511719 236.238281 501.535156 236.269531 501.5625 C 236.570312 501.867188 236.730469 502.234375 236.753906 502.664062 C 236.757812 503.183594 236.535156 503.570312 236.085938 503.832031 C 235.921875 503.894531 235.746094 503.929688 235.570312 503.933594 C 235.214844 503.933594 234.898438 503.824219 234.617188 503.605469 C 234.417969 503.433594 234.289062 503.214844 234.226562 502.957031 C 234.167969 502.699219 234.191406 502.445312 234.296875 502.203125 C 234.359375 501.964844 234.472656 501.753906 234.632812 501.566406 C 234.222656 501.722656 233.847656 501.941406 233.511719 502.222656 C 233.304688 502.386719 233.011719 502.097656 233.21875 501.929688 C 233.824219 501.398438 234.53125 501.09375 235.328125 501.011719 C 236.082031 500.90625 236.722656 501.132812 237.246094 501.6875 Z M 230.648438 520.074219 C 231.351562 521.089844 231.941406 522.234375 231.867188 523.332031 C 231.820312 524.203125 231.078125 524.746094 230.855469 525.507812 C 230.632812 526.269531 230.933594 526.8125 230.402344 526.777344 C 229.933594 526.640625 229.542969 526.382812 229.230469 526 C 227.832031 524.21875 227.492188 522.519531 229.128906 520.136719 C 228.824219 519.867188 228.597656 519.546875 228.449219 519.171875 C 228.214844 518.445312 228.5625 517.675781 228.933594 517.011719 C 228.964844 516.941406 229.011719 516.882812 229.070312 516.828125 C 228.789062 516.578125 228.582031 516.273438 228.449219 515.921875 C 228.214844 515.199219 228.5625 514.425781 228.933594 513.765625 C 228.964844 513.703125 229.003906 513.648438 229.054688 513.597656 C 228.78125 513.347656 228.582031 513.050781 228.449219 512.707031 C 228.242188 512.066406 228.488281 511.390625 228.800781 510.785156 C 228.539062 510.519531 228.34375 510.210938 228.21875 509.859375 C 227.941406 509.015625 228.347656 508.109375 228.78125 507.332031 L 228.8125 507.277344 C 227.679688 506.496094 226.515625 504.984375 226.195312 502.394531 C 226.148438 502.019531 226.125 501.65625 226.109375 501.296875 C 227.183594 499.382812 228.988281 496.898438 230.035156 495.316406 C 230.527344 494.527344 231.085938 493.789062 231.703125 493.097656 C 232.429688 492.339844 233.246094 491.703125 234.160156 491.191406 L 234.203125 491.167969 C 233.714844 492.574219 231.148438 499.78125 229.554688 500.53125 C 229.554688 500.53125 229.3125 503.246094 230.988281 507.449219 C 231.269531 507.859375 231.464844 508.300781 231.585938 508.78125 C 231.726562 509.359375 231.589844 509.867188 231.179688 510.296875 C 231.058594 510.40625 230.921875 510.496094 230.773438 510.5625 C 231.035156 510.9375 231.222656 511.34375 231.335938 511.785156 C 231.410156 512.085938 231.40625 512.382812 231.328125 512.679688 C 231.246094 512.976562 231.101562 513.234375 230.886719 513.453125 C 230.816406 513.515625 230.738281 513.570312 230.65625 513.617188 C 230.691406 513.65625 230.722656 513.699219 230.75 513.742188 C 231.019531 514.128906 231.214844 514.550781 231.335938 515.003906 C 231.410156 515.304688 231.40625 515.601562 231.328125 515.898438 C 231.246094 516.195312 231.097656 516.453125 230.886719 516.675781 C 230.808594 516.738281 230.730469 516.796875 230.640625 516.847656 C 230.683594 516.890625 230.71875 516.941406 230.75 516.992188 C 231.019531 517.375 231.214844 517.796875 231.335938 518.25 C 231.410156 518.546875 231.40625 518.847656 231.328125 519.144531 C 231.246094 519.441406 231.101562 519.699219 230.886719 519.917969 C 230.8125 519.980469 230.734375 520.03125 230.648438 520.074219 Z M 237.679688 498.5 C 237.902344 498.800781 238.039062 499.140625 238.085938 499.511719 C 235.988281 498.992188 233.890625 498.984375 231.789062 499.488281 C 231.683594 499.511719 231.523438 499.488281 231.511719 499.394531 C 231.511719 499.351562 231.53125 499.3125 231.5625 499.285156 C 232.144531 498.722656 232.820312 498.316406 233.585938 498.0625 C 234.679688 497.804688 235.773438 497.804688 236.867188 498.0625 C 237.183594 498.125 237.457031 498.273438 237.683594 498.507812 Z M 242.585938 507.21875 C 241.570312 507.636719 240.542969 507.671875 239.5 507.324219 C 239.410156 507.300781 239.339844 507.328125 239.285156 507.398438 C 239.230469 507.46875 239.226562 507.546875 239.269531 507.625 C 239.671875 508.347656 240.410156 509.089844 241.320312 508.988281 C 241.699219 508.917969 242.027344 508.753906 242.308594 508.488281 C 242.585938 508.222656 242.773438 507.898438 242.863281 507.523438 C 242.898438 507.480469 242.910156 507.429688 242.894531 507.375 C 242.882812 507.308594 242.84375 507.257812 242.78125 507.222656 C 242.71875 507.191406 242.652344 507.195312 242.589844 507.226562 Z M 241.28125 508.582031 C 240.6875 508.59375 240.230469 508.351562 239.910156 507.847656 C 240.109375 507.886719 240.308594 507.910156 240.511719 507.925781 C 241.128906 507.984375 241.734375 507.921875 242.328125 507.738281 C 242.136719 508.214844 241.789062 508.5 241.285156 508.589844 Z M 249.476562 499.261719 C 249.507812 499.292969 249.523438 499.328125 249.523438 499.375 C 249.523438 499.476562 249.351562 499.492188 249.25 499.472656 C 247.144531 498.96875 245.046875 498.980469 242.953125 499.507812 C 243 499.132812 243.132812 498.796875 243.355469 498.496094 C 243.582031 498.265625 243.851562 498.117188 244.167969 498.058594 C 245.257812 497.796875 246.351562 497.796875 247.441406 498.058594 C 248.214844 498.304688 248.890625 498.710938 249.480469 499.273438 Z M 248.257812 501.90625 C 248.464844 502.070312 248.175781 502.359375 247.96875 502.195312 C 247.632812 501.921875 247.261719 501.707031 246.859375 501.554688 C 247.023438 501.738281 247.136719 501.949219 247.199219 502.1875 C 247.304688 502.429688 247.328125 502.683594 247.269531 502.941406 C 247.210938 503.203125 247.082031 503.421875 246.882812 503.59375 C 246.601562 503.8125 246.285156 503.921875 245.929688 503.921875 C 245.75 503.917969 245.578125 503.882812 245.410156 503.820312 C 244.960938 503.5625 244.738281 503.171875 244.742188 502.65625 C 244.761719 502.226562 244.921875 501.859375 245.222656 501.554688 C 245.253906 501.527344 245.285156 501.5 245.320312 501.480469 C 245.003906 501.554688 244.742188 501.71875 244.535156 501.972656 C 244.375 502.179688 244.085938 501.886719 244.246094 501.675781 C 244.773438 501.125 245.410156 500.898438 246.164062 500.996094 C 246.957031 501.082031 247.65625 501.386719 248.257812 501.914062 Z M 248.257812 501.90625 " fill-opacity="1" fill-rule="nonzero"/></svg>