<svg width="384" height="486" viewBox="0 0 384 486" fill="none" xmlns="http://www.w3.org/2000/svg">
<g filter="url(#filter0_f_4301_1138)">
<path d="M12 25H371L366.5 243L372 461H12L16 243L12 25Z" fill="url(#paint0_linear_4301_1138)"/>
</g>
<path d="M380 477.25L369.414 477.25C368.95 477.25 368.505 477.434 368.177 477.763L360.763 485.177C360.716 485.224 360.652 485.25 360.586 485.25L24.4142 485.25C24.3479 485.25 24.2843 485.224 24.2374 485.177L16.8232 477.763C16.495 477.434 16.0499 477.25 15.5858 477.25L5 477.25C4.86194 477.25 4.75 477.138 4.75 477L4.75 458.414C4.75 458.191 5.01929 458.08 5.17676 458.237L7.17676 460.237C7.50498 460.566 7.95004 460.75 8.41422 460.75L106.764 460.75C107.036 460.75 107.304 460.687 107.547 460.565L115.124 456.776C115.159 456.759 115.197 456.75 115.236 456.75L374.586 456.75C375.05 456.75 375.495 456.566 375.823 456.237L379.823 452.237C379.981 452.08 380.25 452.191 380.25 452.414L380.25 477C380.25 477.138 380.138 477.25 380 477.25Z" fill="#030A17"/>
<path d="M380 477.25L369.414 477.25C368.95 477.25 368.505 477.434 368.177 477.763L360.763 485.177C360.716 485.224 360.652 485.25 360.586 485.25L24.4142 485.25C24.3479 485.25 24.2843 485.224 24.2374 485.177L16.8232 477.763C16.495 477.434 16.0499 477.25 15.5858 477.25L5 477.25C4.86194 477.25 4.75 477.138 4.75 477L4.75 458.414C4.75 458.191 5.01929 458.08 5.17676 458.237L7.17676 460.237C7.50498 460.566 7.95004 460.75 8.41422 460.75L106.764 460.75C107.036 460.75 107.304 460.687 107.547 460.565L115.124 456.776C115.159 456.759 115.197 456.75 115.236 456.75L374.586 456.75C375.05 456.75 375.495 456.566 375.823 456.237L379.823 452.237C379.981 452.08 380.25 452.191 380.25 452.414L380.25 477C380.25 477.138 380.138 477.25 380 477.25Z" fill="#00E0FF" fill-opacity="0.1"/>
<path d="M380 477.25L369.414 477.25C368.95 477.25 368.505 477.434 368.177 477.763L360.763 485.177C360.716 485.224 360.652 485.25 360.586 485.25L24.4142 485.25C24.3479 485.25 24.2843 485.224 24.2374 485.177L16.8232 477.763C16.495 477.434 16.0499 477.25 15.5858 477.25L5 477.25C4.86194 477.25 4.75 477.138 4.75 477L4.75 458.414C4.75 458.191 5.01929 458.08 5.17676 458.237L7.17676 460.237C7.50498 460.566 7.95004 460.75 8.41422 460.75L106.764 460.75C107.036 460.75 107.304 460.687 107.547 460.565L115.124 456.776C115.159 456.759 115.197 456.75 115.236 456.75L374.586 456.75C375.05 456.75 375.495 456.566 375.823 456.237L379.823 452.237C379.981 452.08 380.25 452.191 380.25 452.414L380.25 477C380.25 477.138 380.138 477.25 380 477.25Z" stroke="#00E0FF" stroke-width="1.5"/>
<path d="M5 8.75H15.5858C16.0499 8.75 16.495 8.56563 16.8232 8.23744L24.2374 0.823223C24.2843 0.776339 24.3479 0.75 24.4142 0.75H360.586C360.652 0.75 360.716 0.776326 360.763 0.823223L368.177 8.23744C368.505 8.56562 368.95 8.75 369.414 8.75H380C380.138 8.75 380.25 8.86193 380.25 9V27.5858C380.25 27.8085 379.981 27.92 379.823 27.7626L377.823 25.7626C377.495 25.4344 377.05 25.25 376.586 25.25H278.236C277.964 25.25 277.696 25.3132 277.453 25.4348L269.876 29.2236C269.841 29.241 269.803 29.25 269.764 29.25H10.4142C9.95008 29.25 9.50496 29.4344 9.17678 29.7626L5.17678 33.7626C5.01928 33.9201 4.75 33.8085 4.75 33.5858V9C4.75 8.86193 4.86193 8.75 5 8.75Z" fill="#030A17"/>
<path d="M5 8.75H15.5858C16.0499 8.75 16.495 8.56563 16.8232 8.23744L24.2374 0.823223C24.2843 0.776339 24.3479 0.75 24.4142 0.75H360.586C360.652 0.75 360.716 0.776326 360.763 0.823223L368.177 8.23744C368.505 8.56562 368.95 8.75 369.414 8.75H380C380.138 8.75 380.25 8.86193 380.25 9V27.5858C380.25 27.8085 379.981 27.92 379.823 27.7626L377.823 25.7626C377.495 25.4344 377.05 25.25 376.586 25.25H278.236C277.964 25.25 277.696 25.3132 277.453 25.4348L269.876 29.2236C269.841 29.241 269.803 29.25 269.764 29.25H10.4142C9.95008 29.25 9.50496 29.4344 9.17678 29.7626L5.17678 33.7626C5.01928 33.9201 4.75 33.8085 4.75 33.5858V9C4.75 8.86193 4.86193 8.75 5 8.75Z" fill="#00E0FF" fill-opacity="0.1"/>
<path d="M5 8.75H15.5858C16.0499 8.75 16.495 8.56563 16.8232 8.23744L24.2374 0.823223C24.2843 0.776339 24.3479 0.75 24.4142 0.75H360.586C360.652 0.75 360.716 0.776326 360.763 0.823223L368.177 8.23744C368.505 8.56562 368.95 8.75 369.414 8.75H380C380.138 8.75 380.25 8.86193 380.25 9V27.5858C380.25 27.8085 379.981 27.92 379.823 27.7626L377.823 25.7626C377.495 25.4344 377.05 25.25 376.586 25.25H278.236C277.964 25.25 277.696 25.3132 277.453 25.4348L269.876 29.2236C269.841 29.241 269.803 29.25 269.764 29.25H10.4142C9.95008 29.25 9.50496 29.4344 9.17678 29.7626L5.17678 33.7626C5.01928 33.9201 4.75 33.8085 4.75 33.5858V9C4.75 8.86193 4.86193 8.75 5 8.75Z" stroke="#00E0FF" stroke-width="1.5"/>
<defs>
<filter id="filter0_f_4301_1138" x="0" y="13" width="384" height="460" filterUnits="userSpaceOnUse" color-interpolation-filters="sRGB">
<feFlood flood-opacity="0" result="BackgroundImageFix"/>
<feBlend mode="normal" in="SourceGraphic" in2="BackgroundImageFix" result="shape"/>
<feGaussianBlur stdDeviation="6" result="effect1_foregroundBlur_4301_1138"/>
</filter>
<linearGradient id="paint0_linear_4301_1138" x1="191.5" y1="25" x2="191.5" y2="461" gradientUnits="userSpaceOnUse">
<stop stop-color="#00E0FF"/>
<stop offset="0.164" stop-color="#00E0FF" stop-opacity="0.15"/>
<stop offset="0.479" stop-color="#00E0FF" stop-opacity="0"/>
<stop offset="0.844" stop-color="#00E0FF" stop-opacity="0.15"/>
<stop offset="1" stop-color="#00E0FF"/>
</linearGradient>
</defs>
</svg>
