<svg xmlns="http://www.w3.org/2000/svg" width="40.959" height="40.959" fill-rule="evenodd" clip-rule="evenodd" image-rendering="optimizeQuality" shape-rendering="geometricPrecision" text-rendering="geometricPrecision" viewBox="0 0 1084 1084" id="instagram">
  <path fill="#ea4c89" d="M440 0h204c242 0 440 198 440 440v204c0 242-198 440-440 440H440C198 1084 0 886 0 644V440C0 198 198 0 440 0z"></path>
  <path fill="#fff" fill-rule="nonzero" d="M385 242h314c38 0 73 16 98 41 26 26 41 60 41 99v320c0 38-15 73-41 98-25 26-60 41-98 41H385c-39 0-73-15-99-41-25-25-40-60-40-98V382c0-39 15-73 40-99 26-25 60-41 99-41zm321 101c21 0 38 17 38 38 0 20-17 37-38 37s-37-17-37-37c0-21 16-38 37-38zm-164 58c39 0 74 16 100 41 25 26 41 61 41 100s-16 74-41 100c-26 25-61 41-100 41s-74-16-100-41c-25-26-41-61-41-100s16-74 41-100c26-25 61-41 100-41zm64 77c-17-16-39-26-64-26s-48 10-64 26-26 39-26 64 10 47 26 64c16 16 39 26 64 26s47-10 64-26c16-17 26-39 26-64s-10-48-26-64zm93-185H385c-25 0-47 10-63 26s-26 38-26 63v320c0 24 10 46 26 62s38 26 63 26h314c24 0 46-10 62-26s26-38 26-62V382c0-25-10-47-25-63h-1c-16-16-38-26-62-26z"></path>
</svg>
