<?xml version="1.0" encoding="utf-8"?>
<!-- Generator: Adobe Illustrator 27.5.0, SVG Export Plug-In . SVG Version: 6.00 Build 0)  -->
<svg version="1.1" xmlns="http://www.w3.org/2000/svg" xmlns:xlink="http://www.w3.org/1999/xlink" x="0px" y="0px"
	 viewBox="0 0 500 500" style="enable-background:new 0 0 500 500;" xml:space="preserve">
<g id="Background_Complete">
	<g>
		<rect x="416.779" y="398.494" style="fill:#EBEBEB;" width="33.122" height="0.25"/>
		<rect x="322.527" y="401.208" style="fill:#EBEBEB;" width="8.693" height="0.25"/>
		<rect x="396.586" y="389.208" style="fill:#EBEBEB;" width="19.192" height="0.25"/>
		<rect x="52.459" y="390.888" style="fill:#EBEBEB;" width="43.193" height="0.25"/>
		<rect x="104.556" y="390.888" style="fill:#EBEBEB;" width="6.333" height="0.25"/>
		<rect x="131.471" y="395.111" style="fill:#EBEBEB;" width="93.676" height="0.25"/>
		<path style="fill:#EBEBEB;" d="M237.014,337.8H43.915c-3.147,0-5.708-2.561-5.708-5.708V60.66c0-3.147,2.561-5.708,5.708-5.708
			h193.099c3.146,0,5.707,2.561,5.707,5.708v271.432C242.721,335.239,240.16,337.8,237.014,337.8z M43.915,55.203
			c-3.01,0-5.458,2.448-5.458,5.458v271.432c0,3.01,2.448,5.458,5.458,5.458h193.099c3.009,0,5.457-2.448,5.457-5.458V60.66
			c0-3.009-2.448-5.458-5.457-5.458H43.915z"/>
		<path style="fill:#EBEBEB;" d="M453.31,337.8H260.212c-3.147,0-5.707-2.561-5.707-5.708V60.66c0-3.147,2.561-5.708,5.707-5.708
			H453.31c3.148,0,5.708,2.561,5.708,5.708v271.432C459.019,335.239,456.458,337.8,453.31,337.8z M260.212,55.203
			c-3.009,0-5.457,2.448-5.457,5.458v271.432c0,3.01,2.448,5.458,5.457,5.458H453.31c3.01,0,5.458-2.448,5.458-5.458V60.66
			c0-3.009-2.448-5.458-5.458-5.458H260.212z"/>
		<rect y="382.398" style="fill:#EBEBEB;" width="500" height="0.25"/>
	</g>
	<g>
		<g>
			
				<rect x="99.843" y="100.607" transform="matrix(-1 -1.224647e-16 1.224647e-16 -1 278.1932 421.14)" style="fill:#FAFAFA;" width="78.506" height="219.925"/>
			<g>
				<polygon style="fill:#F5F5F5;" points="107.537,100.607 133.714,100.607 162.352,320.219 136.175,320.219 				"/>
			</g>
			<g>
				<path style="fill:#F0F0F0;" d="M95.928,96.474h86.536v227.549H95.928V96.474z M175.867,103.071h-73.342v214.356h73.342V103.071z
					"/>
			</g>
		</g>
		<g>
			
				<rect x="210.648" y="100.607" transform="matrix(-1 -1.224647e-16 1.224647e-16 -1 499.8013 421.14)" style="fill:#FAFAFA;" width="78.506" height="219.925"/>
			<g>
				<polygon style="fill:#F5F5F5;" points="218.341,100.607 244.518,100.607 273.156,320.219 246.979,320.219 				"/>
			</g>
			<g>
				<path style="fill:#F0F0F0;" d="M206.732,96.474h86.536v227.549h-86.536V96.474z M286.671,103.071h-73.342v214.356h73.342
					V103.071z"/>
			</g>
		</g>
		<g>
			
				<rect x="321.452" y="100.607" transform="matrix(-1 -1.224647e-16 1.224647e-16 -1 721.4093 421.14)" style="fill:#FAFAFA;" width="78.506" height="219.925"/>
			<g>
				<polygon style="fill:#F5F5F5;" points="329.145,100.607 355.322,100.607 383.961,320.219 357.783,320.219 				"/>
			</g>
			<g>
				<path style="fill:#F0F0F0;" d="M317.536,96.474h86.536v227.549h-86.536V96.474z M397.475,103.071h-73.342v214.356h73.342
					V103.071z"/>
			</g>
		</g>
	</g>
	<g>
		<g>
			<path style="fill:#F5F5F5;" d="M440.548,303.937c-8.328-4.616-13.391,2.285-13.54,2.493c2.348-4.182,4.93-7.536,7.387-10.183
				c0.471,6.153,12.367-2.904,12.367-2.904c-6.133-2.111-12.195,2.761-12.353,2.889c5.589-6.016,10.519-8.361,10.519-8.361
				c-15.886,6.7-22.982,21.402-26.145,33.76c-0.001-0.008-1.192-11.974-13.276-10.463c0,0,8.493,15.583,13.276,10.463
				c-2.813,10.992-2.513,20.13-2.513,20.13h2.377c0-8.385,1.088-15.565,2.806-21.714c5.039,2.23,16.242-5.925,16.242-5.925
				c-10.513-6.366-15.69,4.624-16.211,5.81c1.47-5.224,3.391-9.705,5.516-13.493C431.452,311.613,440.548,303.937,440.548,303.937z"
				/>
			<path style="fill:#F5F5F5;" d="M423.196,309.367c0,0-0.101-8.894-7.775-10.32C415.421,299.047,416.641,311.538,423.196,309.367z"
				/>
			<path style="fill:#F5F5F5;" d="M430.376,298.39c0,0,5.199-9.631,4.018-12.788C434.394,285.601,421.222,296.51,430.376,298.39z"/>
		</g>
		<g>
			<path style="fill:#EBEBEB;" d="M433.007,289.526c-10.948-3.716-15.506,5.623-15.64,5.904c1.902-5.504,4.263-10.069,6.627-13.763
				c1.892,7.25,14.15-6.141,14.15-6.141c-7.784-1.198-13.975,5.934-14.136,6.12c5.378-8.395,10.763-12.262,10.763-12.262
				c-17.534,11.438-22.838,30.537-23.946,45.987c-0.003-0.01-4.011-14.049-18.124-9.634c0,0,13.515,16.785,18.124,9.634
				c-0.986,13.742,1.346,24.595,1.346,24.595l2.84-0.513c-1.811-10.019-2.062-18.833-1.338-26.552
				c6.503,1.577,18.128-10.588,18.128-10.588c-13.937-5.335-17.748,8.914-18.114,10.444c0.627-6.56,1.955-12.329,3.676-17.314
				C423.797,300.662,433.007,289.526,433.007,289.526z"/>
			<path style="fill:#EBEBEB;" d="M413.446,299.763c0,0-2.042-10.605-11.519-10.651
				C401.928,289.111,406.083,303.773,413.446,299.763z"/>
			<path style="fill:#EBEBEB;" d="M419.654,285.095c0,0,4.131-12.63,2.039-16.148C421.693,268.947,408.311,284.826,419.654,285.095z
				"/>
		</g>
		<g>
			<path style="fill:#E0E0E0;" d="M376.483,290.536c11.897-6.593,19.128,3.264,19.342,3.561
				c-3.354-5.974-7.042-10.765-10.552-14.546c-0.673,8.79-17.666-4.148-17.666-4.148c8.76-3.016,17.421,3.944,17.646,4.127
				c-7.983-8.593-15.026-11.943-15.026-11.943c22.692,9.571,32.829,30.573,37.346,48.226c0.001-0.012,1.703-17.104,18.965-14.946
				c0,0-12.133,22.259-18.965,14.946c4.018,15.702,3.589,28.754,3.589,28.754h-3.395c0-11.978-1.555-22.234-4.008-31.018
				c-7.198,3.186-23.202-8.463-23.202-8.463c15.018-9.093,22.412,6.605,23.156,8.3c-2.099-7.463-4.843-13.863-7.88-19.274
				C389.476,301.501,376.483,290.536,376.483,290.536z"/>
			<path style="fill:#E0E0E0;" d="M401.27,298.293c0,0,0.144-12.705,11.105-14.742C412.376,283.552,410.633,301.395,401.27,298.293z
				"/>
			<path style="fill:#E0E0E0;" d="M391.014,282.612c0,0-7.426-13.757-5.74-18.268C385.274,264.345,404.089,279.927,391.014,282.612z
				"/>
		</g>
		<polygon style="fill:#EBEBEB;" points="424.683,382.648 400.5,382.648 395.893,335.237 429.29,335.237 		"/>
	</g>
</g>
<g id="Background_Simple" style="display:none;">
	<g style="display:inline;">
		<path style="fill:#407BFF;" d="M153.652,146.574c-29.172,16.261-116.364,61.359-96.344,131.681
			c20.863,73.285,79.865,74.112,152.788,50.094c68.099-22.429,71.5,55.694,163.613,25.355
			c77.991-25.687,100.276-157.536-21.778-218.636C277.826,97.972,186.624,128.194,153.652,146.574z"/>
		<path style="opacity:0.9;fill:#FFFFFF;" d="M153.652,146.574c-29.172,16.261-116.364,61.359-96.344,131.681
			c20.863,73.285,79.865,74.112,152.788,50.094c68.099-22.429,71.5,55.694,163.613,25.355
			c77.991-25.687,100.276-157.536-21.778-218.636C277.826,97.972,186.624,128.194,153.652,146.574z"/>
	</g>
</g>
<g id="Shadow">
	<ellipse id="_x3C_Path_x3E__1_" style="fill:#F5F5F5;" cx="245.178" cy="412.391" rx="193.889" ry="11.323"/>
</g>
<g id="Device">
	<g>
		<g>
			<path style="fill:#407BFF;" d="M126.828,409.652h96.292c10.833,0,18.846-8.782,17.898-19.614l-20.136-230.151
				c-0.948-10.833-10.498-19.614-21.33-19.614h-96.292c-10.833,0-18.846,8.782-17.898,19.614l20.136,230.151
				C106.446,400.871,115.996,409.652,126.828,409.652z"/>
			<path style="fill:#263238;" d="M131.828,409.652h96.292c10.833,0,18.846-8.782,17.898-19.614l-20.136-230.151
				c-0.948-10.833-10.498-19.614-21.33-19.614h-96.292c-10.833,0-18.846,8.782-17.898,19.614l20.136,230.151
				C111.446,400.871,120.996,409.652,131.828,409.652z"/>
			<g>
				<path style="fill:#407BFF;" d="M108.654,144.774h25.028c1.639,0,3.13,1.218,3.48,2.844l0.169,0.784
					c0.854,3.971,4.494,6.947,8.497,6.947h23.794c4.003,0,7.122-2.975,7.282-6.947l0.032-0.784c0.065-1.626,1.343-2.844,2.982-2.844
					h25.029c8.347,0,15.706,6.767,16.436,15.114l20.136,230.15c0.73,8.347-5.444,15.114-13.792,15.114h-96.292
					c-8.347,0-15.706-6.767-16.436-15.114l-20.135-230.15C94.132,151.54,100.307,144.774,108.654,144.774z"/>
				<path style="opacity:0.8;fill:#FFFFFF;" d="M108.654,144.774h25.028c1.639,0,3.13,1.218,3.48,2.844l0.169,0.784
					c0.854,3.971,4.494,6.947,8.497,6.947h23.794c4.003,0,7.122-2.975,7.282-6.947l0.032-0.784c0.065-1.626,1.343-2.844,2.982-2.844
					h25.029c8.347,0,15.706,6.767,16.436,15.114l20.136,230.15c0.73,8.347-5.444,15.114-13.792,15.114h-96.292
					c-8.347,0-15.706-6.767-16.436-15.114l-20.135-230.15C94.132,151.54,100.307,144.774,108.654,144.774z"/>
			</g>
			<g style="opacity:0.9;">
				<path d="M162.847,147.324c0.092,1.056,1.024,1.913,2.08,1.913c1.056,0,1.837-0.856,1.745-1.913
					c-0.092-1.056-1.024-1.913-2.08-1.913S162.755,146.268,162.847,147.324z"/>
				<path d="M149.12,145.411c0.756,0,5.802,0,6.558,0c1.056,0,1.987,0.856,2.08,1.913c0.092,1.056-0.689,1.913-1.745,1.913
					c-0.656,0-5.901,0-6.557,0c-1.056,0-1.988-0.856-2.08-1.913C147.282,146.267,148.064,145.411,149.12,145.411z"/>
			</g>
			<g>
				<polygon style="fill:#407BFF;" points="106.41,155.311 108.435,155.311 108.258,153.286 106.233,153.286 				"/>
				<polygon style="fill:#407BFF;" points="110.283,153.286 110.46,155.311 112.485,155.311 112.308,153.286 112.131,151.261 
					110.106,151.261 				"/>
				<polygon style="fill:#407BFF;" points="113.979,149.236 114.156,151.261 114.333,153.286 114.51,155.311 116.535,155.311 
					116.358,153.286 116.181,151.261 116.004,149.236 				"/>
			</g>
			<path style="fill:#407BFF;" d="M201.072,149.371l0.13,1.485h-0.99l0.26,2.97h0.99l0.13,1.485h8.91l-0.52-5.94H201.072z
				 M205.422,153.826h-2.97l-0.26-2.97h2.97L205.422,153.826z"/>
		</g>
		<g>
			<path style="fill:#263238;" d="M126.64,286.512h-13.722c-0.613,0-1.154-0.497-1.208-1.11l-0.019-0.222
				c-0.054-0.613,0.4-1.11,1.013-1.11h13.722c0.613,0,1.154,0.497,1.208,1.11l0.019,0.222
				C127.707,286.015,127.253,286.512,126.64,286.512z"/>
			<path style="fill:#263238;" d="M152.288,286.512h-21.303c-0.613,0-1.154-0.497-1.208-1.11l-0.019-0.222
				c-0.054-0.613,0.4-1.11,1.013-1.11h21.303c0.613,0,1.154,0.497,1.207,1.11l0.019,0.222
				C153.355,286.015,152.901,286.512,152.288,286.512z"/>
			<path style="fill:#263238;" d="M167.724,286.512h-11.44c-0.613,0-1.154-0.497-1.208-1.11l-0.019-0.222
				c-0.054-0.613,0.4-1.11,1.013-1.11h11.44c0.613,0,1.154,0.497,1.208,1.11l0.019,0.222
				C168.79,286.015,168.337,286.512,167.724,286.512z"/>
			<path style="fill:#263238;" d="M136.067,294.903h-22.415c-0.613,0-1.154-0.497-1.208-1.11l-0.02-0.222
				c-0.054-0.613,0.4-1.11,1.013-1.11h22.415c0.613,0,1.154,0.497,1.208,1.11l0.019,0.222
				C137.134,294.406,136.68,294.903,136.067,294.903z"/>
			<path style="fill:#263238;" d="M152.135,294.903h-11.723c-0.613,0-1.154-0.497-1.208-1.11l-0.019-0.222
				c-0.054-0.613,0.4-1.11,1.013-1.11h11.723c0.613,0,1.154,0.497,1.208,1.11l0.019,0.222
				C153.202,294.406,152.748,294.903,152.135,294.903z"/>
			<path style="fill:#263238;" d="M168.458,294.903H156.13c-0.613,0-1.154-0.497-1.208-1.11l-0.02-0.222
				c-0.054-0.613,0.4-1.11,1.013-1.11h12.328c0.613,0,1.154,0.497,1.208,1.11l0.019,0.222
				C169.525,294.406,169.071,294.903,168.458,294.903z"/>
			<path style="fill:#263238;" d="M131.343,303.295h-16.957c-0.613,0-1.154-0.497-1.208-1.11l-0.019-0.222
				c-0.054-0.613,0.4-1.11,1.013-1.11h16.957c0.613,0,1.154,0.497,1.207,1.11l0.019,0.222
				C132.409,302.798,131.956,303.295,131.343,303.295z"/>
			<path style="fill:#263238;" d="M150.871,303.295h-15.184c-0.613,0-1.154-0.497-1.208-1.11l-0.019-0.222
				c-0.054-0.613,0.4-1.11,1.013-1.11h15.184c0.613,0,1.154,0.497,1.208,1.11l0.019,0.222
				C151.938,302.798,151.484,303.295,150.871,303.295z"/>
			<path style="fill:#263238;" d="M169.192,303.295h-14.325c-0.613,0-1.154-0.497-1.208-1.11l-0.019-0.222
				c-0.054-0.613,0.4-1.11,1.013-1.11h14.325c0.613,0,1.154,0.497,1.208,1.11l0.019,0.222
				C170.259,302.798,169.805,303.295,169.192,303.295z"/>
			<path style="fill:#263238;" d="M129.904,311.686H115.12c-0.613,0-1.154-0.497-1.208-1.11l-0.019-0.222
				c-0.054-0.613,0.4-1.11,1.013-1.11h14.784c0.613,0,1.154,0.497,1.207,1.11l0.02,0.222
				C130.971,311.189,130.518,311.686,129.904,311.686z"/>
			<path style="fill:#263238;" d="M148.72,311.686h-14.471c-0.613,0-1.154-0.497-1.207-1.11l-0.02-0.222
				c-0.054-0.613,0.4-1.11,1.013-1.11h14.471c0.613,0,1.154,0.497,1.208,1.11l0.019,0.222
				C149.787,311.189,149.333,311.686,148.72,311.686z"/>
			<path style="fill:#263238;" d="M169.926,311.686h-17.21c-0.613,0-1.154-0.497-1.208-1.11l-0.02-0.222
				c-0.054-0.613,0.4-1.11,1.013-1.11h17.21c0.613,0,1.154,0.497,1.208,1.11l0.02,0.222
				C170.993,311.189,170.539,311.686,169.926,311.686z"/>
			<path style="fill:#263238;" d="M137.159,320.077h-21.305c-0.613,0-1.154-0.497-1.208-1.11l-0.02-0.222
				c-0.054-0.613,0.4-1.11,1.013-1.11h21.305c0.613,0,1.154,0.497,1.208,1.11l0.02,0.222
				C138.226,319.58,137.772,320.077,137.159,320.077z"/>
			<path style="fill:#263238;" d="M152.339,320.077h-10.836c-0.613,0-1.154-0.497-1.208-1.11l-0.019-0.222
				c-0.054-0.613,0.4-1.11,1.013-1.11h10.836c0.613,0,1.154,0.497,1.207,1.11l0.02,0.222
				C153.406,319.58,152.952,320.077,152.339,320.077z"/>
			<path style="fill:#263238;" d="M170.66,320.077h-14.325c-0.613,0-1.154-0.497-1.207-1.11l-0.019-0.222
				c-0.054-0.613,0.4-1.11,1.013-1.11h14.325c0.613,0,1.154,0.497,1.208,1.11l0.019,0.222
				C171.727,319.58,171.273,320.077,170.66,320.077z"/>
			<path style="fill:#263238;" d="M134.607,328.469h-18.019c-0.613,0-1.154-0.497-1.208-1.11l-0.019-0.222
				c-0.054-0.613,0.4-1.11,1.013-1.11h18.019c0.613,0,1.154,0.497,1.207,1.11l0.019,0.222
				C135.674,327.971,135.22,328.469,134.607,328.469z"/>
			<path style="fill:#263238;" d="M149.301,328.469h-10.349c-0.613,0-1.154-0.497-1.208-1.11l-0.019-0.222
				c-0.054-0.613,0.4-1.11,1.013-1.11h10.349c0.613,0,1.154,0.497,1.208,1.11l0.019,0.222
				C150.368,327.971,149.914,328.469,149.301,328.469z"/>
			<path style="fill:#263238;" d="M171.394,328.469h-18.098c-0.613,0-1.154-0.497-1.207-1.11l-0.019-0.222
				c-0.054-0.613,0.4-1.11,1.013-1.11h18.098c0.613,0,1.154,0.497,1.208,1.11l0.019,0.222
				C172.461,327.971,172.008,328.469,171.394,328.469z"/>
			<path style="fill:#263238;" d="M135.341,336.86h-18.018c-0.613,0-1.154-0.497-1.208-1.11l-0.02-0.222
				c-0.054-0.613,0.4-1.11,1.013-1.11h18.019c0.613,0,1.154,0.497,1.207,1.11l0.02,0.222
				C136.408,336.363,135.954,336.86,135.341,336.86z"/>
			<path style="fill:#263238;" d="M155.805,336.86h-16.12c-0.613,0-1.154-0.497-1.207-1.11l-0.02-0.222
				c-0.054-0.613,0.4-1.11,1.013-1.11h16.12c0.613,0,1.154,0.497,1.208,1.11l0.019,0.222
				C156.872,336.363,156.419,336.86,155.805,336.86z"/>
			<path style="fill:#263238;" d="M172.128,336.86h-12.328c-0.613,0-1.154-0.497-1.208-1.11l-0.02-0.222
				c-0.054-0.613,0.4-1.11,1.013-1.11h12.328c0.613,0,1.154,0.497,1.208,1.11l0.019,0.222
				C173.195,336.363,172.742,336.86,172.128,336.86z"/>
		</g>
		<g style="opacity:0.4;">
			<path style="fill:#FFFFFF;" d="M126.64,286.512h-13.722c-0.613,0-1.154-0.497-1.208-1.11l-0.019-0.222
				c-0.054-0.613,0.4-1.11,1.013-1.11h13.722c0.613,0,1.154,0.497,1.208,1.11l0.019,0.222
				C127.707,286.015,127.253,286.512,126.64,286.512z"/>
			<path style="fill:#FFFFFF;" d="M152.288,286.512h-21.303c-0.613,0-1.154-0.497-1.208-1.11l-0.019-0.222
				c-0.054-0.613,0.4-1.11,1.013-1.11h21.303c0.613,0,1.154,0.497,1.207,1.11l0.019,0.222
				C153.355,286.015,152.901,286.512,152.288,286.512z"/>
			<path style="fill:#FFFFFF;" d="M167.724,286.512h-11.44c-0.613,0-1.154-0.497-1.208-1.11l-0.019-0.222
				c-0.054-0.613,0.4-1.11,1.013-1.11h11.44c0.613,0,1.154,0.497,1.208,1.11l0.019,0.222
				C168.79,286.015,168.337,286.512,167.724,286.512z"/>
			<path style="fill:#FFFFFF;" d="M136.067,294.903h-22.415c-0.613,0-1.154-0.497-1.208-1.11l-0.02-0.222
				c-0.054-0.613,0.4-1.11,1.013-1.11h22.415c0.613,0,1.154,0.497,1.208,1.11l0.019,0.222
				C137.134,294.406,136.68,294.903,136.067,294.903z"/>
			<path style="fill:#FFFFFF;" d="M152.135,294.903h-11.723c-0.613,0-1.154-0.497-1.208-1.11l-0.019-0.222
				c-0.054-0.613,0.4-1.11,1.013-1.11h11.723c0.613,0,1.154,0.497,1.208,1.11l0.019,0.222
				C153.202,294.406,152.748,294.903,152.135,294.903z"/>
			<path style="fill:#FFFFFF;" d="M168.458,294.903H156.13c-0.613,0-1.154-0.497-1.208-1.11l-0.02-0.222
				c-0.054-0.613,0.4-1.11,1.013-1.11h12.328c0.613,0,1.154,0.497,1.208,1.11l0.019,0.222
				C169.525,294.406,169.071,294.903,168.458,294.903z"/>
			<path style="fill:#FFFFFF;" d="M131.343,303.295h-16.957c-0.613,0-1.154-0.497-1.208-1.11l-0.019-0.222
				c-0.054-0.613,0.4-1.11,1.013-1.11h16.957c0.613,0,1.154,0.497,1.207,1.11l0.019,0.222
				C132.409,302.798,131.956,303.295,131.343,303.295z"/>
			<path style="fill:#FFFFFF;" d="M150.871,303.295h-15.184c-0.613,0-1.154-0.497-1.208-1.11l-0.019-0.222
				c-0.054-0.613,0.4-1.11,1.013-1.11h15.184c0.613,0,1.154,0.497,1.208,1.11l0.019,0.222
				C151.938,302.798,151.484,303.295,150.871,303.295z"/>
			<path style="fill:#FFFFFF;" d="M169.192,303.295h-14.325c-0.613,0-1.154-0.497-1.208-1.11l-0.019-0.222
				c-0.054-0.613,0.4-1.11,1.013-1.11h14.325c0.613,0,1.154,0.497,1.208,1.11l0.019,0.222
				C170.259,302.798,169.805,303.295,169.192,303.295z"/>
			<path style="fill:#FFFFFF;" d="M129.904,311.686H115.12c-0.613,0-1.154-0.497-1.208-1.11l-0.019-0.222
				c-0.054-0.613,0.4-1.11,1.013-1.11h14.784c0.613,0,1.154,0.497,1.207,1.11l0.02,0.222
				C130.971,311.189,130.518,311.686,129.904,311.686z"/>
			<path style="fill:#FFFFFF;" d="M148.72,311.686h-14.471c-0.613,0-1.154-0.497-1.207-1.11l-0.02-0.222
				c-0.054-0.613,0.4-1.11,1.013-1.11h14.471c0.613,0,1.154,0.497,1.208,1.11l0.019,0.222
				C149.787,311.189,149.333,311.686,148.72,311.686z"/>
			<path style="fill:#FFFFFF;" d="M169.926,311.686h-17.21c-0.613,0-1.154-0.497-1.208-1.11l-0.02-0.222
				c-0.054-0.613,0.4-1.11,1.013-1.11h17.21c0.613,0,1.154,0.497,1.208,1.11l0.02,0.222
				C170.993,311.189,170.539,311.686,169.926,311.686z"/>
			<path style="fill:#FFFFFF;" d="M137.159,320.077h-21.305c-0.613,0-1.154-0.497-1.208-1.11l-0.02-0.222
				c-0.054-0.613,0.4-1.11,1.013-1.11h21.305c0.613,0,1.154,0.497,1.208,1.11l0.02,0.222
				C138.226,319.58,137.772,320.077,137.159,320.077z"/>
			<path style="fill:#FFFFFF;" d="M152.339,320.077h-10.836c-0.613,0-1.154-0.497-1.208-1.11l-0.019-0.222
				c-0.054-0.613,0.4-1.11,1.013-1.11h10.836c0.613,0,1.154,0.497,1.207,1.11l0.02,0.222
				C153.406,319.58,152.952,320.077,152.339,320.077z"/>
			<path style="fill:#FFFFFF;" d="M170.66,320.077h-14.325c-0.613,0-1.154-0.497-1.207-1.11l-0.019-0.222
				c-0.054-0.613,0.4-1.11,1.013-1.11h14.325c0.613,0,1.154,0.497,1.208,1.11l0.019,0.222
				C171.727,319.58,171.273,320.077,170.66,320.077z"/>
			<path style="fill:#FFFFFF;" d="M134.607,328.469h-18.019c-0.613,0-1.154-0.497-1.208-1.11l-0.019-0.222
				c-0.054-0.613,0.4-1.11,1.013-1.11h18.019c0.613,0,1.154,0.497,1.207,1.11l0.019,0.222
				C135.674,327.971,135.22,328.469,134.607,328.469z"/>
			<path style="fill:#FFFFFF;" d="M149.301,328.469h-10.349c-0.613,0-1.154-0.497-1.208-1.11l-0.019-0.222
				c-0.054-0.613,0.4-1.11,1.013-1.11h10.349c0.613,0,1.154,0.497,1.208,1.11l0.019,0.222
				C150.368,327.971,149.914,328.469,149.301,328.469z"/>
			<path style="fill:#FFFFFF;" d="M171.394,328.469h-18.098c-0.613,0-1.154-0.497-1.207-1.11l-0.019-0.222
				c-0.054-0.613,0.4-1.11,1.013-1.11h18.098c0.613,0,1.154,0.497,1.208,1.11l0.019,0.222
				C172.461,327.971,172.008,328.469,171.394,328.469z"/>
			<path style="fill:#FFFFFF;" d="M135.341,336.86h-18.018c-0.613,0-1.154-0.497-1.208-1.11l-0.02-0.222
				c-0.054-0.613,0.4-1.11,1.013-1.11h18.019c0.613,0,1.154,0.497,1.207,1.11l0.02,0.222
				C136.408,336.363,135.954,336.86,135.341,336.86z"/>
			<path style="fill:#FFFFFF;" d="M155.805,336.86h-16.12c-0.613,0-1.154-0.497-1.207-1.11l-0.02-0.222
				c-0.054-0.613,0.4-1.11,1.013-1.11h16.12c0.613,0,1.154,0.497,1.208,1.11l0.019,0.222
				C156.872,336.363,156.419,336.86,155.805,336.86z"/>
			<path style="fill:#FFFFFF;" d="M172.128,336.86h-12.328c-0.613,0-1.154-0.497-1.208-1.11l-0.02-0.222
				c-0.054-0.613,0.4-1.11,1.013-1.11h12.328c0.613,0,1.154,0.497,1.208,1.11l0.019,0.222
				C173.195,336.363,172.742,336.86,172.128,336.86z"/>
		</g>
		<path style="fill:#263238;" d="M232.098,349.607H118.438c-0.613,0-1.154-0.497-1.207-1.11l-0.019-0.222
			c-0.054-0.613,0.4-1.11,1.013-1.11h113.661c0.613,0,1.154,0.497,1.207,1.11l0.019,0.222
			C233.165,349.11,232.712,349.607,232.098,349.607z"/>
		<g>
			<path style="fill:#263238;" d="M147.578,363.133h-27.957c-0.613,0-1.154-0.497-1.208-1.11l-0.019-0.222
				c-0.054-0.613,0.4-1.11,1.013-1.11h27.957c0.613,0,1.154,0.497,1.208,1.11l0.019,0.222
				C148.645,362.635,148.191,363.133,147.578,363.133z"/>
			<path style="fill:#263238;" d="M146.14,371.524h-25.784c-0.613,0-1.154-0.497-1.208-1.11l-0.019-0.222
				c-0.054-0.613,0.4-1.11,1.013-1.11h25.784c0.613,0,1.154,0.497,1.208,1.11l0.019,0.222
				C147.206,371.027,146.753,371.524,146.14,371.524z"/>
			<path style="fill:#263238;" d="M143.394,379.915h-22.305c-0.613,0-1.154-0.497-1.208-1.11l-0.019-0.222
				c-0.054-0.613,0.4-1.11,1.013-1.11h22.305c0.613,0,1.154,0.497,1.208,1.11l0.019,0.222
				C144.461,379.418,144.007,379.915,143.394,379.915z"/>
			<path style="fill:#263238;" d="M140.842,388.306h-19.018c-0.613,0-1.154-0.497-1.208-1.11l-0.019-0.222
				c-0.054-0.613,0.4-1.11,1.013-1.11h19.018c0.613,0,1.154,0.497,1.208,1.11l0.02,0.222
				C141.909,387.809,141.455,388.306,140.842,388.306z"/>
			<path style="fill:#263238;" d="M228.934,363.133h-27.957c-0.613,0-1.154-0.497-1.208-1.11l-0.019-0.222
				c-0.054-0.613,0.4-1.11,1.013-1.11h27.957c0.613,0,1.154,0.497,1.208,1.11l0.019,0.222
				C230,362.635,229.547,363.133,228.934,363.133z"/>
			<path style="fill:#263238;" d="M224.495,371.524h-22.784c-0.613,0-1.154-0.497-1.208-1.11l-0.019-0.222
				c-0.054-0.613,0.4-1.11,1.013-1.11h22.784c0.613,0,1.154,0.497,1.208,1.11l0.02,0.222
				C225.562,371.027,225.109,371.524,224.495,371.524z"/>
			<path style="fill:#263238;" d="M224.75,379.915h-22.305c-0.613,0-1.154-0.497-1.208-1.11l-0.019-0.222
				c-0.054-0.613,0.4-1.11,1.013-1.11h22.305c0.613,0,1.154,0.497,1.208,1.11l0.02,0.222
				C225.817,379.418,225.363,379.915,224.75,379.915z"/>
			<path style="fill:#263238;" d="M227.198,388.306h-24.019c-0.613,0-1.154-0.497-1.208-1.11l-0.019-0.222
				c-0.054-0.613,0.4-1.11,1.013-1.11h24.019c0.613,0,1.154,0.497,1.207,1.11l0.019,0.222
				C228.265,387.809,227.811,388.306,227.198,388.306z"/>
			<path style="fill:#263238;" d="M187.708,363.133h-27.957c-0.613,0-1.154-0.497-1.208-1.11l-0.019-0.222
				c-0.054-0.613,0.4-1.11,1.013-1.11h27.957c0.613,0,1.154,0.497,1.208,1.11l0.019,0.222
				C188.775,362.635,188.322,363.133,187.708,363.133z"/>
			<path style="fill:#263238;" d="M190.27,371.524h-29.784c-0.613,0-1.154-0.497-1.208-1.11l-0.02-0.222
				c-0.054-0.613,0.4-1.11,1.013-1.11h29.784c0.613,0,1.154,0.497,1.208,1.11l0.019,0.222
				C191.337,371.027,190.884,371.524,190.27,371.524z"/>
			<path style="fill:#263238;" d="M187.525,379.915H161.22c-0.613,0-1.154-0.497-1.208-1.11l-0.019-0.222
				c-0.054-0.613,0.4-1.11,1.013-1.11h26.305c0.613,0,1.154,0.497,1.208,1.11l0.019,0.222
				C188.592,379.418,188.138,379.915,187.525,379.915z"/>
			<path style="fill:#263238;" d="M184.973,388.306h-23.018c-0.613,0-1.154-0.497-1.208-1.11l-0.02-0.222
				c-0.054-0.613,0.4-1.11,1.013-1.11h23.018c0.613,0,1.154,0.497,1.208,1.11l0.019,0.222
				C186.04,387.809,185.586,388.306,184.973,388.306z"/>
		</g>
		<g style="opacity:0.4;">
			<path style="fill:#FFFFFF;" d="M147.578,363.133h-27.957c-0.613,0-1.154-0.497-1.208-1.11l-0.019-0.222
				c-0.054-0.613,0.4-1.11,1.013-1.11h27.957c0.613,0,1.154,0.497,1.208,1.11l0.019,0.222
				C148.645,362.635,148.191,363.133,147.578,363.133z"/>
			<path style="fill:#FFFFFF;" d="M146.14,371.524h-25.784c-0.613,0-1.154-0.497-1.208-1.11l-0.019-0.222
				c-0.054-0.613,0.4-1.11,1.013-1.11h25.784c0.613,0,1.154,0.497,1.208,1.11l0.019,0.222
				C147.206,371.027,146.753,371.524,146.14,371.524z"/>
			<path style="fill:#FFFFFF;" d="M143.394,379.915h-22.305c-0.613,0-1.154-0.497-1.208-1.11l-0.019-0.222
				c-0.054-0.613,0.4-1.11,1.013-1.11h22.305c0.613,0,1.154,0.497,1.208,1.11l0.019,0.222
				C144.461,379.418,144.007,379.915,143.394,379.915z"/>
			<path style="fill:#FFFFFF;" d="M140.842,388.306h-19.018c-0.613,0-1.154-0.497-1.208-1.11l-0.019-0.222
				c-0.054-0.613,0.4-1.11,1.013-1.11h19.018c0.613,0,1.154,0.497,1.208,1.11l0.02,0.222
				C141.909,387.809,141.455,388.306,140.842,388.306z"/>
			<path style="fill:#FFFFFF;" d="M228.934,363.133h-27.957c-0.613,0-1.154-0.497-1.208-1.11l-0.019-0.222
				c-0.054-0.613,0.4-1.11,1.013-1.11h27.957c0.613,0,1.154,0.497,1.208,1.11l0.019,0.222
				C230,362.635,229.547,363.133,228.934,363.133z"/>
			<path style="fill:#FFFFFF;" d="M224.495,371.524h-22.784c-0.613,0-1.154-0.497-1.208-1.11l-0.019-0.222
				c-0.054-0.613,0.4-1.11,1.013-1.11h22.784c0.613,0,1.154,0.497,1.208,1.11l0.02,0.222
				C225.562,371.027,225.109,371.524,224.495,371.524z"/>
			<path style="fill:#FFFFFF;" d="M224.75,379.915h-22.305c-0.613,0-1.154-0.497-1.208-1.11l-0.019-0.222
				c-0.054-0.613,0.4-1.11,1.013-1.11h22.305c0.613,0,1.154,0.497,1.208,1.11l0.02,0.222
				C225.817,379.418,225.363,379.915,224.75,379.915z"/>
			<path style="fill:#FFFFFF;" d="M227.198,388.306h-24.019c-0.613,0-1.154-0.497-1.208-1.11l-0.019-0.222
				c-0.054-0.613,0.4-1.11,1.013-1.11h24.019c0.613,0,1.154,0.497,1.207,1.11l0.019,0.222
				C228.265,387.809,227.811,388.306,227.198,388.306z"/>
			<path style="fill:#FFFFFF;" d="M187.708,363.133h-27.957c-0.613,0-1.154-0.497-1.208-1.11l-0.019-0.222
				c-0.054-0.613,0.4-1.11,1.013-1.11h27.957c0.613,0,1.154,0.497,1.208,1.11l0.019,0.222
				C188.775,362.635,188.322,363.133,187.708,363.133z"/>
			<path style="fill:#FFFFFF;" d="M190.27,371.524h-29.784c-0.613,0-1.154-0.497-1.208-1.11l-0.02-0.222
				c-0.054-0.613,0.4-1.11,1.013-1.11h29.784c0.613,0,1.154,0.497,1.208,1.11l0.019,0.222
				C191.337,371.027,190.884,371.524,190.27,371.524z"/>
			<path style="fill:#FFFFFF;" d="M187.525,379.915H161.22c-0.613,0-1.154-0.497-1.208-1.11l-0.019-0.222
				c-0.054-0.613,0.4-1.11,1.013-1.11h26.305c0.613,0,1.154,0.497,1.208,1.11l0.019,0.222
				C188.592,379.418,188.138,379.915,187.525,379.915z"/>
			<path style="fill:#FFFFFF;" d="M184.973,388.306h-23.018c-0.613,0-1.154-0.497-1.208-1.11l-0.02-0.222
				c-0.054-0.613,0.4-1.11,1.013-1.11h23.018c0.613,0,1.154,0.497,1.208,1.11l0.019,0.222
				C186.04,387.809,185.586,388.306,184.973,388.306z"/>
		</g>
		<g>
			<polygon style="fill:#407BFF;" points="189.538,336.86 182.538,336.86 178.654,292.461 185.654,292.461 			"/>
			<polygon style="fill:#263238;" points="203.538,336.86 196.538,336.86 191.94,284.297 198.94,284.297 			"/>
			<polygon style="fill:#407BFF;" points="217.538,336.86 210.538,336.86 207.95,307.274 214.95,307.274 			"/>
			<polygon style="fill:#263238;" points="231.538,336.86 224.538,336.86 222.963,318.856 229.963,318.856 			"/>
		</g>
		<g>
			<polygon style="opacity:0.6;fill:#FFFFFF;" points="104.132,265.842 230.652,265.842 224.28,193.001 97.759,193.001 			"/>
			<polygon style="fill:#407BFF;" points="138.365,225.147 103.878,262.94 104.132,265.842 182.62,265.842 			"/>
			<polygon style="opacity:0.3;fill:#FFFFFF;" points="138.365,225.147 103.878,262.94 104.132,265.842 182.62,265.842 			"/>
			<polygon style="fill:#407BFF;" points="157.965,265.842 230.652,265.842 226.993,224.015 210.213,208.585 			"/>
			<polygon style="opacity:0.5;fill:#FFFFFF;" points="157.965,265.842 230.652,265.842 226.993,224.015 210.213,208.585 			"/>
			<path style="opacity:0.9;fill:#FFFFFF;" d="M168.414,208.94c0.435,4.97-3.242,9-8.213,9c-4.971,0-9.352-4.03-9.787-9
				c-0.435-4.971,3.242-9,8.213-9C163.597,199.94,167.979,203.97,168.414,208.94z"/>
			<g>
				<path style="fill:#407BFF;" d="M209.91,243.001c0.489,5.583-1.951,10.109-5.449,10.109s-6.729-4.526-7.218-10.109
					c-0.488-5.583,1.288-17.69,4.786-17.69S209.422,237.418,209.91,243.001z"/>
				<path style="fill:#263238;" d="M207.38,239.564l-0.769-0.707l-2.415,2.647l-0.45-5.144c-0.036-0.414-0.402-0.75-0.816-0.75l0,0
					c-0.414,0-0.721,0.336-0.684,0.75l1.018,11.636l-3.549-2.926l-0.599,0.747l4.265,3.516l1.43,16.346h1.5l-1.991-22.761
					L207.38,239.564z"/>
			</g>
			<g>
				<path style="fill:#407BFF;" d="M192.887,249.595c0.346,3.96-1.384,7.169-3.865,7.169s-4.773-3.21-5.119-7.169
					c-0.346-3.959,0.913-12.546,3.394-12.546C189.779,237.049,192.541,245.636,192.887,249.595z"/>
				<path style="fill:#263238;" d="M191.092,247.157l-0.545-0.501l-1.713,1.877l-0.319-3.648c-0.026-0.294-0.285-0.532-0.579-0.532
					l0,0c-0.294,0-0.511,0.238-0.485,0.532l0.722,8.253l-2.517-2.075l-0.425,0.53l3.025,2.494l1.014,11.593h1.064l-1.412-16.143
					L191.092,247.157z"/>
			</g>
			<path style="opacity:0.9;fill:#FFFFFF;" d="M130.185,217.547c-0.829-2.464-3.2-4.298-5.854-4.298
				c-0.307,0-0.599,0.043-0.889,0.09c-1.315-1.25-3.069-2.033-4.943-2.033c-3.242,0-5.727,2.329-6.037,5.402
				c-0.564-0.26-1.177-0.417-1.817-0.417c-2.287,0-3.979,1.854-3.779,4.141c0.2,2.287,2.216,4.141,4.503,4.141
				c1.507,0,18.168,0,19.008,0c1.952,0,3.396-1.583,3.225-3.535C133.444,219.232,131.954,217.758,130.185,217.547z"/>
			<path style="opacity:0.9;fill:#FFFFFF;" d="M186.035,224.303c-0.571-1.698-2.205-2.962-4.034-2.962
				c-0.212,0-0.413,0.03-0.613,0.062c-0.906-0.861-2.115-1.401-3.406-1.401c-2.234,0-3.947,1.605-4.16,3.723
				c-0.389-0.179-0.811-0.287-1.252-0.287c-1.576,0-2.742,1.277-2.604,2.853c0.138,1.576,1.527,2.853,3.103,2.853
				c1.039,0,12.519,0,13.098,0c1.345,0,2.34-1.09,2.223-2.436C188.281,225.464,187.254,224.449,186.035,224.303z"/>
			<path style="opacity:0.9;fill:#FFFFFF;" d="M184.499,201.496c2.545,0,4.861,1.534,6.013,3.724
				c0.776-0.663,1.782-1.075,2.931-1.075c2.359,0,4.473,1.671,5.128,3.893c0.435-0.26,0.943-0.42,1.507-0.42
				c1.741,0,3.277,1.412,3.429,3.153c0.152,1.741-1.136,3.153-2.877,3.153c-1.176,0-13.174,0-15.043,0
				c-3.432,0-6.458-2.782-6.758-6.214C178.529,204.278,181.067,201.496,184.499,201.496z"/>
		</g>
		<g>
			<path style="opacity:0.9;fill:#FFFFFF;" d="M201.853,176.394l0.431,4.926c0.231,2.644,2.562,4.787,5.206,4.787h6.072
				c2.644,0,4.6-2.143,4.368-4.787l-0.431-4.926c-0.231-2.644-2.562-4.787-5.206-4.787h-6.072
				C203.577,171.607,201.622,173.75,201.853,176.394z"/>
			<g>
				<path style="fill:#407BFF;" d="M204.67,175.607L204.67,175.607c0.036,0.414,0.401,0.75,0.816,0.75h8.375
					c0.414,0,0.721-0.336,0.684-0.75l0,0c-0.036-0.414-0.401-0.75-0.816-0.75h-8.375C204.94,174.857,204.634,175.193,204.67,175.607
					z"/>
				<path style="fill:#407BFF;" d="M205.77,179.607h8.375c0.414,0,0.721-0.336,0.684-0.75l0,0c-0.036-0.414-0.401-0.75-0.816-0.75
					h-8.375c-0.414,0-0.721,0.336-0.684,0.75l0,0C204.99,179.271,205.356,179.607,205.77,179.607z"/>
				<path style="fill:#407BFF;" d="M206.054,182.857h8.375c0.414,0,0.721-0.336,0.684-0.75l0,0c-0.036-0.414-0.401-0.75-0.816-0.75
					h-8.375c-0.414,0-0.721,0.336-0.684,0.75l0,0C205.275,182.521,205.64,182.857,206.054,182.857z"/>
			</g>
		</g>
		<g>
			<path style="opacity:0.9;fill:#FFFFFF;" d="M188.831,171.607h-79.826c-4.004,0-6.966,3.246-6.616,7.25l0,0
				c0.35,4.004,3.88,7.25,7.884,7.25h79.826c4.004,0,6.966-3.246,6.616-7.25l0,0C196.365,174.853,192.835,171.607,188.831,171.607z"
				/>
			<path style="fill:#407BFF;" d="M155.501,183.027l-2.994-2.753c-0.196-0.18-0.437-0.268-0.674-0.282
				c1.082-1.735,0.721-4.158-0.97-5.713c-1.885-1.734-4.707-1.734-6.289,0c-1.582,1.734-1.335,4.555,0.55,6.289
				c1.691,1.555,4.126,1.704,5.754,0.47c0.035,0.236,0.142,0.469,0.338,0.649l2.994,2.754c0.425,0.391,1.058,0.391,1.414,0
				C155.982,184.051,155.926,183.418,155.501,183.027z M149.875,179.154c-0.871,0.954-2.423,0.954-3.461,0
				c-1.038-0.954-1.173-2.507-0.303-3.461c0.871-0.954,2.423-0.954,3.461,0C150.61,176.648,150.746,178.2,149.875,179.154z"/>
		</g>
	</g>
</g>
<g id="Graphic_3">
	<g>
		<circle style="fill:#407BFF;" cx="271.948" cy="322.026" r="27.417"/>
		<circle style="opacity:0.9;fill:#FFFFFF;" cx="271.948" cy="322.026" r="27.417"/>
		<circle style="fill:#407BFF;" cx="271.948" cy="322.026" r="20.866"/>
		<circle style="opacity:0.5;fill:#FFFFFF;" cx="271.948" cy="322.026" r="20.866"/>
		<g>
			<path style="fill:#407BFF;" d="M271.949,351.443c-16.221,0-29.417-13.196-29.417-29.417c0-16.221,13.196-29.417,29.417-29.417
				c16.22,0,29.417,13.196,29.417,29.417C301.365,338.246,288.169,351.443,271.949,351.443z M297.365,322.026
				c0-14.015-11.402-25.417-25.417-25.417c-14.015,0-25.417,11.402-25.417,25.417c0,14.015,11.402,25.417,25.417,25.417
				C285.963,347.443,297.365,336.041,297.365,322.026"/>
		</g>
		<g>
			<g>
				<path style="fill:#407BFF;" d="M271.948,341.276L271.948,341.276c-0.829,0-1.5-0.672-1.5-1.5v-0.854c0-0.828,0.672-1.5,1.5-1.5
					h0c0.828,0,1.5,0.672,1.5,1.5v0.854C273.448,340.604,272.777,341.276,271.948,341.276z"/>
			</g>
			<g>
				<path style="fill:#407BFF;" d="M271.948,306.569L271.948,306.569c-0.829,0-1.5-0.672-1.5-1.5v-0.794c0-0.828,0.672-1.5,1.5-1.5
					h0c0.828,0,1.5,0.671,1.5,1.5v0.794C273.448,305.898,272.777,306.569,271.948,306.569z"/>
			</g>
			<g>
				<path style="fill:#407BFF;" d="M255.053,323.526h-0.855c-0.828,0-1.5-0.672-1.5-1.5v0c0-0.828,0.672-1.5,1.5-1.5h0.855
					c0.828,0,1.5,0.671,1.5,1.5v0C256.553,322.854,255.881,323.526,255.053,323.526z"/>
			</g>
			<g>
				<path style="fill:#407BFF;" d="M289.698,323.526h-0.855c-0.828,0-1.5-0.672-1.5-1.5v0c0-0.828,0.672-1.5,1.5-1.5h0.855
					c0.828,0,1.5,0.671,1.5,1.5v0C291.198,322.854,290.527,323.526,289.698,323.526z"/>
			</g>
			<g>
				<path style="fill:#407BFF;" d="M258.337,335.638L258.337,335.638c-0.586-0.586-0.586-1.535,0-2.121l0.604-0.604
					c0.586-0.586,1.535-0.586,2.121,0l0,0c0.586,0.586,0.586,1.535,0,2.121l-0.604,0.604
					C259.872,336.223,258.922,336.223,258.337,335.638z"/>
			</g>
			<g>
				<path style="fill:#407BFF;" d="M282.835,311.14L282.835,311.14c-0.586-0.586-0.586-1.535,0-2.121l0.604-0.604
					c0.586-0.586,1.535-0.586,2.121,0l0,0c0.586,0.586,0.586,1.535,0,2.121l-0.605,0.605
					C284.37,311.725,283.42,311.725,282.835,311.14z"/>
			</g>
			<g>
				<path style="fill:#407BFF;" d="M258.941,311.14l-0.604-0.605c-0.586-0.586-0.586-1.535,0-2.121l0,0
					c0.586-0.586,1.535-0.586,2.121,0l0.604,0.604c0.586,0.586,0.586,1.535,0,2.121l0,0
					C260.476,311.725,259.527,311.725,258.941,311.14z"/>
			</g>
			<g>
				<path style="fill:#407BFF;" d="M283.439,335.638l-0.6-0.6c-0.586-0.586-0.586-1.535,0-2.121l0,0
					c0.586-0.586,1.535-0.586,2.121,0l0.6,0.6c0.586,0.586,0.586,1.535,0,2.121l0,0
					C284.974,336.223,284.025,336.223,283.439,335.638z"/>
			</g>
		</g>
		<path style="fill:#263238;" d="M281.305,321.581c0.506-0.217,0.423-0.954-0.119-1.053c-2.845-0.519-8.211-1.451-9.364-1.321
			c-1.587,0.179-2.729,1.611-2.55,3.198c0.179,1.587,1.611,2.728,3.198,2.549C273.624,324.825,278.647,322.721,281.305,321.581z
			 M271.027,322.207c-0.065-0.572,0.347-1.087,0.919-1.152c0.572-0.064,1.088,0.346,1.152,0.918
			c0.065,0.572-0.347,1.088-0.918,1.152C271.607,323.19,271.091,322.779,271.027,322.207z"/>
		<g style="opacity:0.4;">
			<path d="M297.355,322.008c0,14.015-11.402,25.416-25.417,25.416v4c16.22,0,29.417-13.196,29.417-29.416H297.355z"/>
		</g>
	</g>
</g>
<g id="Graphic_2">
	<g>
		<g>
			<circle style="fill:#407BFF;" cx="249.745" cy="265.678" r="46.079"/>
			<circle style="opacity:0.9;fill:#FFFFFF;" cx="249.745" cy="265.678" r="46.079"/>
			<g>
				<path style="fill:#407BFF;" d="M249.745,313.757c-26.511,0-48.079-21.568-48.079-48.079c0-26.511,21.568-48.079,48.079-48.079
					c26.511,0,48.079,21.568,48.079,48.079C297.823,292.189,276.255,313.757,249.745,313.757z M249.745,221.6
					c-24.305,0-44.079,19.774-44.079,44.079c0,24.306,19.773,44.079,44.079,44.079s44.079-19.773,44.079-44.079
					C293.823,241.374,274.05,221.6,249.745,221.6z"/>
			</g>
			<g style="opacity:0.3;">
				<path d="M249.745,313.757c-26.511,0-48.079-21.568-48.079-48.079c0-26.511,21.568-48.079,48.079-48.079
					c26.511,0,48.079,21.568,48.079,48.079C297.823,292.189,276.255,313.757,249.745,313.757z M249.745,221.6
					c-24.305,0-44.079,19.774-44.079,44.079c0,24.306,19.773,44.079,44.079,44.079s44.079-19.773,44.079-44.079
					C293.823,241.374,274.05,221.6,249.745,221.6z"/>
			</g>
		</g>
		<g>
			<path style="fill:#263238;" d="M264.911,284.349H209.66c-0.665,0-1.268-0.392-1.538-1l-1.068-2.402
				c-0.495-1.113,0.32-2.367,1.538-2.367h57.387c1.218,0,2.033,1.254,1.538,2.367l-1.068,2.402
				C266.179,283.957,265.576,284.349,264.911,284.349z"/>
			<path style="fill:#263238;" d="M262.604,281.464h-50.637v-32.324c0-1.087,0.882-1.969,1.969-1.969h46.7
				c1.087,0,1.969,0.882,1.969,1.969V281.464z"/>
			<path style="opacity:0.9;fill:#FFFFFF;" d="M215.171,251.299v26.96h44.228v-26.96c0-0.51-0.413-0.923-0.923-0.923h-42.382
				C215.584,250.377,215.171,250.79,215.171,251.299z"/>
			<polygon style="fill:#407BFF;" points="257.335,257.486 257.335,252.441 252.29,252.441 252.29,253.441 255.004,253.441 
				237.285,263.898 219.566,253.441 222.279,253.441 222.279,252.441 217.235,252.441 217.235,257.486 218.235,257.486 
				218.235,253.816 236.301,264.478 218.235,275.141 218.235,271.471 217.235,271.471 217.235,276.516 222.279,276.516 
				222.279,275.516 219.566,275.516 237.285,265.059 255.004,275.516 252.29,275.516 252.29,276.516 257.335,276.516 
				257.335,271.471 256.335,271.471 256.335,275.14 238.269,264.478 256.335,253.817 256.335,257.486 			"/>
		</g>
		<g>
			<path style="fill:#263238;" d="M288.755,282.906h-15.604c-1.001,0-1.813-0.812-1.813-1.813v-30.667
				c0-1.001,0.812-1.813,1.813-1.813h15.604c1.001,0,1.813,0.812,1.813,1.813v30.667
				C290.568,282.095,289.757,282.906,288.755,282.906z"/>
			<path style="opacity:0.9;fill:#FFFFFF;" d="M273.903,252.098v24.76c0,0.508,0.412,0.921,0.92,0.921h12.261
				c0.508,0,0.921-0.412,0.921-0.921v-24.76c0-0.508-0.412-0.921-0.921-0.921h-12.261
				C274.315,251.178,273.903,251.59,273.903,252.098z"/>
			<circle style="opacity:0.9;fill:#FFFFFF;" cx="280.954" cy="280.022" r="1.068"/>
			<polygon style="fill:#407BFF;" points="286.795,255.561 286.795,252.361 284.168,252.361 284.168,253.361 285.511,253.361 
				280.895,263.291 276.279,253.361 277.622,253.361 277.622,252.361 274.995,252.361 274.995,255.561 275.995,255.561 
				275.995,255.123 280.343,264.478 275.995,273.833 275.995,273.396 274.995,273.396 274.995,276.596 277.623,276.596 
				277.623,275.596 276.279,275.596 280.895,265.665 285.511,275.596 284.168,275.596 284.168,276.596 286.795,276.596 
				286.795,273.396 285.795,273.396 285.795,273.833 281.447,264.478 285.795,255.123 285.795,255.561 			"/>
		</g>
	</g>
</g>
<g id="Graphic_1">
	<g>
		<g>
			<circle style="fill:#407BFF;" cx="255.358" cy="191.065" r="21.061"/>
			<circle style="opacity:0.9;fill:#FFFFFF;" cx="255.358" cy="191.065" r="21.061"/>
		</g>
		<g>
			<g>
				<path style="fill:#263238;" d="M267.732,189.04c-6.823-6.823-17.925-6.824-24.748,0l-2.121-2.121
					c7.993-7.993,20.999-7.993,28.991,0L267.732,189.04z"/>
			</g>
			<g>
				<path style="fill:#263238;" d="M263.445,193.328c-4.459-4.458-11.715-4.46-16.174,0l-2.121-2.121
					c5.629-5.629,14.788-5.628,20.417,0L263.445,193.328z"/>
			</g>
			<g>
				<path style="fill:#263238;" d="M259.183,197.591c-2.109-2.108-5.54-2.109-7.649,0l-2.121-2.121
					c3.278-3.278,8.613-3.278,11.891,0L259.183,197.591z"/>
			</g>
			<path style="fill:#263238;" d="M256.81,199.962c0.802,0.802,0.802,2.102,0,2.904s-2.102,0.802-2.904,0
				c-0.802-0.802-0.802-2.102,0-2.904C254.708,199.161,256.008,199.161,256.81,199.962z"/>
		</g>
		<path style="fill:#407BFF;" d="M255.358,168.004c-12.716,0-23.061,10.345-23.061,23.062s10.345,23.062,23.061,23.062
			c12.716,0,23.062-10.345,23.062-23.062S268.074,168.004,255.358,168.004z M255.358,172.004c4.536,0,8.703,1.599,11.979,4.254
			l-26.786,26.786c-2.655-3.276-4.254-7.443-4.254-11.979C236.297,180.555,244.848,172.004,255.358,172.004z M255.358,210.127
			c-4.536,0-8.703-1.599-11.979-4.254l26.786-26.786c2.655,3.276,4.254,7.443,4.254,11.979
			C274.419,201.576,265.869,210.127,255.358,210.127z"/>
	</g>
</g>
<g id="Character">
	<g>
		<g>
			<polygon style="fill:#FFB573;" points="369.368,384.147 373.064,402.16 366.709,402.667 360.521,384.853 			"/>
			<path style="fill:#263238;" d="M372.603,399.617l-6.396,2.65c-0.279,0.115-0.441,0.407-0.39,0.704l1.137,6.569
				c0.097,0.583,0.648,0.978,1.231,0.881c0.075-0.012,0.148-0.033,0.219-0.061c2.648-1.142,4.96-2.263,8.282-3.624
				c3.919-1.609,3.117-0.732,7.751-2.56c2.791-1.104,2.002-4.468,0.761-4.14c-5.665,1.536-7.896,0.53-10.766-0.544
				C373.827,399.309,373.177,399.353,372.603,399.617z"/>
			<polygon style="opacity:0.1;" points="371.643,395.235 369.368,384.147 360.521,384.853 364.46,396.193 			"/>
		</g>
		<g>
			<polygon style="fill:#FFB573;" points="321.221,384.382 323.073,404.909 316.496,403.667 312.346,384.382 			"/>
			<path style="fill:#263238;" d="M322.656,401.667l-6.951,0.361c-0.303,0.015-0.555,0.237-0.607,0.536l-1.131,6.606
				c-0.105,0.585,0.285,1.145,0.87,1.249c0.075,0.013,0.152,0.019,0.228,0.016c2.893-0.192,5.46-0.477,9.065-0.649
				c4.254-0.207,3.2,0.354,8.205,0.18c3.015-0.108,3.399-3.561,2.113-3.666c-5.884-0.449-7.659-2.152-10.018-4.134
				C323.919,401.788,323.288,401.61,322.656,401.667z"/>
			<polygon style="opacity:0.1;" points="321.221,384.382 312.346,384.382 314.946,396.465 322.311,396.465 			"/>
		</g>
		<path style="fill:#407BFF;" d="M344.353,238.298c0,0,8.775,37.376,27.826,154.333h-10c0,0-19.37-44.927-20.648-70.01
			c-0.038-0.749-0.06-1.48-0.065-2.191c-0.028-4.004-0.973-7.938-2.732-11.535c-0.019-0.039-0.038-0.078-0.057-0.117
			c-6.32-12.94-19.816-43.87-18.954-70.48H344.353z"/>
		<path style="opacity:0.2;" d="M334.502,299.737c4.005-25.557,0.789-46.105,0.789-46.105l-9.445,1.333l-2.509,12.568
			C326.361,279.721,330.753,291.152,334.502,299.737z"/>
		<path style="fill:#407BFF;" d="M339.346,239.882c0,0-22.5,107.75-16.167,153.75l-10-0.333c0,0-10.801-43.994-5.705-68.515
			c0.205-0.987,0.436-1.943,0.695-2.864c1.104-3.928,1.307-8.044,0.513-12.046c-0.009-0.043-0.017-0.086-0.026-0.129
			c-2.947-14.906-8.037-50.437,5.243-70.613L339.346,239.882z"/>
		<g>
			<path style="fill:#263238;" d="M322.038,149.356c0,0,3.012-13.634-7.033-8.848c-10.045,4.786,0.406,12.865,4.152,11.916
				C322.903,151.476,322.038,149.356,322.038,149.356z"/>
			<path style="opacity:0.7;" d="M321.004,149.382c0,0-6.473,1.545-9.676-1.705c1.386,2.708,4.997,4.858,7.218,4.818l2.125-1.905
				L321.004,149.382z"/>
			<path style="fill:#263238;" d="M319.157,152.424c0,0-9.986,3.863-10.319,0.077C308.505,148.715,314.484,153.541,319.157,152.424z
				"/>
			<path style="fill:#407BFF;" d="M317.911,154.745c0,0-1.909-2.667,1.171-4.917c3.079-2.25,6.579,0.417,6.579,0.417
				L317.911,154.745z"/>
		</g>
		<path style="fill:#263238;" d="M337.291,151.2c0,0,6.964,1.977,7.547,9.829c0.583,7.852-4.836,6.285-4.836,6.285L337.291,151.2z"
			/>
		<g>
			<path style="fill:#263238;" d="M369.626,174.863l-1.232-0.102c-1.222-0.101-2.346,0.803-2.511,2.02l-2.051,15.131
				c-0.165,1.216,0.692,2.284,1.914,2.385l0.863,0.071L369.626,174.863z"/>
			<path style="fill:#407BFF;" d="M373.281,194.919l-6.538-0.54c-1.222-0.101-2.079-1.169-1.914-2.385l2.051-15.131
				c0.165-1.217,1.289-2.121,2.511-2.02l6.539,0.54c1.222,0.101,2.078,1.169,1.913,2.385l-2.051,15.131
				C375.627,194.116,374.503,195.02,373.281,194.919z"/>
			<path style="opacity:0.5;fill:#FFFFFF;" d="M370.624,179.976l-1.249-0.103c-0.484-0.04-0.824-0.464-0.759-0.946l0.169-1.243
				c0.065-0.482,0.511-0.841,0.996-0.801l1.249,0.103c0.484,0.04,0.824,0.464,0.759,0.946l-0.169,1.243
				C371.554,179.658,371.108,180.016,370.624,179.976z"/>
		</g>
		<path style="fill:#FFB573;" d="M364.921,202.048l0.917-5.083l3.07-7.87c0.46-1.179,1.596-1.956,2.862-1.956h0.388
			c1.136,0,2.18,0.627,2.713,1.63l0.933,1.755c0.577,1.085,0.452,2.408-0.317,3.366l-1.252,1.559
			c-0.315,0.393-0.722,0.702-1.185,0.9l-3.378,1.448l-0.083,4.917L364.921,202.048z"/>
		<path style="fill:#263238;" d="M370.005,200.261c0,0,0.75,22.371-5.417,22.371c-7.179,0-18.25-9.25-19.583-18
			c-1.333-8.75-0.937-13.563-0.937-13.563s1.937-0.77,17.187,21.313l3.5-12.583L370.005,200.261z"/>
		<path style="opacity:0.7;" d="M345.005,204.632c0.629,4.125,3.422,8.361,6.952,11.687c-1.604-11.608-5.785-19.035-5.785-19.035
			h-1.997C344.314,199.284,344.564,201.737,345.005,204.632z"/>
		<path style="fill:#263238;" d="M306.857,191.003c1.041,4.057,6.097,25.13,5.648,49.962c0,0,22.833,3.333,33.167,0.167
			c0,0,8.333-45.667-3.167-51.167c-12.236-5.852-31.231-0.975-35.123,0.125C306.987,190.202,306.754,190.605,306.857,191.003z"/>
		<path style="fill:#263238;" d="M307.331,190.532c-0.401-0.159-0.853-0.069-1.151,0.244c-1.841,1.941-8.268,10.11-9.017,30.189
			c-0.066,1.758,0.175,3.5,3.675,5s8-13.667,11.833-23.25C315.891,194.666,309.47,191.378,307.331,190.532z"/>
		<path style="opacity:0.7;" d="M301.763,200.896l-2.603,4.806c-1.001,4.081-1.767,9.107-1.997,15.263
			c-0.066,1.758,0.175,3.5,3.675,5c2.147,0.92,4.67-4.434,7.185-10.921C306.698,207.669,301.763,200.896,301.763,200.896z"/>
		<g>
			<path style="fill:#263238;" d="M323.505,185.507c-2.467,0.122-9.684,0.438-4.123,9.375c5.561,8.938,7.436,1.5,9.936,0.75
				s5.053-0.874,7.25,1.313c2.313,2.301,5.188-0.563,2.063-5.938S332.817,185.045,323.505,185.507z"/>
			<path style="opacity:0.7;fill:#FFFFFF;" d="M323.505,185.507c-2.467,0.122-9.684,0.438-4.123,9.375
				c5.561,8.938,7.436,1.5,9.936,0.75s5.053-0.874,7.25,1.313c2.313,2.301,5.188-0.563,2.063-5.938S332.817,185.045,323.505,185.507
				z"/>
		</g>
		<path style="fill:#FFB573;" d="M325.671,186.882c-2.496,0.009-8.75-0.778-5.25,3.75c3.813,4.933,11.917,7.167,11.917,7.167
			s3.625-3.098,2.333-8.167C333.588,185.382,328.577,186.871,325.671,186.882z"/>
		<path style="fill:#FFB573;" d="M330.866,194.927c-14.959-4.415-9.739-7.811-9.739-7.811c2.274-3.698,1.752-10.11,1.095-14.318
			l8.642,8.032c-0.828,2.954-1.161,4.659,1.567,6.238C332.43,187.067,334.76,188.341,330.866,194.927z"/>
		<path style="opacity:0.1;" d="M330.276,183.765c0.023-0.835,0.267-1.79,0.587-2.935l-7.771-7.223l-0.5,0.621
			C322.592,174.228,323.829,181.173,330.276,183.765z"/>
		<path style="fill:#FFB573;" d="M320.426,160.533c-0.489,8.292-0.878,11.79,2.765,16.514c5.481,7.111,15.767,5.904,18.73-2.072
			c2.665-7.179,3.022-19.523-4.631-23.775c-5.453-3.066-12.358-1.131-15.424,4.322C321.003,157.058,320.51,158.774,320.426,160.533z
			"/>
		<path style="fill:#ED893E;" d="M337.98,166.813c0.569,1.552,1.348,3.019,2.317,4.358c-0.703,0.487-1.585,0.638-2.41,0.412
			L337.98,166.813z"/>
		<path style="fill:#263238;" d="M331.797,161.579c-0.049-0.031-0.09-0.072-0.12-0.121c-0.089-0.158-0.033-0.359,0.125-0.448
			c0.002-0.001,0.004-0.002,0.006-0.003c1.079-0.64,2.401-0.714,3.544-0.199c0.156,0.089,0.216,0.285,0.135,0.445
			c-0.084,0.158-0.278,0.22-0.438,0.14c-0.951-0.41-2.041-0.339-2.93,0.192C332.019,161.639,331.896,161.637,331.797,161.579z"/>
		<path style="fill:#263238;" d="M343.811,162.305c-0.057-0.006-0.113-0.025-0.161-0.056c-0.851-0.581-1.928-0.72-2.899-0.373
			c-0.165,0.076-0.361,0.004-0.437-0.161c-0.001-0.001-0.001-0.003-0.002-0.004c-0.07-0.169,0.007-0.363,0.174-0.438
			c1.175-0.437,2.489-0.28,3.528,0.422c0.156,0.093,0.208,0.295,0.115,0.451C344.063,162.256,343.939,162.318,343.811,162.305
			L343.811,162.305z"/>
		<g>
			<path style="fill:#263238;" d="M333.237,165.604c-0.015,0.67,0.333,1.223,0.779,1.236c0.446,0.013,0.807-0.526,0.814-1.208
				c0.008-0.681-0.333-1.223-0.77-1.234C333.623,164.387,333.254,164.924,333.237,165.604z"/>
			<path style="fill:#263238;" d="M340.866,165.756c-0.015,0.67,0.333,1.223,0.77,1.234c0.437,0.011,0.807-0.526,0.823-1.206
				s-0.333-1.223-0.77-1.234C341.252,164.54,340.874,165.075,340.866,165.756z"/>
			<path style="fill:#263238;" d="M341.495,164.583l1.628-0.432C343.124,164.151,342.264,165.396,341.495,164.583z"/>
			<path style="fill:#263238;" d="M333.867,164.431l1.628-0.432C335.495,163.999,334.635,165.243,333.867,164.431z"/>
		</g>
		<path style="fill:#263238;" d="M336.125,174.366c0.367-0.005,0.733-0.043,1.093-0.113c0.104-0.019,0.173-0.118,0.154-0.222
			c0-0.002-0.001-0.004-0.001-0.006c-0.019-0.102-0.117-0.17-0.22-0.153c-1.612,0.343-3.291-0.097-4.527-1.186
			c-0.073-0.078-0.196-0.082-0.274-0.008c-0.078,0.073-0.082,0.196-0.009,0.274C333.372,173.895,334.728,174.402,336.125,174.366z"
			/>
		<path style="fill:#263238;" d="M321.421,166.813c0,0,2.917-0.514,3.417-3.931c0.5-3.417,3.49-9.667,12.537-8.25
			c9.047,1.417,3.448-3.769,2.627-4.887c-2.307-3.141-9.384-5.461-18.997,1.456c-1.798,1.294-12.333,7.098-1.623,21.598
			C320.321,174.07,322.216,174.719,321.421,166.813z"/>
		<path style="fill:#FFB573;" d="M317.691,166.805c0.271,1.583,1.161,2.993,2.473,3.92c1.749,1.214,3.318-0.179,3.416-2.195
			c0.089-1.807-0.714-4.626-2.752-5.04c-1.493-0.256-2.911,0.747-3.167,2.24C317.6,166.087,317.61,166.452,317.691,166.805z"/>
		<path style="fill:#FFB573;" d="M297.155,205.955l1.433-7.75l-2.928-5.214c-0.316-0.563-0.433-1.216-0.33-1.854l0.062-0.387
			c0.278-1.732,2.036-2.807,3.705-2.266l4.486,1.455c1.232,0.399,2.041,1.576,1.974,2.869l-0.118,2.245
			c-0.052,1-0.52,1.932-1.289,2.573l-1.395,1.162l1.468,8.136L297.155,205.955z"/>
		<path style="fill:#263238;" d="M297.338,202.205l6.667,0.447c0,0,6.167,23.053-3.167,23.72
			C292.193,226.989,297.338,202.205,297.338,202.205z"/>
	</g>
</g>
</svg>
