<svg width="347" height="79" viewBox="0 0 347 79" fill="none" xmlns="http://www.w3.org/2000/svg">
<path d="M4 1H343C344.657 1 346 2.34314 346 4V40.3431C346 41.1388 345.684 41.9019 345.121 42.4645L310.464 77.1213C309.902 77.6839 309.139 78 308.343 78H38.6569C37.8612 78 37.0981 77.6839 36.5355 77.1213L1.87868 42.4645C1.31607 41.9019 1 41.1388 1 40.3431V4C1 2.34315 2.34315 1 4 1Z" fill="#030A17"/>
<path d="M4 1H343C344.657 1 346 2.34314 346 4V40.3431C346 41.1388 345.684 41.9019 345.121 42.4645L310.464 77.1213C309.902 77.6839 309.139 78 308.343 78H38.6569C37.8612 78 37.0981 77.6839 36.5355 77.1213L1.87868 42.4645C1.31607 41.9019 1 41.1388 1 40.3431V4C1 2.34315 2.34315 1 4 1Z" fill="#FB932E" fill-opacity="0.2"/>
<path d="M4 1H343C344.657 1 346 2.34314 346 4V40.3431C346 41.1388 345.684 41.9019 345.121 42.4645L310.464 77.1213C309.902 77.6839 309.139 78 308.343 78H38.6569C37.8612 78 37.0981 77.6839 36.5355 77.1213L1.87868 42.4645C1.31607 41.9019 1 41.1388 1 40.3431V4C1 2.34315 2.34315 1 4 1Z" stroke="#F0B537" stroke-width="2"/>
</svg>
