<svg width="379" height="533" viewBox="0 0 379 533" fill="none" xmlns="http://www.w3.org/2000/svg">
<path d="M378 49.9202C378 48.8602 377.579 47.8434 376.83 47.0934L372.67 42.9287C371.921 42.1786 371.5 41.1619 371.5 40.1018V5C371.5 2.79086 369.709 1 367.5 1H19.5582C18.4965 1 17.4784 1.42205 16.7282 2.17317L2.16997 16.7478C1.4208 17.4978 1 18.5146 1 19.5746V69.9118H157.942C159.003 69.9118 160.022 69.4897 160.772 68.7386L167.528 61.9746C168.278 61.2235 169.297 60.8015 170.358 60.8015H215.142C216.203 60.8015 217.222 61.2235 217.972 61.9746L224.728 68.7386C225.478 69.4897 226.497 69.9118 227.558 69.9118H378V49.9202Z" fill="#030A17"/>
<path d="M378 49.9202C378 48.8602 377.579 47.8434 376.83 47.0934L372.67 42.9287C371.921 42.1786 371.5 41.1619 371.5 40.1018V5C371.5 2.79086 369.709 1 367.5 1H19.5582C18.4965 1 17.4784 1.42205 16.7282 2.17317L2.16997 16.7478C1.4208 17.4978 1 18.5146 1 19.5746V69.9118H157.942C159.003 69.9118 160.022 69.4897 160.772 68.7386L167.528 61.9746C168.278 61.2235 169.297 60.8015 170.358 60.8015H215.142C216.203 60.8015 217.222 61.2235 217.972 61.9746L224.728 68.7386C225.478 69.4897 226.497 69.9118 227.558 69.9118H378V49.9202Z" fill="#FB932E" fill-opacity="0.2"/>
<path d="M1 69.9118V19.5746C1 18.5146 1.4208 17.4978 2.16997 16.7478L16.7282 2.17317C17.4784 1.42205 18.4965 1 19.5582 1H367.5C369.709 1 371.5 2.79086 371.5 5V40.1018C371.5 41.1619 371.921 42.1786 372.67 42.9287L376.83 47.0934C377.579 47.8434 378 48.8602 378 49.9202V69.9118M1 69.9118H157.942C159.003 69.9118 160.022 69.4897 160.772 68.7386L167.528 61.9746C168.278 61.2235 169.297 60.8015 170.358 60.8015H215.142C216.203 60.8015 217.222 61.2235 217.972 61.9746L224.728 68.7386C225.478 69.4897 226.497 69.9118 227.558 69.9118H378M1 69.9118V442V485.343C1 486.404 1.42143 487.421 2.17157 488.172L44.8284 530.828C45.5786 531.579 46.596 532 47.6569 532H331.343C332.404 532 333.421 531.579 334.172 530.828L376.828 488.172C377.579 487.421 378 486.404 378 485.343V69.9118" stroke="#F0B537" stroke-width="2"/>
</svg>
