<svg width="28" height="28" viewBox="0 0 28 28" fill="none" xmlns="http://www.w3.org/2000/svg">
<path d="M15.1987 2.3345C16.0501 2.33124 16.9014 2.33979 17.7525 2.36017L17.9789 2.36834C18.2402 2.37767 18.498 2.38934 18.8095 2.40334C20.0509 2.46167 20.8979 2.65767 21.641 2.94584C22.411 3.24217 23.0597 3.6435 23.7084 4.29217C24.3015 4.87504 24.7605 5.58011 25.0535 6.35834C25.3417 7.1015 25.5377 7.94967 25.596 9.191C25.61 9.50134 25.6217 9.76034 25.631 10.0217L25.638 10.248C25.6588 11.0987 25.6677 11.9497 25.6649 12.8007L25.666 13.671V15.1993C25.6689 16.0507 25.66 16.9021 25.6392 17.7532L25.6322 17.9795C25.6229 18.2408 25.6112 18.4987 25.5972 18.8102C25.5389 20.0515 25.3405 20.8985 25.0535 21.6417C24.7615 22.4207 24.3023 23.1264 23.7084 23.709C23.125 24.302 22.4196 24.761 21.641 25.0542C20.8979 25.3423 20.0509 25.5383 18.8095 25.5967C18.498 25.6107 18.2402 25.6223 17.9789 25.6317L17.7525 25.6387C16.9014 25.6594 16.0501 25.6684 15.1987 25.6655L14.3284 25.6667H12.8012C11.9498 25.6695 11.0985 25.6606 10.2474 25.6398L10.021 25.6328C9.74408 25.6228 9.46719 25.6111 9.19037 25.5978C7.94904 25.5395 7.10204 25.3412 6.3577 25.0542C5.57917 24.7617 4.87398 24.3026 4.29154 23.709C3.69776 23.126 3.2383 22.4205 2.9452 21.6417C2.65704 20.8985 2.46104 20.0515 2.4027 18.8102C2.38971 18.5333 2.37804 18.2564 2.3677 17.9795L2.36187 17.7532C2.34036 16.9021 2.33064 16.0507 2.3327 15.1993V12.8007C2.32945 11.9497 2.338 11.0987 2.35837 10.248L2.36654 10.0217C2.37587 9.76034 2.38754 9.50134 2.40154 9.191C2.45987 7.9485 2.65587 7.10267 2.94404 6.35834C3.23731 5.57973 3.69766 4.87486 4.2927 4.29334C4.87475 3.69922 5.57949 3.23934 6.3577 2.94584C7.10204 2.65767 7.94787 2.46167 9.19037 2.40334L10.021 2.36834L10.2474 2.3625C11.0981 2.34101 11.9491 2.33128 12.8 2.33334L15.1987 2.3345ZM13.9994 8.16784C13.2265 8.15691 12.4591 8.2997 11.7418 8.58792C11.0246 8.87613 10.3718 9.30403 9.82136 9.84673C9.27092 10.3894 8.83384 11.0361 8.53551 11.7492C8.23717 12.4623 8.08354 13.2276 8.08354 14.0006C8.08354 14.7736 8.23717 15.5389 8.53551 16.2519C8.83384 16.965 9.27092 17.6117 9.82136 18.1544C10.3718 18.6971 11.0246 19.125 11.7418 19.4133C12.4591 19.7015 13.2265 19.8443 13.9994 19.8333C15.5465 19.8333 17.0302 19.2188 18.1242 18.1248C19.2181 17.0308 19.8327 15.5471 19.8327 14C19.8327 12.4529 19.2181 10.9692 18.1242 9.87521C17.0302 8.78125 15.5465 8.16784 13.9994 8.16784ZM13.9994 10.5012C14.4643 10.4926 14.9263 10.5768 15.3583 10.7487C15.7903 10.9207 16.1838 11.1771 16.5156 11.5028C16.8475 11.8285 17.1111 12.2171 17.2911 12.6459C17.471 13.0747 17.5638 13.535 17.5638 14C17.5639 14.465 17.4713 14.9254 17.2915 15.3542C17.1117 15.783 16.8482 16.1717 16.5164 16.4975C16.1847 16.8234 15.7914 17.0799 15.3594 17.252C14.9274 17.4241 14.4655 17.5084 14.0005 17.5C13.0723 17.5 12.182 17.1313 11.5257 16.4749C10.8693 15.8185 10.5005 14.9283 10.5005 14C10.5005 13.0717 10.8693 12.1815 11.5257 11.5251C12.182 10.8688 13.0723 10.5 14.0005 10.5L13.9994 10.5012ZM20.1244 6.41784C19.748 6.4329 19.392 6.59301 19.1311 6.86464C18.8701 7.13626 18.7244 7.49833 18.7244 7.875C18.7244 8.25168 18.8701 8.61375 19.1311 8.88537C19.392 9.157 19.748 9.31711 20.1244 9.33217C20.5111 9.33217 20.8821 9.17853 21.1556 8.90504C21.4291 8.63154 21.5827 8.26061 21.5827 7.87384C21.5827 7.48706 21.4291 7.11613 21.1556 6.84264C20.8821 6.56915 20.5111 6.4155 20.1244 6.4155V6.41784Z" fill="white"/>
</svg>
