<svg width="29" height="29" viewBox="0 0 29 29" fill="none" xmlns="http://www.w3.org/2000/svg">
<path d="M4.83268 24.1667C4.1681 24.1667 3.59898 23.9298 3.12531 23.4562C2.65164 22.9825 2.41521 22.4138 2.41602 21.75V7.25001C2.41602 6.58543 2.65285 6.0163 3.12652 5.54264C3.60018 5.06897 4.16891 4.83254 4.83268 4.83335H24.166C24.8306 4.83335 25.3997 5.07018 25.8734 5.54385C26.3471 6.01751 26.5835 6.58623 26.5827 7.25001V21.75C26.5827 22.4146 26.3459 22.9837 25.8722 23.4574C25.3985 23.9311 24.8298 24.1675 24.166 24.1667H4.83268ZM14.4994 15.7083L24.166 9.66668V7.25001L14.4994 13.2917L4.83268 7.25001V9.66668L14.4994 15.7083Z" fill="white"/>
</svg>
