<svg width="68" height="58" viewBox="0 0 68 58" fill="none" xmlns="http://www.w3.org/2000/svg">
<path d="M63 57H14.8028C13.719 57 12.6817 56.5602 11.9281 55.7813L2.12526 45.6493C1.4035 44.9034 1 43.906 1 42.868V5C1 2.79086 2.79086 1 5 1H31.096C32.1798 1 33.2171 1.43977 33.9707 2.21866L36.9935 5.34289C37.7471 6.12184 38.7846 6.56161 39.8684 6.56155L62.9998 6.56023C65.209 6.5601 67 8.35101 67 10.5602V53C67 55.2091 65.2091 57 63 57Z" fill="#030A17" fill-opacity="0.8"/>
<path d="M63 57H14.8028C13.719 57 12.6817 56.5602 11.9281 55.7813L2.12526 45.6493C1.4035 44.9034 1 43.906 1 42.868V5C1 2.79086 2.79086 1 5 1H31.096C32.1798 1 33.2171 1.43977 33.9707 2.21866L36.9935 5.34289C37.7471 6.12184 38.7846 6.56161 39.8684 6.56155L62.9998 6.56023C65.209 6.5601 67 8.35101 67 10.5602V53C67 55.2091 65.2091 57 63 57Z" fill="#00E0FF" fill-opacity="0.3"/>
<path d="M63 57H14.8028C13.719 57 12.6817 56.5602 11.9281 55.7813L2.12526 45.6493C1.4035 44.9034 1 43.906 1 42.868V5C1 2.79086 2.79086 1 5 1H31.096C32.1798 1 33.2171 1.43977 33.9707 2.21866L36.9935 5.34289C37.7471 6.12184 38.7846 6.56161 39.8684 6.56155L62.9998 6.56023C65.209 6.5601 67 8.35101 67 10.5602V53C67 55.2091 65.2091 57 63 57Z" stroke="#00E0FF" stroke-width="2"/>
<mask id="mask0_3120_4503" style="mask-type:alpha" maskUnits="userSpaceOnUse" x="15" y="11" width="38" height="38">
<rect x="15" y="11" width="38" height="38" fill="#D9D9D9"/>
</mask>
<g mask="url(#mask0_3120_4503)">
<path d="M25.0754 38.934C26.4251 37.9657 27.8574 37.1999 29.372 36.6366C30.8867 36.0733 32.5266 35.7917 34.2917 35.7917C36.0567 35.7917 37.6966 36.0733 39.2113 36.6366C40.726 37.1999 42.1582 37.9657 43.508 38.934C44.5564 37.852 45.3998 36.5742 46.038 35.1005C46.6763 33.6267 46.9954 32.0099 46.9954 30.25C46.9954 26.7403 45.7581 23.7517 43.2835 21.2844C40.8089 18.817 37.8116 17.5833 34.2917 17.5833C30.7717 17.5833 27.7744 18.817 25.2998 21.2844C22.8253 23.7517 21.588 26.7403 21.588 30.25C21.588 32.0099 21.9071 33.6267 22.5453 35.1005C23.1836 36.5742 24.0269 37.852 25.0754 38.934ZM34.2917 31.0417C32.9541 31.0417 31.8257 30.5834 30.9066 29.6669C29.9874 28.7504 29.5278 27.6253 29.5278 26.2917C29.5278 24.958 29.9874 23.8329 30.9066 22.9164C31.8257 21.9999 32.9541 21.5417 34.2917 21.5417C35.6292 21.5417 36.7576 21.9999 37.6768 22.9164C38.596 23.8329 39.0556 24.958 39.0556 26.2917C39.0556 27.6253 38.596 28.7504 37.6768 29.6669C36.7576 30.5834 35.6292 31.0417 34.2917 31.0417ZM34.2917 44.5C32.2986 44.5 30.4327 44.1301 28.6941 43.3902C26.9555 42.6502 25.4428 41.6388 24.1562 40.3559C22.8695 39.073 21.8552 37.5648 21.1131 35.8313C20.371 34.0977 20 32.2373 20 30.25C20 28.2627 20.371 26.4023 21.1131 24.6687C21.8552 22.9352 22.8695 21.427 24.1562 20.1441C25.4428 18.8612 26.9555 17.8498 28.6941 17.1098C30.4327 16.3699 32.2986 16 34.2917 16C36.2848 16 38.1506 16.3699 39.8892 17.1098C41.6278 17.8498 43.1405 18.8612 44.4272 20.1441C45.7138 21.427 46.7282 22.9352 47.4702 24.6687C48.2123 26.4023 48.5833 28.2627 48.5833 30.25C48.5833 32.2373 48.2123 34.0977 47.4702 35.8313C46.7282 37.5648 45.7138 39.073 44.4272 40.3559C43.1405 41.6388 41.6278 42.6502 39.8892 43.3902C38.1506 44.1301 36.2848 44.5 34.2917 44.5Z" fill="#FFFBFF"/>
</g>
</svg>
