<svg width="44" height="44" viewBox="0 0 44 44" fill="none" xmlns="http://www.w3.org/2000/svg">
<g id="mail">
<mask id="mask0_3703_906" style="mask-type:alpha" maskUnits="userSpaceOnUse" x="0" y="0" width="44" height="44">
<rect id="Bounding box" width="44" height="44" fill="#D9D9D9"/>
</mask>
<g mask="url(#mask0_3703_906)">
<path id="mail_2" d="M7.33317 36.6665C6.32484 36.6665 5.46195 36.3078 4.7445 35.5904C4.02584 34.8717 3.6665 34.0082 3.6665 32.9999V10.9999C3.6665 9.99152 4.02584 9.12864 4.7445 8.41119C5.46195 7.69252 6.32484 7.33319 7.33317 7.33319H36.6665C37.6748 7.33319 38.5383 7.69252 39.257 8.41119C39.9744 9.12864 40.3332 9.99152 40.3332 10.9999V32.9999C40.3332 34.0082 39.9744 34.8717 39.257 35.5904C38.5383 36.3078 37.6748 36.6665 36.6665 36.6665H7.33317ZM21.9998 23.5124C22.1526 23.5124 22.3127 23.4891 22.4802 23.4427C22.6488 23.3975 22.8096 23.329 22.9623 23.2374L35.9332 15.1249C36.1776 14.9721 36.3609 14.7814 36.4832 14.5529C36.6054 14.3231 36.6665 14.0707 36.6665 13.7957C36.6665 13.1846 36.4068 12.7262 35.8873 12.4207C35.3679 12.1151 34.8332 12.1304 34.2832 12.4665L21.9998 20.1665L9.7165 12.4665C9.1665 12.1304 8.63178 12.1225 8.11234 12.4427C7.59289 12.7641 7.33317 13.2151 7.33317 13.7957C7.33317 14.1012 7.39428 14.3683 7.5165 14.5969C7.63873 14.8266 7.82206 15.0026 8.0665 15.1249L21.0373 23.2374C21.1901 23.329 21.3508 23.3975 21.5195 23.4427C21.6869 23.4891 21.8471 23.5124 21.9998 23.5124Z" fill="white" fill-opacity="0.8"/>
</g>
</g>
</svg>
