<svg xmlns="http://www.w3.org/2000/svg" width="228" height="58" viewBox="0 0 228 58" fill="none">
    <path
        d="M223 57H14.8028C13.719 57 12.6817 56.5602 11.9281 55.7813L2.12526 45.6493C1.4035 44.9034 1 43.906 1 42.868V5C1 2.79086 2.79086 1 5 1H51.096C52.1798 1 53.2171 1.43977 53.9707 2.21866L56.9935 5.34297C57.7471 6.12187 58.7845 6.56164 59.8683 6.56163L223 6.56004C225.209 6.56002 227 8.35089 227 10.56V53C227 55.2091 225.209 57 223 57Z"
        fill="#030A17" fill-opacity="0.8" />
    <path
        d="M223 57H14.8028C13.719 57 12.6817 56.5602 11.9281 55.7813L2.12526 45.6493C1.4035 44.9034 1 43.906 1 42.868V5C1 2.79086 2.79086 1 5 1H51.096C52.1798 1 53.2171 1.43977 53.9707 2.21866L56.9935 5.34297C57.7471 6.12187 58.7845 6.56164 59.8683 6.56163L223 6.56004C225.209 6.56002 227 8.35089 227 10.56V53C227 55.2091 225.209 57 223 57Z"
        fill="#00E0FF" fill-opacity="0.1" />
    <path
        d="M223 57H14.8028C13.719 57 12.6817 56.5602 11.9281 55.7813L2.12526 45.6493C1.4035 44.9034 1 43.906 1 42.868V5C1 2.79086 2.79086 1 5 1H51.096C52.1798 1 53.2171 1.43977 53.9707 2.21866L56.9935 5.34297C57.7471 6.12187 58.7845 6.56164 59.8683 6.56163L223 6.56004C225.209 6.56002 227 8.35089 227 10.56V53C227 55.2091 225.209 57 223 57Z"
        stroke="#00E0FF" stroke-width="2" />
</svg>