<svg xmlns="http://www.w3.org/2000/svg" width="298" height="58" viewBox="0 0 298 58" fill="none">
    <path
        d="M293 57H14.8028C13.719 57 12.6817 56.5602 11.9281 55.7813L2.12526 45.6493C1.4035 44.9034 1 43.906 1 42.868V5C1 2.79086 2.79086 1 5 1H51.096C52.1798 1 53.2171 1.43977 53.9707 2.21866L56.9935 5.34298C57.7471 6.12187 58.7845 6.56164 59.8683 6.56163L293 6.56003C295.209 6.56001 297 8.35088 297 10.56V53C297 55.2091 295.209 57 293 57Z"
        fill="#030A17" fill-opacity="0.8" />
    <path
        d="M293 57H14.8028C13.719 57 12.6817 56.5602 11.9281 55.7813L2.12526 45.6493C1.4035 44.9034 1 43.906 1 42.868V5C1 2.79086 2.79086 1 5 1H51.096C52.1798 1 53.2171 1.43977 53.9707 2.21866L56.9935 5.34298C57.7471 6.12187 58.7845 6.56164 59.8683 6.56163L293 6.56003C295.209 6.56001 297 8.35088 297 10.56V53C297 55.2091 295.209 57 293 57Z"
        fill="#00E0FF" fill-opacity="0.3" />
    <path
        d="M293 57H14.8028C13.719 57 12.6817 56.5602 11.9281 55.7813L2.12526 45.6493C1.4035 44.9034 1 43.906 1 42.868V5C1 2.79086 2.79086 1 5 1H51.096C52.1798 1 53.2171 1.43977 53.9707 2.21866L56.9935 5.34298C57.7471 6.12187 58.7845 6.56164 59.8683 6.56163L293 6.56003C295.209 6.56001 297 8.35088 297 10.56V53C297 55.2091 295.209 57 293 57Z"
        stroke="#00E0FF" stroke-width="2" />
</svg>