<svg className='iitlogo' xmlns="http://www.w3.org/2000/svg" width="32" height="33" viewBox="0 0 32 33" fill="none">
                        <path d="M15.784 0.519873C15.7664 0.531073 15.6928 0.561472 15.6208 0.587072C15.3424 0.691071 15.1472 0.903866 15.0384 1.21906C15.0016 1.32466 14.9984 1.50385 15.032 1.71665C15.0688 1.95984 15.088 1.93584 14.8528 1.94384C14.7392 1.94864 14.6448 1.95024 14.6416 1.94704C14.6384 1.94384 14.6448 1.85584 14.656 1.75025C14.6752 1.57585 14.6736 1.54545 14.6496 1.45425C14.5856 1.22066 14.352 0.923065 14.1472 0.815866C13.9264 0.69907 13.624 0.659071 13.408 0.716669C13.1792 0.777468 12.928 0.961464 12.7968 1.16466C12.6928 1.32466 12.6688 1.43505 12.6752 1.71985L12.68 1.96464L12.752 2.10384C12.7904 2.18064 12.8192 2.24624 12.816 2.25104C12.8112 2.25424 12.7104 2.27824 12.592 2.30544L12.376 2.35184L12.3632 2.23024C12.3344 1.93104 12.2816 1.78065 12.1456 1.61105C12.0224 1.45585 11.8016 1.31346 11.5968 1.25906C11.4864 1.23026 11.248 1.23026 11.136 1.26066C10.936 1.31346 10.6864 1.47825 10.5664 1.63985C10.4032 1.85425 10.368 1.96144 10.368 2.24464C10.368 2.49583 10.3904 2.57263 10.5184 2.76623L10.6064 2.89742L10.4144 2.98702C10.3088 3.03662 10.2192 3.07662 10.216 3.07662C10.2112 3.07662 10.208 3.05742 10.208 3.03182C10.208 2.95342 10.1184 2.73103 10.0432 2.61583C9.936 2.45583 9.7888 2.32463 9.6224 2.24144L9.4832 2.17264L9.264 2.16784C9.1008 2.16304 9.0176 2.16784 8.9424 2.18704C8.6176 2.26864 8.352 2.50703 8.2576 2.80143C8.224 2.90222 8.2224 2.93902 8.2272 3.18382L8.232 3.45421L8.2912 3.57421C8.3232 3.63981 8.384 3.7326 8.424 3.78061C8.4656 3.8286 8.512 3.8878 8.5296 3.9118L8.56 3.9534L8.3712 4.0638L8.1824 4.1758L8.1552 4.0718C8.1168 3.9278 8.0352 3.8014 7.8928 3.66861C7.7568 3.54221 7.552 3.43021 7.3888 3.39501C7.2624 3.36781 7.0096 3.38381 6.888 3.42701C6.6288 3.51981 6.4 3.71821 6.2848 3.9518L6.216 4.0894L6.2112 4.30379C6.2048 4.55019 6.2304 4.69899 6.304 4.84778C6.36 4.95818 6.4816 5.09898 6.5936 5.18217L6.6752 5.24137L6.5264 5.39017C6.4432 5.47337 6.3728 5.54057 6.368 5.54057C6.3632 5.54057 6.3072 5.46857 6.2432 5.38057C6.0912 5.17578 5.992 5.07818 5.8672 5.01738C5.7136 4.94058 5.5968 4.91658 5.3792 4.91658C5.008 4.91658 4.8624 5.00298 4.5568 5.39977L4.4368 5.55497L4.416 5.72296C4.3904 5.93576 4.4112 6.16455 4.4688 6.29255C4.552 6.47815 4.7136 6.64614 4.9392 6.78054L5.04 6.83974L4.9088 6.99494C4.8384 7.07973 4.7744 7.15493 4.768 7.16133C4.7616 7.16773 4.6816 7.09893 4.5904 7.00934C4.4688 6.88774 4.392 6.82694 4.304 6.78054L4.184 6.71654H3.8864H3.5888L3.4496 6.78534C3.2176 6.90054 3.032 7.11173 2.9312 7.37733C2.8928 7.47333 2.8896 7.50693 2.8896 7.70052C2.8896 7.89892 2.8928 7.92612 2.9328 8.02851C3.056 8.33731 3.3216 8.5917 3.5856 8.6509L3.6624 8.6685L3.5568 8.8573C3.4976 8.9597 3.4448 9.04449 3.4384 9.04449C3.4304 9.04449 3.384 9.00929 3.3328 8.9677C3.0704 8.7501 2.9984 8.7245 2.6688 8.7245C2.5344 8.7245 2.392 8.7325 2.352 8.7421C2.0464 8.8125 1.7728 9.10049 1.6864 9.44448C1.648 9.59488 1.6608 9.92928 1.7104 10.0541C1.8384 10.3853 2.1568 10.6413 2.4752 10.6717C2.5696 10.6797 2.576 10.6829 2.5664 10.7149C2.5248 10.8477 2.4272 11.1084 2.4176 11.1084C2.4112 11.1084 2.3632 11.0829 2.3104 11.0493C2.0528 10.8909 2.0896 10.9005 1.7728 10.9005C1.5216 10.9005 1.4784 10.9037 1.3968 10.9341C1.1488 11.0269 0.9248 11.2444 0.7952 11.5212C0.7504 11.6156 0.744 11.6476 0.7392 11.798C0.7344 11.9356 0.7392 11.9916 0.768 12.094C0.8448 12.3788 0.9568 12.5292 1.2336 12.7244L1.3888 12.8332L1.6144 12.854C1.8304 12.8732 1.8416 12.8764 1.8336 12.9084C1.8288 12.926 1.8096 13.0172 1.7904 13.1116C1.76 13.2556 1.7488 13.2844 1.7248 13.2844C1.7088 13.2844 1.6352 13.2588 1.5616 13.2284C1.4272 13.1724 1.424 13.1724 1.1888 13.1724C0.9824 13.1724 0.9376 13.1772 0.848 13.2092C0.5536 13.3148 0.3264 13.5676 0.224 13.9068C0.1936 14.006 0.1888 14.0492 0.1952 14.2012C0.2016 14.3484 0.2112 14.3996 0.248 14.4924C0.3504 14.75 0.544 14.9628 0.7824 15.0812L0.9168 15.1484H1.1888H1.4592L1.4496 15.2124C1.4448 15.2476 1.4352 15.3388 1.4288 15.4156C1.4176 15.5756 1.416 15.5772 1.2704 15.5324C1.2192 15.5164 1.1232 15.5084 0.992 15.5084C0.7648 15.51 0.6544 15.5372 0.4896 15.6364C0.3184 15.7404 0.224 15.8507 0.1056 16.0907L0 16.3051V16.4747C0 16.5899 0.008 16.6603 0.0224 16.6891C0.0352 16.7131 0.0672 16.7963 0.0944 16.8731C0.1904 17.1483 0.3584 17.3163 0.6592 17.4411C0.7888 17.4955 0.9712 17.5051 1.2048 17.4699C1.4592 17.4315 1.4336 17.4155 1.4464 17.6235C1.4528 17.7227 1.4608 17.8155 1.464 17.8283C1.4704 17.8491 1.4336 17.8523 1.1952 17.8523H0.9168L0.7824 17.9195C0.544 18.0379 0.3504 18.2507 0.248 18.5083C0.1888 18.6555 0.1744 18.9019 0.2144 19.0603C0.304 19.4123 0.5728 19.7131 0.8784 19.8027C0.9424 19.8219 1.0336 19.8283 1.2144 19.8283H1.464L1.5744 19.7723C1.7504 19.6843 1.7456 19.6811 1.8032 19.9195L1.8512 20.1243L1.7776 20.1355C1.7376 20.1403 1.6304 20.1467 1.5408 20.1467C1.448 20.1483 1.376 20.1547 1.376 20.1643C1.376 20.1723 1.3056 20.2283 1.2192 20.2891C0.9472 20.4827 0.8448 20.6235 0.768 20.9066C0.7392 21.0106 0.7344 21.065 0.7392 21.2106C0.744 21.369 0.7504 21.3994 0.7936 21.4922C0.936 21.7898 1.2192 22.0266 1.5328 22.1066C1.5888 22.1226 1.696 22.1322 1.7904 22.1322C1.9824 22.1322 2.0368 22.1146 2.2544 21.9834C2.3376 21.9338 2.4096 21.8922 2.416 21.8922C2.4224 21.8922 2.4624 21.9834 2.5072 22.097L2.5888 22.3002L2.4512 22.3274C2.0816 22.401 1.7776 22.6778 1.688 23.0202C1.656 23.145 1.656 23.4394 1.688 23.5642C1.7696 23.8842 2.0192 24.1578 2.3072 24.2458C2.4032 24.2746 2.4496 24.2794 2.6848 24.2746L2.9536 24.2682L3.0736 24.209C3.1376 24.1754 3.2496 24.1018 3.3184 24.0458C3.3888 23.9882 3.4496 23.945 3.4544 23.9498C3.4592 23.953 3.5104 24.0378 3.568 24.137L3.6752 24.3162L3.552 24.3562C3.3952 24.4074 3.2896 24.4762 3.1632 24.6122C3.0416 24.7402 2.96 24.8794 2.912 25.041C2.8624 25.2026 2.872 25.4633 2.9312 25.6233C3.0288 25.8857 3.2176 26.1001 3.4496 26.2153L3.5888 26.2841L3.8032 26.2889C4.0512 26.2969 4.1984 26.2697 4.3536 26.1929C4.448 26.1449 4.6288 25.9865 4.7008 25.8841L4.736 25.8361L4.8896 25.9929L5.0416 26.1497L4.9648 26.1897C4.792 26.2745 4.5952 26.4841 4.4912 26.6905L4.424 26.8249V27.0745C4.424 27.3625 4.448 27.4601 4.5632 27.6393C4.6512 27.7769 4.7088 27.8345 4.8432 27.9241C5.0192 28.0409 5.1216 28.0713 5.368 28.0793C5.56 28.0873 5.5856 28.0841 5.6976 28.0473C5.7648 28.0249 5.8656 27.9785 5.9216 27.9465C6.0608 27.8649 6.2416 27.6809 6.2976 27.5609L6.3424 27.4649L6.5072 27.6025C6.5984 27.6777 6.672 27.7433 6.672 27.7481C6.6704 27.7529 6.632 27.7833 6.5824 27.8169C6.424 27.9273 6.2976 28.1257 6.2384 28.3529C6.1968 28.5161 6.1968 28.8105 6.2368 28.9433C6.312 29.1817 6.5152 29.3977 6.7856 29.5241C6.952 29.6009 7.072 29.6249 7.2544 29.6169C7.5168 29.6057 7.7056 29.5161 7.9216 29.3017C8.0528 29.1705 8.1392 29.0217 8.1552 28.9017L8.1648 28.8361L8.2944 28.9065C8.3664 28.9449 8.4544 28.9945 8.4912 29.0153L8.5584 29.0537L8.4544 29.1817C8.3984 29.2505 8.3248 29.3625 8.2912 29.4265L8.232 29.5465L8.2256 29.7977C8.2224 29.9465 8.2288 30.0841 8.2384 30.1336C8.3056 30.4456 8.592 30.724 8.936 30.812C9.0832 30.8488 9.4 30.844 9.5248 30.8024C9.864 30.6888 10.1408 30.3528 10.1728 30.0153C10.1776 29.9577 10.1872 29.9241 10.1984 29.9289C10.208 29.9321 10.3072 29.9657 10.4176 30.0041L10.6176 30.0745L10.5248 30.2328C10.3808 30.476 10.368 30.516 10.368 30.7448C10.368 30.964 10.384 31.036 10.472 31.2024C10.5856 31.4184 10.8096 31.6136 11.0368 31.6936C11.1296 31.7256 11.1744 31.732 11.3696 31.732C11.7072 31.732 11.8688 31.6712 12.072 31.468C12.2624 31.2792 12.352 31.0648 12.352 30.8008C12.352 30.724 12.3568 30.66 12.3648 30.66C12.3712 30.66 12.4672 30.6792 12.5808 30.7032C12.8192 30.7528 12.8144 30.7464 12.7264 30.9256L12.6688 31.0424L12.6752 31.3208L12.68 31.5992L12.7504 31.7384C12.864 31.9688 13.0624 32.148 13.32 32.252C13.464 32.3112 13.7264 32.3256 13.8896 32.2856C14.1936 32.2088 14.4352 32.004 14.592 31.6872C14.6624 31.5448 14.6736 31.4504 14.6496 31.236C14.6384 31.1352 14.632 31.0488 14.6336 31.0456C14.6368 31.0424 14.6992 31.0472 14.7712 31.0568C14.8448 31.068 14.9376 31.076 14.9808 31.076C15.0672 31.076 15.0688 31.0808 15.032 31.22C14.9952 31.3544 15 31.6712 15.04 31.7864C15.0976 31.956 15.1712 32.0712 15.304 32.2056C15.4096 32.3112 15.4528 32.3416 15.544 32.38C15.6064 32.404 15.6944 32.4424 15.7424 32.4632C15.8144 32.4936 15.8544 32.5 16 32.5C16.1456 32.5 16.1856 32.4936 16.2576 32.4632C16.3056 32.4424 16.3936 32.404 16.456 32.3784C16.7216 32.2696 16.9568 31.9384 16.9952 31.6152C17.008 31.5112 17.0048 31.4552 16.976 31.2824C16.9568 31.1672 16.944 31.0712 16.9472 31.0696C16.9488 31.0664 17.0464 31.06 17.1632 31.0552L17.3744 31.0472L17.368 31.0904C17.3424 31.2344 17.3312 31.4392 17.344 31.5048C17.3936 31.7656 17.6384 32.0792 17.8912 32.2024C18.0688 32.2888 18.1824 32.3128 18.3904 32.3048C18.5392 32.3 18.5856 32.2904 18.68 32.252C18.9376 32.148 19.136 31.9688 19.2496 31.7384L19.32 31.5992L19.3248 31.3208L19.3312 31.0424L19.2736 30.9256C19.1856 30.7464 19.1808 30.7528 19.4208 30.7032C19.5328 30.6792 19.6288 30.66 19.6368 30.66C19.6432 30.66 19.648 30.724 19.648 30.8008C19.648 30.8776 19.6592 30.9832 19.672 31.0344C19.7536 31.3448 20.016 31.6168 20.3184 31.7064C20.4304 31.7384 20.7888 31.7416 20.9056 31.7096C21.1616 31.6424 21.4288 31.4168 21.5536 31.1656L21.624 31.0232L21.6288 30.7864C21.6352 30.5176 21.6352 30.5176 21.4768 30.2392C21.4288 30.1528 21.392 30.0793 21.3952 30.0745C21.4032 30.0681 21.8016 29.9241 21.8144 29.9241C21.8176 29.9241 21.824 29.9657 21.8288 30.0153C21.8592 30.3528 22.136 30.6888 22.4752 30.8024C22.6 30.844 22.9168 30.8488 23.064 30.812C23.408 30.724 23.6944 30.4456 23.7616 30.1336C23.7712 30.0841 23.7776 29.9465 23.7744 29.7977L23.768 29.5465L23.7088 29.4265C23.6752 29.3625 23.6016 29.2505 23.5456 29.1817L23.4416 29.0537L23.5088 29.0153C23.5456 28.9945 23.6336 28.9449 23.7056 28.9065L23.8352 28.8361L23.8448 28.9017C23.8608 29.0249 23.9488 29.1705 24.088 29.3081C24.3088 29.5273 24.5088 29.6201 24.7552 29.6201C24.9424 29.6201 25.0736 29.5881 25.264 29.4953C25.4656 29.3977 25.6288 29.2393 25.7216 29.0521L25.784 28.9257V28.6297V28.3321L25.7312 28.2201C25.6608 28.0729 25.5696 27.9561 25.4368 27.8473L25.328 27.7577L25.4752 27.6089C25.5568 27.5273 25.6272 27.4601 25.632 27.4601C25.6368 27.4601 25.6912 27.5305 25.7552 27.6169C25.9584 27.8921 26.0672 27.9769 26.3168 28.0521C26.4192 28.0841 26.4592 28.0873 26.6368 28.0793C26.8832 28.0697 26.9888 28.0377 27.1664 27.9177C27.3632 27.7833 27.5024 27.5817 27.5616 27.3497C27.6016 27.1881 27.5872 26.8921 27.5328 26.7593C27.4304 26.5129 27.2432 26.2921 27.0592 26.2009L26.9584 26.1497L27.112 25.9929L27.264 25.8361L27.2992 25.8841C27.3712 25.9865 27.552 26.1449 27.6464 26.1929C27.8016 26.2697 27.9488 26.2969 28.1968 26.2889L28.4112 26.2841L28.5488 26.2153C28.7824 26.1001 28.9808 25.8713 29.0736 25.6121C29.1216 25.4777 29.1328 25.217 29.0976 25.0762C29.056 24.913 28.968 24.753 28.8496 24.625C28.7216 24.4858 28.5904 24.3978 28.4448 24.3546C28.3856 24.3354 28.336 24.3178 28.336 24.3146C28.336 24.3098 28.384 24.225 28.4416 24.1226C28.5152 23.9962 28.5536 23.9434 28.5664 23.953C28.576 23.961 28.6416 24.0122 28.712 24.0682C28.7824 24.1242 28.8864 24.1914 28.944 24.2186C29.0448 24.2666 29.0576 24.2682 29.2992 24.273C29.4464 24.2762 29.5856 24.2714 29.6336 24.2618C29.9456 24.1946 30.224 23.9066 30.312 23.5642C30.344 23.4394 30.344 23.145 30.312 23.0202C30.272 22.8666 30.1952 22.7434 30.056 22.6026C29.9024 22.4474 29.7584 22.369 29.5504 22.3274L29.4128 22.3002L29.4912 22.0954C29.536 21.9834 29.5776 21.8922 29.584 21.8922C29.5904 21.8922 29.6624 21.9338 29.7456 21.9834C29.9632 22.1146 30.0176 22.1322 30.2096 22.1322C30.4 22.1322 30.52 22.105 30.6784 22.025C30.9104 21.9098 31.0976 21.7194 31.2064 21.4922C31.2496 21.401 31.256 21.3674 31.2608 21.2202C31.2672 21.0266 31.2432 20.8954 31.168 20.7306C31.0656 20.5035 30.8944 20.3195 30.6976 20.2267C30.5872 20.1739 30.4976 20.1547 30.2944 20.1371L30.1488 20.1243L30.1968 19.9195C30.2368 19.7531 30.2512 19.7163 30.2752 19.7163C30.2896 19.7163 30.3584 19.7387 30.4272 19.7675C30.544 19.8155 30.568 19.8187 30.7824 19.8251C31.0672 19.8331 31.1648 19.8107 31.3328 19.7003C31.5216 19.5771 31.672 19.3851 31.7568 19.1595C31.8096 19.0155 31.824 18.7483 31.7856 18.5979C31.7392 18.4203 31.6688 18.2971 31.528 18.1547C31.304 17.9275 31.0592 17.8363 30.7104 17.8475L30.5248 17.8523L30.5344 17.7883C30.5392 17.7531 30.5472 17.6619 30.5536 17.5835C30.5664 17.4219 30.544 17.4331 30.7952 17.4699C31.1152 17.5179 31.2928 17.4891 31.5168 17.3515C31.7152 17.2331 31.8288 17.0907 31.9056 16.8731C31.9328 16.7963 31.9648 16.7131 31.9776 16.6891C31.992 16.6603 32 16.5899 32 16.4763V16.3083L31.9104 16.1243C31.7792 15.8524 31.6896 15.7452 31.4944 15.6284C31.3424 15.5356 31.2272 15.5084 31.0016 15.5084C30.8736 15.5084 30.7776 15.5164 30.7264 15.5324C30.6832 15.5452 30.6288 15.5564 30.6048 15.5564H30.56L30.5584 15.4316C30.5584 15.3644 30.552 15.2716 30.5456 15.2284L30.5344 15.1484L30.776 15.1532C30.9904 15.158 31.0288 15.1548 31.12 15.1244C31.5152 14.9916 31.808 14.59 31.808 14.1788C31.808 14.0028 31.7904 13.9228 31.712 13.7564C31.6016 13.5164 31.4128 13.3132 31.216 13.222C31.1344 13.1836 31.1104 13.1804 30.8528 13.1756L30.5792 13.1708L30.4416 13.2268C30.248 13.3068 30.248 13.3068 30.2176 13.1676C30.2032 13.1052 30.1808 13.0108 30.1696 12.9612L30.1472 12.8716L30.2704 12.862C30.4752 12.846 30.5776 12.822 30.7184 12.7548C30.8272 12.7036 30.8784 12.6668 30.976 12.5676C31.1744 12.3644 31.264 12.142 31.264 11.8396C31.264 11.574 31.1872 11.4156 30.936 11.1644C30.808 11.0365 30.7504 10.9901 30.6496 10.9405L30.5232 10.8765L30.2928 10.8717C30.0192 10.8653 29.9936 10.8717 29.7584 11.0109C29.6688 11.0653 29.5888 11.1084 29.5824 11.1084C29.576 11.1084 29.536 11.0173 29.4912 10.9037L29.4128 10.7005L29.5504 10.6733C29.9168 10.5997 30.2224 10.3229 30.312 9.98047C30.344 9.85568 30.344 9.56128 30.312 9.43649C30.224 9.09409 29.9456 8.8061 29.6336 8.7389C29.5856 8.7293 29.4448 8.7245 29.2912 8.7277C29.048 8.7325 29.0272 8.7357 28.944 8.7757C28.896 8.7997 28.8064 8.8589 28.744 8.9069C28.6832 8.9565 28.6128 9.01089 28.5888 9.02849L28.5472 9.06049L28.4352 8.8733L28.3232 8.6845L28.432 8.6509C28.576 8.6061 28.6656 8.5517 28.792 8.43491C28.9088 8.32611 29.0064 8.17891 29.0688 8.02212C29.1072 7.92612 29.1104 7.89572 29.1104 7.70052C29.1104 7.50693 29.1072 7.47333 29.0688 7.37733C28.968 7.11173 28.7824 6.90054 28.5504 6.78534L28.4112 6.71654H28.112H27.8144L27.704 6.77254C27.6192 6.81414 27.552 6.86854 27.424 6.99654L27.256 7.16453L27.1056 7.00934C27.0224 6.92294 26.9568 6.85094 26.9616 6.84774C26.9648 6.84454 27.032 6.79974 27.112 6.74854C27.3536 6.59335 27.4928 6.42215 27.5584 6.19815C27.5968 6.06856 27.5936 5.78856 27.5504 5.63657C27.464 5.32137 27.2176 5.05738 26.9136 4.95338C26.8272 4.92458 26.7728 4.91658 26.6144 4.91658C26.3904 4.91658 26.2688 4.94538 26.096 5.04138C25.952 5.11978 25.7616 5.31337 25.7024 5.43817L25.6576 5.53577L25.496 5.40137C25.408 5.32777 25.336 5.26057 25.336 5.25417C25.336 5.24777 25.3824 5.20137 25.44 5.15338C25.5712 5.04298 25.6624 4.92458 25.7312 4.78058C25.7824 4.67019 25.784 4.66379 25.7888 4.41739C25.7936 4.2174 25.7888 4.147 25.768 4.0734C25.7184 3.9038 25.5904 3.72461 25.4336 3.60781C25.0576 3.32941 24.6288 3.30381 24.2704 3.53901C24.0496 3.68461 23.8688 3.923 23.8448 4.099L23.8352 4.1646L23.7056 4.0942C23.6336 4.0558 23.5456 4.0062 23.5088 3.9854L23.4416 3.947L23.5456 3.819C23.6016 3.75021 23.6752 3.63981 23.7088 3.57421L23.768 3.45421L23.7728 3.20302C23.7792 2.91662 23.7648 2.81903 23.6928 2.67343C23.6192 2.52783 23.4352 2.34703 23.28 2.27184C23.0928 2.18064 22.9904 2.16144 22.736 2.16784L22.5168 2.17264L22.376 2.24304C22.2064 2.32623 22.0224 2.49743 21.9296 2.65903C21.864 2.77262 21.792 2.96942 21.792 3.03662C21.792 3.06382 21.784 3.07822 21.7728 3.07342C21.7616 3.06862 21.6688 3.03502 21.5664 2.99662L21.3808 2.92622L21.4528 2.81422C21.5968 2.58863 21.632 2.46703 21.632 2.18864C21.632 2.04144 21.6256 1.98864 21.5984 1.91344C21.4848 1.60945 21.184 1.35026 20.84 1.26066C20.7216 1.23026 20.4992 1.23026 20.384 1.26066C20.0944 1.33746 19.832 1.57105 19.7088 1.86065C19.6656 1.96464 19.6576 2.00464 19.6512 2.15984C19.6464 2.27984 19.6384 2.34064 19.6256 2.34064C19.5888 2.33904 19.1984 2.25104 19.1984 2.24464C19.1984 2.23984 19.2256 2.17904 19.2592 2.10864L19.32 1.98064L19.3248 1.70065C19.3296 1.44785 19.3264 1.40945 19.2976 1.33266C19.2224 1.13586 19.0064 0.913465 18.7792 0.798267C18.624 0.71987 18.5152 0.692669 18.344 0.692669C18.176 0.692669 18.0528 0.71987 17.8944 0.795067C17.6464 0.911865 17.3936 1.23346 17.344 1.49585C17.3312 1.56145 17.3424 1.76625 17.368 1.91024L17.3744 1.95344L17.1632 1.94544C17.0464 1.94064 16.9488 1.93424 16.9456 1.93104C16.9424 1.92944 16.9568 1.83504 16.976 1.72145C17.0256 1.42385 17.0048 1.27506 16.8816 1.03666C16.8192 0.916664 16.6736 0.748669 16.5696 0.67667C16.5328 0.65267 16.4512 0.614271 16.3872 0.590271C16.3232 0.567873 16.2496 0.537474 16.224 0.524673C16.1664 0.494274 15.8336 0.491074 15.784 0.519873ZM17.216 2.55503C17.7328 2.60303 18.152 2.67343 19.104 2.87182C20.0608 3.07022 20.3376 3.16302 21.5792 3.69261C22.1696 3.9454 22.6192 4.1646 22.992 4.38219C25.1744 5.65896 27.24 7.80292 28.3648 9.95807C28.6352 10.4765 29.1296 11.662 29.344 12.3084C29.6208 13.1452 29.8576 14.318 29.944 15.2924C29.9984 15.9019 29.9888 17.4091 29.928 18.0203C29.8 19.2939 29.4736 20.4635 28.7808 22.1306C28.4464 22.937 28.1888 23.4218 27.7296 24.1162C26.4176 26.1001 24.352 27.9657 22.392 28.9385C21.8464 29.2089 20.7296 29.6761 20.224 29.8457C19.8368 29.9753 19.6688 30.0153 18.8496 30.18C17.7888 30.3928 17.4432 30.4408 16.776 30.4696C16.2592 30.4936 15.0752 30.4776 14.736 30.444C14.2256 30.3928 13.664 30.3032 13.072 30.1784C12.1552 29.9833 11.752 29.8537 10.728 29.4281C10.4912 29.3289 10.2064 29.2137 10.096 29.1689C9.5952 28.9705 9.024 28.6489 8.192 28.0953C7.4976 27.6329 7.0864 27.2985 6.3968 26.6345C4.5904 24.8938 3.528 23.2218 2.7264 20.8618C2.3456 19.7387 2.1328 18.7531 2.0448 17.6923C2.0176 17.3675 2.0192 15.6076 2.0464 15.2684C2.1632 13.798 2.496 12.5772 3.2992 10.6765C3.7568 9.59488 4.4224 8.5549 5.344 7.47653C6.3808 6.26535 7.7088 5.14218 8.984 4.39499C9.5536 4.0622 10.4864 3.63981 11.4352 3.28621C12.4816 2.89582 14.0064 2.58703 15.152 2.53263C15.5824 2.51183 16.904 2.52623 17.216 2.55503Z" fill="#FFFBFF" />
                        <path d="M15.1039 3.10318C11.8671 3.28877 8.79992 4.72554 6.36792 7.19749C5.67351 7.90308 5.11671 8.60706 4.61271 9.41185C3.45271 11.2678 2.81431 13.2614 2.62071 15.6277C2.58711 16.0341 2.59351 17.4133 2.62871 17.7397C2.74711 18.818 2.97751 19.858 3.32471 20.8836C3.51831 21.4564 3.65431 21.778 3.92151 22.3076C4.71351 23.8755 5.46391 24.9155 6.64152 26.0755C7.03672 26.4643 7.29112 26.6915 7.66072 26.9875C9.58712 28.5266 11.8863 29.5058 14.2879 29.8114C14.8879 29.8866 15.0927 29.8978 15.9199 29.8994C16.7295 29.8994 16.9151 29.8914 17.4879 29.8258C20.0287 29.5378 22.4383 28.5282 24.4303 26.9171C25.1407 26.3411 25.8751 25.6067 26.4431 24.9043C28.0415 22.9284 29.0447 20.538 29.3263 18.0357C29.3919 17.4533 29.3999 17.2917 29.3999 16.4677C29.3983 15.6213 29.3887 15.4293 29.3103 14.8037C28.9839 12.1766 27.8863 9.75744 26.0703 7.67108C25.8159 7.37829 25.0879 6.6471 24.7999 6.39591C22.5023 4.38955 19.8015 3.29837 16.6559 3.10798C16.4191 3.09358 15.3279 3.09038 15.1039 3.10318ZM16.5439 3.23598C17.1839 3.25838 17.6127 3.29997 18.2399 3.40557C19.4735 3.61037 20.8351 4.05836 21.8559 4.59115C23.3471 5.37193 24.7823 6.38311 25.2639 6.9959C25.3199 7.0663 25.4223 7.17189 25.4927 7.23109C25.6991 7.40549 26.0543 7.80708 26.4303 8.28867C26.9455 8.95106 27.5327 9.88544 27.9279 10.6742C28.5903 11.9958 29.0335 13.503 29.1983 14.9877C29.3087 15.9749 29.2991 17.2229 29.1743 18.2117C28.9903 19.6804 28.5039 21.2388 27.8447 22.4756C27.0479 23.9699 26.0879 25.3107 25.4703 25.7923C25.4111 25.8387 25.3343 25.9139 25.2959 25.9619C25.2591 26.0115 25.1311 26.1459 25.0095 26.2627C24.5119 26.7475 23.5775 27.4307 22.6559 27.9827C22.1375 28.2946 21.9039 28.413 21.3119 28.661C19.9951 29.213 19.7823 29.2818 18.7759 29.4818C17.6799 29.6978 17.3583 29.7394 16.5647 29.7666C16.1263 29.781 15.8735 29.781 15.4367 29.7666C14.6143 29.7394 14.2735 29.693 13.1103 29.4578C12.2671 29.2882 11.9727 29.1986 11.1919 28.8706C11.0255 28.8002 10.7551 28.6882 10.5919 28.621C10.2063 28.4594 9.94872 28.333 9.57592 28.1187C8.61112 27.5651 7.53592 26.7939 6.99032 26.2627C6.86872 26.1459 6.74072 26.0115 6.70392 25.9635C6.66712 25.9155 6.57432 25.8275 6.49912 25.7667C5.87352 25.2659 4.87191 23.8467 4.08311 22.3396C3.48631 21.2004 3.02711 19.7092 2.83191 18.2837C2.69111 17.2405 2.69111 15.7765 2.83191 14.7317C3.05591 13.0886 3.55831 11.5734 4.35191 10.1478C4.65591 9.60064 5.12951 8.86626 5.45591 8.43747C5.86552 7.89828 6.29592 7.40549 6.51512 7.22309C6.57912 7.16869 6.67832 7.07109 6.73432 7.0055C6.93592 6.7671 7.50072 6.28071 8.07192 5.85512C8.32152 5.66792 9.07032 5.17193 9.41432 4.96554C9.82072 4.72075 10.1615 4.55755 10.7407 4.32555C13.0671 3.39597 14.3183 3.16078 16.5439 3.23598Z" fill="#FFFBFF" />
                        <path d="M15.9872 3.69617C15.9584 3.71057 15.9152 3.74737 15.8912 3.77777C15.8352 3.84977 15.824 3.99697 15.864 4.11697C15.8848 4.17936 15.8864 4.20496 15.8736 4.21776C15.8592 4.23216 15.6944 4.23856 15.304 4.24176L14.752 4.24656V4.30896V4.37296H15.104H15.456V4.62096C15.456 4.90095 15.4416 4.96335 15.3616 5.00335C15.336 5.01775 15.2816 5.02895 15.2432 5.02895C15.144 5.02895 15.112 4.99055 15.112 4.86575C15.112 4.78095 15.1168 4.76495 15.1568 4.73135C15.1824 4.71055 15.2304 4.68815 15.2656 4.68335C15.3296 4.67215 15.3296 4.67215 15.3248 4.60656C15.32 4.54096 15.32 4.54096 15.248 4.53616C15.1504 4.52816 15.0544 4.55856 14.984 4.61776C14.9072 4.68015 14.88 4.74735 14.88 4.86895C14.88 5.01455 14.9408 5.11534 15.0672 5.17934C15.136 5.21454 15.3632 5.21614 15.392 5.18094C15.4032 5.16814 15.4224 5.15694 15.4336 5.15694C15.4512 5.15694 15.456 5.18734 15.456 5.29294V5.42894H15.552H15.648V5.16494C15.648 4.87055 15.6592 4.82255 15.7424 4.75215C15.8064 4.69775 15.8864 4.69455 15.9296 4.74255C15.9536 4.76975 15.96 4.79855 15.9584 4.88335C15.9568 5.00335 15.9424 5.03535 15.8608 5.12654C15.8304 5.16014 15.808 5.19854 15.8128 5.20814C15.8176 5.21934 15.8544 5.24654 15.8944 5.26894L15.9696 5.30894L16.024 5.24494C16.0528 5.20974 16.1008 5.14094 16.1312 5.09455C16.1744 5.02095 16.184 4.98735 16.1888 4.88975C16.1952 4.78735 16.1904 4.76495 16.1536 4.70255C16.0816 4.57936 16.0512 4.56496 15.8672 4.56496C15.7408 4.56496 15.7008 4.56976 15.6768 4.59216C15.6496 4.61616 15.648 4.61296 15.648 4.49616V4.37296H15.968H16.288V4.30896V4.24496H16.096C15.9792 4.24496 15.904 4.23856 15.904 4.22896C15.904 4.21936 15.9472 4.21296 16 4.21296C16.1072 4.21296 16.1104 4.20976 16.072 4.10097C16.0304 3.98417 16.04 3.92017 16.104 3.86257C16.1824 3.79377 16.28 3.79217 16.3568 3.86097C16.4144 3.91057 16.5072 4.09457 16.5232 4.18736L16.5328 4.24496H16.4416H16.352V4.32496V4.40496H16.424H16.496V4.46576C16.496 4.49776 16.4848 4.65455 16.4704 4.81295C16.4432 5.11854 16.4464 5.34414 16.48 5.41614C16.4992 5.45614 16.5088 5.46094 16.584 5.46094H16.6672L16.6768 5.36014C16.6816 5.30574 16.6976 5.07535 16.7136 4.84815L16.7424 4.43696H16.8032H16.864V4.35696V4.27696H16.8016C16.7408 4.27696 16.7408 4.27536 16.7312 4.20656C16.7056 4.02737 16.576 3.80017 16.4528 3.71857C16.3808 3.67058 16.3712 3.66898 16.2096 3.66898C16.0848 3.66898 16.0256 3.67698 15.9872 3.69617Z" fill="#FFFBFF" />
                        <path d="M13.1279 3.97346C13.0751 4.00386 12.9743 4.10465 12.9503 4.15105C12.9199 4.21025 12.9215 4.46145 12.9519 4.51585C12.9887 4.57984 12.9807 4.59424 12.9087 4.59904L12.8399 4.60384L12.8351 4.67904L12.8303 4.75584H12.9247C12.9823 4.75584 13.0271 4.76384 13.0367 4.77504C13.0447 4.78624 13.0575 4.83904 13.0639 4.89184C13.0703 4.94464 13.1071 5.11743 13.1455 5.27583C13.1839 5.43423 13.2207 5.59742 13.2255 5.63902L13.2367 5.71582H13.3279C13.3903 5.71582 13.4271 5.70782 13.4399 5.69182C13.4703 5.65502 13.4511 5.51262 13.3871 5.29183C13.3215 5.06623 13.2639 4.79744 13.2639 4.71744C13.2639 4.66624 13.2687 4.65984 13.3039 4.65984C13.3407 4.65984 13.3439 4.65344 13.3439 4.58784C13.3439 4.51105 13.3439 4.51105 13.2479 4.51585C13.1711 4.51905 13.1359 4.47745 13.1263 4.37025C13.1151 4.26145 13.1535 4.18305 13.2319 4.14465C13.2799 4.12065 13.3103 4.11905 13.4559 4.13185C13.7183 4.15585 14.2031 4.29185 14.1423 4.32385C14.1295 4.33025 13.9599 4.35585 13.7647 4.38145L13.4079 4.42625V4.52065V4.61664L13.4687 4.60704C13.5007 4.60224 13.5791 4.59264 13.6399 4.58624L13.7535 4.57664L13.7823 4.69824C13.7983 4.76384 13.8063 4.82624 13.8015 4.83424C13.7951 4.84224 13.7551 4.86144 13.7119 4.87584C13.6047 4.91104 13.6063 4.94464 13.7167 5.05183C13.8111 5.14463 13.9215 5.20383 13.9967 5.20383C14.0383 5.20383 14.0495 5.19583 14.0575 5.16223C14.0735 5.09983 14.0543 4.84704 14.0239 4.68704C14.0079 4.61024 13.9983 4.54465 14.0015 4.54145C14.0047 4.53825 14.0671 4.53025 14.1375 4.52385C14.2655 4.51265 14.2671 4.51265 14.2767 4.54944C14.2815 4.57024 14.3167 4.79104 14.3535 5.03903L14.4223 5.49183H14.5471C14.6687 5.49183 14.6719 5.49023 14.6639 5.45503C14.6511 5.39903 14.5119 4.49025 14.5119 4.46145C14.5119 4.44545 14.5263 4.43585 14.5519 4.43585C14.5887 4.43585 14.5919 4.43105 14.5919 4.35585V4.27585H14.4671C14.3583 4.27585 14.3375 4.27105 14.3103 4.24065C14.2719 4.19745 14.0367 4.08545 13.8399 4.01826C13.6959 3.96866 13.6719 3.96546 13.4239 3.96066C13.2447 3.95746 13.1503 3.96066 13.1279 3.97346Z" fill="#FFFBFF" />
                        <path d="M19.1936 4.18022C19.1792 4.21542 19.168 4.26982 19.168 4.29862V4.35302L19.2896 4.36422C19.3568 4.37061 19.4176 4.36901 19.4256 4.36102C19.432 4.35462 19.4432 4.30022 19.4496 4.24262L19.4592 4.13702L19.3984 4.12742C19.3632 4.12102 19.3104 4.11622 19.2784 4.11622C19.224 4.11622 19.2176 4.12262 19.1936 4.18022Z" fill="#FFFBFF" />
                        <path d="M11.8974 4.28443C11.883 4.30683 11.8606 4.34203 11.8462 4.36443L11.8206 4.40283L12.1134 4.55003C12.3854 4.68602 12.4046 4.69722 12.3758 4.71962C12.3582 4.73082 12.3262 4.74522 12.3038 4.75002C12.227 4.76762 12.2238 4.77082 12.2238 4.84282C12.2238 4.91642 12.2398 4.93242 12.3102 4.93242C12.355 4.93242 12.419 4.99322 12.4542 5.06841C12.4686 5.09721 12.5086 5.23161 12.5422 5.36761C12.6046 5.6076 12.6462 5.7436 12.6894 5.8348C12.7102 5.878 12.715 5.8796 12.795 5.8732C12.843 5.8684 12.8878 5.8588 12.8974 5.8492C12.9086 5.838 12.875 5.6796 12.7854 5.33721C12.7134 5.06521 12.6558 4.83802 12.6558 4.83162C12.6558 4.82522 12.6734 4.82042 12.6974 4.82042C12.7358 4.82042 12.7374 4.81722 12.7326 4.74362L12.7278 4.66842L12.6414 4.66362C12.5598 4.65882 12.5374 4.64762 12.2542 4.45083C12.0894 4.33723 11.947 4.24443 11.939 4.24443C11.931 4.24443 11.9118 4.26203 11.8974 4.28443Z" fill="#FFFBFF" />
                        <path d="M17.9521 4.48929V4.57569L18.1729 4.62049C18.2929 4.64449 18.3985 4.67009 18.4049 4.67649C18.4161 4.68769 18.3825 4.90848 18.3585 4.97888C18.3537 4.99488 18.3217 4.97408 18.2561 4.90848C18.1969 4.85088 18.1665 4.80768 18.1713 4.79168C18.1793 4.77568 18.1729 4.77088 18.1505 4.77728C18.1345 4.78368 18.0849 4.79488 18.0433 4.80608C17.9889 4.81888 17.9681 4.83168 17.9745 4.84768C17.9793 4.85888 18.0609 5.05248 18.1537 5.27647C18.3441 5.72926 18.3249 5.70686 18.4657 5.65567L18.5409 5.62847L18.4401 5.41887L18.3409 5.21088L18.4609 5.14048C18.5281 5.10208 18.5841 5.07648 18.5873 5.08608C18.5905 5.09408 18.6065 5.12448 18.6241 5.15328C18.6609 5.21248 18.7105 5.23647 18.8017 5.23647C18.8785 5.23647 18.8785 5.23807 18.8241 5.47967C18.8017 5.57727 18.7841 5.67967 18.7841 5.70846C18.7841 5.82526 18.9121 5.89246 18.9697 5.80446C18.9841 5.78206 19.0129 5.68287 19.0337 5.58367C19.0529 5.48447 19.0881 5.33247 19.1089 5.24447C19.1313 5.15648 19.1553 5.04128 19.1601 4.98848C19.1745 4.87008 19.1873 4.85248 19.2657 4.85248H19.3281V4.76768V4.68289L18.6609 4.54369C18.2929 4.46689 17.9825 4.40449 17.9729 4.40449C17.9585 4.40449 17.9521 4.43169 17.9521 4.48929ZM18.9633 4.86688C18.9569 4.99808 18.9345 5.07168 18.8993 5.08288C18.8849 5.08768 18.8321 5.08128 18.7841 5.06848C18.7361 5.05568 18.6769 5.04448 18.6529 5.04448C18.6225 5.04448 18.6081 5.03648 18.6081 5.01888C18.6081 4.99008 18.6401 4.77248 18.6465 4.74849C18.6497 4.73729 18.7057 4.73729 18.8113 4.74689L18.9697 4.76128L18.9633 4.86688Z" fill="#FFFBFF" />
                        <path d="M19.4609 4.83657C19.4417 4.93417 19.4225 4.91977 19.7041 5.01257C19.8193 5.05096 19.9137 5.08296 19.9153 5.08456C19.9281 5.09416 19.7937 5.38856 19.7745 5.39176C19.7617 5.39496 19.7265 5.35176 19.6881 5.28296L19.6257 5.17096L19.5601 5.17576L19.4961 5.18056L19.4977 5.31656C19.4977 5.43976 19.5073 5.47816 19.5969 5.73895C19.6513 5.89575 19.6961 6.04294 19.6961 6.06534C19.6961 6.10214 19.7009 6.10374 19.7569 6.09414C19.7889 6.08934 19.8465 6.07654 19.8833 6.06534L19.9505 6.04454L19.8481 5.81255L19.7457 5.58055L19.8593 5.56935C19.9265 5.56135 19.9841 5.54695 20.0017 5.53095C20.0289 5.50696 20.0305 5.51016 20.0497 5.57255C20.0721 5.64775 20.1153 5.68455 20.1793 5.68455C20.2097 5.68455 20.2225 5.67495 20.2273 5.65095C20.2321 5.61895 20.2337 5.61895 20.2705 5.65895L20.3089 5.70055H20.2641H20.2193L20.2289 5.79495C20.2385 5.91655 20.2849 6.01574 20.3713 6.11014C20.4785 6.22854 20.5649 6.26054 20.7729 6.26054C20.8673 6.26054 20.9441 6.26534 20.9441 6.27174C20.9441 6.27654 20.9185 6.32614 20.8881 6.38214C20.8529 6.44454 20.8321 6.50373 20.8321 6.54053C20.8321 6.59173 20.8385 6.60133 20.8881 6.62213C20.9185 6.63333 20.9649 6.64453 20.9905 6.64453C21.0353 6.64453 21.0449 6.63013 21.2593 6.20454L21.4801 5.76455L21.5281 5.77415C21.5553 5.77895 21.5825 5.78535 21.5905 5.78695C21.5985 5.78695 21.6145 5.75815 21.6257 5.72135C21.6401 5.67015 21.6417 5.65095 21.6273 5.63975C21.6065 5.62215 21.2209 5.42856 21.2097 5.42856C21.2049 5.42856 21.1793 5.46216 21.1505 5.50216C21.0945 5.58535 21.0993 5.59495 21.2049 5.61255C21.2641 5.62375 21.2657 5.62535 21.2561 5.67335C21.2369 5.76935 21.1521 5.92295 21.0849 5.97895C21.0497 6.01094 20.9841 6.04774 20.9425 6.06054C20.8353 6.09574 20.6465 6.09734 20.5793 6.06214C20.5297 6.03654 20.4641 5.95335 20.4641 5.91495C20.4641 5.90375 20.5185 5.89415 20.6049 5.88775C20.7969 5.87495 20.8993 5.83335 20.9409 5.75335C20.9521 5.73415 20.9601 5.65095 20.9601 5.56295C20.9601 5.42536 20.9553 5.39976 20.9201 5.33736C20.8929 5.29096 20.8513 5.25256 20.7953 5.22056C20.7233 5.17896 20.6961 5.17256 20.5953 5.17256C20.4865 5.17256 20.4737 5.17576 20.4305 5.21896C20.3873 5.26376 20.3841 5.27336 20.3841 5.39976C20.3841 5.52136 20.3873 5.53895 20.4225 5.57095C20.4433 5.59015 20.4897 5.61095 20.5249 5.61575C20.5889 5.62375 20.5905 5.62375 20.6001 5.56775C20.6081 5.52775 20.6033 5.50056 20.5841 5.47016C20.5585 5.43176 20.5585 5.42536 20.5825 5.38856C20.6193 5.33256 20.6945 5.33416 20.7313 5.39176C20.7713 5.45256 20.7697 5.57415 20.7265 5.63175C20.6721 5.70375 20.6001 5.72295 20.4673 5.70055C20.3633 5.68295 20.3553 5.67975 20.3473 5.63655C20.3345 5.57575 20.2609 5.52775 20.1489 5.50536C20.0977 5.49416 20.0545 5.48456 20.0513 5.48296C20.0481 5.48136 20.0657 5.41416 20.0897 5.33416L20.1345 5.18856L20.2225 5.19336L20.3121 5.19656L20.3169 5.11656L20.3217 5.03657L19.9169 4.90217C19.6945 4.82857 19.5041 4.76457 19.4945 4.76137C19.4833 4.75817 19.4705 4.78857 19.4609 4.83657Z" fill="#FFFBFF" />
                        <path d="M12.0641 4.79952C11.7569 4.90512 11.2081 5.12271 10.9793 5.22991L10.8145 5.30511L10.8193 5.36271C10.8241 5.41391 10.8305 5.42031 10.8721 5.42511C10.9009 5.42831 11.0113 5.39631 11.1633 5.33871C11.2977 5.28911 11.4113 5.25071 11.4145 5.25391C11.4177 5.25711 11.4241 5.27471 11.4305 5.29391C11.4401 5.32431 11.4257 5.33391 11.3169 5.38031C11.1745 5.4427 11.0641 5.5115 11.0497 5.5483C11.0321 5.5963 11.0401 5.6763 11.0657 5.7147C11.0977 5.7611 11.2289 5.8443 11.2673 5.8443C11.2913 5.8443 11.2961 5.8587 11.2961 5.94509C11.2961 6.02989 11.3025 6.05229 11.3329 6.08109C11.3697 6.11629 11.5809 6.19629 11.6353 6.19629C11.6513 6.19629 11.7745 6.11309 11.9089 6.01229L12.1521 5.8299L12.1825 5.92109C12.1985 5.97069 12.2145 6.01389 12.2145 6.01549C12.2241 6.02669 12.4209 5.97869 12.4257 5.96429C12.4305 5.95469 12.3537 5.7323 12.2561 5.4715C12.1601 5.20911 12.0801 4.99151 12.0801 4.98831C12.0801 4.98671 12.1025 4.97551 12.1297 4.96591C12.1633 4.95472 12.1761 4.94032 12.1713 4.92592C12.1665 4.91312 12.1569 4.87632 12.1505 4.84592C12.1409 4.78832 12.1217 4.77872 12.0641 4.79952ZM11.9569 5.33071C12.0641 5.6203 12.0657 5.5931 11.9313 5.7755C11.8433 5.8939 11.7425 5.95949 11.6433 5.95949C11.5505 5.96109 11.5361 5.94989 11.5361 5.8763C11.5361 5.8027 11.5873 5.7531 11.6833 5.7387C11.7521 5.7275 11.7537 5.7227 11.7169 5.6443C11.6849 5.5771 11.6689 5.5755 11.5297 5.6283C11.4065 5.6747 11.3041 5.6811 11.2897 5.6427C11.2833 5.6235 11.3265 5.5963 11.4801 5.5243C11.5905 5.4731 11.6801 5.42351 11.6801 5.41551C11.6801 5.40591 11.6689 5.34511 11.6545 5.27631C11.6401 5.20911 11.6321 5.15151 11.6353 5.14991C11.6401 5.14511 11.8353 5.08271 11.8561 5.07791C11.8609 5.07791 11.9057 5.19151 11.9569 5.33071Z" fill="#FFFBFF" />
                        <path d="M9.84957 5.17454C9.83517 5.19534 9.82397 5.22094 9.82397 5.23054C9.82397 5.24014 9.94877 5.30093 10.1008 5.36333C10.2512 5.42733 10.3824 5.48493 10.3904 5.49293C10.3984 5.50093 10.368 5.52493 10.3248 5.54573C10.224 5.59693 10.2048 5.62253 10.2112 5.68813L10.216 5.74092L10.32 5.73773L10.4256 5.73453L10.6544 6.18092C10.7792 6.42731 10.888 6.62891 10.8944 6.62891C10.9184 6.62891 11.072 6.49771 11.0704 6.48011C11.0704 6.46891 10.9712 6.27051 10.8496 6.03692L10.6288 5.61293L10.6816 5.58413C10.712 5.56973 10.736 5.55373 10.736 5.54893C10.736 5.54573 10.72 5.50893 10.7008 5.46893C10.6656 5.39853 10.664 5.39693 10.5888 5.39693C10.4944 5.39693 10.4256 5.36973 10.2016 5.24814C9.99357 5.13294 9.89277 5.11214 9.84957 5.17454Z" fill="#FFFBFF" />
                        <path d="M9.2673 5.50241C9.2465 5.54401 9.2353 5.58241 9.2433 5.58881C9.2497 5.59521 9.3873 5.6464 9.5489 5.7008L9.8417 5.8016L9.7969 5.8288C9.7713 5.8432 9.6177 5.9296 9.4529 6.0192C9.2865 6.11039 9.1521 6.19039 9.1521 6.19839C9.1521 6.21919 9.2145 6.34079 9.2257 6.34079C9.2289 6.34079 9.2609 6.32639 9.2961 6.30879C9.3313 6.29119 9.3617 6.27679 9.3665 6.27679C9.3713 6.27679 9.4081 6.34079 9.4481 6.41919C9.5393 6.59518 9.6385 6.69598 9.7617 6.73118C9.8081 6.74558 9.8593 6.75678 9.8753 6.75678C9.8913 6.75678 9.9041 6.75998 9.9041 6.76478C9.9041 6.76958 9.8641 6.82718 9.8161 6.89278C9.7681 6.95678 9.7281 7.01917 9.7281 7.02717C9.7281 7.05277 9.8161 7.09277 9.8689 7.09277C9.9265 7.09277 9.9441 7.07197 10.0401 6.90078C10.1393 6.72158 10.2081 6.61278 10.2225 6.61278C10.2289 6.61278 10.2625 6.67038 10.2961 6.74238C10.3313 6.81278 10.3649 6.87518 10.3697 6.87838C10.3777 6.88318 10.5745 6.81118 10.5873 6.79838C10.5905 6.79678 10.4801 6.58238 10.3441 6.32479C10.2081 6.0672 10.0977 5.8544 10.1009 5.8528C10.1025 5.8528 10.1249 5.8432 10.1489 5.832L10.1937 5.8128L10.1585 5.7488C10.1249 5.6896 10.1169 5.6848 10.0561 5.6848C9.9617 5.6848 9.8481 5.648 9.6113 5.53761C9.4977 5.48481 9.3809 5.43841 9.3537 5.43361C9.3073 5.42721 9.3009 5.43041 9.2673 5.50241ZM9.9921 6.18399C10.1009 6.39199 10.0897 6.50399 9.9585 6.55838C9.9089 6.57918 9.8961 6.57918 9.8481 6.55518C9.7841 6.52479 9.6641 6.35839 9.6177 6.23519L9.5857 6.15359L9.7329 6.07039C9.9041 5.976 9.8801 5.9664 9.9921 6.18399Z" fill="#FFFBFF" />
                        <path d="M21.6398 5.75899C21.6094 5.83899 21.6062 5.83099 21.699 5.88859C21.7614 5.92699 21.755 5.93979 21.4702 6.46298C21.3006 6.77177 21.283 6.83097 21.347 6.87577C21.3662 6.89017 21.4126 6.90137 21.4494 6.90137H21.5166L21.7374 6.47578C21.979 6.01339 21.9518 6.04539 22.0638 6.07898C22.0814 6.08378 22.1006 6.06298 22.1246 6.01339L22.1582 5.94299L22.091 5.90459C21.995 5.84859 21.6814 5.68539 21.675 5.68539C21.6718 5.68539 21.6558 5.71899 21.6398 5.75899Z" fill="#FFFBFF" />
                        <path d="M15.36 5.88626C14.9616 5.91825 14.8336 5.93266 14.584 5.96626C12.7488 6.21105 10.9792 6.95343 9.51203 8.09261C8.83043 8.6206 8.12003 9.33098 7.59203 10.0126C6.45283 11.4797 5.71043 13.2493 5.46563 15.0845C5.39203 15.6285 5.38403 15.7708 5.38403 16.5164C5.38403 17.278 5.39683 17.4604 5.48163 18.0444C6.15683 22.6683 9.83204 26.3434 14.456 27.0186C15.0464 27.105 15.2208 27.1162 16 27.1162C16.7792 27.1162 16.9536 27.105 17.544 27.0186C21.5024 26.441 24.8224 23.6523 26.0944 19.8364C26.336 19.11 26.4944 18.3644 26.5872 17.5004C26.608 17.2988 26.6144 17.094 26.616 16.5324C26.616 15.8044 26.6064 15.6285 26.5424 15.1325C25.9728 10.7422 22.6688 7.11503 18.3456 6.13265C17.9136 6.03505 17.528 5.97105 17.008 5.91506C16.7904 5.89106 15.56 5.87026 15.36 5.88626ZM16.736 6.02065C17.448 6.05585 18.2 6.19665 19.0528 6.45424C19.6 6.62064 20.0768 6.80944 20.568 7.05583C21.3536 7.45102 21.9536 7.82862 22.536 8.29901C23.0432 8.7086 23.7536 9.41898 24.1936 9.95657C24.8048 10.7038 25.3888 11.7037 25.752 12.6205C26.1056 13.5181 26.3664 14.5277 26.456 15.3565C26.4896 15.6605 26.5056 16.7244 26.4832 17.1884C26.4432 18.0012 26.2816 18.8236 25.9808 19.7452C25.8064 20.2828 25.672 20.6123 25.4528 21.0507C24.328 23.2971 22.8032 24.8251 20.5616 25.9482C19.4288 26.5162 17.9344 26.921 16.744 26.9802C16.3456 27.001 15.5152 27.001 15.192 26.9802C14.7776 26.953 14.2032 26.8634 13.656 26.7386C13.2912 26.6554 12.2496 26.3114 11.8416 26.137C11.2784 25.8986 10.4768 25.4458 9.94404 25.0683C9.12963 24.4891 8.20643 23.5867 7.58083 22.7531C7.10243 22.1179 6.62083 21.2795 6.31523 20.5483C5.96483 19.71 5.66883 18.63 5.56003 17.7964C5.48483 17.222 5.48483 15.806 5.56003 15.2285C5.66563 14.4093 5.92803 13.4157 6.25443 12.5981C6.60963 11.7101 7.19203 10.7166 7.79843 9.96457C8.20323 9.46218 8.87363 8.7902 9.42563 8.3294C10.136 7.73742 11.1664 7.12943 12.064 6.77264C13.1728 6.33105 14.3728 6.04305 15.216 6.01585C15.5728 6.00465 16.4576 6.00625 16.736 6.02065Z" fill="#FFFBFF" />
                        <path d="M15.4495 6.76435C14.9583 6.79155 14.8095 6.80595 14.7983 6.82195C14.7759 6.85715 14.7103 7.06834 14.6559 7.27954C14.6271 7.38514 14.5919 7.49553 14.5743 7.52273C14.5311 7.59473 14.4367 7.63473 14.2431 7.66193C14.0367 7.69073 14.0831 7.67793 13.3407 7.89393C13.0095 7.98992 12.7247 8.06832 12.7087 8.06832C12.6927 8.06832 12.5823 7.98032 12.4639 7.87473C12.1695 7.60913 12.1535 7.59953 12.0287 7.60753C11.9135 7.61553 11.7743 7.67313 11.4479 7.84913C11.0191 8.08112 10.4143 8.46351 10.2767 8.58991L10.2079 8.65231L10.2399 9.0843L10.2703 9.51629L10.2255 9.57229C10.2015 9.60269 10.0911 9.70669 9.9823 9.80269C9.5871 10.1483 9.5151 10.2203 9.2895 10.4811C8.9807 10.8411 8.9039 10.9163 8.8431 10.9163C8.8175 10.9163 8.6223 10.8939 8.4111 10.8683C8.1999 10.8411 8.0255 10.8219 8.0239 10.8235C8.0095 10.8379 7.6303 11.4715 7.4591 11.7642C7.1775 12.2474 7.0079 12.5818 7.0079 12.649C7.0079 12.7178 7.0239 12.7386 7.3071 13.0378C7.4383 13.177 7.5359 13.2938 7.5359 13.3114C7.5359 13.3274 7.4495 13.6474 7.3439 14.0202C7.2191 14.4586 7.1375 14.7802 7.1119 14.9274C7.0703 15.177 7.0255 15.3018 6.9615 15.3466C6.9391 15.3626 6.7999 15.4202 6.6527 15.473C6.5055 15.5274 6.3583 15.585 6.3247 15.6026L6.2623 15.633L6.2255 15.9834C6.1903 16.3161 6.1887 16.3545 6.2063 16.7497C6.2239 17.1721 6.2591 17.5385 6.2895 17.6329C6.3183 17.7225 6.4719 17.8137 6.7135 17.8825C6.7919 17.9065 6.9023 17.9289 6.9599 17.9337L7.0639 17.9433L7.1231 18.1865C7.2271 18.6105 7.4687 19.4649 7.5279 19.6169C7.6223 19.8633 7.6207 19.8697 7.3295 20.3449C7.1775 20.5913 7.1647 20.6185 7.1727 20.6761C7.1903 20.8137 7.4575 21.2968 7.7999 21.812C8.0463 22.18 8.2031 22.3784 8.2575 22.3848C8.2783 22.3864 8.4527 22.3544 8.6447 22.3112L8.9919 22.2328L9.1247 22.3544C9.1967 22.4216 9.3711 22.5944 9.5119 22.7384C9.6527 22.8824 9.9343 23.148 10.1359 23.3272C10.3391 23.508 10.5071 23.6648 10.5087 23.6776C10.5119 23.692 10.4607 23.8008 10.3951 23.9208C10.1791 24.3176 10.1727 24.34 10.2527 24.4152C10.5455 24.6888 11.6415 25.3416 11.8415 25.3608C11.9375 25.3704 11.9727 25.3512 12.3391 25.0888L12.6079 24.8984L12.8111 24.9736C13.2559 25.1336 14.0575 25.3416 14.3039 25.3592L14.4239 25.3688L14.4623 25.4888C14.5183 25.6632 14.6943 26.0087 14.7631 26.0807C14.8367 26.1575 14.8735 26.1687 15.1999 26.2119C15.5247 26.2551 16.0655 26.2711 16.3695 26.2455C16.6303 26.2231 16.8511 26.1879 16.9103 26.1591C16.9423 26.1447 16.9903 26.0631 17.1071 25.8311C17.1935 25.66 17.2751 25.4872 17.2911 25.4456L17.3183 25.3688L17.4943 25.3592C17.7359 25.348 18.3007 25.236 18.4719 25.164C18.5423 25.1352 18.7183 25.0568 18.8623 24.9896C19.0063 24.9224 19.1343 24.868 19.1471 24.868C19.1823 24.868 19.2783 24.9224 19.5551 25.0984C19.8703 25.2984 19.9343 25.332 20.0031 25.332C20.0943 25.332 20.8751 24.932 21.1199 24.7592C21.1775 24.7192 21.3359 24.5992 21.4719 24.492C21.6079 24.3848 21.7439 24.2824 21.7727 24.2616C21.7999 24.2424 21.8239 24.2184 21.8239 24.2104C21.8239 24.2008 21.7615 24.0904 21.6863 23.9624L21.5487 23.732L21.6927 23.5752C21.7711 23.4904 22.0975 23.1608 22.4159 22.8456L22.9967 22.2728L23.0703 22.2808C23.1103 22.2856 23.2383 22.316 23.3519 22.348C23.4671 22.38 23.6079 22.4104 23.6655 22.4152L23.7695 22.4232L23.8431 22.3384C23.9455 22.2168 24.1199 21.9672 24.4479 21.476C24.8719 20.8409 25.0559 20.5529 25.0559 20.5289C25.0559 20.5177 24.9647 20.4073 24.8543 20.2841C24.5823 19.9817 24.4639 19.8329 24.4639 19.7913C24.4639 19.7721 24.5311 19.5465 24.6143 19.2905C24.8367 18.6025 24.9887 18.0297 24.9919 17.8681C24.9935 17.8233 25.0207 17.8025 25.3935 17.5577C25.6735 17.3737 25.7887 17.2905 25.7775 17.2777C25.7679 17.2665 25.7711 17.1625 25.7855 16.9961C25.7967 16.8505 25.8079 16.6281 25.8079 16.5033C25.8079 16.3001 25.7583 15.4826 25.7359 15.305L25.7263 15.2394L25.5791 15.1754C25.4975 15.1386 25.3535 15.081 25.2591 15.0458C24.9359 14.9242 24.8847 14.881 24.8479 14.7002C24.7839 14.385 24.6287 13.7962 24.5439 13.5562C24.4799 13.3722 24.4431 13.241 24.4367 13.1722L24.4271 13.0666L24.5311 12.9322C24.5871 12.857 24.6719 12.745 24.7199 12.6842C24.8991 12.4506 24.9039 12.377 24.7583 12.0874C24.5823 11.7386 24.0639 10.9051 23.8735 10.6635C23.8079 10.5803 23.8063 10.5803 23.7151 10.5803C23.6655 10.5803 23.5519 10.5979 23.4639 10.6203C23.3759 10.6411 23.2351 10.6635 23.1487 10.6699L22.9935 10.6811L22.8831 10.5787C22.8239 10.5227 22.5871 10.3019 22.3583 10.0907C22.1311 9.87788 21.8623 9.63309 21.7647 9.54669C21.6479 9.44429 21.5839 9.37709 21.5839 9.35629C21.5839 9.3387 21.5983 9.1419 21.6175 8.9195C21.6511 8.52271 21.6527 8.51471 21.6223 8.48271C21.6063 8.46351 21.4911 8.38192 21.3679 8.30032C20.8847 7.98032 20.0255 7.52593 19.8751 7.51153C19.7727 7.50193 19.7503 7.51473 19.4559 7.74833C19.3215 7.85393 19.1935 7.95152 19.1695 7.96272C19.0831 8.00592 18.8623 7.95952 18.2415 7.76593C17.9311 7.66993 17.8127 7.64433 17.5759 7.62033C17.3647 7.59953 17.3135 7.58513 17.2591 7.52753C17.2367 7.50353 17.1471 7.34354 17.0607 7.17074C16.9727 6.99794 16.8863 6.83635 16.8671 6.80915L16.8335 6.76275L16.5807 6.74355C16.2655 6.71955 16.2303 6.71955 15.4495 6.76435ZM16.6863 8.50991C18.1791 8.66351 19.6511 9.3483 20.9839 10.5067C22.3967 11.737 23.6111 13.7066 23.9503 15.3258C24.0447 15.7738 24.0543 15.8954 24.0543 16.6841C24.0527 17.4249 24.0399 17.6681 23.9823 18.0761C23.8687 18.8649 23.6207 19.6265 23.2159 20.4361C23.0271 20.8121 22.8319 21.0952 22.4575 21.532C22.2303 21.796 21.6911 22.3416 21.4639 22.5352C21.2431 22.7224 21.0671 22.8536 21.0543 22.8392C21.0479 22.8328 20.7599 22.356 20.4127 21.7784L19.7823 20.7289L20.2047 20.3241C20.4367 20.1017 20.6431 19.8937 20.6623 19.8617C20.6831 19.8297 20.8015 19.6473 20.9263 19.4553C21.1871 19.0569 21.2623 18.9225 21.3743 18.6473C21.5295 18.2665 21.6383 17.8921 21.7039 17.5017C21.7711 17.0985 21.7839 16.9097 21.7839 16.2761C21.7839 15.7242 21.7807 15.6586 21.7471 15.4682C21.6015 14.6346 21.2655 13.8522 20.6911 13.0122C20.4015 12.5882 20.2127 12.369 19.8383 12.025C19.5247 11.737 19.3695 11.6154 19.0415 11.4011C18.5935 11.1067 18.5151 11.0651 18.1119 10.9003C17.9007 10.8139 17.6879 10.7243 17.6383 10.7019C17.5887 10.6795 17.5247 10.6603 17.4959 10.6603C17.4687 10.6603 17.3311 10.6299 17.1903 10.5915L16.9359 10.5243H16.0159C15.1967 10.5243 15.0799 10.5275 14.9439 10.5531C14.3871 10.6587 13.8111 10.8699 13.2847 11.1627C12.7903 11.4379 12.4511 11.6842 12.1055 12.0202C11.1855 12.9162 10.6815 13.8298 10.5519 14.8362C10.5311 14.9946 10.5263 15.1354 10.5311 15.5082C10.5375 15.937 10.5423 15.9994 10.5807 16.1962C10.6911 16.7609 10.8927 17.3689 11.1135 17.7977C11.2399 18.0441 11.6143 18.5881 11.9071 18.9529C12.0991 19.1929 12.4191 19.5065 12.5311 19.5641C12.5823 19.5913 12.6223 19.6169 12.6191 19.6217C12.5519 19.7769 10.9983 22.756 10.9855 22.756C10.9519 22.756 10.6191 22.4488 10.2543 22.0856C9.8783 21.708 9.8335 21.652 9.3807 21.0041C8.8607 20.2601 8.6047 19.7481 8.3119 18.8601C8.1391 18.3369 8.0175 17.8345 7.9647 17.4121C7.9359 17.1865 7.9375 15.9274 7.9647 15.6682C8.0447 14.945 8.2255 14.3082 8.6559 13.2362C8.7935 12.8922 8.8799 12.7178 9.0511 12.4314C9.5215 11.649 10.4303 10.6539 11.2079 10.0683C11.7663 9.64909 12.5199 9.2395 13.1919 8.9883C13.9247 8.71471 14.7439 8.52431 15.3599 8.48431C15.6351 8.46511 16.4063 8.48111 16.6863 8.50991ZM16.3391 10.7883C17.0047 10.8203 17.5439 10.9451 18.1135 11.1947C18.8527 11.521 19.6431 12.1498 20.2127 12.8682C20.8735 13.7002 21.3423 14.697 21.4639 15.5306C21.5247 15.9498 21.5087 16.9353 21.4335 17.3817C21.2975 18.1865 21.0047 18.8873 20.5567 19.4809C20.2991 19.8233 19.8479 20.3161 19.7007 20.4185L19.6495 20.4521L19.0495 19.4521L18.4479 18.4505L18.5295 18.3161C18.7407 17.9641 18.9183 17.4569 19.0063 16.9481C19.0575 16.6617 19.0719 16.4617 19.0719 16.081C19.0719 15.7898 19.0655 15.7018 19.0383 15.5674C18.9519 15.1402 18.7263 14.6426 18.4271 14.2202C17.9999 13.6202 17.2847 13.1674 16.5695 13.0442C16.3247 13.0026 15.6751 12.9978 15.4095 13.0378C15.0799 13.0858 14.7887 13.1722 14.4991 13.3098C14.2511 13.4266 14.0655 13.5514 13.8975 13.7146C13.4431 14.1546 13.1375 14.6682 13.0479 15.145C13.0111 15.3434 13.0143 16.0138 13.0543 16.2042C13.1007 16.4249 13.1727 16.6025 13.3215 16.8633C13.4847 17.1449 13.5071 17.1769 13.6607 17.3289C13.7439 17.4121 13.7759 17.4553 13.7679 17.4729C13.7583 17.5001 12.9167 19.1033 12.8239 19.2729L12.7727 19.3657L12.6495 19.2681C12.4351 19.0937 12.0351 18.6937 11.9071 18.5225C11.2751 17.6793 10.8447 16.5481 10.8031 15.6154C10.7711 14.9146 10.8879 14.361 11.2079 13.7082C11.4655 13.1802 11.7743 12.7578 12.2335 12.305C12.8559 11.6922 13.5727 11.2523 14.3759 10.9899C14.9455 10.8043 15.5007 10.7467 16.3391 10.7883ZM16.4239 13.3018C17.1551 13.4106 17.8463 13.8698 18.3055 14.5546C18.8127 15.3082 18.9247 16.1034 18.6719 17.1353C18.5855 17.4857 18.3439 18.1305 18.2959 18.1385C18.2719 18.1417 18.0463 17.7929 17.8655 17.4761C17.7775 17.3225 17.6239 17.0569 17.5231 16.8873C17.4239 16.7177 17.3199 16.5321 17.2943 16.4761C17.2479 16.3801 17.2463 16.3689 17.2623 16.2825C17.2879 16.1466 17.2847 15.8666 17.2559 15.7562C17.1775 15.4522 16.9167 15.1018 16.5871 14.857C16.4735 14.7738 16.1999 14.6346 16.1183 14.6186L16.0639 14.609V14.5002C16.0639 14.321 15.9423 13.9562 15.8047 13.7258C15.6895 13.5306 15.5279 13.385 15.5599 13.5034C15.6095 13.689 15.5919 13.889 15.4927 14.2794C15.4239 14.5514 15.4143 14.5802 15.3839 14.5802C15.3311 14.5802 15.1423 14.649 15.0079 14.7162C14.7599 14.841 14.4639 15.0618 14.4639 15.1226C14.4639 15.137 14.5071 15.1914 14.5583 15.2426L14.6527 15.337L14.8159 15.2058C14.9887 15.0666 15.0943 15.0058 15.1903 14.9882C15.2495 14.977 15.2511 14.977 15.2399 15.0138C15.2335 15.0346 15.2015 15.113 15.1695 15.1882L15.1119 15.3242L15.1071 15.6714C15.1023 16.0026 15.1039 16.0282 15.1423 16.1786C15.2079 16.4297 15.2463 16.4041 14.8047 16.4057C14.5951 16.4057 14.3951 16.4105 14.3599 16.4169L14.2959 16.4281L14.1183 16.7769C14.0207 16.9689 13.9343 17.1321 13.9247 17.1417C13.9023 17.1641 13.7551 17.0089 13.6543 16.8585C13.5023 16.6297 13.3727 16.3129 13.3199 16.033C13.2879 15.8602 13.2879 15.5402 13.3215 15.329C13.4879 14.2826 14.2879 13.5194 15.4239 13.3226C15.7183 13.2714 16.1551 13.2634 16.4239 13.3018ZM15.8319 14.281C15.9039 14.505 15.9279 14.9466 15.8799 15.1322C15.8223 15.3514 15.4863 16.185 15.4319 16.2425C15.4143 16.2601 15.4047 16.2537 15.3711 16.2026C15.2975 16.0906 15.2751 15.9722 15.2751 15.7002C15.2735 15.361 15.2879 15.3066 15.5279 14.7802C15.6479 14.5162 15.7199 14.3114 15.7375 14.1738C15.7487 14.1018 15.7503 14.0986 15.7711 14.1258C15.7823 14.1418 15.8111 14.2122 15.8319 14.281ZM16.2799 14.9962C16.5183 15.1322 16.8111 15.4522 16.9311 15.7098C16.9823 15.8186 16.9839 15.825 16.9887 16.0922L16.9951 16.3641L16.3263 16.3593C15.9567 16.3561 15.6543 16.3513 15.6511 16.3481C15.6479 16.3449 15.7503 16.0218 15.8799 15.6298L16.1135 14.9178L16.1567 14.9338C16.1807 14.9434 16.2367 14.9706 16.2799 14.9962ZM17.6639 17.5817C17.9151 18.0361 18.1215 18.4137 18.1247 18.4201C18.1279 18.4265 18.0767 18.5097 18.0143 18.6057C17.8815 18.8025 17.6031 19.0937 17.3999 19.2473C16.8159 19.6873 16.1455 19.9593 15.4159 20.0537C15.1887 20.0825 14.5199 20.0777 14.3279 20.0457C14.1151 20.0105 13.9007 19.9513 13.7087 19.8745C13.5119 19.7961 13.0687 19.5753 13.0751 19.5593C13.0847 19.5337 14.0207 17.7081 14.0255 17.7017C14.0287 17.6985 14.1247 17.7545 14.2383 17.8265C14.4863 17.9817 14.6303 18.0521 14.8239 18.1097C14.9503 18.1481 15.0031 18.1529 15.2511 18.1609C15.5599 18.1689 15.6895 18.1513 15.9199 18.0729C16.3919 17.9113 16.8479 17.5369 17.0431 17.1481C17.0943 17.0489 17.1519 16.8633 17.1519 16.8025C17.1519 16.7689 17.1599 16.7561 17.1807 16.7561C17.1999 16.7577 17.3343 16.9849 17.6639 17.5817ZM14.5887 17.0585C14.6783 17.1097 14.8255 17.1801 14.9151 17.2169C15.1743 17.3193 15.2671 17.3321 15.7327 17.3321C16.1167 17.3321 16.1439 17.3305 16.2495 17.2937C16.4063 17.2409 16.5167 17.1833 16.6223 17.1049C16.7119 17.0361 16.7247 17.0233 16.7519 16.9801C16.7583 16.9673 16.7711 16.9609 16.7759 16.9673C16.7823 16.9737 16.7663 17.0057 16.7407 17.0393C16.7151 17.0729 16.6479 17.1673 16.5919 17.2489C16.4559 17.4505 16.3247 17.5673 16.1135 17.6745C15.7791 17.8441 15.5871 17.8857 15.2255 17.8681C14.9903 17.8569 14.8175 17.8217 14.7007 17.7625C14.6623 17.7433 14.5535 17.6745 14.4575 17.6089C14.3615 17.5433 14.2591 17.4809 14.2303 17.4681C14.1999 17.4553 14.1759 17.4425 14.1759 17.4377C14.1759 17.4185 14.4079 16.9641 14.4175 16.9641C14.4223 16.9641 14.5007 17.0057 14.5887 17.0585ZM18.3999 18.9033C18.4559 19.0025 18.9167 19.8105 19.4239 20.7001C20.9631 23.396 21.3279 24.0504 21.3279 24.1224C21.3279 24.1736 21.1087 24.3288 20.7439 24.5352C20.4847 24.6824 20.0159 24.932 19.9983 24.932C19.9935 24.932 19.8527 24.8376 19.6863 24.7224C19.3727 24.5064 19.2543 24.436 19.2015 24.436C19.1839 24.436 18.9551 24.5272 18.6927 24.6376C18.3615 24.7768 18.1599 24.852 18.0319 24.884C17.7663 24.9496 17.2655 25.0424 17.0559 25.0632C17.0207 25.068 16.9999 25.1064 16.8543 25.452L16.6911 25.8359L16.4367 25.8711C16.2975 25.8903 16.1375 25.9063 16.0799 25.9063C15.9791 25.9079 15.1791 25.8487 15.1103 25.8359C15.0847 25.8295 15.0383 25.7464 14.9023 25.4536L14.7279 25.0776L14.6399 25.068C14.3407 25.036 14.1199 24.9784 13.4191 24.7464C12.8463 24.556 12.6399 24.5016 12.5071 24.5C12.4335 24.5 12.4239 24.5048 12.2751 24.6376C11.9855 24.8952 11.8815 24.964 11.7791 24.964C11.7039 24.964 11.5071 24.8712 11.3327 24.7544C11.1967 24.6632 10.6399 24.2472 10.6399 24.2376C10.6399 24.2328 12.9135 19.8521 12.9199 19.8473C12.9311 19.8345 13.0495 19.8809 13.3599 20.0201C13.7999 20.2169 14.0015 20.2873 14.2239 20.3225C14.2815 20.3321 14.5743 20.3401 14.8751 20.3401C15.4879 20.3401 15.6255 20.3273 15.9951 20.2361C16.4911 20.1145 16.8143 19.9817 17.2063 19.7369C17.5679 19.5097 17.6447 19.4425 18.0351 19.0073C18.1759 18.8521 18.2927 18.7241 18.2959 18.7241C18.2975 18.7241 18.3455 18.8057 18.3999 18.9033Z" fill="#FFFBFF" />
                        <path d="M16.096 21.1339C15.9056 21.1979 15.7936 21.2267 15.6928 21.2363C15.528 21.2507 15.4928 21.2715 15.3664 21.4251C15.216 21.6091 15.0576 21.9563 15.0016 22.2347C14.9312 22.5691 15.008 22.9355 15.1776 23.0923L15.248 23.1562H15.4112C15.6032 23.1562 15.6752 23.1307 15.7568 23.0379C15.8032 22.9851 15.808 22.9691 15.808 22.8763C15.808 22.8187 15.7968 22.7451 15.7824 22.7083C15.76 22.6523 15.7504 22.6443 15.704 22.6443C15.6704 22.6443 15.632 22.6587 15.6016 22.6859C15.56 22.7195 15.552 22.7387 15.552 22.7963C15.552 22.9115 15.5312 22.9483 15.4624 22.9483C15.3888 22.9483 15.3184 22.8811 15.3024 22.7963C15.2736 22.6427 15.3776 22.3275 15.4848 22.2443C15.544 22.1963 15.6096 22.2027 15.6384 22.2571C15.6832 22.3419 15.7008 22.3467 15.7856 22.2939L15.864 22.2459L15.888 22.3131C15.9056 22.3627 15.9232 22.3819 15.9504 22.3851C16.0864 22.4043 16.1264 22.3211 16.128 22.0235V21.8123H16.0864C16.0176 21.8123 15.9856 21.8411 15.9744 21.9099C15.9648 21.9675 15.9088 22.0635 15.8944 22.0475C15.8896 22.0443 15.92 21.9403 15.96 21.8171C16 21.6939 16.032 21.5835 16.032 21.5739C16.032 21.5627 15.9952 21.5563 15.9312 21.5563C15.848 21.5563 15.8208 21.5643 15.776 21.5963C15.7456 21.6187 15.704 21.6363 15.6816 21.6363H15.6432L15.68 21.5963C15.7488 21.5227 15.8768 21.4715 16 21.4699C16.0608 21.4699 16.1184 21.4763 16.128 21.4859C16.1376 21.4955 16.1488 21.5419 16.1552 21.5899C16.16 21.6379 16.1792 21.6955 16.1968 21.7195C16.2272 21.7611 16.2272 21.7659 16.1984 22.0907L16.1696 22.4203L16.2288 22.4811C16.2992 22.5531 16.3024 22.5771 16.2448 22.5835C16.2032 22.5883 16.2 22.5947 16.1952 22.6651C16.1888 22.7627 16.2192 22.8139 16.3088 22.8523C16.4256 22.9035 16.488 22.9083 16.528 22.8683C16.56 22.8363 16.5632 22.8203 16.5584 22.6475C16.5568 22.5435 16.56 22.2219 16.568 21.9323C16.5792 21.4507 16.5792 21.4027 16.5552 21.3819C16.5216 21.3547 16.52 21.2795 16.552 21.2523C16.5872 21.2219 16.5824 21.1147 16.544 21.0763C16.4912 21.0235 16.3904 21.0363 16.096 21.1339Z" fill="#FFFBFF" />
                        <path d="M16.688 21.3969C16.6592 21.4257 16.656 21.4497 16.656 21.6721C16.6576 21.8065 16.6496 22.0033 16.6384 22.1089C16.6288 22.2145 16.6192 22.4417 16.6176 22.6129C16.616 22.9185 16.6176 22.9265 16.656 22.9953C16.6784 23.0337 16.7104 23.0753 16.7296 23.0865C16.7616 23.1089 16.7616 23.1073 16.7888 22.6561C16.816 22.2209 16.8256 21.4417 16.8064 21.3905C16.792 21.3553 16.7264 21.3585 16.688 21.3969Z" fill="#FFFBFF" />
                        <path d="M13.0014 21.78C12.7966 21.8232 12.7758 21.8344 12.707 21.9464C12.6718 21.9992 12.595 22.1128 12.5358 22.196C12.4094 22.3736 12.3518 22.4824 12.3518 22.54C12.3518 22.5704 12.3742 22.6008 12.4286 22.6488C12.5662 22.7704 12.6958 22.9096 12.7438 22.9896C12.7806 23.0488 12.8126 23.0792 12.8798 23.1128C12.9278 23.1368 12.9774 23.1688 12.9886 23.1832C13.0158 23.22 13.0126 23.284 12.9838 23.284C12.9726 23.284 12.9246 23.292 12.8798 23.3016C12.8014 23.3176 12.7998 23.3192 12.7998 23.3784C12.7998 23.492 12.8462 23.5896 12.9534 23.6952L13.0526 23.796H13.227H13.3998L13.4542 23.8744C13.507 23.9528 13.5422 23.9656 13.5582 23.9112C13.5614 23.8952 13.5694 23.812 13.5758 23.724C13.5806 23.636 13.5886 23.5384 13.5934 23.5064L13.6014 23.4472L13.7566 23.4408C13.8846 23.436 13.9294 23.4264 14.0126 23.388C14.1182 23.34 14.1438 23.3128 14.1438 23.2456C14.1438 23.1944 14.0894 23.1592 13.923 23.0984L13.8062 23.0552L13.8622 22.9976C13.9134 22.9448 13.9198 22.9288 13.9198 22.8568C13.9198 22.7848 13.9246 22.7736 13.9566 22.7656C13.9774 22.7608 14.0142 22.7384 14.0366 22.7176C14.0766 22.6792 14.0798 22.6696 14.0798 22.5352C14.0798 22.404 14.075 22.3848 14.019 22.2664C13.9854 22.1976 13.9486 22.1048 13.9374 22.06C13.9102 21.9512 13.8974 21.94 13.7966 21.94C13.7134 21.94 13.7022 21.9352 13.6158 21.86C13.5662 21.8168 13.5054 21.7736 13.4814 21.764C13.4142 21.7384 13.1582 21.7464 13.0014 21.78ZM12.907 22.0376C12.8894 22.1864 12.7934 22.3016 12.7134 22.2712C12.6734 22.2552 12.6798 22.148 12.7262 22.0856C12.771 22.0248 12.8606 21.956 12.8926 21.956C12.9118 21.956 12.915 21.972 12.907 22.0376ZM13.1582 22.1032C13.163 22.1144 13.1694 22.148 13.1742 22.1752C13.1822 22.22 13.179 22.228 13.1502 22.228C13.1038 22.228 13.027 22.2712 13.0078 22.3096C12.9806 22.3576 12.9214 22.3448 12.915 22.2872C12.9086 22.2376 12.9598 22.1448 13.0126 22.108C13.0542 22.0792 13.1502 22.076 13.1582 22.1032ZM13.9358 22.3352C13.9806 22.4392 14.0222 22.5336 14.027 22.5432C14.0414 22.5768 13.9614 22.5672 13.9038 22.5272C13.8286 22.4776 13.7902 22.404 13.7806 22.2936C13.7694 22.1816 13.779 22.148 13.8222 22.148C13.8446 22.148 13.8702 22.1912 13.9358 22.3352ZM12.7262 22.4696C12.7678 22.4888 12.771 22.4952 12.7614 22.5608C12.7486 22.6504 12.7422 22.66 12.6894 22.66C12.595 22.66 12.4734 22.532 12.5006 22.4616C12.5182 22.4184 12.6254 22.4216 12.7262 22.4696ZM13.7918 22.6952C13.7918 22.8184 13.771 22.8616 13.6878 22.9176C13.6062 22.9736 13.3566 23.0568 13.2318 23.0712C13.1374 23.0808 13.1358 23.0792 13.1358 23.0408C13.1358 22.9656 13.1918 22.9192 13.3326 22.876C13.4846 22.8296 13.5518 22.7928 13.5934 22.7304C13.6526 22.644 13.7086 22.596 13.7502 22.596C13.7902 22.596 13.7918 22.5992 13.7918 22.6952Z" fill="#FFFBFF" />
                        <path d="M18.6353 21.9637C18.5985 21.9973 18.5729 22.0037 18.4961 22.0037C18.3841 22.0037 18.2385 22.0533 18.1649 22.1157L18.1153 22.1605L18.0049 22.1397C17.9409 22.1269 17.8897 22.1237 17.8817 22.1333C17.8721 22.1413 17.8657 22.2181 17.8657 22.3045C17.8641 22.4789 17.8545 22.4549 18.0065 22.6357C18.0913 22.7349 18.0913 22.8021 18.0097 22.8773C17.9329 22.9477 17.9313 23.0053 18.0065 23.0357C18.0673 23.0613 18.3953 23.1237 18.4705 23.1237C18.5201 23.1237 18.5217 23.1269 18.6001 23.3397C18.6753 23.5413 18.6833 23.5557 18.7217 23.5557C18.7681 23.5557 18.7681 23.5573 18.7937 23.2725L18.8033 23.1573L18.9105 23.0869C19.0673 22.9829 19.0753 22.9797 19.2193 22.9797C19.3873 22.9797 19.4241 22.9589 19.4241 22.8645C19.4241 22.8117 19.4145 22.7909 19.3681 22.7493C19.2993 22.6853 19.2977 22.6549 19.3601 22.5589C19.4609 22.3989 19.4881 22.3301 19.4881 22.2277V22.1317L19.4129 22.1301C19.2865 22.1269 19.2561 22.1141 19.2513 22.0549L19.2465 22.0037H19.0225C18.8081 22.0037 18.7953 22.0021 18.7457 21.9637C18.7169 21.9413 18.6897 21.9237 18.6865 21.9237C18.6833 21.9237 18.6593 21.9429 18.6353 21.9637ZM18.5137 22.2309C18.5265 22.2613 18.5361 22.3397 18.5361 22.4197C18.5361 22.5461 18.5345 22.5557 18.5025 22.5605C18.4721 22.5653 18.4657 22.5525 18.4417 22.4501C18.4145 22.3317 18.4081 22.2085 18.4273 22.1909C18.4529 22.1637 18.4945 22.1829 18.5137 22.2309Z" fill="#FFFBFF" />
                        <path d="M22.1824 6.06186C22.1728 6.11785 22.176 6.12585 22.2304 6.17225C22.264 6.19945 22.3856 6.27945 22.5008 6.34985C22.6176 6.41865 22.7392 6.50025 22.7728 6.53065C22.832 6.58345 22.848 6.63304 22.8144 6.65384C22.8048 6.65864 22.7856 6.68424 22.7696 6.70984L22.7424 6.75464L22.4224 6.58025C22.248 6.48585 22.0992 6.41065 22.0928 6.41545C22.0672 6.42985 22.0784 6.76904 22.1056 6.83624C22.136 6.91144 22.1568 6.91624 22.2096 6.85864C22.2304 6.83624 22.2688 6.80264 22.2928 6.78504L22.3376 6.75304L22.464 6.82984C22.5344 6.87304 22.592 6.91464 22.592 6.92264C22.592 6.93384 22.3872 7.28263 22.3088 7.40743C22.2864 7.43943 22.2912 7.44583 22.3696 7.49863C22.4224 7.53383 22.4608 7.54982 22.4704 7.54023C22.48 7.53223 22.6096 7.34663 22.76 7.12743L23.0304 6.72904L23.112 6.73064L23.192 6.73224L23.1968 6.67464C23.2016 6.62024 23.1952 6.61064 23.1088 6.54505C22.8544 6.34985 22.3344 6.02826 22.2448 6.01066C22.1968 6.00106 22.1936 6.00266 22.1824 6.06186Z" fill="#FFFBFF" />
                        <path d="M7.76619 7.25481C7.52939 7.458 7.32939 7.6308 7.32139 7.6388C7.30539 7.6532 7.39979 7.76519 7.42699 7.76519C7.43499 7.76519 7.49419 7.7252 7.55819 7.6772C7.62219 7.6292 7.68299 7.5892 7.69419 7.5892C7.72299 7.5892 7.81099 7.6356 7.85259 7.674C7.90859 7.7252 7.90059 7.80999 7.83179 7.89959C7.76779 7.98279 7.76459 8.00519 7.80459 8.04039C7.87339 8.10119 7.93259 8.11719 8.09579 8.11719C8.22539 8.11719 8.26859 8.11079 8.31979 8.08519C8.40299 8.04359 8.49259 7.95079 8.52779 7.87399L8.55499 7.81319L8.64619 7.90919L8.73899 8.00679L8.82539 7.93159C8.90379 7.86599 8.91019 7.85479 8.89259 7.82919C8.88139 7.81319 8.72939 7.642 8.55659 7.4484C8.38219 7.25481 8.23979 7.09001 8.23979 7.08361C8.23979 7.07721 8.25579 7.05481 8.27339 7.03401L8.30859 6.99881L8.26539 6.94121C8.24139 6.91081 8.21579 6.88521 8.20939 6.88521C8.20299 6.88521 8.00299 7.05161 7.76619 7.25481ZM8.19979 7.3684C8.34219 7.522 8.41579 7.6276 8.41579 7.6788C8.41579 7.81639 8.26539 7.94919 8.12299 7.93799L8.05739 7.93319L8.05579 7.7508V7.57L7.96779 7.4916L7.87979 7.4148L7.96779 7.3252C8.01579 7.27721 8.05899 7.23721 8.06539 7.23721C8.07179 7.23721 8.13259 7.2964 8.19979 7.3684Z" fill="#FFFBFF" />
                        <path d="M24.4546 7.23706C24.4354 7.24346 24.3762 7.29146 24.3234 7.34106L24.2242 7.43226L24.1746 7.39706L24.125 7.36186L24.0706 7.41466C24.0402 7.44346 24.0162 7.47226 24.0162 7.47706C24.0162 7.48346 24.0402 7.51546 24.0706 7.55066L24.125 7.61306L23.765 7.97625L23.405 8.33944L23.453 8.40024C23.4786 8.43384 23.517 8.47544 23.5362 8.49304L23.5698 8.52344L23.693 8.39704C24.1794 7.88825 24.2962 7.77785 24.3202 7.79545C24.373 7.83385 24.3874 7.83225 24.4402 7.78105L24.4946 7.72825L24.4594 7.68026C24.4402 7.65466 24.4178 7.62426 24.4098 7.61466C24.4018 7.60186 24.4114 7.56986 24.4386 7.52666C24.493 7.44186 24.5698 7.40666 24.6674 7.42106C24.8082 7.44186 24.8802 7.54906 24.9922 7.90905C25.0306 8.02745 25.077 8.16505 25.0994 8.21144C25.141 8.30744 25.2082 8.40504 25.2338 8.40504C25.2562 8.40504 25.2514 8.23224 25.2226 8.08345C25.1474 7.68666 24.9858 7.37786 24.7954 7.26906C24.7234 7.22746 24.6962 7.22107 24.6002 7.22266C24.5394 7.22266 24.4738 7.22906 24.4546 7.23706Z" fill="#FFFBFF" />
                        <path d="M6.4241 7.78355C6.3793 7.81395 6.3249 7.86995 6.2961 7.91474C6.2545 7.98194 6.2481 8.01234 6.2433 8.12274C6.2353 8.29234 6.2657 8.34034 6.4273 8.42033L6.5409 8.47633L6.3025 8.76113C6.1281 8.96752 6.0641 9.05232 6.0705 9.07312C6.0769 9.08912 6.1009 9.12272 6.1265 9.14672L6.1729 9.19152L6.4481 8.87792C6.5985 8.70513 6.7281 8.56433 6.7345 8.56433C6.7409 8.56433 6.7665 8.58513 6.7921 8.61233L6.8369 8.66033L6.7649 8.75153C6.4833 9.11152 6.4961 9.09072 6.4961 9.19952C6.4961 9.29712 6.4977 9.30032 6.5809 9.38671L6.6641 9.47471L6.8833 9.49391C7.0289 9.50671 7.1329 9.50831 7.1953 9.49871L7.2881 9.48431L7.2929 9.39151L7.2977 9.30032H7.1217C6.8449 9.30032 6.7041 9.25392 6.7041 9.16432C6.7041 9.11472 6.8113 8.95952 6.9185 8.85393L7.0065 8.76753L7.2561 8.99632L7.5057 9.22352L7.5553 9.17872C7.5809 9.15312 7.6161 9.11312 7.6337 9.08912L7.6641 9.04592L7.3169 8.74673C7.1249 8.58193 6.9505 8.43153 6.9297 8.41073L6.8913 8.37554L6.9281 8.32434L6.9649 8.27314L6.8929 8.20114L6.8209 8.12914L6.7905 8.18994C6.7553 8.26034 6.7089 8.27794 6.6097 8.26034C6.5169 8.24434 6.4689 8.20594 6.4465 8.13234C6.4049 7.99314 6.4913 7.87635 6.6337 7.87635C6.6961 7.87635 6.8017 7.90674 6.9329 7.96274L6.9937 7.98994L6.9281 8.06354L6.8625 8.13714L6.9153 8.19154C6.9425 8.22034 6.9729 8.24434 6.9825 8.24434C6.9921 8.24434 7.0257 8.21714 7.0593 8.18514L7.1201 8.12594L7.2513 8.26834C7.4161 8.45233 7.6481 8.67953 7.7489 8.75793C7.8497 8.83793 7.9041 8.83953 7.9585 8.76753C7.9825 8.73713 8.0001 8.70353 8.0001 8.69233C8.0001 8.68113 7.8417 8.51153 7.6497 8.31794L7.2977 7.96434L7.3361 7.91634L7.3745 7.86835L7.3249 7.81715C7.2641 7.75475 7.2481 7.75315 7.2017 7.80275L7.1665 7.83955L7.0433 7.79155C6.9329 7.74675 6.8993 7.74195 6.7121 7.73555L6.5041 7.72915L6.4241 7.78355Z" fill="#FFFBFF" />
                        <path d="M24.4591 7.78734C24.4351 7.80654 24.4159 7.82734 24.4159 7.83534C24.4159 7.84174 24.5263 7.96334 24.6607 8.10413C24.7935 8.24493 24.9071 8.36653 24.9103 8.37613C24.9135 8.38413 24.8959 8.41293 24.8703 8.43853L24.8271 8.48333L24.6975 8.36653C24.5263 8.21133 24.4735 8.18093 24.3791 8.18093C24.2831 8.18093 24.2319 8.20653 24.1471 8.29933C24.0687 8.38413 24.0575 8.41773 24.0671 8.56172C24.0751 8.69132 24.1055 8.75852 24.2255 8.90412L24.3167 9.01612L24.2767 9.11371L24.2383 9.20971L24.3199 9.29131C24.4127 9.38571 24.4143 9.38411 24.4575 9.21931L24.4847 9.11211L24.5551 9.10411C24.6607 9.09291 24.7039 9.04491 24.7039 8.93772C24.7039 8.82412 24.6703 8.78892 24.5615 8.78892C24.5119 8.78892 24.4735 8.79852 24.4575 8.81292C24.4255 8.84492 24.3791 8.84332 24.3471 8.80812C24.2479 8.69772 24.2495 8.45933 24.3503 8.40493C24.4255 8.36493 24.4591 8.38413 24.6543 8.57292C24.7583 8.67372 24.8495 8.75692 24.8575 8.75692C24.8655 8.75692 24.9199 8.71052 24.9759 8.65292C25.0319 8.59532 25.0847 8.54893 25.0911 8.54893C25.0991 8.54893 25.1375 8.57932 25.1759 8.61452L25.2479 8.68012L25.3055 8.63692L25.3631 8.59212L24.9743 8.20173C24.7599 7.98734 24.5663 7.79694 24.5439 7.78094C24.5039 7.75214 24.5023 7.75374 24.4591 7.78734Z" fill="#FFFBFF" />
                        <path d="M25.3455 8.76356L25.2927 8.81796L25.5919 9.16515L25.8911 9.51074L25.9423 9.47234C25.9695 9.44994 25.9903 9.42754 25.9887 9.42274C25.9871 9.40994 25.4095 8.70916 25.4015 8.70916C25.3999 8.70916 25.3743 8.73316 25.3455 8.76356Z" fill="#FFFBFF" />
                        <path d="M5.94099 9.24003C5.83699 9.35683 5.44019 9.94722 5.44019 9.98882C5.44019 10.0128 5.52979 10.0688 5.56819 10.0688C5.57619 10.0688 5.65619 9.96162 5.74579 9.82882L5.90739 9.59042L6.00179 9.65442C6.10419 9.72322 6.12819 9.75522 6.12819 9.82562C6.12819 9.90082 6.08179 9.92802 5.94419 9.93762L5.82419 9.94562V10.0384V10.1328H6.06899C6.28659 10.1328 6.49939 10.12 6.74899 10.0912C6.84019 10.0816 6.84499 10.072 6.82099 9.95682L6.81139 9.90402L6.62579 9.91522C6.52339 9.92162 6.40499 9.92962 6.36339 9.93602L6.28499 9.94562L6.31059 9.89602C6.33779 9.84162 6.34579 9.64482 6.32179 9.60642C6.31379 9.59362 6.25779 9.55362 6.19699 9.51683C6.05779 9.43203 6.03699 9.38403 6.09939 9.29763C6.11539 9.27523 6.11379 9.26403 6.08979 9.23843C6.04979 9.19363 5.98259 9.19523 5.94099 9.24003Z" fill="#FFFBFF" />
                        <path d="M24.9793 9.23001C24.9137 9.2636 24.8561 9.3372 24.8241 9.4268C24.7889 9.5276 24.7905 9.80279 24.8289 9.87639C24.8545 9.93079 24.8593 9.93239 24.9569 9.93719C25.0689 9.94199 25.0705 9.93879 25.0321 9.82839C24.9985 9.73239 25.0001 9.5612 25.0385 9.4924C25.0801 9.4124 25.1745 9.3804 25.2673 9.4124C25.3489 9.4412 25.3953 9.502 25.3985 9.582C25.4001 9.6428 25.4001 9.6444 25.3201 9.6604C25.2769 9.67 25.2401 9.6844 25.2401 9.694C25.2417 9.702 25.2465 9.74679 25.2545 9.79319L25.2673 9.87959L25.3505 9.86519C25.4849 9.84439 25.6113 9.85079 25.6449 9.88119C25.6849 9.91799 25.6913 9.91639 25.7409 9.85879C25.8177 9.76919 25.8177 9.77079 25.6897 9.7228L25.5713 9.678L25.5649 9.5628C25.5601 9.4652 25.5521 9.4364 25.5121 9.3772C25.4849 9.3404 25.4273 9.2876 25.3857 9.2604C25.3169 9.21881 25.2897 9.21241 25.1697 9.20761C25.0657 9.20441 25.0193 9.21081 24.9793 9.23001Z" fill="#FFFBFF" />
                        <path d="M25.9714 9.57738L25.9042 9.61258L26.1442 9.98537C26.2754 10.1902 26.4082 10.3966 26.4386 10.443L26.4946 10.5294L26.4066 10.5886C26.357 10.6206 26.3122 10.6446 26.3074 10.6414C26.301 10.6382 26.2546 10.6078 26.205 10.5726C26.1202 10.5134 26.1138 10.5038 26.1122 10.443C26.1106 10.2926 26.0066 10.0878 25.8882 10.0078C25.8386 9.97417 25.8178 9.97097 25.701 9.97577C25.5842 9.98057 25.565 9.98537 25.5106 10.0286C25.4786 10.0558 25.429 10.1166 25.4018 10.1646C25.357 10.2446 25.3522 10.267 25.3458 10.4254C25.3426 10.5198 25.3458 10.6222 25.3506 10.6526C25.3618 10.7086 25.3618 10.7086 25.4466 10.7086H25.5314L25.541 10.531C25.5538 10.3198 25.5794 10.251 25.6626 10.2174C25.7058 10.1982 25.7378 10.1966 25.7906 10.2062C25.8818 10.2254 25.9234 10.2782 25.933 10.395L25.9394 10.483L25.8706 10.4878L25.8002 10.4926L25.7954 10.5822L25.7906 10.6718L25.9394 10.6814C26.1122 10.6926 26.1602 10.7038 26.1602 10.7326C26.1602 10.7438 26.0834 10.8094 25.989 10.8782C25.893 10.947 25.7778 11.0301 25.733 11.0637L25.6482 11.1245L25.7026 11.2093C25.733 11.2541 25.765 11.2909 25.7746 11.2893C25.7842 11.2861 25.9714 11.1693 26.1906 11.0285C26.4098 10.8878 26.6018 10.7678 26.6162 10.763C26.6322 10.7566 26.6578 10.7662 26.6802 10.7886L26.7186 10.8238L26.7666 10.7886C26.7954 10.7694 26.8114 10.747 26.805 10.7358C26.8002 10.7246 26.7778 10.6894 26.757 10.6574L26.7202 10.5966L26.7938 10.5294C26.8946 10.435 26.9458 10.4142 27.013 10.443C27.0946 10.4766 27.1522 10.555 27.1522 10.6318C27.1522 10.715 27.077 10.8574 26.9858 10.947L26.917 11.0141L26.8834 10.9342L26.8498 10.8542L26.781 10.875C26.7074 10.8958 26.7074 10.8942 26.7266 11.0285L26.7378 11.1005L26.2962 11.3149C25.8098 11.5533 25.8242 11.5405 25.893 11.6605C25.9506 11.7629 25.9858 11.7581 26.2914 11.5997C26.4354 11.5245 26.6226 11.4253 26.7074 11.3757L26.8626 11.2877L26.8818 11.3341C26.8914 11.3597 26.9058 11.3853 26.9138 11.3901C26.9218 11.3933 26.9634 11.3789 27.0082 11.3565L27.0898 11.3149L27.0562 11.2605L27.021 11.2045L27.0882 11.1277C27.125 11.0861 27.1858 11.0029 27.2226 10.9406C27.2866 10.8318 27.2882 10.8254 27.293 10.6606C27.2994 10.4926 27.2994 10.4926 27.245 10.4126C27.2162 10.3678 27.157 10.3086 27.1138 10.2798C27.0466 10.235 27.0226 10.2286 26.933 10.2286C26.8274 10.2286 26.733 10.2622 26.6882 10.3166C26.6754 10.331 26.6626 10.3726 26.6578 10.4094L26.6482 10.475L26.3682 10.0094C26.2002 9.72778 26.0786 9.54218 26.0642 9.54218C26.0514 9.54218 26.0098 9.55818 25.9714 9.57738Z" fill="#FFFBFF" />
                        <path d="M5.24791 10.2955C5.18231 10.4107 5.12631 10.5147 5.12311 10.5243C5.12151 10.5339 5.14871 10.5531 5.18551 10.5643L5.25271 10.5867L5.30391 10.5291L5.35351 10.4699L5.79991 10.7115C6.13431 10.8907 6.25271 10.9483 6.27191 10.9371C6.31031 10.9131 6.34711 10.7931 6.32631 10.7611C6.30551 10.7275 6.19991 10.6619 5.81111 10.4427C5.64631 10.3499 5.50551 10.2684 5.49751 10.2604C5.48791 10.2508 5.48951 10.2236 5.49911 10.1884C5.51671 10.134 5.51511 10.1292 5.47831 10.1164C5.36791 10.0732 5.37751 10.0668 5.24791 10.2955Z" fill="#FFFBFF" />
                        <path d="M5.03695 10.6575C4.93615 10.7887 4.87855 10.9151 4.88335 10.9871C4.88815 11.0495 4.89135 11.0527 4.94575 11.0575C4.99215 11.0607 5.00815 11.0543 5.03055 11.0223C5.06575 10.9663 5.10575 10.9695 5.24335 11.0351L5.35855 11.0911L5.32495 11.1679C5.27695 11.2783 5.23535 11.3327 5.19855 11.3327C5.18095 11.3327 5.11855 11.3071 5.06095 11.2767C4.81295 11.1455 4.60815 11.2591 4.60815 11.5311C4.60815 11.6303 4.61295 11.6431 4.65615 11.6863C4.69775 11.7278 4.71375 11.7342 4.77935 11.7294L4.85615 11.7246L4.86095 11.6575C4.86575 11.5983 4.86095 11.5903 4.82895 11.5855C4.79695 11.5807 4.79215 11.5711 4.79215 11.5167C4.79215 11.4559 4.79535 11.4527 4.84175 11.4479C4.87375 11.4447 4.93455 11.4623 5.00015 11.4911L5.10735 11.5407L5.09615 11.6159C5.09135 11.6591 5.08175 11.7086 5.07695 11.7278C5.06895 11.763 5.07215 11.7646 5.17775 11.7646C5.26255 11.7646 5.30895 11.755 5.37615 11.723C5.49135 11.6703 5.56815 11.6095 5.56815 11.5743C5.56815 11.5583 5.53615 11.5183 5.49615 11.4863C5.45615 11.4527 5.42415 11.4143 5.42415 11.3999C5.42415 11.3695 5.49775 11.2047 5.51215 11.2047C5.51695 11.2047 5.60495 11.2463 5.70895 11.2991C5.97295 11.4319 5.95215 11.4303 6.03055 11.3167L6.09775 11.2207L5.64335 10.9935L5.18895 10.7679L5.20975 10.6895C5.22895 10.6127 5.22895 10.6111 5.19055 10.5951C5.12015 10.5695 5.09615 10.5791 5.03695 10.6575Z" fill="#FFFBFF" />
                        <path d="M4.21122 14.7954C4.12322 14.8338 4.06242 14.885 4.01442 14.9602C3.97122 15.0274 3.96802 15.0466 3.96802 15.1826C3.96802 15.2818 3.97602 15.3474 3.99042 15.3762C4.01762 15.4258 4.12002 15.5266 4.17122 15.5538C4.22242 15.5794 4.45602 15.5762 4.50882 15.549C4.57122 15.517 4.66242 15.4146 4.70242 15.3362C4.74562 15.2482 4.74722 15.093 4.70562 15.0034C4.66882 14.9234 4.57122 14.829 4.49282 14.7954C4.41922 14.765 4.28162 14.765 4.21122 14.7954Z" fill="#FFFBFF" />
                        <path d="M27.9982 14.8501C27.8942 14.9173 27.8398 15.0261 27.8398 15.1669C27.8398 15.2996 27.8734 15.3796 27.9614 15.4644C28.0446 15.5444 28.1214 15.5732 28.2478 15.5732C28.3774 15.5732 28.451 15.5396 28.539 15.4388C28.6926 15.2644 28.6702 15.0341 28.4814 14.8645L28.4158 14.8053H28.243C28.0814 14.8053 28.0654 14.8085 27.9982 14.8501Z" fill="#FFFBFF" />
                        <path d="M4.13602 18.6345L3.62402 18.7337L3.62882 18.8601C3.63202 18.9305 3.64002 18.9945 3.64802 19.0025C3.65602 19.0105 3.87202 18.9833 4.18402 18.9305L4.70402 18.8441V18.7289C4.70402 18.6169 4.68482 18.5305 4.66082 18.5337C4.65282 18.5337 4.41762 18.5801 4.13602 18.6345Z" fill="#FFFBFF" />
                        <path d="M27.3055 18.616C27.3007 18.6368 27.2959 18.696 27.2959 18.7504V18.848L27.4127 18.8576C27.4751 18.8624 27.6431 18.8928 27.7839 18.9248C27.9359 18.96 28.1023 18.9872 28.1951 18.992C28.3743 19.0016 28.3663 19.0096 28.3727 18.8304L28.3759 18.736L27.8879 18.6592C27.6191 18.616 27.3807 18.5808 27.3583 18.5808C27.3279 18.5808 27.3135 18.5904 27.3055 18.616Z" fill="#FFFBFF" />
                        <path d="M4.22724 19.1798C3.94244 19.2438 3.70724 19.2998 3.70564 19.303C3.69284 19.3158 3.73764 19.5782 3.75364 19.583C3.76164 19.5862 3.90884 19.5526 4.07684 19.5094C4.24644 19.4662 4.38404 19.4326 4.38404 19.4358C4.38404 19.439 4.28324 19.5334 4.16004 19.6454C3.87844 19.9014 3.86404 19.9206 3.87684 20.079C3.88164 20.1462 3.89284 20.207 3.90084 20.215C3.91684 20.231 4.93924 20.0134 4.96324 19.9894C4.97284 19.9814 4.95364 19.7894 4.93604 19.7382C4.93284 19.7254 4.83844 19.7382 4.63364 19.7798L4.33764 19.839L4.58564 19.583C4.82244 19.3382 4.83364 19.3238 4.82404 19.2742C4.80804 19.1846 4.76804 19.0598 4.75524 19.0614C4.74884 19.063 4.51204 19.1158 4.22724 19.1798Z" fill="#FFFBFF" />
                        <path d="M27.2064 19.0999C27.192 19.1223 27.176 19.1863 27.1728 19.2423L27.1632 19.3431L27.2576 19.3559C27.3104 19.3623 27.3712 19.3767 27.3952 19.3895C27.4192 19.4023 27.4528 19.4119 27.4704 19.4119C27.488 19.4119 27.5056 19.4183 27.5104 19.4247C27.5168 19.4359 27.4576 19.7463 27.4464 19.7607C27.4448 19.7639 27.3696 19.7511 27.2784 19.7335C27.1888 19.7143 27.104 19.6999 27.088 19.6999C27.0672 19.6999 27.0544 19.7303 27.032 19.8359C27.016 19.9111 27.0064 19.9767 27.0112 19.9799C27.0208 19.9895 28.04 20.2119 28.072 20.2119C28.0976 20.2119 28.112 20.1479 28.1169 20.0279L28.12 19.9495L27.92 19.8855L27.72 19.8199L27.7296 19.7031C27.7456 19.4919 27.8048 19.4599 28.048 19.5319C28.128 19.5559 28.2 19.5719 28.2113 19.5687C28.2272 19.5623 28.2865 19.3575 28.2881 19.2983C28.2881 19.2775 28.2641 19.2711 28.1793 19.2631C28.12 19.2567 27.9776 19.2263 27.864 19.1943C27.3024 19.0375 27.2512 19.0311 27.2064 19.0999Z" fill="#FFFBFF" />
                        <path d="M4.5441 20.3168C4.1057 20.4736 4.0401 20.5024 4.0353 20.5328C4.0241 20.6 4.0833 20.808 4.1521 20.9456C4.2305 21.1024 4.3329 21.216 4.4369 21.2672C4.5297 21.312 4.6817 21.312 4.8129 21.2672C4.9441 21.2224 5.1265 21.0896 5.1969 20.9888C5.2513 20.9104 5.2513 20.9072 5.2433 20.7808C5.2369 20.6832 5.2145 20.5936 5.1489 20.4016C5.1009 20.2624 5.0593 20.1456 5.0545 20.1424C5.0513 20.1392 4.8209 20.2176 4.5441 20.3168ZM4.9489 20.5856C5.0385 20.8064 4.8769 20.992 4.5873 21.0016C4.5089 21.0032 4.4897 20.9984 4.4545 20.9632C4.4209 20.928 4.3265 20.7136 4.3393 20.7008C4.3473 20.6944 4.8865 20.52 4.9041 20.5184C4.9137 20.5168 4.9329 20.5472 4.9489 20.5856Z" fill="#FFFBFF" />
                        <path d="M27.7714 20.3831C27.7682 20.3911 27.7378 20.4823 27.7058 20.5879C27.6722 20.6935 27.6402 20.7863 27.6322 20.7927C27.6034 20.8231 27.4962 20.8023 27.1858 20.7015C27.005 20.6439 26.8466 20.5959 26.8322 20.5959C26.813 20.5959 26.7986 20.6311 26.7746 20.7303L26.741 20.8647L27.2418 21.0183C27.517 21.1031 27.7522 21.1719 27.7634 21.1719C27.7778 21.1719 27.8226 21.0423 27.8978 20.7831L28.0114 20.3959L27.9458 20.3847C27.8546 20.3703 27.7794 20.3703 27.7714 20.3831Z" fill="#FFFBFF" />
                        <path d="M26.6352 21.0641C26.6224 21.0929 26.5504 21.2641 26.4736 21.4433C26.368 21.6881 26.3376 21.7729 26.3536 21.7825C26.392 21.8049 27.3456 22.2001 27.3504 22.1953C27.352 22.1921 27.4304 22.0161 27.5248 21.8049L27.6944 21.4209L27.6272 21.4001C27.5904 21.3889 27.536 21.3777 27.5056 21.3761L27.4512 21.3729L27.3552 21.6049C27.3024 21.7329 27.2576 21.8385 27.256 21.8401C27.248 21.8529 27.056 21.7745 27.056 21.7585C27.056 21.7489 27.096 21.6465 27.144 21.5329C27.192 21.4209 27.232 21.3185 27.232 21.3089C27.232 21.2849 27.0368 21.1921 27.0288 21.2129C27.0256 21.2209 26.9824 21.3217 26.9312 21.4369L26.84 21.6449L26.7568 21.6305C26.7104 21.6225 26.672 21.6097 26.672 21.6017C26.672 21.5937 26.72 21.4753 26.7776 21.3393C26.84 21.1969 26.8784 21.0849 26.8704 21.0769C26.856 21.0641 26.696 21.0129 26.6688 21.0129C26.6624 21.0129 26.6464 21.0369 26.6352 21.0641Z" fill="#FFFBFF" />
                        <path d="M4.93585 21.43C4.68145 21.542 4.46545 21.638 4.45585 21.6412C4.43985 21.6476 4.50545 21.8619 4.53585 21.9019C4.54865 21.9179 4.65425 21.8795 5.03985 21.7147C5.30865 21.6012 5.53265 21.502 5.54065 21.494C5.55825 21.4764 5.44945 21.2284 5.42225 21.2252C5.40945 21.2252 5.19185 21.3164 4.93585 21.43Z" fill="#FFFBFF" />
                        <path d="M5.14861 22.034C4.86861 22.0676 4.6382 22.0964 4.6334 22.1012C4.6302 22.1044 4.6494 22.1636 4.6766 22.2308L4.7246 22.3556H4.83821H4.95181L5.03021 22.5108L5.10701 22.666L5.03181 22.738L4.95661 22.8084L5.01741 22.9348C5.05101 23.0036 5.08781 23.0596 5.09741 23.0596C5.10861 23.0596 5.29101 22.8884 5.50221 22.6788C5.79341 22.3908 5.88781 22.2884 5.88781 22.258C5.88781 22.2372 5.86861 22.1636 5.84461 22.0948L5.79981 21.9716L5.72781 21.9732C5.68781 21.9748 5.42701 22.002 5.14861 22.034ZM5.49101 22.3028C5.46381 22.3364 5.41581 22.3892 5.38541 22.4196C5.33741 22.4644 5.32141 22.4708 5.29901 22.458C5.27341 22.442 5.20141 22.3284 5.19981 22.3044C5.19981 22.29 5.27661 22.274 5.41421 22.2596C5.47661 22.2532 5.53101 22.2468 5.53261 22.2452C5.53581 22.2452 5.51661 22.2708 5.49101 22.3028Z" fill="#FFFBFF" />
                        <path d="M26.312 22.0882C26.2288 22.1186 26.1328 22.197 26.064 22.2914C26.0016 22.3729 25.824 22.7057 25.824 22.7377C25.824 22.7457 25.8608 22.7681 25.9072 22.7905C25.9536 22.8113 26.1456 22.9249 26.3344 23.0401C26.5536 23.1745 26.696 23.2529 26.7232 23.2529C26.784 23.2529 26.872 23.1377 26.9808 22.9217C27.0592 22.7633 27.064 22.7441 27.0688 22.6129C27.0736 22.4977 27.0688 22.4625 27.0432 22.4097C26.9968 22.3201 26.8512 22.1922 26.7232 22.1298C26.6336 22.085 26.5968 22.077 26.488 22.0738C26.4176 22.0722 26.3392 22.0786 26.312 22.0882ZM26.6 22.4129C26.6448 22.4337 26.7088 22.4801 26.744 22.5169C26.7984 22.5713 26.8064 22.5905 26.8048 22.6465C26.8016 22.7137 26.7296 22.8913 26.7072 22.8817C26.6 22.8353 26.192 22.6065 26.192 22.5905C26.192 22.5809 26.2112 22.5329 26.2336 22.4865C26.3024 22.3489 26.4208 22.3249 26.6 22.4129Z" fill="#FFFBFF" />
                        <path d="M5.94393 22.7541C5.84793 22.8149 5.63993 22.9429 5.48473 23.0389L5.20312 23.2133L5.27513 23.3381C5.32153 23.4165 5.35673 23.4581 5.36953 23.4533C5.38073 23.4485 5.48633 23.3813 5.60313 23.3029C5.71993 23.2261 5.82553 23.1557 5.83513 23.1493C5.84633 23.1429 5.79993 23.2517 5.73433 23.3909C5.53593 23.8036 5.53593 23.8036 5.64793 23.9204C5.74713 24.0244 5.74393 24.026 6.15193 23.7556C6.47993 23.5381 6.62393 23.4325 6.62393 23.4117C6.62393 23.3861 6.50873 23.2197 6.49273 23.2197C6.48313 23.2197 6.35833 23.2917 6.21273 23.3797L5.94873 23.5413L6.02393 23.4085C6.15353 23.1765 6.27193 22.9285 6.27193 22.8885C6.27193 22.8453 6.15993 22.6453 6.13593 22.6453C6.12793 22.6437 6.04153 22.6933 5.94393 22.7541Z" fill="#FFFBFF" />
                        <path d="M25.4272 23.2912L25.328 23.4096L25.424 23.5856C25.5504 23.8192 25.5488 23.8128 25.4944 23.8128C25.4688 23.8128 25.408 23.8016 25.36 23.7888C25.312 23.776 25.2336 23.7648 25.1872 23.7648C25.112 23.7648 25.0944 23.7712 25.056 23.8128C25.0032 23.8704 24.9488 24 24.9696 24.0192C24.9776 24.0272 25.1024 24.0416 25.248 24.0512C25.7264 24.0864 25.6736 24.072 25.8768 24.224L26.056 24.3584L26.1168 24.2352C26.1488 24.1664 26.176 24.1024 26.176 24.0928C26.176 24.0832 26.152 24.0656 26.1216 24.056C26.0384 24.0256 25.9136 23.904 25.8336 23.776C25.7936 23.712 25.7136 23.5568 25.656 23.4288C25.5984 23.3008 25.544 23.1904 25.5376 23.184C25.5312 23.1776 25.4816 23.2256 25.4272 23.2912Z" fill="#FFFBFF" />
                        <path d="M6.88481 24.0609C6.73441 24.1649 6.61601 24.2561 6.39681 24.4401C6.24801 24.5633 6.20801 24.6065 6.20801 24.6369C6.20801 24.6945 6.23041 24.7281 6.30241 24.7873L6.36641 24.8369L6.78401 24.4993C7.01281 24.3137 7.20001 24.1537 7.20001 24.1441C7.20001 24.1345 7.17441 24.0945 7.14241 24.0577C7.06721 23.9649 7.02721 23.9649 6.88481 24.0609Z" fill="#FFFBFF" />
                        <path d="M24.776 24.2053C24.6768 24.2405 24.5568 24.3397 24.5008 24.4357C24.4496 24.5205 24.448 24.5253 24.448 24.7189C24.448 24.8965 24.4528 24.9253 24.4864 24.9925C24.552 25.1221 24.7008 25.2405 24.8736 25.2997C24.9808 25.3381 25.1744 25.3429 25.2528 25.3109C25.392 25.2517 25.4832 25.1045 25.4992 24.9141C25.504 24.8533 25.5136 24.8037 25.5184 24.8037C25.5232 24.8053 25.5456 24.8149 25.568 24.8277C25.5904 24.8405 25.616 24.8501 25.624 24.8517C25.6384 24.8517 25.736 24.7077 25.7248 24.7013C25.7216 24.6997 25.624 24.6165 25.5056 24.5173C25.2992 24.3413 25.2912 24.3365 25.264 24.3653C25.1296 24.5093 24.9584 24.7109 24.9632 24.7221C24.9696 24.7397 25.1184 24.8677 25.1328 24.8677C25.1392 24.8677 25.168 24.8309 25.1968 24.7861C25.2368 24.7237 25.2576 24.7061 25.2848 24.7109C25.3168 24.7157 25.32 24.7253 25.32 24.8037C25.32 24.9717 25.2144 25.0565 25.0416 25.0293C24.8272 24.9941 24.688 24.8565 24.688 24.6805C24.688 24.5397 24.76 24.4693 24.9296 24.4437C24.9984 24.4341 25.0096 24.4245 25.0784 24.3301C25.1184 24.2741 25.152 24.2213 25.152 24.2133C25.152 24.1765 24.8752 24.1701 24.776 24.2053Z" fill="#FFFBFF" />
                        <path d="M7.07998 24.5535C6.50078 25.0975 6.53918 25.0575 6.56478 25.0975C6.57758 25.1167 6.62078 25.1679 6.65918 25.2111L6.72958 25.2895L6.95678 25.0687C7.08158 24.9487 7.18398 24.8575 7.18398 24.8687C7.18398 24.8799 7.14398 25.0063 7.09598 25.1487C7.02878 25.3471 7.00798 25.4319 7.00798 25.5023C7.00798 25.5951 7.00798 25.5967 7.09758 25.6799C7.14718 25.7262 7.19358 25.7646 7.20158 25.7646C7.20958 25.7646 7.38878 25.5935 7.60158 25.3839L7.98718 25.0047L7.89278 24.9023L7.79838 24.7983L7.61438 24.9743C7.30878 25.2655 7.32798 25.2751 7.45598 24.8911L7.56798 24.5583L7.46718 24.4559C7.41278 24.3999 7.35678 24.3487 7.34398 24.3407C7.32638 24.3311 7.25918 24.3839 7.07998 24.5535Z" fill="#FFFBFF" />
                        <path d="M23.9359 25.09C23.7935 25.1364 23.6735 25.2404 23.6127 25.3716C23.5823 25.4388 23.5759 25.4788 23.5759 25.6132C23.5759 25.7715 23.5775 25.7795 23.6399 25.9011C23.7503 26.1171 23.9295 26.2275 24.1695 26.2275C24.2687 26.2275 24.3055 26.2195 24.3807 26.1827C24.4895 26.1299 24.6223 26.0019 24.6687 25.9043C24.7167 25.8067 24.7183 25.594 24.6719 25.4724C24.6287 25.3588 24.5215 25.2244 24.4095 25.1476L24.3167 25.0836L24.1455 25.0804C24.0527 25.0788 23.9583 25.082 23.9359 25.09ZM24.1791 25.3748C24.2479 25.4084 24.3375 25.4932 24.3871 25.57C24.4991 25.7491 24.4031 25.9555 24.2063 25.9555C24.1215 25.9555 24.0511 25.9123 23.9391 25.7891C23.8063 25.6452 23.7903 25.5444 23.8847 25.442C23.9807 25.3348 24.0639 25.3156 24.1791 25.3748Z" fill="#FFFBFF" />
                        <path d="M7.94886 25.3014C7.84966 25.3526 7.83686 25.3862 7.84326 25.5766L7.84806 25.7414L7.94886 25.8998C8.03046 26.0294 8.04806 26.071 8.04486 26.1158C8.04166 26.159 8.03206 26.1734 8.00486 26.1766C7.96166 26.183 7.88966 26.1462 7.81606 26.0822C7.75526 26.0294 7.74406 25.9686 7.77606 25.8822C7.79206 25.8422 7.78726 25.8326 7.71686 25.7606C7.67526 25.719 7.62886 25.6838 7.61286 25.6838C7.59526 25.6838 7.56326 25.7142 7.53606 25.759C7.44166 25.9062 7.48166 26.0646 7.65606 26.2358C7.77766 26.3558 7.88006 26.4086 8.01126 26.4166C8.09606 26.423 8.12166 26.4182 8.18246 26.3814C8.30086 26.3126 8.32006 26.2758 8.32006 26.1206C8.32006 25.9718 8.30726 25.9366 8.18246 25.751C8.12326 25.6614 8.11206 25.6326 8.11526 25.5798C8.12006 25.519 8.12326 25.5158 8.17606 25.511C8.21766 25.5078 8.24806 25.5174 8.29126 25.551C8.34726 25.5926 8.35046 25.6006 8.35206 25.687C8.35206 25.775 8.35366 25.7798 8.43686 25.8582C8.48166 25.903 8.52966 25.9398 8.53926 25.9398C8.60966 25.9414 8.63366 25.6678 8.57446 25.5446C8.53606 25.4646 8.41126 25.3478 8.31526 25.3014C8.22086 25.255 8.03366 25.255 7.94886 25.3014Z" fill="#FFFBFF" />
                        <path d="M8.75508 25.8329L8.68788 25.9017L8.79988 26.0121C8.86228 26.0729 8.91188 26.1289 8.91188 26.1337C8.91188 26.1401 8.80468 26.2937 8.67188 26.4761C8.54068 26.6569 8.43188 26.8121 8.43188 26.8185C8.43188 26.8249 8.48308 26.8665 8.54388 26.9081C8.64148 26.9753 8.65908 26.9833 8.67828 26.9625C8.68948 26.9497 8.80948 26.7977 8.94388 26.6233C9.17748 26.3193 9.18868 26.3081 9.22229 26.3289C9.32149 26.3945 9.42069 26.4521 9.43349 26.4521C9.44949 26.4521 9.55989 26.2793 9.55029 26.2697C9.52949 26.2537 8.83028 25.7641 8.82708 25.7641C8.82388 25.7641 8.79188 25.7945 8.75508 25.8329Z" fill="#FFFBFF" />
                        <path d="M22.8048 26.0396C22.7232 26.1036 22.7072 26.1244 22.72 26.1452C22.7536 26.2044 23.3536 26.9708 23.3696 26.9756C23.3856 26.9804 23.984 26.4908 24.0064 26.4556C24.0096 26.4492 23.9808 26.4044 23.9392 26.3596L23.864 26.2748L23.768 26.3516C23.7152 26.3948 23.624 26.4668 23.5664 26.5116L23.4608 26.5948L23.2032 26.294C23.0608 26.1276 22.9344 25.9852 22.9232 25.9756C22.9088 25.9644 22.8768 25.9804 22.8048 26.0396Z" fill="#FFFBFF" />
                        <path d="M9.46403 26.6873C9.09283 27.2697 9.08483 27.2857 9.15843 27.3433C9.21763 27.3913 9.32803 27.4345 9.34403 27.4185C9.35203 27.4105 9.48803 27.2025 9.64803 26.9561L9.93763 26.5081L9.81283 26.4473C9.74563 26.4153 9.68163 26.3881 9.67203 26.3881C9.66243 26.3881 9.56963 26.5225 9.46403 26.6873Z" fill="#FFFBFF" />
                        <path d="M22.1602 26.4376C22.0514 26.4968 21.9298 26.6151 21.8882 26.7015C21.8626 26.7527 21.8562 26.7991 21.8562 26.9271C21.8562 27.0743 21.8594 27.0951 21.9074 27.1879C21.9666 27.3063 22.1058 27.4535 22.2098 27.5031C22.4114 27.6023 22.7682 27.4919 22.9186 27.2871C22.9666 27.2199 22.9682 27.2103 22.973 27.0327C22.9794 26.8535 22.9778 26.8471 22.9282 26.7447C22.8674 26.6215 22.7282 26.476 22.6226 26.4232C22.5618 26.3944 22.5218 26.388 22.3986 26.388C22.261 26.388 22.2402 26.3928 22.1602 26.4376ZM22.5058 26.6999C22.613 26.7623 22.7042 26.9207 22.7042 27.0471C22.7042 27.1847 22.5794 27.2967 22.4514 27.2743C22.3106 27.2487 22.2162 27.1639 22.1586 27.0103C22.1138 26.8935 22.1186 26.8023 22.1714 26.7383C22.2562 26.6375 22.373 26.6247 22.5058 26.6999Z" fill="#FFFBFF" />
                        <path d="M9.99999 26.7116C9.97439 26.7468 9.95199 26.7852 9.95199 26.7948C9.95199 26.8044 10.0096 26.8428 10.08 26.8812C10.1504 26.9196 10.208 26.9532 10.208 26.9564C10.208 26.9612 10.1152 27.1324 9.99999 27.3372C9.88639 27.5436 9.79199 27.718 9.79199 27.726C9.79199 27.734 9.84319 27.7676 9.90399 27.7996L10.0144 27.8604L10.1008 27.7116C10.1488 27.6316 10.2432 27.4668 10.312 27.3484C10.3808 27.23 10.4384 27.1292 10.4416 27.1276C10.4432 27.1244 10.5088 27.1516 10.5856 27.1868C10.6624 27.2236 10.7344 27.2524 10.7472 27.2524C10.7728 27.2524 10.816 27.1596 10.816 27.1036C10.816 27.0732 10.7808 27.0428 10.6448 26.9532C10.416 26.8028 10.1296 26.6444 10.0848 26.6444C10.0608 26.6444 10.032 26.6668 9.99999 26.7116Z" fill="#FFFBFF" />
                        <path d="M21.4367 26.9024C21.3679 26.9296 21.3119 26.9584 21.3119 26.968C21.3119 26.976 21.3775 27.1088 21.4575 27.2608C21.5375 27.4144 21.5967 27.5392 21.5887 27.5392C21.5823 27.5392 21.4527 27.4528 21.3007 27.3472C20.9935 27.1344 20.9791 27.128 20.8479 27.1952C20.8047 27.2176 20.7599 27.2352 20.7487 27.2352C20.6767 27.2368 20.6847 27.2608 20.9311 27.7536C21.1151 28.1216 21.1823 28.2432 21.2047 28.2432C21.2431 28.2432 21.3439 28.2 21.3791 28.168C21.3951 28.1536 21.4079 28.12 21.4079 28.0912C21.4079 28.0432 21.3231 27.8624 21.1999 27.6448L21.1471 27.552L21.2095 27.5904C21.2431 27.6128 21.3903 27.7072 21.5343 27.8016L21.7967 27.9712L21.8623 27.9328C21.8991 27.912 21.9583 27.88 21.9967 27.8608L22.0639 27.8256L21.8335 27.3664C21.7055 27.1136 21.5919 26.896 21.5807 26.88C21.5615 26.856 21.5503 26.8576 21.4367 26.9024Z" fill="#FFFBFF" />
                        <path d="M10.8736 27.1913C10.736 27.4249 10.592 27.8201 10.592 27.9593C10.592 28.0697 10.6496 28.1641 10.7664 28.2505C10.8768 28.3321 10.9872 28.3721 11.1024 28.3721C11.1824 28.3721 11.208 28.3641 11.2736 28.3193C11.3744 28.2521 11.488 28.1097 11.5744 27.9401C11.6464 27.7993 11.744 27.5433 11.744 27.4937C11.744 27.4713 11.7136 27.4537 11.6288 27.4217C11.5648 27.3993 11.504 27.3801 11.496 27.3801C11.4864 27.3801 11.4624 27.4281 11.4416 27.4873C11.3824 27.6537 11.2256 27.9561 11.1584 28.0345C11.1008 28.1001 11.096 28.1033 11.0272 28.0953C10.9408 28.0857 10.8736 28.0393 10.8672 27.9849C10.8608 27.9353 10.936 27.7369 11.0704 27.4489C11.1232 27.3337 11.168 27.2313 11.168 27.2217C11.168 27.1993 11.008 27.1241 10.9568 27.1241C10.9232 27.1241 10.9056 27.1385 10.8736 27.1913Z" fill="#FFFBFF" />
                        <path d="M20.3007 27.4084C20.2751 27.4244 20.2559 27.4436 20.2559 27.4532C20.2559 27.4612 20.2815 27.5444 20.3119 27.6356C20.3423 27.7268 20.3631 27.8068 20.3567 27.8132C20.3487 27.8196 20.2767 27.8516 20.1935 27.8836C20.0879 27.9236 20.0383 27.9348 20.0319 27.922C20.0255 27.9124 19.9967 27.8356 19.9679 27.7524L19.9151 27.6004L19.8591 27.61C19.7679 27.6244 19.6559 27.6868 19.6511 27.7268C19.6479 27.754 20.0015 28.6788 20.0255 28.706C20.0351 28.7172 20.2911 28.6372 20.2975 28.6196C20.3007 28.6116 20.2687 28.514 20.2255 28.4036C20.1823 28.2932 20.1519 28.1988 20.1567 28.1924C20.1791 28.1684 20.4703 28.0676 20.4815 28.0788C20.4863 28.0852 20.5215 28.1748 20.5583 28.2756C20.5951 28.3764 20.6319 28.4644 20.6383 28.4724C20.6447 28.4788 20.7055 28.4612 20.7727 28.434C20.9183 28.3748 20.9183 28.3764 20.8463 28.1604C20.7535 27.882 20.5999 27.5412 20.5167 27.4308C20.4831 27.386 20.4687 27.3796 20.4111 27.3812C20.3743 27.3812 20.3247 27.394 20.3007 27.4084Z" fill="#FFFBFF" />
                        <path d="M11.792 27.6141C11.7728 27.6717 11.7632 27.7245 11.7696 27.7309C11.7776 27.7373 11.8432 27.7565 11.9168 27.7725C11.9888 27.7885 12.048 27.8061 12.048 27.8109C12.048 27.8157 11.9872 27.9949 11.912 28.2093C11.7872 28.5693 11.7648 28.6445 11.7824 28.6445C11.7872 28.6445 11.8464 28.6653 11.9168 28.6909L12.0432 28.7373L12.184 28.3357C12.2608 28.1133 12.3264 27.9309 12.328 27.9277C12.3312 27.9245 12.392 27.9373 12.464 27.9565C12.536 27.9757 12.608 27.9885 12.6224 27.9853C12.64 27.9821 12.6528 27.9517 12.664 27.8845L12.6816 27.7885L12.2752 27.6477C12.0512 27.5709 11.8592 27.5085 11.848 27.5085C11.8352 27.5085 11.8112 27.5549 11.792 27.6141Z" fill="#FFFBFF" />
                        <path d="M12.7695 27.8944C12.6863 28.2096 12.5439 28.8 12.5439 28.8352C12.5439 28.872 12.5551 28.8848 12.6207 28.912C12.7631 28.9728 13.1935 29.0752 13.3039 29.0752C13.3615 29.0752 13.3759 29.0512 13.3759 28.944C13.3759 28.8928 13.3679 28.88 13.3263 28.8576C13.2639 28.8256 12.9871 28.7552 12.9247 28.7552H12.8767L12.8879 28.6544C12.8943 28.6 12.9023 28.5536 12.9039 28.5504C12.9071 28.5472 13.0191 28.5664 13.1535 28.5936C13.2879 28.6208 13.4031 28.6384 13.4079 28.632C13.4255 28.6112 13.4559 28.4128 13.4431 28.4016C13.4367 28.3968 13.3279 28.3712 13.2031 28.3472L12.9727 28.3024L12.9823 28.2544C12.9871 28.2288 12.9919 28.1984 12.9919 28.1888C12.9935 28.1344 13.0175 28.1312 13.1535 28.1712C13.3183 28.2208 13.5087 28.24 13.5439 28.2112C13.5599 28.1984 13.5679 28.1616 13.5679 28.1008V28.0096L13.1887 27.9184C12.9791 27.8672 12.8031 27.8272 12.7983 27.8272C12.7919 27.8272 12.7791 27.8576 12.7695 27.8944Z" fill="#FFFBFF" />
                        <path d="M18.9601 27.8582C18.8561 27.9014 18.7601 27.991 18.7089 28.0966C18.6673 28.1798 18.6641 28.2022 18.6641 28.3717C18.6641 28.5365 18.6689 28.5653 18.7057 28.6453C18.7601 28.7621 18.8417 28.8501 18.9393 28.8997C19.0065 28.9349 19.0417 28.9397 19.2081 28.9445C19.3857 28.9493 19.4065 28.9461 19.4721 28.9109C19.6049 28.8405 19.7121 28.6517 19.7121 28.4885C19.7121 28.4213 19.7089 28.4165 19.6753 28.4261C19.6545 28.4309 19.5969 28.4389 19.5473 28.4453C19.4593 28.4549 19.4561 28.4581 19.4561 28.5029C19.4561 28.5701 19.4161 28.6549 19.3729 28.6773C19.3089 28.7125 19.2129 28.7221 19.1601 28.6997C19.0081 28.6373 18.8945 28.2918 18.9857 28.1702C19.0465 28.087 19.0993 28.0598 19.1953 28.0614C19.2721 28.0614 19.2897 28.0678 19.3185 28.1046C19.3585 28.1558 19.4017 28.159 19.5089 28.1206C19.5729 28.0982 19.5841 28.087 19.5841 28.0518C19.5841 27.9958 19.5265 27.911 19.4577 27.8646C19.4081 27.831 19.3857 27.8278 19.2177 27.8294C19.0769 27.8294 19.0145 27.8374 18.9601 27.8582Z" fill="#FFFBFF" />
                        <path d="M18.1599 28.0533C18.1119 28.0613 17.9823 28.0901 17.8703 28.1157C17.7583 28.1429 17.6527 28.1637 17.6335 28.1637C17.6127 28.1637 17.5999 28.1733 17.5999 28.1909C17.5983 28.2437 17.7807 29.2276 17.7935 29.242C17.8063 29.2564 18.6047 29.1284 18.6287 29.1092C18.6383 29.0996 18.6191 28.954 18.5983 28.882C18.5919 28.8596 18.5615 28.8628 18.3247 28.9092C18.1775 28.9396 18.0495 28.9636 18.0399 28.9636C18.0303 28.9636 18.0143 28.9236 18.0047 28.874C17.9903 28.7908 17.9919 28.7828 18.0239 28.762C18.0623 28.7364 18.2287 28.698 18.3727 28.682L18.4639 28.6708V28.5717C18.4639 28.4949 18.4575 28.4693 18.4383 28.4613C18.3903 28.4421 18.2639 28.4517 18.1311 28.4837C17.9359 28.5301 17.9359 28.5301 17.9359 28.4373V28.3605L18.1839 28.3077L18.4319 28.2549V28.1605C18.4319 28.0741 18.4287 28.0661 18.3903 28.0517C18.3423 28.0325 18.2815 28.0341 18.1599 28.0533Z" fill="#FFFBFF" />
                        <path d="M14.3329 28.227C14.2593 28.2734 14.1569 28.3966 14.1057 28.4958C14.0865 28.5358 14.0801 28.5966 14.0801 28.7726C14.0801 29.0318 14.0961 29.0798 14.2113 29.179C14.3265 29.2782 14.4369 29.3214 14.5953 29.3294C14.7169 29.3358 14.7425 29.3326 14.8225 29.2958C14.9425 29.2414 15.0609 29.1262 15.1201 29.0078C15.1633 28.9198 15.1681 28.8974 15.1681 28.755C15.1681 28.5598 15.1329 28.4574 15.0273 28.339C14.9105 28.2094 14.8337 28.1806 14.5985 28.1806C14.4129 28.1806 14.4033 28.1822 14.3329 28.227ZM14.7633 28.4526C14.8385 28.4974 14.8689 28.5694 14.8705 28.7022C14.8705 28.7982 14.8641 28.8302 14.8241 28.9086C14.7681 29.0174 14.7169 29.059 14.6289 29.0718C14.5377 29.0846 14.4561 29.0526 14.4049 28.9854C14.3681 28.9374 14.3601 28.9086 14.3553 28.811C14.3473 28.6574 14.3809 28.5534 14.4657 28.4782C14.5217 28.4254 14.5377 28.4206 14.6209 28.4206C14.6833 28.4206 14.7281 28.4302 14.7633 28.4526Z" fill="#FFFBFF" />
                        <path d="M16.9602 28.2377C16.8322 28.2585 16.701 28.2745 16.669 28.2761H16.6082V28.3977V28.5192L16.661 28.5112C16.6882 28.5048 16.7554 28.4968 16.8098 28.4904L16.9074 28.4808L16.917 28.5416C16.9218 28.5768 16.9378 28.7672 16.9538 28.9672L16.9826 29.332H17.1394H17.2962L17.2882 29.2632C17.2754 29.1608 17.2322 28.556 17.2322 28.492V28.4361H17.3682H17.5058L17.501 28.3193L17.4962 28.2041L17.3442 28.2009C17.2482 28.1993 17.1074 28.2121 16.9602 28.2377Z" fill="#FFFBFF" />
                        <path d="M15.3378 28.6715C15.333 28.8907 15.3234 29.1355 15.3186 29.2155L15.3074 29.3643H15.4626H15.6162V29.1563V28.9483H15.8402H16.0642V28.8363V28.7243H15.8562H15.6482V28.6107V28.4971L15.869 28.5051C15.989 28.5099 16.1026 28.5163 16.1202 28.5195C16.149 28.5243 16.1522 28.5147 16.157 28.3995L16.1618 28.2763H15.7554H15.349L15.3378 28.6715Z" fill="#FFFBFF" />
                    </svg>