<svg width="28" height="28" viewBox="0 0 28 28" fill="none" xmlns="http://www.w3.org/2000/svg">
<g id="akar-icons:linkedin-box-fill">
<path id="Vector" fill-rule="evenodd" clip-rule="evenodd" d="M4.28571 5.95662C4.28571 5.51346 4.46175 5.08846 4.7751 4.77511C5.08846 4.46175 5.51346 4.28571 5.95661 4.28571H22.613C22.8326 4.28535 23.0501 4.32831 23.2531 4.41213C23.4561 4.49595 23.6406 4.61899 23.7959 4.7742C23.9513 4.9294 24.0745 5.11373 24.1586 5.31663C24.2426 5.51952 24.2858 5.737 24.2857 5.95662V22.613C24.2859 22.8326 24.2429 23.0502 24.1589 23.2532C24.075 23.4562 23.9519 23.6406 23.7966 23.796C23.6413 23.9513 23.457 24.0746 23.254 24.1586C23.0511 24.2426 22.8335 24.2858 22.6139 24.2857H5.95661C5.73711 24.2857 5.51976 24.2425 5.31698 24.1584C5.11419 24.0744 4.92995 23.9512 4.77478 23.796C4.61961 23.6407 4.49655 23.4564 4.41264 23.2536C4.32872 23.0508 4.28559 22.8334 4.28571 22.6139V5.95662ZM12.2021 11.9112H14.9103V13.2712C15.3012 12.4893 16.3012 11.7857 17.8039 11.7857C20.6848 11.7857 21.3675 13.343 21.3675 16.2003V21.493H18.4521V16.8512C18.4521 15.2239 18.0612 14.3057 17.0684 14.3057C15.6912 14.3057 15.1184 15.2957 15.1184 16.8512V21.493H12.2021V11.9112ZM7.20207 21.3684H10.1184V11.7857H7.20207V21.3684ZM10.5357 8.66025C10.5412 8.90996 10.4968 9.15824 10.405 9.39054C10.3133 9.62284 10.176 9.83447 10.0014 10.013C9.82672 10.1916 9.61816 10.3334 9.38794 10.4303C9.15772 10.5271 8.91047 10.577 8.66071 10.577C8.41094 10.577 8.1637 10.5271 7.93347 10.4303C7.70325 10.3334 7.49469 10.1916 7.32004 10.013C7.14539 9.83447 7.00815 9.62284 6.9164 9.39054C6.82464 9.15824 6.78021 8.90996 6.78571 8.66025C6.7965 8.17012 6.99878 7.7037 7.34924 7.36088C7.69969 7.01805 8.17045 6.82609 8.66071 6.82609C9.15096 6.82609 9.62172 7.01805 9.97217 7.36088C10.3226 7.7037 10.5249 8.17012 10.5357 8.66025Z" fill="#FFFBFF"/>
</g>
</svg>
