<svg width="28" height="28" viewBox="0 0 28 28" fill="none" xmlns="http://www.w3.org/2000/svg">
<g id="mdi:gmail">
<path id="Vector" d="M23.1428 20.8571H20.8571V10.8571L14 15.1429L7.14284 10.8571V20.8571H4.85713V7.14286H6.22855L14 12L21.7714 7.14286H23.1428M23.1428 4.85715H4.85713C3.58855 4.85715 2.57141 5.87429 2.57141 7.14286V20.8571C2.57141 21.4634 2.81223 22.0447 3.24088 22.4734C3.66954 22.902 4.25092 23.1429 4.85713 23.1429H23.1428C23.7491 23.1429 24.3304 22.902 24.7591 22.4734C25.1877 22.0447 25.4286 21.4634 25.4286 20.8571V7.14286C25.4286 6.53665 25.1877 5.95527 24.7591 5.52662C24.3304 5.09796 23.7491 4.85715 23.1428 4.85715Z" fill="#FFFBFF"/>
</g>
</svg>
