<svg xmlns="http://www.w3.org/2000/svg" width="591" height="252" viewBox="0 0 591 252" fill="none">
  <path fill-rule="evenodd" clip-rule="evenodd" d="M556.343 1H34.6569V251H586C588.209 251 590 249.209 590 247V34.6569C590 33.596 589.579 32.5786 588.828 31.8284L559.172 2.17157C558.421 1.42142 557.404 1 556.343 1Z" fill="#030A17" fill-opacity="0.8"/>
  <path fill-rule="evenodd" clip-rule="evenodd" d="M556.343 1H34.6569V251H586C588.209 251 590 249.209 590 247V34.6569C590 33.596 589.579 32.5786 588.828 31.8284L559.172 2.17157C558.421 1.42142 557.404 1 556.343 1Z" fill="#FB932E" fill-opacity="0.1"/>
  <path d="M2.1716 220.172L31.8285 249.828C32.5786 250.579 33.596 251 34.6569 251V1H4.99999C4.27505 1 3.59514 1.19285 3.00879 1.53005C2.25504 1.96352 1.65588 2.63552 1.31434 3.44302C1.11193 3.92157 1 4.44772 1 5L1.00003 217.343C1.00003 217.874 1.10539 218.393 1.30451 218.874C1.50364 219.355 1.79653 219.797 2.1716 220.172Z" fill="#030A17" fill-opacity="0.8"/>
  <path d="M2.1716 220.172L31.8285 249.828C32.5786 250.579 33.596 251 34.6569 251V1H4.99999C4.27505 1 3.59514 1.19285 3.00879 1.53005C2.25504 1.96352 1.65588 2.63552 1.31434 3.44302C1.11193 3.92157 1 4.44772 1 5L1.00003 217.343C1.00003 217.874 1.10539 218.393 1.30451 218.874C1.50364 219.355 1.79653 219.797 2.1716 220.172Z" fill="#FB932E" fill-opacity="0.3"/>
  <path d="M31.8285 249.828L2.1716 220.172M31.8285 249.828C32.5786 250.579 33.596 251 34.6569 251M31.8285 249.828V249.828C32.5786 250.579 33.596 251 34.6569 251V251M2.1716 220.172V220.172C1.42147 219.421 1.00001 218.404 1.00003 217.343V217.343M2.1716 220.172C1.79653 219.797 1.50364 219.355 1.30451 218.874C1.10539 218.393 1.00003 217.874 1.00003 217.343M1.00003 217.343L1 5M1 5V5C1 2.79087 2.79086 1 4.99999 1V1M1 5C1 4.44772 1.11193 3.92157 1.31434 3.44302C1.65588 2.63552 2.25504 1.96352 3.00879 1.53005C3.59514 1.19285 4.27505 1 4.99999 1M4.99999 1H34.6569M556.343 1C557.404 1 558.421 1.42142 559.172 2.17157M556.343 1V1C557.404 1 558.421 1.42143 559.172 2.17157V2.17157M556.343 1H34.6569M559.172 2.17157L588.828 31.8284M588.828 31.8284C589.579 32.5786 590 33.596 590 34.6569M588.828 31.8284V31.8284C589.579 32.5786 590 33.596 590 34.6569V34.6569M590 34.6569V247M590 247C590 249.209 588.209 251 586 251M590 247V247C590 249.209 588.209 251 586 251V251M586 251H34.6569M34.6569 251V1" stroke="#F0B537" stroke-width="2"/>
</svg>